<?xml version="1.0" encoding="utf-8"?>
<!-- Generator: Adobe Illustrator 23.0.1, SVG Export Plug-In . SVG Version: 6.00 Build 0)  -->
<svg version="1.1" id="Layer_1" xmlns="http://www.w3.org/2000/svg" xmlns:xlink="http://www.w3.org/1999/xlink" x="0px" y="0px"
	 viewBox="0 0 228 113" style="enable-background:new 0 0 228 113;" xml:space="preserve">
<style type="text/css">
	.st0{fill:#D7D7EF;}
	.st1{fill:#4C4680;}
	.st2{fill:none;stroke:#4C4680;stroke-width:3.5013;stroke-linecap:round;stroke-linejoin:round;stroke-miterlimit:10;}
</style>
<title>Assets</title>
<g>
	<path class="st0" d="M210.6,113H17.4c-9.6,0-17.3-7.7-17.3-17.3V17.3C0.1,7.8,7.9,0,17.4,0h193.1c9.6,0,17.3,7.7,17.3,17.3v78.3
		C227.9,105.2,220.1,113,210.6,113z"/>
	<g>
		<g>
			<path class="st1" d="M31.4,70.5h-5.8l-1,2.9h-3l5.3-14.3h3.3l5.3,14.3h-3L31.4,70.5z M30.6,68.3l-2.1-6.1l-2.1,6.1H30.6z"/>
			<path class="st1" d="M44.4,62.6c0.7,0.4,1.2,1.1,1.5,1.8v-6.2h2.9v15.1h-2.9V71c-0.3,0.8-0.8,1.4-1.5,1.8
				c-0.7,0.5-1.5,0.7-2.4,0.7c-1,0-1.8-0.2-2.6-0.7c-0.8-0.5-1.4-1.1-1.8-2C37.2,70,37,68.9,37,67.7c0-1.2,0.2-2.2,0.6-3.1
				c0.4-0.9,1-1.5,1.8-2c0.8-0.5,1.6-0.7,2.6-0.7C42.9,61.9,43.7,62.2,44.4,62.6z M40.7,65.3c-0.5,0.6-0.8,1.4-0.8,2.4
				c0,1,0.3,1.8,0.8,2.4S42,71,42.9,71c0.9,0,1.6-0.3,2.2-0.9c0.6-0.6,0.8-1.4,0.8-2.4c0-1-0.3-1.8-0.8-2.4
				c-0.6-0.6-1.3-0.9-2.2-0.9C42,64.5,41.2,64.7,40.7,65.3z"/>
			<path class="st1" d="M58.7,62.6c0.7,0.4,1.2,1.1,1.5,1.8v-6.2h2.9v15.1h-2.9V71c-0.3,0.8-0.8,1.4-1.5,1.8
				c-0.7,0.5-1.5,0.7-2.4,0.7c-1,0-1.8-0.2-2.6-0.7c-0.8-0.5-1.4-1.1-1.8-2c-0.4-0.9-0.6-1.9-0.6-3.1c0-1.2,0.2-2.2,0.6-3.1
				c0.4-0.9,1-1.5,1.8-2c0.8-0.5,1.6-0.7,2.6-0.7C57.2,61.9,58.1,62.2,58.7,62.6z M55,65.3c-0.5,0.6-0.8,1.4-0.8,2.4
				c0,1,0.3,1.8,0.8,2.4s1.3,0.9,2.2,0.9c0.9,0,1.6-0.3,2.2-0.9c0.6-0.6,0.8-1.4,0.8-2.4c0-1-0.3-1.8-0.8-2.4
				c-0.6-0.6-1.3-0.9-2.2-0.9C56.3,64.5,55.6,64.7,55,65.3z"/>
			<path class="st1" d="M73.1,62.1l3.1,7.7l2.9-7.7h3.2l-6.9,16.7h-3.2l2.6-5.7l-4.8-11H73.1z"/>
			<path class="st1" d="M92.3,62.6c0.9,0.5,1.6,1.1,2.1,2s0.8,1.9,0.8,3.1c0,1.2-0.3,2.2-0.8,3.1c-0.5,0.9-1.2,1.5-2.1,2
				s-1.9,0.7-3,0.7s-2.1-0.2-3-0.7s-1.6-1.1-2.1-2c-0.5-0.9-0.8-1.9-0.8-3.1c0-1.2,0.3-2.2,0.8-3.1c0.5-0.9,1.2-1.5,2.1-2
				c0.9-0.5,1.9-0.7,3-0.7S91.4,62.2,92.3,62.6z M87.3,65.3c-0.6,0.6-0.8,1.4-0.8,2.5c0,1.1,0.3,1.9,0.8,2.5c0.6,0.6,1.2,0.8,2,0.8
				s1.5-0.3,2-0.8c0.6-0.6,0.8-1.4,0.8-2.5c0-1.1-0.3-1.9-0.8-2.5c-0.6-0.6-1.2-0.8-2-0.8S87.8,64.7,87.3,65.3z"/>
			<path class="st1" d="M108.5,62.1v11.3h-2.9v-2.3c-0.3,0.8-0.8,1.4-1.5,1.8c-0.7,0.4-1.5,0.6-2.4,0.6c-1.3,0-2.4-0.4-3.1-1.3
				c-0.8-0.9-1.2-2.1-1.2-3.6v-6.6h2.9v6.3c0,0.9,0.2,1.6,0.7,2.1c0.5,0.5,1.1,0.7,1.9,0.7c0.8,0,1.5-0.3,2-0.8s0.7-1.3,0.7-2.3v-6
				H108.5z"/>
			<path class="st1" d="M116.2,62.5c0.7-0.4,1.5-0.6,2.3-0.6V65h-0.8c-2.1,0-3.2,1-3.2,2.9v5.5h-2.9V62.1h2.9v2.2
				C114.9,63.5,115.5,63,116.2,62.5z"/>
			<path class="st1" d="M133.8,62.6c0.9,0.5,1.6,1.1,2.1,2s0.8,1.9,0.8,3.1c0,1.2-0.3,2.2-0.8,3.1c-0.5,0.9-1.2,1.5-2.1,2
				s-1.9,0.7-3,0.7s-2.1-0.2-3-0.7s-1.6-1.1-2.1-2c-0.5-0.9-0.8-1.9-0.8-3.1c0-1.2,0.3-2.2,0.8-3.1c0.5-0.9,1.2-1.5,2.1-2
				c0.9-0.5,1.9-0.7,3-0.7S132.9,62.2,133.8,62.6z M128.8,65.3c-0.6,0.6-0.8,1.4-0.8,2.5c0,1.1,0.3,1.9,0.8,2.5
				c0.6,0.6,1.2,0.8,2,0.8s1.5-0.3,2-0.8c0.6-0.6,0.8-1.4,0.8-2.5c0-1.1-0.3-1.9-0.8-2.5c-0.6-0.6-1.2-0.8-2-0.8
				S129.3,64.7,128.8,65.3z"/>
			<path class="st1" d="M155.4,62.1l-3,11.3h-3.2l-2.4-8.2l-2.5,8.2H141l-3-11.3h2.9l1.8,8.7l2.5-8.7h3l2.5,8.7l1.9-8.7H155.4z"/>
			<path class="st1" d="M167.2,63.2c0.8,0.9,1.2,2.1,1.2,3.6v6.6h-2.9v-6.3c0-0.9-0.2-1.6-0.7-2.1c-0.5-0.5-1.1-0.7-1.9-0.7
				c-0.8,0-1.5,0.3-2,0.8c-0.5,0.5-0.7,1.3-0.7,2.3v6h-2.9V62.1h2.9v2.3c0.3-0.8,0.8-1.4,1.5-1.8c0.7-0.4,1.5-0.6,2.4-0.6
				C165.4,61.9,166.4,62.3,167.2,63.2z"/>
			<path class="st1" d="M31.4,84.4c1,0.8,1.6,1.9,1.8,3.2h-3c-0.1-0.6-0.4-1.1-0.8-1.4c-0.4-0.3-1-0.5-1.7-0.5
				c-0.8,0-1.4,0.3-1.9,0.8C25.2,87.1,25,88,25,89.1s0.3,1.9,0.8,2.5s1.1,0.8,1.9,0.8c0.7,0,1.2-0.2,1.7-0.5
				c0.4-0.3,0.7-0.8,0.8-1.4h3c-0.2,1.4-0.9,2.4-1.8,3.2c-1,0.8-2.2,1.2-3.6,1.2c-1.1,0-2.1-0.2-2.9-0.7c-0.9-0.5-1.5-1.1-2-2
				c-0.5-0.9-0.7-1.9-0.7-3.1s0.2-2.2,0.7-3.1c0.5-0.9,1.1-1.5,2-2c0.9-0.5,1.8-0.7,2.9-0.7C29.2,83.3,30.4,83.6,31.4,84.4z"/>
			<path class="st1" d="M42.6,83.9c0.7,0.5,1.2,1.1,1.5,1.8v-2.4H47v11.3h-2.9v-2.4c-0.3,0.8-0.8,1.4-1.5,1.8s-1.5,0.7-2.5,0.7
				c-1,0-1.8-0.2-2.6-0.7c-0.8-0.5-1.4-1.1-1.8-2c-0.4-0.9-0.6-1.9-0.6-3.1s0.2-2.2,0.6-3.1c0.4-0.9,1-1.5,1.8-2
				c0.8-0.5,1.6-0.7,2.6-0.7C41.1,83.3,42,83.5,42.6,83.9z M38.9,86.6c-0.5,0.6-0.8,1.4-0.8,2.4c0,1,0.3,1.8,0.8,2.4
				s1.3,0.9,2.2,0.9c0.9,0,1.6-0.3,2.2-0.9c0.6-0.6,0.8-1.4,0.8-2.4c0-1-0.3-1.8-0.8-2.4s-1.3-0.9-2.2-0.9
				C40.2,85.8,39.5,86.1,38.9,86.6z"/>
			<path class="st1" d="M56.1,92.2v2.5h-1.5c-1.3,0-2.2-0.3-2.9-0.9c-0.7-0.6-1-1.6-1-3.1v-4.9h-1.6v-2.4h1.6v-2.8h2.9v2.8h2.5v2.4
				h-2.5v4.9c0,0.5,0.1,0.9,0.3,1.1c0.2,0.2,0.6,0.3,1.1,0.3H56.1z"/>
			<path class="st1" d="M69.2,89.6H61c0,1,0.3,1.8,0.8,2.2c0.5,0.5,1.1,0.7,1.9,0.7c0.7,0,1.2-0.2,1.7-0.5c0.4-0.3,0.7-0.8,0.8-1.3
				h3c-0.1,0.8-0.5,1.5-1,2.1c-0.5,0.6-1.1,1.1-1.9,1.5c-0.8,0.4-1.6,0.5-2.6,0.5c-1.1,0-2.1-0.2-2.9-0.7c-0.9-0.5-1.5-1.1-2-2
				c-0.5-0.9-0.7-1.9-0.7-3.1s0.2-2.2,0.7-3.1c0.5-0.9,1.1-1.5,2-2c0.9-0.5,1.8-0.7,2.9-0.7c1.1,0,2.1,0.2,2.9,0.7
				c0.8,0.5,1.5,1.1,1.9,1.9c0.5,0.8,0.7,1.7,0.7,2.8C69.4,88.9,69.3,89.2,69.2,89.6z M65.7,86.2c-0.5-0.5-1.2-0.7-1.9-0.7
				c-0.8,0-1.4,0.2-2,0.7c-0.5,0.5-0.8,1.2-0.9,2.1h5.5C66.5,87.4,66.2,86.7,65.7,86.2z"/>
			<path class="st1" d="M78.8,83.9c0.7,0.5,1.2,1.1,1.5,1.8v-2.4h2.9v11.4c0,1-0.2,2-0.6,2.8c-0.4,0.8-1,1.5-1.9,2
				c-0.8,0.5-1.8,0.7-3,0.7c-1.6,0-3-0.4-4-1.2c-1-0.8-1.6-1.8-1.8-3.2h2.8c0.2,0.6,0.5,1,1,1.3c0.5,0.3,1.1,0.5,1.8,0.5
				c0.8,0,1.5-0.2,2-0.7c0.5-0.5,0.8-1.2,0.8-2.3v-2.4c-0.3,0.8-0.8,1.4-1.5,1.8s-1.5,0.7-2.5,0.7c-1,0-1.8-0.2-2.6-0.7
				c-0.8-0.5-1.4-1.1-1.8-2c-0.4-0.9-0.6-1.9-0.6-3.1s0.2-2.2,0.6-3.1c0.4-0.9,1-1.5,1.8-2c0.8-0.5,1.6-0.7,2.6-0.7
				C77.3,83.3,78.1,83.5,78.8,83.9z M75.1,86.6c-0.5,0.6-0.8,1.4-0.8,2.4c0,1,0.3,1.8,0.8,2.4s1.3,0.9,2.2,0.9
				c0.9,0,1.6-0.3,2.2-0.9c0.6-0.6,0.8-1.4,0.8-2.4c0-1-0.3-1.8-0.8-2.4s-1.3-0.9-2.2-0.9C76.3,85.8,75.6,86.1,75.1,86.6z"/>
			<path class="st1" d="M94.4,83.9c0.9,0.5,1.6,1.1,2.1,2s0.8,1.9,0.8,3.1s-0.3,2.2-0.8,3.1c-0.5,0.9-1.2,1.5-2.1,2
				c-0.9,0.5-1.9,0.7-3,0.7s-2.1-0.2-3-0.7c-0.9-0.5-1.6-1.1-2.1-2c-0.5-0.9-0.8-1.9-0.8-3.1s0.3-2.2,0.8-3.1c0.5-0.9,1.2-1.5,2.1-2
				c0.9-0.5,1.9-0.7,3-0.7S93.6,83.5,94.4,83.9z M89.4,86.6c-0.6,0.6-0.8,1.4-0.8,2.5s0.3,1.9,0.8,2.5s1.2,0.8,2,0.8s1.5-0.3,2-0.8
				c0.6-0.6,0.8-1.4,0.8-2.5s-0.3-1.9-0.8-2.5c-0.6-0.6-1.2-0.8-2-0.8S90,86,89.4,86.6z"/>
			<path class="st1" d="M104.4,83.9c0.7-0.4,1.5-0.6,2.3-0.6v3.1h-0.8c-2.1,0-3.2,1-3.2,2.9v5.5h-2.9V83.4h2.9v2.2
				C103.1,84.8,103.7,84.3,104.4,83.9z"/>
			<path class="st1" d="M109,79c0.3-0.3,0.8-0.4,1.3-0.4s1,0.1,1.3,0.4s0.5,0.7,0.5,1.1c0,0.4-0.2,0.8-0.5,1.1s-0.8,0.4-1.3,0.4
				s-1-0.1-1.3-0.4s-0.5-0.7-0.5-1.1C108.5,79.7,108.7,79.3,109,79z M111.7,83.4v11.3h-2.9V83.4H111.7z"/>
			<path class="st1" d="M125.4,89.6h-8.3c0,1,0.3,1.8,0.8,2.2c0.5,0.5,1.1,0.7,1.9,0.7c0.7,0,1.2-0.2,1.7-0.5
				c0.4-0.3,0.7-0.8,0.8-1.3h3c-0.1,0.8-0.5,1.5-1,2.1c-0.5,0.6-1.1,1.1-1.9,1.5c-0.8,0.4-1.6,0.5-2.6,0.5c-1.1,0-2.1-0.2-2.9-0.7
				c-0.9-0.5-1.5-1.1-2-2c-0.5-0.9-0.7-1.9-0.7-3.1s0.2-2.2,0.7-3.1c0.5-0.9,1.1-1.5,2-2c0.9-0.5,1.8-0.7,2.9-0.7
				c1.1,0,2.1,0.2,2.9,0.7c0.8,0.5,1.5,1.1,1.9,1.9c0.5,0.8,0.7,1.7,0.7,2.8C125.5,88.9,125.4,89.2,125.4,89.6z M121.8,86.2
				c-0.5-0.5-1.2-0.7-1.9-0.7c-0.8,0-1.4,0.2-2,0.7c-0.5,0.5-0.8,1.2-0.9,2.1h5.5C122.6,87.4,122.4,86.7,121.8,86.2z"/>
			<path class="st1" d="M135.2,84.3c0.8,0.7,1.3,1.6,1.6,2.8h-2.7c-0.1-0.5-0.4-1-0.7-1.3c-0.4-0.3-0.9-0.5-1.5-0.5
				c-0.5,0-0.9,0.1-1.1,0.3c-0.3,0.2-0.4,0.5-0.4,0.9c0,0.3,0.1,0.6,0.3,0.8c0.2,0.2,0.5,0.3,0.8,0.4s0.8,0.2,1.4,0.4
				c0.9,0.2,1.6,0.4,2.1,0.6s1,0.5,1.4,1c0.4,0.5,0.6,1.1,0.6,1.8c0,1-0.4,1.8-1.1,2.4c-0.8,0.6-1.8,0.9-3.1,0.9
				c-1.5,0-2.7-0.3-3.5-1s-1.4-1.6-1.6-2.8h2.8c0.1,0.6,0.3,1,0.7,1.3c0.4,0.3,1,0.5,1.7,0.5c0.5,0,0.9-0.1,1.1-0.4s0.4-0.5,0.4-0.9
				c0-0.3-0.1-0.6-0.3-0.8s-0.5-0.4-0.8-0.5s-0.8-0.2-1.4-0.4c-0.8-0.2-1.5-0.4-2.1-0.6s-1-0.5-1.3-1c-0.4-0.4-0.6-1-0.6-1.8
				c0-1,0.4-1.8,1.1-2.4c0.7-0.6,1.8-0.9,3.1-0.9C133.3,83.3,134.4,83.6,135.2,84.3z"/>
		</g>
	</g>
	<g>
		<line class="st2" x1="182.7" y1="31.6" x2="213.4" y2="31.6"/>
		<line class="st2" x1="198.1" y1="16.3" x2="198.1" y2="47"/>
	</g>
</g>
</svg>
