<?xml version="1.0" encoding="utf-8"?>
<!-- Generator: Adobe Illustrator 23.0.1, SVG Export Plug-In . SVG Version: 6.00 Build 0)  -->
<svg version="1.1" id="Layer_1" xmlns="http://www.w3.org/2000/svg" xmlns:xlink="http://www.w3.org/1999/xlink" x="0px" y="0px"
	 viewBox="0 0 110.5 32.3" style="enable-background:new 0 0 110.5 32.3;" xml:space="preserve">
<style type="text/css">
	.st0{clip-path:url(#SVGID_2_);}
	.st1{fill:#FFFFFF;}
	.st2{fill:#D40000;}
	.st3{fill:#AEAEAE;}
	.st4{fill:#8275DB;}
	.st5{fill:#0E32D5;}
	.st6{fill:#D50000;}
	.st7{fill:#A09AEA;}
	.st8{fill:url(#SVGID_3_);}
	.st9{fill:url(#SVGID_4_);}
	.st10{fill:#0D33D0;}
	.st11{fill:#EEEBFF;}
	.st12{fill:#E98400;}
	.st13{fill:#824D27;}
	.st14{fill:#8AF47B;}
	.st15{fill:#8275DD;}
	.st16{fill:#8275DD;stroke:#8275DD;stroke-width:0.5;stroke-miterlimit:10;}
	.st17{fill:#0E32D7;}
	.st18{fill:none;}
	.st19{clip-path:url(#SVGID_9_);}
	.st20{clip-path:url(#SVGID_11_);}
	.st21{clip-path:url(#SVGID_13_);}
	.st22{clip-path:url(#SVGID_15_);}
	.st23{clip-path:url(#SVGID_17_);}
	.st24{clip-path:url(#SVGID_19_);}
	.st25{fill:#FFD5D9;}
	.st26{fill:#94ACFF;}
	.st27{fill:#E1C0E1;}
	.st28{fill:#3359CC;}
	.st29{clip-path:url(#SVGID_20_);}
	.st30{clip-path:url(#SVGID_21_);}
	.st31{clip-path:url(#SVGID_22_);}
	.st32{clip-path:url(#SVGID_23_);}
	.st33{clip-path:url(#SVGID_25_);}
	.st34{clip-path:url(#SVGID_27_);}
	.st35{fill:#D7D7EF;}
	.st36{fill:#4C4680;}
	.st37{fill:none;stroke:#4C4680;stroke-width:3.5013;stroke-linecap:round;stroke-linejoin:round;stroke-miterlimit:10;}
	.st38{fill:#1039C8;}
	.st39{fill:none;stroke:#1039C8;stroke-width:1.8347;stroke-linecap:round;stroke-linejoin:round;stroke-miterlimit:10;}
	.st40{fill:#9F72FA;}
	.st41{fill:#E8E8F4;}
</style>
<g>
	<path class="st1" d="M94.3,32.3H16.2C7.2,32.3,0,25.1,0,16.2v0C0,7.2,7.2,0,16.2,0l78.2,0c8.9,0,16.2,7.2,16.2,16.2v0
		C110.5,25.1,103.2,32.3,94.3,32.3z"/>
	<g>
		<g>
			<path class="st38" d="M26.7,12.1c0.7-0.4,1.5-0.7,2.5-0.7V14h-0.7c-1,0-1.9,0.3-2.5,0.8s-0.9,1.3-0.9,2.5V23h-2.4V11.6h2.4v2.2
				C25.4,13.1,26,12.5,26.7,12.1z"/>
			<path class="st38" d="M39.1,12.2c0.9,0.5,1.6,1.1,2.1,2c0.5,0.9,0.7,1.9,0.7,3.1c0,1.2-0.2,2.2-0.7,3.1c-0.5,0.9-1.2,1.6-2.1,2
				c-0.9,0.5-1.9,0.7-3,0.7s-2.1-0.2-3-0.7c-0.9-0.5-1.6-1.1-2.1-2c-0.5-0.9-0.8-1.9-0.8-3.1c0-1.2,0.3-2.2,0.8-3.1
				c0.5-0.9,1.2-1.6,2.1-2c0.9-0.5,1.9-0.7,3-0.7S38.2,11.7,39.1,12.2z M34.5,13.9c-0.5,0.3-0.9,0.7-1.2,1.3s-0.5,1.3-0.5,2.1
				c0,0.8,0.2,1.5,0.5,2.1s0.7,1,1.2,1.3c0.5,0.3,1.1,0.4,1.7,0.4c0.6,0,1.2-0.1,1.7-0.4c0.5-0.3,0.9-0.7,1.2-1.3
				c0.3-0.6,0.5-1.3,0.5-2.1c0-0.8-0.2-1.5-0.5-2.1c-0.3-0.6-0.7-1-1.2-1.3c-0.5-0.3-1.1-0.4-1.7-0.4C35.5,13.5,35,13.6,34.5,13.9z"
				/>
			<path class="st38" d="M46.5,7.7V23h-2.4V7.7H46.5z"/>
			<path class="st38" d="M59.9,17.8h-8.8c0,1.2,0.4,2,1,2.6c0.6,0.6,1.4,0.8,2.3,0.8c0.8,0,1.4-0.2,2-0.6s0.9-0.9,1-1.6h2.5
				c-0.2,0.8-0.5,1.5-1,2.1c-0.5,0.6-1.1,1.1-1.9,1.5c-0.8,0.4-1.6,0.5-2.6,0.5c-1.1,0-2.1-0.2-2.9-0.7c-0.8-0.5-1.5-1.1-2-2
				c-0.5-0.9-0.7-1.9-0.7-3.1c0-1.2,0.2-2.2,0.7-3.1c0.5-0.9,1.1-1.6,2-2c0.8-0.5,1.8-0.7,2.9-0.7c1.1,0,2.1,0.2,2.9,0.7
				c0.8,0.5,1.5,1.1,1.9,1.9s0.7,1.7,0.7,2.7C60,17.1,59.9,17.5,59.9,17.8z M57.2,14.8c-0.3-0.5-0.7-0.9-1.2-1.1
				c-0.5-0.2-1-0.4-1.6-0.4c-0.9,0-1.7,0.3-2.3,0.8c-0.6,0.6-1,1.4-1,2.5h6.5C57.6,15.9,57.5,15.3,57.2,14.8z"/>
			<path class="st38" d="M69.2,12.5c0.8,0.7,1.3,1.6,1.5,2.7h-2.2c-0.1-0.6-0.4-1.1-0.8-1.5c-0.4-0.4-1-0.6-1.7-0.6
				c-0.6,0-1,0.1-1.4,0.4c-0.3,0.3-0.5,0.7-0.5,1.1c0,0.4,0.1,0.6,0.4,0.9c0.2,0.2,0.5,0.4,0.9,0.5c0.4,0.1,0.9,0.3,1.5,0.4
				c0.9,0.2,1.5,0.4,2.1,0.6c0.5,0.2,1,0.5,1.4,1c0.4,0.4,0.6,1.1,0.6,1.8c0,0.9-0.4,1.7-1.1,2.3s-1.7,0.9-2.9,0.9
				c-1.4,0-2.6-0.3-3.4-1c-0.9-0.7-1.4-1.6-1.6-2.8h2.3c0.1,0.6,0.3,1.1,0.8,1.5c0.5,0.4,1.1,0.6,1.9,0.6c0.6,0,1-0.1,1.3-0.4
				c0.3-0.3,0.5-0.7,0.5-1.1c0-0.4-0.1-0.7-0.4-1c-0.2-0.2-0.6-0.4-0.9-0.5c-0.4-0.1-0.9-0.3-1.5-0.4c-0.8-0.2-1.5-0.4-2-0.6
				c-0.5-0.2-1-0.5-1.3-0.9c-0.4-0.4-0.5-1-0.5-1.8c0-1,0.4-1.7,1.1-2.3s1.7-0.9,3-0.9C67.3,11.5,68.4,11.8,69.2,12.5z"/>
		</g>
	</g>
	<polyline class="st39" points="91.7,9.5 98.4,16.2 91.7,22.8 	"/>
</g>
</svg>
