<svg id="Layer_1" data-name="Layer 1" xmlns="http://www.w3.org/2000/svg" viewBox="0 0 29.42 29.42"><defs><style>.cls-1{fill:#8af47b;}</style></defs><title>Artboard 23</title><circle class="cls-1" cx="14.71" cy="14.71" r="13.94"/><path d="M14.71,29.42A14.71,14.71,0,1,1,29.42,14.71,14.73,14.73,0,0,1,14.71,29.42Zm0-27.89A13.18,13.18,0,1,0,27.88,14.71,13.19,13.19,0,0,0,14.71,1.53Z"/><path d="M13.69,19.81a.7.7,0,0,1-.47-.19l-4.45-4a.69.69,0,0,1,0-1,.69.69,0,0,1,1,0l3.93,3.57,7.22-8.27a.7.7,0,0,1,1-.07.69.69,0,0,1,.06,1l-7.68,8.81a.71.71,0,0,1-.49.23Z"/></svg>