<?xml version="1.0" encoding="utf-8"?>
<!-- Generator: Adobe Illustrator 23.0.1, SVG Export Plug-In . SVG Version: 6.00 Build 0)  -->
<svg version="1.1" id="Layer_1" xmlns="http://www.w3.org/2000/svg" xmlns:xlink="http://www.w3.org/1999/xlink" x="0px" y="0px"
	 viewBox="0 0 37.3 34.5" style="enable-background:new 0 0 37.3 34.5;" xml:space="preserve">
<style type="text/css">
	.st0{clip-path:url(#SVGID_2_);}
	.st1{fill:#FFFFFF;}
	.st2{fill:#D40000;}
	.st3{fill:#AEAEAE;}
	.st4{fill:#8275DB;}
	.st5{fill:#0E32D5;}
	.st6{fill:#D50000;}
	.st7{fill:#A09AEA;}
	.st8{fill:url(#SVGID_3_);}
	.st9{fill:url(#SVGID_4_);}
	.st10{fill:#0D33D0;}
	.st11{fill:#EEEBFF;}
	.st12{fill:#E98400;}
	.st13{fill:#824D27;}
	.st14{fill:#8AF47B;}
	.st15{fill:#8275DD;}
	.st16{fill:#8275DD;stroke:#8275DD;stroke-width:0.5;stroke-miterlimit:10;}
	.st17{fill:#0E32D7;}
	.st18{fill:none;}
	.st19{clip-path:url(#SVGID_9_);}
	.st20{clip-path:url(#SVGID_11_);}
	.st21{clip-path:url(#SVGID_13_);}
	.st22{clip-path:url(#SVGID_15_);}
	.st23{clip-path:url(#SVGID_17_);}
	.st24{clip-path:url(#SVGID_21_);}
	.st25{clip-path:url(#SVGID_23_);}
	.st26{fill:#FFD5D9;}
	.st27{fill:#94ACFF;}
	.st28{fill:#E1C0E1;}
	.st29{fill:#3359CC;}
	.st30{clip-path:url(#SVGID_25_);}
	.st31{clip-path:url(#SVGID_27_);}
	.st32{clip-path:url(#SVGID_29_);}
	.st33{clip-path:url(#SVGID_31_);}
	.st34{clip-path:url(#SVGID_33_);}
	.st35{clip-path:url(#SVGID_35_);}
	.st36{fill:#D7D7EF;}
	.st37{fill:#4C4680;}
	.st38{fill:none;stroke:#4C4680;stroke-width:3.5013;stroke-linecap:round;stroke-linejoin:round;stroke-miterlimit:10;}
	.st39{fill:#1039C8;}
	.st40{fill:none;stroke:#1039C8;stroke-width:1.8347;stroke-linecap:round;stroke-linejoin:round;stroke-miterlimit:10;}
	.st41{fill:#9F72FA;}
	.st42{fill:#E8E8F4;}
</style>
<g>
	<path class="st41" d="M20.1,34.5l-2.8,0C7.7,34.5,0,26.8,0,17.3l0,0C0,7.7,7.7,0,17.3,0l2.8,0c9.5,0,17.3,7.7,17.3,17.3v0
		C37.3,26.8,29.6,34.5,20.1,34.5z"/>
	<path class="st42" d="M23,11.9l-4.3,4.3l-4.3-4.3c-0.3-0.3-0.8-0.3-1.1,0c-0.3,0.3-0.3,0.8,0,1.1l4.3,4.3l-4.3,4.3
		c-0.3,0.3-0.3,0.8,0,1.1c0.3,0.3,0.8,0.3,1.1,0l4.3-4.3l4.3,4.3c0.3,0.3,0.8,0.3,1.1,0s0.3-0.8,0-1.1l-4.3-4.3l4.3-4.3
		c0.3-0.3,0.3-0.8,0-1.1S23.3,11.6,23,11.9z"/>
</g>
</svg>
