<?xml version="1.0" encoding="utf-8"?>
<!-- Generator: Adobe Illustrator 23.0.1, SVG Export Plug-In . SVG Version: 6.00 Build 0)  -->
<svg version="1.0" id="Layer_1" xmlns="http://www.w3.org/2000/svg" xmlns:xlink="http://www.w3.org/1999/xlink" x="0px" y="0px"
	 viewBox="0 0 18 18" style="enable-background:new 0 0 18 18;" xml:space="preserve">
<style type="text/css">
	.st0{fill:#FFFFFF;}
	.st1{fill:#0E32D7;}
</style>
<title>Artboard 35</title>
<g>
	<defs>
		<path id="SVGID_1_" d="M-22,50h194c9.4,0,17,7.6,17,17v78.9c0,9.4-7.6,17-17,17H-22c-9.4,0-17-7.6-17-17V67
			C-39,57.6-31.4,50-22,50z"/>
	</defs>
	<clipPath id="SVGID_2_">
		<use xlink:href="#SVGID_1_"  style="overflow:visible;"/>
	</clipPath>
</g>
<path class="st0" d="M0,0"/>
<g>
	<path class="st1" d="M8.8,0C4,0,0,4,0,8.8s4,8.8,8.8,8.8s8.8-4,8.8-8.8S13.7,0,8.8,0z M8.3,5.3c0.2-0.2,0.4-0.3,0.6-0.3
		s0.5,0.1,0.6,0.3c0.2,0.2,0.2,0.4,0.2,0.6c0,0.2-0.1,0.5-0.2,0.6C9.4,6.7,9.2,6.8,8.9,6.8S8.5,6.7,8.3,6.6C8.1,6.4,8,6.2,8,5.9
		C8,5.7,8.1,5.5,8.3,5.3z M11.4,13H6.6v-1.2h1.7V8.7H6.9V7.5h2.8v4.3h1.7V13z"/>
</g>
</svg>
