<svg id="Layer_1" data-name="Layer 1" xmlns="http://www.w3.org/2000/svg" viewBox="0 0 21.33 21.07"><defs><style>.cls-1{fill:#fff;}</style></defs><title>Artboard 18</title><path class="cls-1" d="M4.4,8.72A4.36,4.36,0,1,1,8.76,4.36,4.37,4.37,0,0,1,4.4,8.72Zm0-6.86a2.5,2.5,0,1,0,2.5,2.5A2.5,2.5,0,0,0,4.4,1.86Z"/><path class="cls-1" d="M16.93,21.07a4.36,4.36,0,1,1,4.36-4.36A4.36,4.36,0,0,1,16.93,21.07Zm0-6.86a2.5,2.5,0,1,0,2.5,2.5A2.5,2.5,0,0,0,16.93,14.21Z"/><path class="cls-1" d="M20.4,5.29H13.46a.93.93,0,1,1,0-1.86H20.4a.93.93,0,0,1,0,1.86Z"/><path class="cls-1" d="M7.87,17.64H.93a.93.93,0,0,1,0-1.86H7.87a.93.93,0,0,1,0,1.86Z"/></svg>