<svg id="Layer_1" data-name="Layer 1" xmlns="http://www.w3.org/2000/svg" viewBox="0 0 16.93 15.47"><defs><style>.cls-1{fill:#0d33d0;}.cls-2{fill:#eeebff;}</style></defs><title>Artboard 19</title><path class="cls-1" d="M13.52,3.72a7.78,7.78,0,0,1,.39,2.43A7.87,7.87,0,0,1,7,14,6.09,6.09,0,1,0,13.52,3.72Z"/><path class="cls-1" d="M11,3A5.86,5.86,0,1,0,5.27,12a6.83,6.83,0,0,0,.78.06A5.85,5.85,0,0,0,11,3Z"/><path class="cls-2" d="M4.65,6.94,4.16,9.73H3.49L4.66,3.05h2a2.27,2.27,0,0,1,1.46.39A1.36,1.36,0,0,1,8.6,4.55a1.93,1.93,0,0,1,0,.45,2.19,2.19,0,0,1-.82,1.44A2.8,2.8,0,0,1,6,6.94ZM7.88,5a2,2,0,0,0,0-.36c0-.68-.47-1-1.41-1H5.24L4.75,6.38H6A1.63,1.63,0,0,0,7.88,5Z"/></svg>