<svg width="40" height="24" viewBox="0 0 40 24" fill="none" xmlns="http://www.w3.org/2000/svg">
<g clip-path="url(#clip0)">
<path d="M37.3791 23.9999H2.62072C2.27794 23.9999 2 23.7171 2 23.3683V0.631604C2 0.282819 2.27794 0 2.62072 0H37.3792C37.722 0 37.9999 0.282819 37.9999 0.631604V23.3683C37.9999 23.7171 37.7219 23.9999 37.3791 23.9999Z" fill="#41479B"/>
<path d="M37.9999 0.631604C37.9999 0.282819 37.7219 0 37.3791 0H34.6022L23.1033 7.6659V0H16.8964V7.6659L5.39763 0H2.62072C2.27794 0 2 0.282819 2 0.631604V2.26506L11.8654 8.84204H2V15.1578H11.8654L2 21.7348V23.3683C2 23.7171 2.27794 23.9999 2.62072 23.9999H5.3977L16.8966 16.334V23.9999H23.1034V16.334L34.6023 23.9999H37.3793C37.7221 23.9999 38 23.7171 38 23.3683V21.7348L28.1346 15.1579H37.9999V8.84211H28.1344L37.9999 2.26506V0.631604Z" fill="#F5F5F5"/>
<path d="M37.9999 10.1052H21.862V0H18.1378V10.1052H2V13.8947H18.1378V23.9999H21.862V13.8947H37.9999V10.1052Z" fill="#FF4B55"/>
<path d="M14.5822 15.158L2.01758 23.457C2.06152 23.762 2.30867 24.0001 2.62065 24.0001H3.47557L16.8623 15.158H14.5822V15.158Z" fill="#FF4B55"/>
<path d="M26.3553 15.158H24.0752L37.4425 23.987C37.754 23.9532 37.9999 23.6944 37.9999 23.3684V22.8491L26.3553 15.158Z" fill="#FF4B55"/>
<path d="M2 1.32947L13.375 8.84276H15.6551L2.36162 0.0622559C2.14927 0.162634 2 0.378344 2 0.632259V1.32947Z" fill="#FF4B55"/>
<path d="M25.3836 8.84215L37.9784 0.523048C37.9261 0.228138 37.6842 0.00012207 37.3793 0.00012207H36.49L23.1035 8.84215H25.3836Z" fill="#FF4B55"/>
</g>
<defs>
<clipPath id="clip0">
<rect width="40" height="24" fill="white"/>
</clipPath>
</defs>
</svg>
