<svg width="80" height="80" viewBox="0 0 80 80" fill="none" xmlns="http://www.w3.org/2000/svg">
<rect width="80" height="80" rx="16" fill="#F5F6FA"/>
<path d="M53.0953 24.02C53.062 24.0173 53.034 24 52.9993 24H38.666C36.4607 24 34.666 25.7947 34.666 28V29.3333C34.666 30.0693 35.2633 30.6667 35.9993 30.6667C36.7353 30.6667 37.3327 30.0693 37.3327 29.3333V28C37.3327 27.2653 37.9313 26.6667 38.666 26.6667H44.878L44.4713 26.8027C43.3913 27.176 42.666 28.1933 42.666 29.3333V49.3333H38.666C37.9313 49.3333 37.3327 48.7347 37.3327 48V45.3333C37.3327 44.5973 36.7353 44 35.9993 44C35.2633 44 34.666 44.5973 34.666 45.3333V48C34.666 50.2053 36.4607 52 38.666 52H42.666V53.3333C42.666 54.804 43.862 56 45.3327 56C45.618 56 45.8887 55.9587 46.182 55.868L54.1927 53.1973C55.274 52.824 55.9993 51.8067 55.9993 50.6667V26.6667C55.9993 25.112 54.6593 23.8933 53.0953 24.02Z" fill="#3D4665"/>
<path d="M38.276 36.3908L32.9427 31.0574C32.5613 30.6761 31.988 30.5614 31.4893 30.7681C30.992 30.9748 30.6667 31.4614 30.6667 32.0001V36.0001H25.3333C24.5973 36.0001 24 36.5974 24 37.3334C24 38.0694 24.5973 38.6668 25.3333 38.6668H30.6667V42.6668C30.6667 43.2054 30.992 43.6921 31.4893 43.8988C31.988 44.1054 32.5613 43.9908 32.9427 43.6094L38.276 38.2761C38.7973 37.7548 38.7973 36.9121 38.276 36.3908Z" fill="#3D4665"/>
</svg>
