<svg width="40" height="40" viewBox="0 0 40 40" fill="none" xmlns="http://www.w3.org/2000/svg">
<path d="M30 5H10C8.67392 5 7.40215 5.52678 6.46447 6.46447C5.52678 7.40215 5 8.67392 5 10V30C5 31.3261 5.52678 32.5979 6.46447 33.5355C7.40215 34.4732 8.67392 35 10 35H30C31.3261 35 32.5979 34.4732 33.5355 33.5355C34.4732 32.5979 35 31.3261 35 30V10C35 8.67392 34.4732 7.40215 33.5355 6.46447C32.5979 5.52678 31.3261 5 30 5ZM24.5167 22.15C24.6729 22.3049 24.7969 22.4893 24.8815 22.6924C24.9661 22.8955 25.0097 23.1133 25.0097 23.3333C25.0097 23.5534 24.9661 23.7712 24.8815 23.9743C24.7969 24.1774 24.6729 24.3617 24.5167 24.5167C24.3617 24.6729 24.1774 24.7969 23.9743 24.8815C23.7712 24.9661 23.5534 25.0097 23.3333 25.0097C23.1133 25.0097 22.8955 24.9661 22.6924 24.8815C22.4893 24.7969 22.3049 24.6729 22.15 24.5167L20 22.35L17.85 24.5167C17.6951 24.6729 17.5107 24.7969 17.3076 24.8815C17.1045 24.9661 16.8867 25.0097 16.6667 25.0097C16.4466 25.0097 16.2288 24.9661 16.0257 24.8815C15.8226 24.7969 15.6383 24.6729 15.4833 24.5167C15.3271 24.3617 15.2031 24.1774 15.1185 23.9743C15.0339 23.7712 14.9903 23.5534 14.9903 23.3333C14.9903 23.1133 15.0339 22.8955 15.1185 22.6924C15.2031 22.4893 15.3271 22.3049 15.4833 22.15L17.65 20L15.4833 17.85C15.1695 17.5362 14.9932 17.1105 14.9932 16.6667C14.9932 16.2228 15.1695 15.7972 15.4833 15.4833C15.7972 15.1695 16.2228 14.9932 16.6667 14.9932C17.1105 14.9932 17.5362 15.1695 17.85 15.4833L20 17.65L22.15 15.4833C22.4638 15.1695 22.8895 14.9932 23.3333 14.9932C23.7772 14.9932 24.2028 15.1695 24.5167 15.4833C24.8305 15.7972 25.0068 16.2228 25.0068 16.6667C25.0068 17.1105 24.8305 17.5362 24.5167 17.85L22.35 20L24.5167 22.15Z" fill="#40C1AC"/>
</svg>
