<svg width="80" height="80" viewBox="0 0 80 80" fill="none" xmlns="http://www.w3.org/2000/svg">
<rect width="80" height="80" rx="16" fill="#D4E5FA"/>
<path d="M32.5 44.6875H37.5957C37.7859 44.0334 38.0393 43.4062 38.3486 42.8125H32.5C31.9822 42.8125 31.5625 42.3928 31.5625 41.875C31.5625 41.3572 31.9822 40.9375 32.5 40.9375H39.6038C40.2036 40.2239 40.8979 39.5923 41.6677 39.0625H32.5C31.9822 39.0625 31.5625 38.6428 31.5625 38.125C31.5625 37.6072 31.9822 37.1875 32.5 37.1875H41.875C42.5049 37.1875 42.9558 37.7974 42.7715 38.3999C43.9258 37.8018 45.2065 37.4158 46.5625 37.293V26.1875C46.5625 24.9812 45.5813 24 44.375 24H26.25C25.0437 24 24.0625 24.9812 24.0625 26.1875V50C24.0625 51.2063 25.0437 52.1875 26.25 52.1875H38.2847C37.4111 50.4543 37.0474 48.5142 37.2361 46.5625H32.5C31.9822 46.5625 31.5625 46.1428 31.5625 45.625C31.5625 45.1072 31.9822 44.6875 32.5 44.6875ZM32.5 29.6875H41.875C42.3928 29.6875 42.8125 30.1072 42.8125 30.625C42.8125 31.1428 42.3928 31.5625 41.875 31.5625H32.5C31.9822 31.5625 31.5625 31.1428 31.5625 30.625C31.5625 30.1072 31.9822 29.6875 32.5 29.6875ZM32.5 33.4375H41.875C42.3928 33.4375 42.8125 33.8572 42.8125 34.375C42.8125 34.8928 42.3928 35.3125 41.875 35.3125H32.5C31.9822 35.3125 31.5625 34.8928 31.5625 34.375C31.5625 33.8572 31.9822 33.4375 32.5 33.4375ZM28.75 46.5625C28.2322 46.5625 27.8125 46.1428 27.8125 45.625C27.8125 45.1072 28.2322 44.6875 28.75 44.6875C29.2678 44.6875 29.6875 45.1072 29.6875 45.625C29.6875 46.1428 29.2678 46.5625 28.75 46.5625ZM28.75 42.8125C28.2322 42.8125 27.8125 42.3928 27.8125 41.875C27.8125 41.3572 28.2322 40.9375 28.75 40.9375C29.2678 40.9375 29.6875 41.3572 29.6875 41.875C29.6875 42.3928 29.2678 42.8125 28.75 42.8125ZM28.75 39.0625C28.2322 39.0625 27.8125 38.6428 27.8125 38.125C27.8125 37.6072 28.2322 37.1875 28.75 37.1875C29.2678 37.1875 29.6875 37.6072 29.6875 38.125C29.6875 38.6428 29.2678 39.0625 28.75 39.0625ZM28.75 35.3125C28.2322 35.3125 27.8125 34.8928 27.8125 34.375C27.8125 33.8572 28.2322 33.4375 28.75 33.4375C29.2678 33.4375 29.6875 33.8572 29.6875 34.375C29.6875 34.8928 29.2678 35.3125 28.75 35.3125ZM28.75 31.5625C28.2322 31.5625 27.8125 31.1428 27.8125 30.625C27.8125 30.1072 28.2322 29.6875 28.75 29.6875C29.2678 29.6875 29.6875 30.1072 29.6875 30.625C29.6875 31.1428 29.2678 31.5625 28.75 31.5625Z" fill="#5258EF"/>
<path d="M47.5 39.125C42.8477 39.125 39.0625 42.9102 39.0625 47.5625C39.0625 52.2148 42.8477 56 47.5 56C52.1523 56 55.9375 52.2148 55.9375 47.5625C55.9375 42.9102 52.1523 39.125 47.5 39.125ZM48.4375 47.5C48.4375 48.0178 48.0178 48.4375 47.5 48.4375H44.6875C44.1697 48.4375 43.75 48.0178 43.75 47.5C43.75 46.9822 44.1697 46.5625 44.6875 46.5625H46.5625V43.75C46.5625 43.2322 46.9822 42.8125 47.5 42.8125C48.0178 42.8125 48.4375 43.2322 48.4375 43.75V47.5Z" fill="#5258EF"/>
</svg>
