<svg width="80" height="80" viewBox="0 0 80 80" fill="none" xmlns="http://www.w3.org/2000/svg">
<rect width="80" height="80" rx="16" fill="#FEF1DD"/>
<g clip-path="url(#clip0)">
<path d="M55.5718 29.9863C55.197 29.8033 54.7419 29.9595 54.559 30.3388L53.8183 31.8648L53.2248 31.5792L54.0056 29.9728C54.0056 29.9684 54.0101 29.9639 54.0101 29.9594C54.0145 29.9505 54.019 29.9371 54.0235 29.9282C54.144 29.6293 54.2823 29.2768 54.3314 28.8796C54.4831 27.6972 54.0325 26.4478 53.1222 25.533C52.2565 24.6629 50.9313 24.1721 49.6729 24.2479C49.4097 24.2658 49.1286 24.3148 48.8386 24.3996C48.3789 24.5335 47.9283 24.7655 47.5044 25.0913C47.2009 25.3233 46.777 25.7204 46.487 26.2782C46.487 26.2826 46.4825 26.2871 46.4825 26.2916C46.4825 26.2961 46.4781 26.3005 46.4781 26.3005L43.7116 32.0075C43.6982 32.0299 43.6848 32.0522 43.6714 32.0789C43.658 32.1012 43.6491 32.128 43.6402 32.1547L36.474 46.9244C36.3669 47.1475 36.3134 47.3974 36.3222 47.6473V47.6517L36.4829 52.4127C36.5007 52.8768 36.6748 53.3096 36.9648 53.6487L36.5409 54.5054C36.3535 54.8802 36.5097 55.3353 36.8845 55.5228C36.9916 55.5763 37.1076 55.6032 37.2191 55.6032C37.5003 55.6032 37.768 55.447 37.9018 55.1793L38.3123 54.3449C38.3748 54.3493 38.4328 54.3538 38.4953 54.3538C38.9147 54.3538 39.3296 54.2244 39.6777 53.9656L43.524 51.1456C43.6044 51.0875 43.6802 51.0162 43.7471 50.9448C43.7606 50.9314 43.7694 50.918 43.7829 50.9046C43.8677 50.8065 43.939 50.6949 43.9971 50.5788L52.5599 32.9401L53.1534 33.2256L49.3383 41.0834C49.1554 41.4583 49.3115 41.9134 49.6908 42.0963C49.7979 42.1498 49.9095 42.1721 50.021 42.1721C50.3022 42.1721 50.5743 42.0159 50.7038 41.7438L54.8 33.3059C54.8223 33.2747 54.8446 33.239 54.8625 33.2032C54.8804 33.1675 54.8893 33.1363 54.9027 33.1006L55.9245 30.9945C56.1073 30.6243 55.9467 30.1692 55.5718 29.9863ZM38.7765 52.7475C38.6382 52.8456 38.4641 52.8679 38.308 52.81C38.2857 52.7966 38.2633 52.7832 38.2366 52.7698C38.2232 52.7654 38.2143 52.7609 38.2009 52.7564C38.0714 52.6671 37.9912 52.5244 37.9866 52.3682L37.8795 49.267C38.8835 50.0479 40.0392 50.6101 41.2707 50.9225L38.7765 52.7475ZM42.7656 49.6374C40.9405 49.4589 39.236 48.629 37.9688 47.2993L44.6977 33.431L49.5034 35.7557L42.7656 49.6374ZM52.8232 28.6878C52.7964 28.8975 52.7116 29.1206 52.6268 29.3304L50.1727 34.386L45.3625 32.0612L47.8255 26.9833C47.9594 26.7379 48.1691 26.4925 48.4279 26.2961C48.6956 26.0909 48.9812 25.9391 49.2534 25.8588C49.4363 25.8053 49.6104 25.774 49.7577 25.7651C50.5831 25.716 51.48 26.0463 52.0422 26.6085C52.6135 27.1796 52.9124 27.9783 52.8232 28.6878Z" fill="#EA862B"/>
<path d="M48.5 25.5L45 30.5L37.5 46V48L40 50L43 50.5L53.5 29L53 26.5L51 25.5H48.5Z" fill="#EA862B"/>
<path d="M33.8452 51.4458L33.848 51.4457C33.9092 51.4458 33.9715 51.4453 34.0335 51.4449C34.1568 51.4441 34.2786 51.4432 34.3862 51.4458M33.8452 51.4458L33.9326 41.8245L34.1647 41.9176C34.1647 41.9175 34.1647 41.9175 34.1648 41.9174C34.5186 41.0345 34.7181 40.1934 34.7528 39.4265L34.7528 39.4265C34.7991 38.396 34.5518 37.4834 34.0071 36.7261C33.3637 35.8278 32.4302 35.1799 31.1801 34.7298C30.1693 34.3645 29.0617 34.1736 28.1018 34.0081C28.0808 34.0045 28.0599 34.0009 28.0391 33.9973L27.9966 34.2436L28.0394 33.9974C27.9703 33.9854 27.9021 33.9736 27.8347 33.962C27.4671 33.8986 27.1231 33.8393 26.8023 33.7692L26.8023 33.7692L26.8016 33.7691C26.3167 33.6647 25.8585 33.9953 25.7675 34.4764C25.6734 34.9547 25.9704 35.4369 26.4512 35.5357C26.8646 35.6243 27.2954 35.6973 27.7411 35.7728L27.7556 35.7753L27.756 35.7754L27.765 35.7769C28.6958 35.9364 29.6627 36.1021 30.5259 36.4028C31.3906 36.704 32.1229 37.1317 32.5997 37.7962L32.5998 37.7963C33.1396 38.5477 33.1663 39.6775 32.545 41.229L32.545 41.2291C32.1092 42.3194 31.5452 43.3858 30.9887 44.4308L30.9884 44.4315C30.7896 44.8075 30.583 45.1998 30.3836 45.5886C30.3835 45.5887 30.3834 45.5889 30.3834 45.589L30.2845 45.78L30.2842 45.7806L30.2811 45.7866C29.6346 47.0432 28.8764 48.5169 28.705 50.0681C28.6175 50.8441 28.8006 51.5223 29.2644 52.0619L29.2648 52.0624C29.7479 52.6218 30.4532 52.914 31.1801 53.0694C31.9091 53.2253 32.691 53.25 33.3586 53.25H33.3606C33.5312 53.25 33.7019 53.25 33.8621 53.2462C33.9305 53.2462 33.9947 53.2457 34.0554 53.2453C34.1677 53.2444 34.268 53.2437 34.3605 53.2461L34.3605 53.2462H34.367H34.367H34.367H34.3671H34.3671H34.3671H34.3671H34.3672H34.3672H34.3672H34.3672H34.3672H34.3673H34.3673H34.3673H34.3673H34.3673H34.3674H34.3674H34.3674H34.3674H34.3674H34.3675H34.3675H34.3675H34.3675H34.3675H34.3676H34.3676H34.3676H34.3676H34.3676H34.3676H34.3677H34.3677H34.3677H34.3677H34.3677H34.3678H34.3678H34.3678H34.3678H34.3678H34.3679H34.3679H34.3679H34.3679H34.3679H34.3679H34.368H34.368H34.368H34.368H34.368H34.368H34.3681H34.3681H34.3681H34.3681H34.3681H34.3682H34.3682H34.3682H34.3682H34.3682H34.3682H34.3683H34.3683H34.3683H34.3683H34.3683H34.3683H34.3684H34.3684H34.3684H34.3684H34.3684H34.3684H34.3684H34.3685H34.3685H34.3685H34.3685H34.3685H34.3685H34.3686H34.3686H34.3686H34.3686H34.3686H34.3686H34.3687H34.3687H34.3687H34.3687H34.3687H34.3688H34.3688H34.3688H34.3688H34.3689H34.3689H34.3689H34.3689H34.369H34.369H34.369H34.3691H34.3691H34.3691H34.3691H34.3692H34.3692H34.3692H34.3692H34.3693H34.3693H34.3693H34.3694H34.3694H34.3694H34.3694H34.3695H34.3695H34.3695H34.3695H34.3696H34.3696H34.3696H34.3696H34.3696H34.3697H34.3697H34.3697H34.3697H34.3698H34.3698H34.3698H34.3698H34.3699H34.3699H34.3699H34.3699H34.37H34.37H34.37H34.37H34.37H34.3701H34.3701H34.3701H34.3701H34.3702H34.3702H34.3702H34.3702H34.3702H34.3703H34.3703H34.3703H34.3703H34.3704H34.3704H34.3704H34.3704H34.3704H34.3705H34.3705H34.3705H34.3705H34.3706H34.3706H34.3706H34.3706H34.3706H34.3707H34.3707H34.3707H34.3707H34.3707H34.3708H34.3708H34.3708H34.3708H34.3709H34.3709H34.3709H34.3709H34.3709H34.371H34.371H34.371H34.371H34.371H34.3711H34.3711H34.3711H34.3711H34.3712H34.3712H34.3712H34.3712H34.3712H34.3713H34.3713H34.3713H34.3713H34.3714H34.3714H34.3714H34.3714H34.3715H34.3715H34.3715H34.3715H34.3715H34.3716H34.3716H34.3716H34.3716H34.3717H34.3717H34.3717H34.3717H34.3718H34.3718H34.3718H34.3718H34.3719H34.3719H34.3719H34.3719H34.372H34.372H34.372H34.372H34.3721H34.3721H34.3721H34.3721H34.3722H34.3722H34.3722H34.3723H34.3723H34.3723H34.3723H34.3724H34.3724H34.3724H34.3724H34.3725H34.3725H34.3725H34.3726H34.3726H34.3726H34.3726H34.3726H34.3727H34.3727H34.3727H34.3727H34.3727H34.3727H34.3728H34.3728H34.3728H34.3728H34.3728H34.3728H34.3729H34.3729H34.3729H34.3729H34.3729H34.3729H34.373H34.373H34.373H34.373H34.373H34.373H34.3731H34.3731H34.3731H34.3731H34.3731H34.3731H34.3732H34.3732H34.3732H34.3732H34.3732H34.3732H34.3733H34.3733H34.3733H34.3733H34.3733H34.3733H34.3734H34.3734H34.3734H34.3734H34.3734H34.3734H34.3735H34.3735H34.3735H34.3735H34.3735H34.3736H34.3736H34.3736H34.3736H34.3736H34.3737H34.3737H34.3737H34.3737H34.3737H34.3737H34.3738H34.3738H34.3738H34.3738H34.3738H34.3739H34.3739H34.3739H34.3739H34.3739H34.374H34.374H34.374H34.374H34.374H34.3741H34.3741H34.3741H34.3741H34.3741H34.3742H34.3742H34.3742H34.3742H34.3742H34.3743H34.3743H34.3743H34.3743C34.8629 53.2462 35.245 52.8387 35.25 52.3542C35.2549 51.8746 34.8795 51.4523 34.3862 51.4458M33.8452 51.4458C33.3426 51.4516 32.642 51.4587 31.9947 51.3804C31.6714 51.3413 31.3703 51.2819 31.1192 51.1943C30.8652 51.1057 30.6833 50.9957 30.5747 50.8692L30.5739 50.8683M33.8452 51.4458L30.5739 50.8683M34.3862 51.4458C34.3867 51.4458 34.3872 51.4458 34.3877 51.4458L34.3817 51.6958L34.3844 51.4458C34.385 51.4458 34.3856 51.4458 34.3862 51.4458ZM30.5739 50.8683C30.5144 50.7996 30.4058 50.6532 30.4459 50.2803C30.5798 49.0805 31.2312 47.804 31.833 46.6306L31.8335 46.6297M30.5739 50.8683L31.8335 46.6297M31.8335 46.6297L31.9323 46.4351M31.8335 46.6297L31.9323 46.4351M31.9323 46.4351C31.9323 46.4349 31.9324 46.4347 31.9325 46.4345M31.9323 46.4351L31.9325 46.4345M31.9325 46.4345C32.1267 46.0564 32.3283 45.6743 32.5269 45.2985L31.9325 46.4345Z" fill="#EA862B" stroke="#EA862B" stroke-width="0.5"/>
</g>
<defs>
<clipPath id="clip0">
<rect width="32" height="32" fill="white" transform="translate(24 24)"/>
</clipPath>
</defs>
</svg>
