<svg width="48" height="48" viewBox="0 0 48 48" fill="none" xmlns="http://www.w3.org/2000/svg">
<rect width="48" height="48" rx="8" fill="url(#paint0_linear)"/>
<path d="M32.7117 25.5609C32.8078 25.0336 32.8594 24.4945 32.8594 23.9555C32.8594 22.7602 32.625 21.6 32.1633 20.5102C31.718 19.4555 31.0781 18.5086 30.2649 17.6953C29.4584 16.8868 28.5023 16.2428 27.45 15.7992C26.3578 15.3375 25.2 15.1031 24.0047 15.1031C23.4422 15.1031 22.8774 15.157 22.3289 15.2625C21.57 14.8604 20.7245 14.6496 19.8656 14.6484C18.4664 14.6484 17.1492 15.1945 16.1602 16.1836C15.6721 16.6691 15.2851 17.2466 15.0216 17.8826C14.7581 18.5187 14.6233 19.2006 14.625 19.8891C14.625 20.7797 14.8547 21.6563 15.2836 22.4297C15.1969 22.9313 15.15 23.4445 15.15 23.9555C15.15 25.1508 15.3844 26.3109 15.8461 27.4008C16.2914 28.4555 16.9289 29.4023 17.7422 30.2156C18.5555 31.0289 19.5024 31.6664 20.557 32.1117C21.6492 32.5734 22.807 32.8078 24.0024 32.8078C24.5227 32.8078 25.043 32.7609 25.5539 32.6695C26.3391 33.1125 27.225 33.3492 28.132 33.3492C29.5313 33.3492 30.8485 32.8055 31.8375 31.8141C32.8289 30.825 33.3727 29.5078 33.3727 28.1086C33.375 27.218 33.1453 26.3391 32.7117 25.5609ZM24.0399 29.3789C20.8945 29.3789 19.4883 27.832 19.4883 26.6742C19.4883 26.0789 19.9266 25.6641 20.5313 25.6641C21.8766 25.6641 21.5297 27.5977 24.0399 27.5977C25.3266 27.5977 26.0367 26.8992 26.0367 26.1844C26.0367 25.7555 25.8258 25.2773 24.9774 25.0688L22.1789 24.3703C19.9266 23.8055 19.5164 22.5867 19.5164 21.443C19.5164 19.0664 21.7547 18.1734 23.857 18.1734C25.793 18.1734 28.0758 19.2445 28.0758 20.6695C28.0758 21.2813 27.5461 21.6352 26.9414 21.6352C25.793 21.6352 26.0039 20.0461 23.6906 20.0461C22.5422 20.0461 21.907 20.5664 21.907 21.3094C21.907 22.0523 22.8141 22.2891 23.6016 22.4695L25.6735 22.9289C27.9422 23.4352 28.5164 24.7594 28.5164 26.0063C28.5164 27.9352 27.0328 29.3789 24.0399 29.3789Z" fill="url(#paint1_angular)"/>
<defs>
<linearGradient id="paint0_linear" x1="24" y1="0" x2="24" y2="48" gradientUnits="userSpaceOnUse">
<stop stop-color="white"/>
<stop offset="1" stop-color="white" stop-opacity="0.5"/>
</linearGradient>
<radialGradient id="paint1_angular" cx="0" cy="0" r="1" gradientUnits="userSpaceOnUse" gradientTransform="translate(23.9988 23.9988) rotate(90) scale(9.35039 9.37385)">
<stop offset="0.0731417" stop-color="#40C1AC"/>
<stop offset="0.7547" stop-color="#299E97"/>
</radialGradient>
</defs>
</svg>
