<svg width="24" height="24" viewBox="0 0 24 24" fill="none" xmlns="http://www.w3.org/2000/svg">
<path d="M7.42878 6.21975C7.57899 6.07915 7.78269 6.00016 7.99508 6.00016C8.20747 6.00016 8.41117 6.07915 8.56137 6.21975L11.7653 9.21975C11.9112 9.3612 11.992 9.55065 11.9901 9.7473C11.9883 9.94395 11.9041 10.1321 11.7556 10.2711C11.607 10.4102 11.4061 10.489 11.1961 10.4908C10.9861 10.4925 10.7838 10.4169 10.6327 10.2802L8.79606 8.5605V17.25C8.79606 17.4489 8.71167 17.6397 8.56146 17.7803C8.41125 17.921 8.20751 18 7.99508 18C7.78264 18 7.57891 17.921 7.4287 17.7803C7.27848 17.6397 7.19409 17.4489 7.19409 17.25V8.5605L5.35744 10.2802C5.20637 10.4169 5.00404 10.4925 4.79402 10.4908C4.58401 10.489 4.38311 10.4102 4.2346 10.2711C4.08609 10.1321 4.00186 9.94395 4.00003 9.7473C3.99821 9.55065 4.07894 9.3612 4.22485 9.21975L7.42878 6.21975ZM15.2039 15.4395V6.75C15.2039 6.55109 15.2883 6.36032 15.4385 6.21967C15.5888 6.07902 15.7925 6 16.0049 6C16.2174 6 16.4211 6.07902 16.5713 6.21967C16.7215 6.36032 16.8059 6.55109 16.8059 6.75V15.4395L18.6426 13.7198C18.7936 13.5831 18.996 13.5075 19.206 13.5092C19.416 13.511 19.6169 13.5898 19.7654 13.7289C19.9139 13.8679 19.9981 14.0561 20 14.2527C20.0018 14.4493 19.9211 14.6388 19.7752 14.7802L16.5712 17.7803C16.421 17.9209 16.2173 17.9998 16.0049 17.9998C15.7925 17.9998 15.5888 17.9209 15.4386 17.7803L12.2347 14.7802C12.0888 14.6388 12.008 14.4493 12.0099 14.2527C12.0117 14.0561 12.0959 13.8679 12.2444 13.7289C12.393 13.5898 12.5939 13.511 12.8039 13.5092C13.0139 13.5075 13.2162 13.5831 13.3673 13.7198L15.2039 15.4395Z" fill="#40C1AC"/>
</svg>
