<svg width="80" height="80" viewBox="0 0 80 80" fill="none" xmlns="http://www.w3.org/2000/svg">
<rect width="80" height="80" rx="16" fill="#FCF2C7"/>
<g clip-path="url(#clip0)">
<path d="M27.0714 35.1789C27.4762 35.4646 28.6964 36.3129 30.732 37.7236C32.7678 39.1343 34.3273 40.2204 35.4106 40.9822C35.5297 41.0657 35.7825 41.2472 36.1694 41.5269C36.5563 41.8069 36.8778 42.0331 37.1336 42.2057C37.3896 42.3782 37.6991 42.5717 38.0623 42.7859C38.4255 43 38.7678 43.1609 39.0892 43.2675C39.4107 43.375 39.7083 43.4282 39.982 43.4282H40H40.018C40.2918 43.4282 40.5895 43.3749 40.911 43.2675C41.2323 43.1609 41.5749 42.9998 41.9377 42.7859C42.3007 42.5715 42.6102 42.3781 42.8662 42.2057C43.1222 42.0331 43.4435 41.8069 43.8305 41.5269C44.2173 41.2469 44.4705 41.0657 44.5895 40.9822C45.6845 40.2204 48.4705 38.2858 52.9465 35.1786C53.8155 34.5717 54.5416 33.8394 55.1248 32.9822C55.7085 32.1254 56 31.2265 56 30.2862C56 29.5003 55.7171 28.8277 55.1516 28.2682C54.5861 27.7086 53.9164 27.429 53.1428 27.429H26.857C25.9404 27.429 25.235 27.7384 24.741 28.3574C24.247 28.9765 24 29.7503 24 30.6788C24 31.4288 24.3275 32.2415 24.9822 33.1164C25.6368 33.9914 26.3334 34.679 27.0714 35.1789Z" fill="#ED9C00"/>
<path d="M54.214 37.0893C50.3097 39.7319 47.345 41.7856 45.3215 43.2501C44.6429 43.7499 44.0925 44.1401 43.6697 44.4196C43.247 44.6994 42.6848 44.9851 41.9822 45.2766C41.28 45.5686 40.6255 45.7141 40.0182 45.7141H40H39.9821C39.375 45.7141 38.7201 45.5686 38.0179 45.2766C37.3156 44.9851 36.753 44.6994 36.3304 44.4196C35.9079 44.1401 35.3572 43.7499 34.6787 43.2501C33.0715 42.0716 30.1132 40.0177 25.8038 37.0893C25.125 36.6372 24.5238 36.119 24 35.5358V49.7139C24 50.5001 24.2796 51.1724 24.8392 51.732C25.3987 52.2917 26.0714 52.5715 26.8572 52.5715H53.143C53.9286 52.5715 54.6013 52.2917 55.1608 51.732C55.7205 51.1723 56 50.5002 56 49.7139V35.5358C55.488 36.1069 54.893 36.6251 54.214 37.0893Z" fill="#ED9C00"/>
</g>
<defs>
<clipPath id="clip0">
<rect width="32" height="32" fill="white" transform="translate(24 24)"/>
</clipPath>
</defs>
</svg>
