<svg width="24" height="24" viewBox="0 0 24 24" fill="none" xmlns="http://www.w3.org/2000/svg">
<path d="M19.6786 10.1672L17.5551 3.52735C17.5413 3.48292 17.5136 3.44411 17.476 3.41668C17.4385 3.38924 17.393 3.37463 17.3465 3.37501H15.5325C15.4364 3.37501 15.3543 3.43594 15.3239 3.52735L13.184 10.1672C13.177 10.1883 13.1723 10.2117 13.1723 10.2352C13.1723 10.3547 13.2707 10.4531 13.3903 10.4531H14.7121C14.8106 10.4531 14.895 10.3875 14.9231 10.2938L15.3332 8.85001H17.4192L17.8246 10.2914C17.8504 10.3852 17.9371 10.4508 18.0356 10.4508H19.47C19.4934 10.4508 19.5145 10.4484 19.5356 10.4414C19.5918 10.4227 19.6364 10.3852 19.6645 10.3336C19.6903 10.282 19.695 10.2234 19.6786 10.1672ZM15.5465 7.62891L16.3153 4.88907H16.4629L17.2153 7.62891H15.5465ZM18.9098 19.1813H15.8723V19.1719L18.9801 14.7445C19.0059 14.707 19.02 14.6649 19.02 14.618V13.7649C19.02 13.6453 18.9215 13.5469 18.802 13.5469H14.0207C13.9012 13.5469 13.8028 13.6453 13.8028 13.7649V14.7727C13.8028 14.8922 13.9012 14.9906 14.0207 14.9906H16.8942V15L13.7746 19.4274C13.7486 19.4644 13.7347 19.5086 13.7348 19.5539V20.407C13.7348 20.5266 13.8332 20.625 13.9528 20.625H18.9075C19.027 20.625 19.1254 20.5266 19.1254 20.407V19.3992C19.1257 19.3707 19.1204 19.3424 19.1097 19.316C19.099 19.2896 19.0832 19.2655 19.0631 19.2452C19.0431 19.225 19.0192 19.2089 18.9929 19.1979C18.9666 19.1869 18.9383 19.1813 18.9098 19.1813ZM7.27309 3.91641C7.25555 3.894 7.23314 3.87588 7.20755 3.86341C7.18197 3.85095 7.15389 3.84447 7.12543 3.84447C7.09697 3.84447 7.06889 3.85095 7.0433 3.86341C7.01772 3.87588 6.99531 3.894 6.97777 3.91641L4.35277 7.24219C4.25434 7.36641 4.3434 7.54688 4.50043 7.54688H6.28168V19.9688C6.28168 20.0719 6.36605 20.1563 6.46918 20.1563H7.78168C7.8848 20.1563 7.96918 20.0719 7.96918 19.9688V7.54688H9.75043C9.90746 7.54688 9.99652 7.36407 9.89809 7.24219L7.27309 3.91641Z" fill="#40C1AC"/>
</svg>
