<svg width="80" height="80" viewBox="0 0 80 80" fill="none" xmlns="http://www.w3.org/2000/svg">
<rect width="80" height="80" rx="16" fill="#FEE3E6"/>
<g clip-path="url(#clip0)">
<path d="M40 24C33.384 24 28 29.4213 28 36.0867C28 45.5573 38.872 55.336 39.3347 55.7467C39.5253 55.916 39.7627 56 40 56C40.2373 56 40.4747 55.916 40.6653 55.748C41.128 55.336 52 45.5573 52 36.0867C52 29.4213 46.616 24 40 24ZM40 42.6667C36.324 42.6667 33.3333 39.676 33.3333 36C33.3333 32.324 36.324 29.3333 40 29.3333C43.676 29.3333 46.6667 32.324 46.6667 36C46.6667 39.676 43.676 42.6667 40 42.6667Z" fill="#FF1526"/>
</g>
<defs>
<clipPath id="clip0">
<rect width="32" height="32" fill="white" transform="translate(24 24)"/>
</clipPath>
</defs>
</svg>
