<svg width="80" height="80" viewBox="0 0 80 80" fill="none" xmlns="http://www.w3.org/2000/svg">
<rect width="80" height="80" rx="16" fill="#F8DAF3"/>
<path d="M36.6875 35.9386V34.1261C36.6875 32.403 38.0894 31.0011 39.8125 31.0011H48.7188V27.5636C48.7188 26.8732 48.1591 26.3136 47.4688 26.3136H32.5312C31.8409 26.3136 31.2812 26.8732 31.2812 27.5636V35.9386H36.6875Z" fill="#A740C1"/>
<path d="M39.8125 47.1886C38.0894 47.1886 36.6875 45.7867 36.6875 44.0636V37.8136H25.25C24.5596 37.8136 24 38.3732 24 39.0636V49.0011C24 49.6915 24.5596 50.2511 25.25 50.2511H28.5625V53.06C28.5625 53.4303 28.8663 53.6862 29.1901 53.6862C29.3173 53.6862 29.4474 53.6467 29.5636 53.5592L33.9538 50.251H40.1875C40.8779 50.251 41.4375 49.6914 41.4375 49.001V47.1885H39.8125V47.1886Z" fill="#A740C1"/>
<path d="M54.75 32.8761H39.8125C39.1221 32.8761 38.5625 33.4357 38.5625 34.1261V44.0636C38.5625 44.754 39.1221 45.3136 39.8125 45.3136H46.0462L50.4364 48.6217C50.5526 48.7093 50.6828 48.7487 50.8099 48.7487C51.1337 48.7487 51.4375 48.4929 51.4375 48.1226V45.3137H54.75C55.4404 45.3137 56 44.754 56 44.0637V34.1262C56 33.4357 55.4404 32.8761 54.75 32.8761Z" fill="#A740C1"/>
</svg>
