<svg width="24" height="24" viewBox="0 0 24 24" fill="none" xmlns="http://www.w3.org/2000/svg">
<path d="M3.99992 8.498L3.99992 15.502C2.4176 14.8404 1.15948 13.5823 0.497921 12C1.15948 10.4177 2.4176 9.15956 3.99992 8.498ZM9.19492 18L6.92692 20L4.99992 20L4.99992 4L6.92692 4L9.19492 6L14.9999 6C18.4829 6 21.4469 8.504 22.5449 12C21.4469 15.496 18.4829 18 14.9999 18L9.19492 18ZM12.9999 12C12.9999 12.5304 13.2106 13.0391 13.5857 13.4142C13.9608 13.7893 14.4695 14 14.9999 14C15.5304 14 16.0391 13.7893 16.4141 13.4142C16.7892 13.0391 16.9999 12.5304 16.9999 12C16.9999 11.4696 16.7892 10.9609 16.4141 10.5858C16.0391 10.2107 15.5304 10 14.9999 10C14.4695 10 13.9608 10.2107 13.5857 10.5858C13.2106 10.9609 12.9999 11.4696 12.9999 12Z" fill="#40C1AC"/>
</svg>
