<svg width="80" height="80" viewBox="0 0 80 80" fill="none" xmlns="http://www.w3.org/2000/svg">
<rect width="80" height="80" rx="16" fill="#DDFEE6"/>
<path d="M52 37H51V40C51 41.3261 50.4732 42.5979 49.5355 43.5355C48.5979 44.4732 47.3261 45 46 45H31V52C31 52.7956 31.3161 53.5587 31.8787 54.1213C32.4413 54.6839 33.2044 55 34 55H52C52.7956 55 53.5587 54.6839 54.1213 54.1213C54.6839 53.5587 55 52.7956 55 52V40C55 39.2044 54.6839 38.4413 54.1213 37.8787C53.5587 37.3161 52.7956 37 52 37Z" fill="#23AD20"/>
<path d="M28 43H46C46.7956 43 47.5587 42.6839 48.1213 42.1213C48.6839 41.5587 49 40.7956 49 40V28C49 27.2044 48.6839 26.4413 48.1213 25.8787C47.5587 25.3161 46.7956 25 46 25H28C27.2044 25 26.4413 25.3161 25.8787 25.8787C25.3161 26.4413 25 27.2044 25 28V40C25 40.7956 25.3161 41.5587 25.8787 42.1213C26.4413 42.6839 27.2044 43 28 43ZM27.94 29.41C28.0173 29.3034 28.1149 29.2131 28.2272 29.1443C28.3395 29.0756 28.4642 29.0296 28.5943 29.0092C28.7244 28.9887 28.8572 28.9942 28.9852 29.0252C29.1132 29.0563 29.2337 29.1123 29.34 29.19L37 34.76L44.66 29.19C44.8748 29.0335 45.143 28.9688 45.4056 29.0101C45.6681 29.0513 45.9035 29.1952 46.06 29.41C46.2165 29.6248 46.2812 29.893 46.24 30.1556C46.1987 30.4181 46.0548 30.6535 45.84 30.81L37.59 36.81C37.4187 36.9351 37.2121 37.0026 37 37.0026C36.7879 37.0026 36.5813 36.9351 36.41 36.81L28.16 30.81C28.0534 30.7327 27.9631 30.6351 27.8943 30.5228C27.8256 30.4105 27.7796 30.2858 27.7592 30.1557C27.7387 30.0256 27.7442 29.8928 27.7752 29.7648C27.8063 29.6368 27.8623 29.5163 27.94 29.41Z" fill="#23AD20"/>
<path d="M51 31H54C54.2652 31 54.5196 30.8946 54.7071 30.7071C54.8946 30.5196 55 30.2652 55 30C55 29.7348 54.8946 29.4804 54.7071 29.2929C54.5196 29.1054 54.2652 29 54 29H51C50.7348 29 50.4804 29.1054 50.2929 29.2929C50.1054 29.4804 50 29.7348 50 30C50 30.2652 50.1054 30.5196 50.2929 30.7071C50.4804 30.8946 50.7348 31 51 31Z" fill="#23AD20"/>
<path d="M54 33H51C50.7348 33 50.4804 33.1054 50.2929 33.2929C50.1054 33.4804 50 33.7348 50 34C50 34.2652 50.1054 34.5196 50.2929 34.7071C50.4804 34.8946 50.7348 35 51 35H54C54.2652 35 54.5196 34.8946 54.7071 34.7071C54.8946 34.5196 55 34.2652 55 34C55 33.7348 54.8946 33.4804 54.7071 33.2929C54.5196 33.1054 54.2652 33 54 33Z" fill="#23AD20"/>
<path d="M29 45H26C25.7348 45 25.4804 45.1054 25.2929 45.2929C25.1054 45.4804 25 45.7348 25 46C25 46.2652 25.1054 46.5196 25.2929 46.7071C25.4804 46.8946 25.7348 47 26 47H29C29.2652 47 29.5196 46.8946 29.7071 46.7071C29.8946 46.5196 30 46.2652 30 46C30 45.7348 29.8946 45.4804 29.7071 45.2929C29.5196 45.1054 29.2652 45 29 45Z" fill="#23AD20"/>
<path d="M29 49H26C25.7348 49 25.4804 49.1054 25.2929 49.2929C25.1054 49.4804 25 49.7348 25 50C25 50.2652 25.1054 50.5196 25.2929 50.7071C25.4804 50.8946 25.7348 51 26 51H29C29.2652 51 29.5196 50.8946 29.7071 50.7071C29.8946 50.5196 30 50.2652 30 50C30 49.7348 29.8946 49.4804 29.7071 49.2929C29.5196 49.1054 29.2652 49 29 49Z" fill="#23AD20"/>
</svg>
