<svg width="80" height="80" viewBox="0 0 80 80" fill="none" xmlns="http://www.w3.org/2000/svg">
<rect width="80" height="80" rx="16" fill="#FAD4EB"/>
<path d="M47.5 26.0625C43.7088 26.0625 41.2753 28.6882 40 31.0531C38.7247 28.6882 36.2912 26.0625 32.5 26.0625C27.6898 26.0625 24 29.9654 24 35.1418C24 36.4924 24.2704 37.7393 24.7684 38.9375H31.9205L33.5364 35.7057C33.855 35.0703 34.895 35.0703 35.2136 35.7057L38.125 41.5285L39.1614 39.4558C39.48 38.8204 40.52 38.8204 40.8386 39.4558L41.875 41.5285L44.7864 35.7058C45.105 35.0704 46.145 35.0704 46.4636 35.7058L48.0795 38.9375H55.2316C55.7296 37.7393 56 36.4924 56 35.1418C56 29.9654 52.3102 26.0625 47.5 26.0625Z" fill="#F1358F"/>
<path d="M47.5001 40.8124C47.1449 40.8124 46.8208 40.6119 46.6615 40.2942L45.6251 38.2214L42.7138 44.0442C42.5544 44.3619 42.2304 44.5624 41.8751 44.5624C41.5199 44.5624 41.1958 44.3619 41.0365 44.0442L40.0001 41.9714L38.9638 44.0442C38.6451 44.6796 37.6051 44.6796 37.2865 44.0442L34.3751 38.2214L33.3388 40.2942C33.1794 40.6119 32.8554 40.8124 32.5001 40.8124H25.7524C27.682 43.8482 31.1571 46.7319 35.5039 50.4007C36.7243 51.4306 38.0226 52.5265 39.3858 53.7085C39.5624 53.8614 39.7813 53.9374 40.0001 53.9374C40.2189 53.9374 40.4377 53.8614 40.6144 53.7085C41.9776 52.5265 43.2758 51.4307 44.4962 50.4007C48.8431 46.7319 52.3181 43.8482 54.2477 40.8124H47.5001Z" fill="#F1358F"/>
</svg>
