<svg width="24" height="24" viewBox="0 0 24 24" fill="none" xmlns="http://www.w3.org/2000/svg">
<path fill-rule="evenodd" clip-rule="evenodd" d="M15.2184 6.96912C15.2881 6.89927 15.3708 6.84386 15.4619 6.80605C15.5531 6.76824 15.6507 6.74878 15.7494 6.74878C15.848 6.74878 15.9457 6.76824 16.0368 6.80605C16.128 6.84386 16.2107 6.89927 16.2804 6.96912L20.7804 11.4691C20.8502 11.5388 20.9056 11.6216 20.9435 11.7127C20.9813 11.8038 21.0007 11.9015 21.0007 12.0001C21.0007 12.0988 20.9813 12.1965 20.9435 12.2876C20.9056 12.3787 20.8502 12.4615 20.7804 12.5311L16.2804 17.0311C16.1396 17.1719 15.9486 17.2511 15.7494 17.2511C15.5502 17.2511 15.3592 17.1719 15.2184 17.0311C15.0776 16.8903 14.9984 16.6993 14.9984 16.5001C14.9984 16.301 15.0776 16.1099 15.2184 15.9691L19.1889 12.0001L15.2184 8.03112C15.1485 7.96145 15.0931 7.87869 15.0553 7.78757C15.0175 7.69645 14.998 7.59877 14.998 7.50012C14.998 7.40147 15.0175 7.30379 15.0553 7.21267C15.0931 7.12155 15.1485 7.03879 15.2184 6.96912Z" fill="#00594C"/>
<path fill-rule="evenodd" clip-rule="evenodd" d="M3 12C3 11.8011 3.07902 11.6103 3.21967 11.4697C3.36032 11.329 3.55109 11.25 3.75 11.25H19.5C19.6989 11.25 19.8897 11.329 20.0303 11.4697C20.171 11.6103 20.25 11.8011 20.25 12C20.25 12.1989 20.171 12.3897 20.0303 12.5303C19.8897 12.671 19.6989 12.75 19.5 12.75H3.75C3.55109 12.75 3.36032 12.671 3.21967 12.5303C3.07902 12.3897 3 12.1989 3 12Z" fill="#00594C"/>
</svg>
