<svg width="48" height="48" viewBox="0 0 48 48" fill="none" xmlns="http://www.w3.org/2000/svg">
<rect width="48" height="48" rx="8" fill="url(#paint0_linear)"/>
<path d="M20.3839 14.4791C20.909 14.3208 21.4725 14.3471 21.9806 14.5537C22.4887 14.7602 22.9107 15.1345 23.1763 15.6143L23.2663 15.7931L24.0595 17.5583C24.3006 18.0941 24.3789 18.6889 24.2846 19.2688C24.1903 19.8488 23.9276 20.3881 23.5291 20.8199L23.3707 20.9783L22.1179 22.1459C21.8923 22.3595 22.0615 23.1863 22.8787 24.5999C23.6119 25.8719 24.2107 26.4659 24.5035 26.4983H24.5551L24.6187 26.4863L27.0787 25.7339C27.4093 25.6325 27.7622 25.6285 28.095 25.7224C28.4278 25.8162 28.7266 26.004 28.9555 26.2631L29.0659 26.4011L30.6931 28.6571C31.0124 29.0992 31.1717 29.6368 31.1446 30.1814C31.1176 30.7261 30.9059 31.2453 30.5443 31.6535L30.3979 31.8047L29.7463 32.4215C29.1623 32.9746 28.4317 33.3484 27.6414 33.4984C26.8511 33.6483 26.0344 33.5682 25.2883 33.2675C22.9663 32.3315 20.8567 30.1931 18.9403 26.8739C17.0203 23.5463 16.2223 20.6459 16.5787 18.1619C16.6867 17.4109 16.9961 16.7032 17.474 16.1139C17.9519 15.5246 18.5806 15.0758 19.2931 14.8151L19.5247 14.7383L20.3839 14.4791Z" fill="url(#paint1_angular)"/>
<defs>
<linearGradient id="paint0_linear" x1="24" y1="0" x2="24" y2="48" gradientUnits="userSpaceOnUse">
<stop stop-color="white"/>
<stop offset="1" stop-color="white" stop-opacity="0.5"/>
</linearGradient>
<radialGradient id="paint1_angular" cx="0" cy="0" r="1" gradientUnits="userSpaceOnUse" gradientTransform="translate(23.8218 23.9745) rotate(90) scale(9.59753 7.32574)">
<stop offset="0.0731417" stop-color="#40C1AC"/>
<stop offset="0.7547" stop-color="#299E97"/>
</radialGradient>
</defs>
</svg>
