<svg width="80" height="80" viewBox="0 0 80 80" fill="none" xmlns="http://www.w3.org/2000/svg">
<rect width="80" height="80" rx="16" fill="#DDFEEE"/>
<path d="M40 24C31.2119 24 24 31.2119 24 40C24 48.7881 31.2119 56 40 56C48.7881 56 56 48.7881 56 40C56 31.2119 48.7881 24 40 24ZM41.875 47.5C41.875 48.5336 41.0336 49.375 40 49.375C38.9664 49.375 38.125 48.5336 38.125 47.5V38.125C38.125 37.0914 38.9664 36.25 40 36.25C41.0336 36.25 41.875 37.0914 41.875 38.125V47.5ZM40 34.375C38.9664 34.375 38.125 33.5336 38.125 32.5C38.125 31.4664 38.9664 30.625 40 30.625C41.0336 30.625 41.875 31.4664 41.875 32.5C41.875 33.5336 41.0336 34.375 40 34.375Z" fill="#40C1AC"/>
</svg>
