<svg width="80" height="80" viewBox="0 0 80 80" fill="none" xmlns="http://www.w3.org/2000/svg">
<rect width="80" height="80" rx="16" fill="#D4FAF8"/>
<path d="M47.5 34C42.8137 34 39 37.7272 39 42.3096C39 48.8207 46.701 55.5435 47.0287 55.8258C47.1638 55.9422 47.3319 56 47.5 56C47.6681 56 47.8362 55.9423 47.9713 55.8268C48.299 55.5435 56 48.8207 56 42.3096C56 37.7272 52.1863 34 47.5 34ZM47.5 46.8333C44.8962 46.8333 42.7778 44.7773 42.7778 42.25C42.7778 39.7228 44.8962 37.6667 47.5 37.6667C50.1038 37.6667 52.2222 39.7228 52.2222 42.25C52.2222 44.7773 50.1038 46.8333 47.5 46.8333Z" fill="#40C1B9"/>
<path d="M47 55C40.8333 55 29.7 53.252 34.5 46.2598C39.3 39.2677 34.1667 40.7244 31 42.3268" stroke="#40C1B9"/>
<path d="M31 24C27.1407 24 24 27.2189 24 31.1765C24 36.7997 30.342 42.6057 30.6119 42.8496C30.7231 42.9501 30.8616 43 31 43C31.1384 43 31.2769 42.9501 31.3881 42.8504C31.658 42.6058 38 36.7997 38 31.1765C38 27.2189 34.8593 24 31 24ZM31 35.0833C28.8557 35.0833 27.1111 33.3076 27.1111 31.125C27.1111 28.9424 28.8557 27.1667 31 27.1667C33.1443 27.1667 34.8889 28.9424 34.8889 31.125C34.8889 33.3076 33.1443 35.0833 31 35.0833Z" fill="#40C1B9"/>
</svg>
