<svg width="80" height="80" viewBox="0 0 80 80" fill="none" xmlns="http://www.w3.org/2000/svg">
<rect width="80" height="80" rx="16" fill="#F5DAF8"/>
<path d="M56 36.6894V50.4772C56 50.8564 55.6786 51.1666 55.2857 51.1666H54.1371C53.588 51.1666 53.1429 51.6117 53.1429 52.1609C53.1429 52.9512 52.2653 53.4256 51.6041 52.9927L49.0638 51.3299C48.901 51.2234 48.7107 51.1666 48.5161 51.1666H36.7143C36.3214 51.1666 36 50.8564 36 50.4772V36.6894C36 36.3102 36.3214 36 36.7143 36H55.2857C55.6786 36 56 36.3102 56 36.6894ZM52.4286 40.1363C53.35 40.1363 53.35 38.7576 52.4286 38.7576H39.5714C38.65 38.7576 38.65 40.1363 39.5714 40.1363H52.4286ZM48.1429 42.8939C49.0643 42.8939 49.0643 41.5151 48.1429 41.5151H39.5714C38.65 41.5151 38.65 42.8939 39.5714 42.8939H48.1429Z" fill="#9D32B8"/>
<path d="M44 26.6894V33.2727C44 33.825 43.5523 34.2727 43 34.2727H37.5714C36.3857 34.2727 35.4286 35.1965 35.4286 36.3409V40.1666C35.4286 40.7189 34.9809 41.1666 34.4286 41.1666H31.4839C31.2893 41.1666 31.099 41.2234 30.9362 41.3299L28.3959 42.9927C27.7347 43.4256 26.8571 42.9512 26.8571 42.1609C26.8571 41.6117 26.412 41.1666 25.8629 41.1666H24.7143C24.3214 41.1666 24 40.8564 24 40.4772V26.6894C24 26.3102 24.3214 26 24.7143 26H43.2857C43.6786 26 44 26.3102 44 26.6894Z" fill="#9D32B8"/>
</svg>
