<svg width="80" height="80" viewBox="0 0 80 80" fill="none" xmlns="http://www.w3.org/2000/svg">
<rect width="80" height="80" rx="16" fill="#DAE0F8"/>
<g clip-path="url(#clip0)">
<path d="M34.3761 24C33.8583 24 33.4385 24.4198 33.4385 24.9376V25.8753C33.4385 26.911 34.278 27.7505 35.3138 27.7505H39.0643C40.1 27.7505 40.9396 26.911 40.9396 25.8753V24.9376C40.9396 24.4198 40.5196 24 40.0019 24H34.3761Z" fill="#4028D6"/>
<path d="M38.8143 46.9936C37.6238 45.8041 36.8072 44.3108 36.4502 42.6745C36.2441 41.7368 36.527 40.7681 37.2091 40.0858C37.8729 39.4244 38.8462 39.1261 39.7868 39.3241C41.4341 39.683 42.9283 40.5005 44.1177 41.6902L47.503 45.0753V26.8129C47.503 26.2945 47.0836 25.8753 46.5654 25.8753H42.8148C42.8148 27.9436 41.1328 29.6258 39.0643 29.6258H35.3137C33.2452 29.6258 31.5632 27.9436 31.5632 25.8753H27.8126C27.2942 25.8753 26.875 26.2945 26.875 26.8129V53.1918C26.875 53.71 27.2942 54.1294 27.8126 54.1294H45.95L38.8143 46.9936ZM31.5632 31.5636H42.8148C43.3331 31.5636 43.7525 31.9829 43.7525 32.5012C43.7525 33.0195 43.3331 33.4389 42.8148 33.4389H31.5632C31.0448 33.4389 30.6255 33.0195 30.6255 32.5012C30.6255 31.9829 31.0448 31.5636 31.5632 31.5636ZM31.5632 35.3142H42.8148C43.3331 35.3142 43.7525 35.7334 43.7525 36.2518C43.7525 36.7701 43.3331 37.1894 42.8148 37.1894H31.5632C31.0448 37.1894 30.6255 36.7701 30.6255 36.2518C30.6255 35.7334 31.0448 35.3142 31.5632 35.3142ZM35.3137 48.5036H31.5632C31.0448 48.5036 30.6255 48.0842 30.6255 47.566C30.6255 47.0476 31.0448 46.6283 31.5632 46.6283H35.3137C35.832 46.6283 36.2514 47.0476 36.2514 47.566C36.2514 48.0842 35.832 48.5036 35.3137 48.5036Z" fill="#4028D6"/>
<path d="M52.5765 55.4484C53.3042 54.719 53.3109 53.5364 52.5749 52.7984L43.7482 43.9717C42.8893 44.8148 41.9502 45.7394 41.0781 46.6052L49.9249 55.452C50.6507 56.176 51.8327 56.1904 52.5765 55.4484Z" fill="#4028D6"/>
<path d="M38.5354 41.4117C38.3092 41.6379 38.2139 41.9629 38.2826 42.2752C38.5236 43.38 39.0468 44.3923 39.7794 45.2516C40.634 44.4032 41.5527 43.4985 42.3952 42.6716C41.5319 41.9303 40.5127 41.4019 39.3978 41.159C39.0912 41.0939 38.7615 41.1864 38.5354 41.4117Z" fill="#4028D6"/>
</g>
<defs>
<clipPath id="clip0">
<rect width="32" height="32" fill="white" transform="translate(24 24)"/>
</clipPath>
</defs>
</svg>
