<svg width="80" height="80" viewBox="0 0 80 80" fill="none" xmlns="http://www.w3.org/2000/svg">
<rect width="80" height="80" rx="16" fill="#DAF8F3"/>
<path d="M40 24C36.8355 24 33.7421 24.9384 31.1109 26.6965C28.4797 28.4546 26.4289 30.9534 25.2179 33.8771C24.0069 36.8007 23.6901 40.0177 24.3074 43.1214C24.9248 46.2251 26.4487 49.0761 28.6863 51.3137C30.9239 53.5513 33.7749 55.0752 36.8786 55.6926C39.9823 56.3099 43.1993 55.9931 46.1229 54.7821C49.0466 53.5711 51.5454 51.5203 53.3035 48.8891C55.0616 46.2579 56 43.1645 56 40C56 37.8988 55.5861 35.8183 54.7821 33.8771C53.978 31.9359 52.7994 30.172 51.3137 28.6863C49.828 27.2006 48.0641 26.022 46.1229 25.2179C44.1817 24.4139 42.1012 24 40 24ZM46.88 36.176L39.568 45.776C39.419 45.9696 39.2275 46.1265 39.0084 46.2347C38.7893 46.3429 38.5484 46.3994 38.304 46.4C38.061 46.4013 37.8208 46.3472 37.6018 46.2419C37.3828 46.1365 37.1907 45.9827 37.04 45.792L33.136 40.816C33.0068 40.65 32.9115 40.4602 32.8557 40.2574C32.7998 40.0546 32.7844 39.8428 32.8104 39.634C32.8364 39.4253 32.9033 39.2237 33.0072 39.0408C33.1111 38.8579 33.25 38.6972 33.416 38.568C33.7512 38.307 34.1764 38.1899 34.598 38.2424C34.8067 38.2684 35.0083 38.3353 35.1912 38.4392C35.3741 38.5431 35.5348 38.682 35.664 38.848L38.272 42.176L44.32 34.176C44.4482 34.0079 44.6082 33.8667 44.7909 33.7605C44.9737 33.6542 45.1756 33.585 45.385 33.5568C45.5945 33.5285 45.8075 33.5418 46.0119 33.5959C46.2162 33.65 46.4079 33.7438 46.576 33.872C46.7441 34.0002 46.8853 34.1602 46.9915 34.3429C47.0978 34.5257 47.167 34.7275 47.1952 34.937C47.2235 35.1465 47.2102 35.3595 47.1561 35.5639C47.102 35.7682 47.0082 35.9599 46.88 36.128V36.176Z" fill="#40C1AC"/>
</svg>
