<svg width="80" height="80" viewBox="0 0 80 80" fill="none" xmlns="http://www.w3.org/2000/svg">
<rect width="80" height="80" rx="16" fill="#FBF0DA"/>
<g clip-path="url(#clip0)">
<path d="M47.416 36.3845L52.237 38.1554L48.2276 49.0717C47.8525 50.0985 45.8178 53.3112 44.4009 53.9665L44.0569 54.9045C43.9694 55.1421 43.7443 55.2909 43.5054 55.2909C43.4379 55.2909 43.3704 55.2784 43.3028 55.2546C42.999 55.1421 42.8414 54.8057 42.9539 54.4993L43.2791 53.6126C42.56 52.2157 43.0965 48.1588 43.4116 47.3009L47.416 36.3845ZM54.393 24.8341C53.0674 24.3489 51.5154 25.3519 51.0715 26.5637L48.1676 34.4749L52.9874 36.2432L55.8875 28.3332C56.2527 27.3428 55.7212 25.3206 54.393 24.8341ZM45.6702 35.9756C45.8053 36.0256 45.9441 36.0494 46.0791 36.0494C46.5569 36.0494 47.0058 35.7567 47.1822 35.2815L50.2461 27.0176C50.4725 26.4086 50.1611 25.732 49.552 25.5069C48.938 25.2843 48.2664 25.592 48.0401 26.201L44.9761 34.4649C44.7498 35.0739 45.0612 35.7505 45.6702 35.9756ZM40.7379 51.4716C40.4215 51.1727 40.0276 50.8 39.3898 50.5161C38.8645 50.2823 38.353 50.271 37.9791 50.2623C37.9403 50.2623 37.8953 50.261 37.8503 50.2598C37.6164 49.6195 37.1425 49.2168 36.4309 49.0592C35.4892 48.8604 34.7376 49.3043 34.2161 49.647C34.2624 49.3844 34.3386 49.0717 34.3949 48.8466C34.575 48.1213 34.7601 47.3709 34.6225 46.6681C34.5137 46.1128 34.0448 45.7001 33.4795 45.6601C32.0226 45.5788 30.832 46.363 29.7828 47.072C28.681 47.8161 27.9744 48.2601 27.2716 48.0087C26.4137 47.7036 26.3274 45.3812 26.7401 43.3128C27.109 41.4494 27.7956 37.9803 29.5551 36.4045C30.1479 35.8743 31.0058 35.3003 31.7112 35.5791C32.5403 35.9043 33.2256 37.2699 33.3782 38.897C33.442 39.5835 34.041 40.0875 34.7401 40.025C35.4279 39.9612 35.9331 39.3509 35.8681 38.6631C35.6205 36.0118 34.3774 33.9384 32.6253 33.2493C31.5761 32.8416 29.9078 32.7316 27.8856 34.5412C25.6858 36.5108 24.873 39.8511 24.2839 42.8263C23.9888 44.312 23.2697 49.2418 26.4312 50.3661C28.3571 51.0527 29.9216 49.9934 31.1784 49.1455C31.4085 48.9904 31.6349 48.8379 31.855 48.7015C31.6461 49.6082 31.5161 50.5787 32.0638 51.3966C32.8805 52.6246 34.0347 52.7585 35.4929 51.798C35.5492 51.7617 35.6142 51.7192 35.6755 51.6767C35.8106 51.9593 36.0494 52.2707 36.4834 52.4833C37.0086 52.7409 37.5339 52.7534 37.9166 52.7635C38.0804 52.7672 38.3042 52.7722 38.3718 52.8022C38.6069 52.906 38.7457 53.0336 39.0158 53.2887C39.2184 53.48 39.4323 53.6789 39.7037 53.884C39.9288 54.0528 40.1914 54.1328 40.4515 54.1328C40.8317 54.1328 41.2081 53.959 41.4532 53.6326C41.8672 53.0798 41.7546 52.2957 41.2019 51.8818C41.0205 51.7417 40.8767 51.6029 40.7379 51.4716Z" fill="#9E8757"/>
</g>
<defs>
<clipPath id="clip0">
<rect width="32" height="32" fill="white" transform="translate(24 24)"/>
</clipPath>
</defs>
</svg>
