<svg width="24" height="24" viewBox="0 0 24 24" fill="none" xmlns="http://www.w3.org/2000/svg">
<path d="M11.4796 0.296387C11.1677 0.296217 10.8697 0.425208 10.6565 0.652905L1.80663 10.1146C1.61133 10.3235 1.50276 10.5988 1.50293 10.8848V20.2819C1.50293 22.1351 3.03003 23.6622 4.88325 23.6622H19.1557C21.0089 23.6622 22.536 22.1351 22.536 20.2819V3.6767C22.536 1.82347 21.0089 0.296387 19.1557 0.296387H11.4796ZM10.3528 4.27823V8.63127C10.3528 9.27501 9.8712 9.75804 9.22748 9.75804H5.22656L10.3528 4.27823ZM15.8003 5.64268H16.9682C17.5896 5.64331 18.0929 6.14656 18.0935 6.76799C18.0929 7.38944 17.5896 7.89267 16.9682 7.89329H15.8003C15.1767 7.89577 14.6697 7.3916 14.6691 6.76799C14.6698 6.14438 15.1767 5.64024 15.8003 5.64268ZM6.93872 13.69H13.8974C14.5188 13.6906 15.0221 14.1954 15.0227 14.8168C15.0221 15.4382 14.5189 15.9415 13.8974 15.9421H6.93872C6.31512 15.9446 5.80815 15.4404 5.80755 14.8168C5.80817 14.1932 6.31513 13.6876 6.93872 13.69ZM6.93872 17.6073H13.8974C14.5188 17.6079 15.0221 18.1126 15.0227 18.7341C15.0221 19.3555 14.5189 19.8587 13.8974 19.8594H6.93872C6.31512 19.8619 5.80815 19.3577 5.80755 18.7341C5.80817 18.1105 6.31513 17.6049 6.93872 17.6073Z" fill="#40C1AC"/>
</svg>
