<svg width="80" height="80" viewBox="0 0 80 80" fill="none" xmlns="http://www.w3.org/2000/svg">
<rect width="80" height="80" rx="16" fill="#DDEAFE"/>
<path d="M54.125 25.5625H25.875C24.8412 25.5625 24 26.4037 24 27.4375V46.0625C24 47.0963 24.8412 47.9375 25.875 47.9375H54.125C55.1588 47.9375 56 47.0963 56 46.0625V27.4375C56 26.4037 55.1588 25.5625 54.125 25.5625Z" fill="#3567EB"/>
<path d="M50 52.5625H44.9375V49.8125H35.0625V52.5625H30C29.4825 52.5625 29.0625 52.9825 29.0625 53.5C29.0625 54.0175 29.4825 54.4375 30 54.4375H50C50.5175 54.4375 50.9375 54.0175 50.9375 53.5C50.9375 52.9825 50.5175 52.5625 50 52.5625Z" fill="#3567EB"/>
</svg>
