<svg width="80" height="80" viewBox="0 0 80 80" fill="none" xmlns="http://www.w3.org/2000/svg">
<rect width="80" height="80" rx="16" fill="#FBF0DA"/>
<path d="M35.2097 35.0151C38.2466 35.0151 40.7173 32.5444 40.7173 29.5076C40.7173 26.4707 38.2466 24 35.2097 24C32.1728 24 29.7021 26.4707 29.7021 29.5076C29.7021 32.5444 32.1728 35.0151 35.2097 35.0151Z" fill="#ED9C00"/>
<path d="M44.1729 39.8602C43.4228 37.4049 41.3259 35.5323 38.7471 35.1069L36.1488 38.8061V46.9113H34.2704V38.8062L31.672 35.1069C28.4301 35.6417 25.9492 38.4638 25.9492 41.855V53.9451H39.2032C38.1596 52.4541 37.5462 50.641 37.5462 48.687C37.5462 44.5087 40.3489 40.9731 44.1729 39.8602ZM32.1069 43.3755H30.0261V41.2948H32.1069V43.3755Z" fill="#ED9C00"/>
<path d="M46.7378 41.374C45.9459 41.374 45.1832 41.5011 44.4684 41.7349C41.5437 42.692 39.4248 45.4466 39.4248 48.687C39.4248 50.7491 40.283 52.6144 41.6608 53.9451C42.9771 55.2165 44.7676 56 46.7378 56C50.7702 56 54.0508 52.7194 54.0508 48.687C54.0508 44.6546 50.7703 41.374 46.7378 41.374ZM45.9566 51.808L44.47 50.3214L43.2696 49.121L44.47 47.9206L44.5979 47.7928L45.9566 49.1515L48.8778 46.2303L50.2061 47.5585L45.9566 51.808Z" fill="#ED9C00"/>
</svg>
