<svg width="80" height="80" viewBox="0 0 80 80" fill="none" xmlns="http://www.w3.org/2000/svg">
<rect width="80" height="80" rx="16" fill="#DDEAFE"/>
<g clip-path="url(#clip0)">
<path d="M32.1164 25.2307C30.37 25.2307 28.5435 26.3593 26.9238 28.4615C25.3041 30.5636 24.0512 33.7316 24.1164 37.9236C24.1164 39.9249 24.7552 42.1452 25.9626 43.9999C26.1398 44.2732 26.4463 44.4369 26.6543 44.6929C25.8075 45.7156 24.3466 47.6541 24.3466 47.6541C24.2155 47.7658 24.1093 47.9037 24.0349 48.059C23.9605 48.2143 23.9195 48.3835 23.9146 48.5556C23.9096 48.7278 23.9409 48.899 24.0063 49.0583C24.0717 49.2176 24.1698 49.3614 24.2943 49.4804C24.4187 49.5995 24.5668 49.691 24.7288 49.7492C24.8909 49.8074 25.0634 49.831 25.2351 49.8183C25.4069 49.8057 25.574 49.7572 25.7259 49.6759C25.8777 49.5946 26.0107 49.4823 26.1164 49.3464C26.1164 49.3464 27.597 47.3649 28.3847 46.4233C29.293 47.0006 30.3318 47.3846 31.501 47.3846C33.6032 47.3846 35.5773 46.379 37.2697 44.9993C37.5097 44.8049 37.6549 44.5181 37.885 44.3076C38.4278 44.6879 39.0666 44.923 39.7694 44.923C40.9497 44.923 41.9515 44.3606 42.8093 43.6922C43.666 43.0239 44.4007 42.219 45.0777 41.4227C45.5318 40.8886 45.8641 40.4455 46.2321 39.9999C46.1866 40.5796 46.1497 41.1507 46.1546 41.6923C46.157 41.9753 46.1693 42.2301 46.2703 42.5772C46.3195 42.7495 46.3638 42.9883 46.578 43.2307C46.7921 43.4732 47.2278 43.6922 47.6155 43.6922C48.621 43.6922 49.3693 43.1286 49.9232 42.5772C50.477 42.0246 50.9213 41.3895 51.4247 40.8073C52.4266 39.6443 53.3915 38.7692 54.77 38.7692C55.0964 38.7692 55.4094 38.6395 55.6403 38.4087C55.8711 38.1779 56.0007 37.8648 56.0007 37.5384C56.0007 37.212 55.8711 36.8989 55.6403 36.6681C55.4094 36.4373 55.0964 36.3076 54.77 36.3076C52.333 36.3076 50.6961 37.8953 49.5773 39.1926C49.2303 39.595 48.9693 39.8695 48.6937 40.1919C48.6961 40.1476 48.69 40.1218 48.6937 40.0763C48.7404 39.451 48.8167 38.8418 48.77 38.2301C48.7575 37.8852 48.679 37.546 48.5386 37.2307C48.3663 36.8541 47.7903 36.3076 47.154 36.3076C46.4881 36.3076 46.1127 36.6006 45.8087 36.8467C45.5047 37.0929 45.2389 37.3784 44.962 37.6923C44.4081 38.3199 43.8235 39.0658 43.1933 39.8079C42.562 40.5501 41.8937 41.2836 41.2697 41.7698C40.6469 42.2547 40.1287 42.4615 39.7694 42.4615C39.6881 42.4615 39.6463 42.3224 39.5773 42.3076C40.226 41.5286 41.0235 40.859 41.5392 40.0381C42.6629 38.2461 43.4444 36.4726 43.693 34.923C43.8173 34.1476 43.8617 33.3944 43.501 32.6535C43.1392 31.9138 42.1964 31.3846 41.3472 31.3846C39.6918 31.3846 38.2998 32.4553 37.3472 33.8843C36.3933 35.3144 35.8087 37.1901 35.8087 39.2689C35.8087 40.3483 36.1472 41.2553 36.5004 42.1538C36.2075 42.4369 35.9958 42.8307 35.693 43.0769C34.2703 44.2362 32.7823 44.923 31.501 44.923C30.9435 44.923 30.4463 44.6793 29.9626 44.4233C30.5373 43.6578 30.5817 43.7587 31.1933 42.8455C33.714 39.0806 36.3084 34.2683 36.3084 29.6553C36.3084 29.1076 36.2715 28.1169 35.693 27.1163C35.1146 26.1144 33.8247 25.2307 32.1164 25.2307ZM32.1164 27.6923C33.1158 27.6923 33.3177 27.963 33.5392 28.3458C33.7607 28.7298 33.8469 29.3403 33.8469 29.6541C33.8469 33.2873 31.5183 37.9113 29.1158 41.5002C28.6247 42.2338 28.6247 42.1329 28.1546 42.7692C28.1213 42.7199 28.0721 42.7039 28.0389 42.6535C27.1232 41.2467 26.578 39.3673 26.578 37.9224C26.5781 37.9101 26.5781 37.8978 26.578 37.8855C26.5201 34.1993 27.6118 31.6516 28.8857 29.9999C30.1583 28.3483 31.7693 27.6923 32.1164 27.6923ZM41.2697 33.8843C41.2869 33.9753 41.3337 34.1378 41.2697 34.5378C41.1109 35.5273 40.461 37.1384 39.4617 38.731C39.1872 39.1679 38.7441 39.4941 38.4241 39.9236C38.3946 39.6676 38.2703 39.5495 38.2703 39.2689C38.2703 37.6566 38.738 36.2006 39.3853 35.2307C40.0032 34.3027 40.7183 33.9199 41.2697 33.8843ZM24.0007 52.3076V54.7692H56.0007V52.3076H24.0007Z" fill="#3567EB"/>
</g>
<defs>
<clipPath id="clip0">
<rect width="32" height="32" fill="white" transform="translate(24 24)"/>
</clipPath>
</defs>
</svg>
