<svg width="24" height="24" viewBox="0 0 24 24" fill="none" xmlns="http://www.w3.org/2000/svg">
<path d="M6.42159 17.966H19.3755C19.4151 17.966 19.4536 17.96 19.4905 17.9508C19.4934 17.9508 19.4959 17.9513 19.4988 17.9513C19.7753 17.9513 20 17.7153 20 17.4242V2.52708C20 2.23613 19.7753 2 19.4988 2H19.3765H7.22315H6.4223C5.0883 2 4.00321 3.14143 4.00321 4.54398C4.00321 4.56279 4.00673 4.58064 4.00847 4.5988C4.00673 5.89441 3.99145 17.7994 4.00673 19.3645C4.00578 19.3951 4.00221 19.425 4.00221 19.4559C4.00221 20.8045 5.00632 21.9086 6.26931 21.992C6.29465 21.9961 6.31949 22 6.34578 22H19.4988C19.7753 22 20 21.764 20 21.4729V19.4889C20 19.198 19.7753 18.9618 19.4988 18.9618C19.2223 18.9618 18.9976 19.1981 18.9976 19.4889V20.9459H6.42159C5.65999 20.9459 5.03828 20.3099 5.00773 19.5169C5.00847 19.5028 5.01091 19.4894 5.01066 19.475C5.01017 19.4518 5.00942 19.4158 5.00893 19.3679C5.05273 18.5875 5.66868 17.966 6.42159 17.966ZM6.76333 4.54398C6.76333 4.25303 6.98786 4.01689 7.26451 4.01689C7.54117 4.01689 7.7657 4.25303 7.7657 4.54398V15.2505C7.7657 15.5413 7.54117 15.7775 7.26451 15.7775C6.98786 15.7775 6.76333 15.5412 6.76333 15.2505V4.54398Z" fill="#40C1AC"/>
</svg>
