<svg width="80" height="80" viewBox="0 0 80 80" fill="none" xmlns="http://www.w3.org/2000/svg">
<rect width="80" height="80" rx="16" fill="#F8E1DA"/>
<path d="M29.9062 32.7375C29.9062 32.2957 30.2644 31.9375 30.7063 31.9375H43.5437C43.9856 31.9375 44.3438 31.5793 44.3438 31.1375V26.8125C44.3438 25.2617 43.0821 24 41.5312 24H27.7812C26.2304 24 24.9688 25.2617 24.9688 26.8125V53.1875C24.9688 54.7383 26.2304 56 27.7812 56H41.5312C43.0821 56 44.3438 54.7383 44.3438 53.1875V48.2375C44.3438 47.7957 43.9856 47.4375 43.5438 47.4375H30.7063C30.2644 47.4375 29.9062 47.0793 29.9062 46.6375V32.7375ZM36.5938 28.55C36.5938 28.1082 36.9519 27.75 37.3938 27.75H39.6062C40.0481 27.75 40.4062 28.1082 40.4062 28.55V28.825C40.4062 29.2668 40.0481 29.625 39.6062 29.625H37.3938C36.9519 29.625 36.5938 29.2668 36.5938 28.825V28.55ZM33.5938 27.75C34.1115 27.75 34.5312 28.1698 34.5312 28.6875C34.5312 29.2052 34.1115 29.625 33.5938 29.625C33.076 29.625 32.6562 29.2052 32.6562 28.6875C32.6562 28.1698 33.076 27.75 33.5938 27.75ZM28.9062 28.6875C28.9062 28.1698 29.326 27.75 29.8438 27.75C30.3615 27.75 30.7812 28.1698 30.7812 28.6875C30.7812 29.2052 30.3615 29.625 29.8438 29.625C29.326 29.625 28.9062 29.2052 28.9062 28.6875ZM38.7312 50.375C39.1731 50.375 39.5312 50.7332 39.5312 51.175V51.45C39.5312 51.8918 39.1731 52.25 38.7312 52.25H30.5813C30.1394 52.25 29.7812 51.8918 29.7812 51.45V51.175C29.7812 50.7332 30.1394 50.375 30.5813 50.375H38.7312Z" fill="#DD3333"/>
<path d="M43.8832 42.9387C43.6 43.1489 43.2125 43.1489 42.9294 42.9387L33.0582 35.6093C32.5303 35.2174 31.7812 35.5941 31.7812 36.2516V44.7625C31.7812 45.2043 32.1394 45.5625 32.5813 45.5625H54.2313C54.6731 45.5625 55.0312 45.2043 55.0312 44.7625V36.2522C55.0312 35.5948 54.2822 35.218 53.7544 35.6099L43.8832 42.9387Z" fill="#DD3333"/>
<path d="M42.9291 41.6031C43.2123 41.8134 43.5997 41.8134 43.8829 41.6031L51.0869 36.2548C51.7058 35.7954 51.3808 34.8125 50.61 34.8125H36.2027C35.4319 34.8125 35.1069 35.7953 35.7258 36.2548L42.9291 41.6031Z" fill="#DD3333"/>
</svg>
