<svg width="24" height="24" viewBox="0 0 24 24" fill="none" xmlns="http://www.w3.org/2000/svg">
<path fill-rule="evenodd" clip-rule="evenodd" d="M8.78136 6.969C8.85121 7.03867 8.90662 7.12143 8.94443 7.21255C8.98224 7.30366 9.0017 7.40135 9.0017 7.5C9.0017 7.59865 8.98224 7.69633 8.94443 7.78745C8.90662 7.87857 8.85121 7.96133 8.78136 8.031L4.81086 12L8.78136 15.969C8.8511 16.0387 8.90641 16.1215 8.94415 16.2126C8.98189 16.3037 9.00131 16.4014 9.00131 16.5C9.00131 16.5986 8.98189 16.6963 8.94415 16.7874C8.90641 16.8785 8.8511 16.9613 8.78136 17.031C8.71163 17.1007 8.62885 17.156 8.53774 17.1938C8.44663 17.2315 8.34898 17.2509 8.25036 17.2509C8.15175 17.2509 8.0541 17.2315 7.96299 17.1938C7.87188 17.156 7.7891 17.1007 7.71936 17.031L3.21936 12.531C3.14952 12.4613 3.09411 12.3786 3.0563 12.2874C3.01849 12.1963 2.99902 12.0986 2.99902 12C2.99902 11.9013 3.01849 11.8037 3.0563 11.7125C3.09411 11.6214 3.14952 11.5387 3.21936 11.469L7.71936 6.969C7.78903 6.89915 7.8718 6.84374 7.96291 6.80593C8.05403 6.76812 8.15171 6.74866 8.25036 6.74866C8.34902 6.74866 8.4467 6.76812 8.53781 6.80593C8.62893 6.84374 8.7117 6.89915 8.78136 6.969Z" fill="#3D4665"/>
<path fill-rule="evenodd" clip-rule="evenodd" d="M3.75 12C3.75 11.8011 3.82902 11.6103 3.96967 11.4697C4.11032 11.329 4.30109 11.25 4.5 11.25H20.25C20.4489 11.25 20.6397 11.329 20.7803 11.4697C20.921 11.6103 21 11.8011 21 12C21 12.1989 20.921 12.3897 20.7803 12.5303C20.6397 12.671 20.4489 12.75 20.25 12.75H4.5C4.30109 12.75 4.11032 12.671 3.96967 12.5303C3.82902 12.3897 3.75 12.1989 3.75 12Z" fill="#3D4665"/>
</svg>
