<svg width="80" height="80" viewBox="0 0 80 80" fill="none" xmlns="http://www.w3.org/2000/svg">
<rect width="80" height="80" rx="16" fill="#F8F5DA"/>
<path d="M47.4413 29.3767C46.731 29.3767 46.0574 29.5368 45.4541 29.8218C45.6845 30.1186 45.8915 30.4345 46.0717 30.7669C46.2485 31.0929 46.3995 31.4349 46.5226 31.7896C46.7681 32.4972 46.9019 33.2565 46.9019 34.0465C46.9019 34.8364 46.7681 35.5957 46.5226 36.3032C46.3995 36.6581 46.2485 36.9999 46.0717 37.3259C45.8915 37.6584 45.6845 37.9742 45.4541 38.271C46.0574 38.556 46.731 38.7162 47.4413 38.7162C50.0163 38.7163 52.1111 36.6214 52.1111 34.0466C52.1111 31.4715 50.0163 29.3767 47.4413 29.3767Z" fill="#DAB73E"/>
<path d="M47.4416 40.9487C47.1653 40.9487 46.8899 40.9624 46.6162 40.9888C47.0425 41.3207 47.4435 41.6835 47.8154 42.0744C48.1907 42.4688 48.536 42.8918 48.8488 43.3392C49.8706 44.8008 50.5404 46.5258 50.7329 48.3906C50.7708 48.7577 50.7904 49.13 50.7904 49.5068C50.7904 49.8981 50.7223 50.2737 50.5984 50.6231H54.8834C55.4999 50.6231 55.9996 50.1232 55.9996 49.5068C55.9997 44.7878 52.1605 40.9487 47.4416 40.9487Z" fill="#DAB73E"/>
<path d="M33.4772 36.3033C33.2317 35.5958 33.0978 34.8365 33.0978 34.0466C33.0978 33.2566 33.2317 32.4973 33.4772 31.7898C33.6003 31.4348 33.7513 31.0929 33.928 30.7669C34.1083 30.4345 34.3152 30.1186 34.5457 29.8218C33.9423 29.5368 33.2688 29.3767 32.5584 29.3767C29.9835 29.3767 27.8887 31.4715 27.8887 34.0465C27.8887 36.6213 29.9835 38.7162 32.5584 38.7162C33.2688 38.7162 33.9423 38.5561 34.5457 38.271C34.3153 37.9742 34.1083 37.6584 33.928 37.3259C33.7513 37 33.6003 36.6581 33.4772 36.3033Z" fill="#DAB73E"/>
<path d="M32.5581 40.9487C27.8392 40.9487 24 44.7878 24 49.5068C24 50.1233 24.4998 50.6231 25.1162 50.6231H29.4012C29.2774 50.2737 29.2093 49.8981 29.2093 49.5068C29.2093 49.1299 29.2289 48.7576 29.2667 48.3906C29.4592 46.5258 30.1291 44.8008 31.1509 43.3392C31.4637 42.8918 31.8089 42.4688 32.1842 42.0744C32.5561 41.6835 32.9572 41.3207 33.3834 40.9888C33.1098 40.9624 32.8344 40.9487 32.5581 40.9487Z" fill="#DAB73E"/>
<path d="M44.3369 32.3183C44.1801 31.9264 43.9724 31.5602 43.7208 31.2288C42.8673 30.1045 41.5173 29.3767 39.9999 29.3767C38.4825 29.3767 37.1325 30.1045 36.279 31.2289C36.0273 31.5603 35.8197 31.9265 35.6629 32.3185C35.4491 32.8534 35.3301 33.4361 35.3301 34.0465C35.3301 34.6568 35.4491 35.2396 35.6629 35.7745C35.8197 36.1664 36.0273 36.5326 36.279 36.8641C37.1325 37.9883 38.4825 38.7162 39.9999 38.7162C41.5173 38.7162 42.8673 37.9883 43.7208 36.8639C43.9724 36.5325 44.1801 36.1663 44.3369 35.7744C44.5507 35.2394 44.6697 34.6568 44.6697 34.0464C44.6697 33.436 44.5507 32.8533 44.3369 32.3183Z" fill="#DAB73E"/>
<path d="M48.4857 48.3908C48.2288 46.4282 47.3044 44.6728 45.9486 43.3603C45.6275 43.0496 45.2826 42.7636 44.9164 42.5058C44.5387 42.2398 44.1387 42.0033 43.7196 41.8003C42.9139 41.4099 42.038 41.1423 41.1167 41.0217V48.0188C41.1167 48.6352 40.6169 49.135 40.0004 49.135C39.3839 49.135 38.8842 48.6352 38.8842 48.0188V41.0217C37.9627 41.1423 37.087 41.4099 36.2812 41.8003C35.8621 42.0034 35.4621 42.2398 35.0844 42.5058C34.7182 42.7637 34.3731 43.0497 34.0522 43.3603C32.6963 44.6728 31.7719 46.4282 31.5151 48.3908C31.4673 48.7562 31.4424 49.1288 31.4424 49.5071C31.4424 50.1235 31.9422 50.6233 32.5586 50.6233H47.4424C48.0588 50.6233 48.5586 50.1235 48.5586 49.5071C48.5585 49.1288 48.5336 48.7562 48.4857 48.3908Z" fill="#DAB73E"/>
</svg>
