<svg width="80" height="80" viewBox="0 0 80 80" fill="none" xmlns="http://www.w3.org/2000/svg">
<rect width="80" height="80" rx="16" fill="#FEDDF3"/>
<path d="M40 24C31.2119 24 24 31.2119 24 40C24 48.7881 31.2119 56 40 56C48.7881 56 56 48.7881 56 40C56 31.2119 48.7881 24 40 24ZM47.2921 31.3821C47.6582 31.016 48.2517 31.016 48.6179 31.3821C48.984 31.7483 48.984 32.3418 48.6179 32.7079C48.2517 33.0741 47.6582 33.0741 47.2921 32.7079C46.9259 32.3418 46.9259 31.7483 47.2921 31.3821ZM39.0625 28.75C39.0625 28.2318 39.4818 27.8125 40 27.8125C40.5182 27.8125 40.9375 28.2318 40.9375 28.75V30.625C40.9375 31.1432 40.5182 31.5625 40 31.5625C39.4818 31.5625 39.0625 31.1432 39.0625 30.625V28.75ZM28.75 40.9375C28.2318 40.9375 27.8125 40.5182 27.8125 40C27.8125 39.4818 28.2318 39.0625 28.75 39.0625H30.625C31.1432 39.0625 31.5625 39.4818 31.5625 40C31.5625 40.5182 31.1432 40.9375 30.625 40.9375H28.75ZM32.7079 48.6179C32.3418 48.984 31.7483 48.984 31.3821 48.6179C31.016 48.2517 31.016 47.6582 31.3821 47.2921C31.7483 46.9259 32.3418 46.9259 32.7079 47.2921C33.0741 47.6582 33.0741 48.2517 32.7079 48.6179ZM32.7079 32.7079C32.3418 33.0741 31.7483 33.0741 31.3821 32.7079C31.016 32.3418 31.016 31.7483 31.3821 31.3821C31.7483 31.016 32.3418 31.016 32.7079 31.3821C33.0741 31.7483 33.0741 32.3418 32.7079 32.7079ZM40.9375 51.25C40.9375 51.7682 40.5182 52.1875 40 52.1875C39.4818 52.1875 39.0625 51.7682 39.0625 51.25V49.375C39.0625 48.8568 39.4818 48.4375 40 48.4375C40.5182 48.4375 40.9375 48.8568 40.9375 49.375V51.25ZM46.2878 46.2878C45.9216 46.654 45.3283 46.654 44.9621 46.2878L39.3371 40.6628C39.1614 40.4871 39.0625 40.249 39.0625 40V34.375C39.0625 33.8568 39.4818 33.4375 40 33.4375C40.5182 33.4375 40.9375 33.8568 40.9375 34.375V39.6118L46.2878 44.9621C46.6541 45.3284 46.6541 45.9216 46.2878 46.2878ZM48.6179 48.6179C48.2517 48.984 47.6582 48.984 47.2921 48.6179C46.9259 48.2517 46.9259 47.6582 47.2921 47.2921C47.6582 46.9259 48.2517 46.9259 48.6179 47.2921C48.9839 47.6582 48.9839 48.2517 48.6179 48.6179ZM52.1875 40C52.1875 40.5182 51.7682 40.9375 51.25 40.9375H49.375C48.8568 40.9375 48.4375 40.5182 48.4375 40C48.4375 39.4818 48.8568 39.0625 49.375 39.0625H51.25C51.7682 39.0625 52.1875 39.4818 52.1875 40Z" fill="#EF24AA"/>
</svg>
