<svg width="24" height="24" viewBox="0 0 24 24" fill="none" xmlns="http://www.w3.org/2000/svg">
<path fill-rule="evenodd" clip-rule="evenodd" d="M16.1228 14.9265C17.1782 13.5653 17.6756 11.853 17.5138 10.138C17.352 8.4229 16.5431 6.83392 15.2518 5.69428C13.9605 4.55465 12.2837 3.94996 10.5625 4.00324C8.84133 4.05653 7.2051 4.76377 5.98668 5.9811C4.7672 7.19927 4.05793 8.83679 4.00339 10.56C3.94886 12.2831 4.55318 13.9622 5.69319 15.2551C6.8332 16.548 8.42311 17.3574 10.1389 17.5183C11.8547 17.6793 13.5673 17.1796 14.9277 16.1212L14.9641 16.1593L18.5544 19.7519C18.633 19.8305 18.7263 19.8929 18.8291 19.9355C18.9318 19.9781 19.042 20 19.1532 20C19.2644 20 19.3745 19.9781 19.4772 19.9355C19.58 19.8929 19.6733 19.8305 19.752 19.7519C19.8306 19.6732 19.893 19.5798 19.9355 19.477C19.9781 19.3742 20 19.2641 20 19.1528C20 19.0416 19.9781 18.9314 19.9355 18.8286C19.893 18.7258 19.8306 18.6325 19.752 18.5538L16.1608 14.9621C16.1485 14.9499 16.1358 14.938 16.1228 14.9265ZM14.3657 7.17918C14.8436 7.64951 15.2236 8.20983 15.4839 8.82783C15.7442 9.44583 15.8797 10.1093 15.8824 10.7799C15.8851 11.4505 15.7551 12.115 15.4998 12.7351C15.2445 13.3552 14.8691 13.9186 14.3951 14.3928C13.921 14.867 13.3579 15.2427 12.738 15.498C12.1182 15.7534 11.4539 15.8835 10.7836 15.8807C10.1132 15.878 9.45003 15.7425 8.83228 15.4821C8.21453 15.2217 7.65443 14.8415 7.18429 14.3635C6.24476 13.4081 5.72063 12.1201 5.72609 10.7799C5.73154 9.43971 6.26613 8.15598 7.21341 7.20832C8.16069 6.26066 9.44391 5.72586 10.7836 5.7204C12.1232 5.71494 13.4107 6.23928 14.3657 7.17918Z" fill="#67797D"/>
</svg>
