<svg width="80" height="80" viewBox="0 0 80 80" fill="none" xmlns="http://www.w3.org/2000/svg">
<rect width="80" height="80" rx="16" fill="#D4FAF1"/>
<g clip-path="url(#clip0)">
<path d="M40 56C48.8356 56 56.0001 48.8355 56.0001 40C56.0001 31.1644 48.8356 24 40 24C31.1645 24 24 31.1645 24 40C24 48.8356 31.1645 56 40 56ZM34.0267 47.2267L32.1423 49.1111C31.9689 49.2845 31.7423 49.3734 31.5156 49.3734C31.289 49.3734 31.0623 49.2845 30.889 49.1111C30.5423 48.7645 30.5423 48.2 30.889 47.8533L32.7734 45.9689C33.12 45.6223 33.6845 45.6223 34.0311 45.9689C34.3778 46.3156 34.3778 46.88 34.0267 47.2267ZM40.8889 52C40.8889 52.4889 40.4889 52.8889 40 52.8889C39.5111 52.8889 39.111 52.4889 39.111 52V49.3333C39.111 48.8444 39.5111 48.4444 40 48.4444C40.4889 48.4444 40.8889 48.8444 40.8889 49.3333V52ZM52 39.1111C52.4889 39.1111 52.8889 39.5111 52.8889 40C52.8889 40.4889 52.4889 40.889 52 40.889H49.3333C48.8444 40.889 48.4444 40.4889 48.4444 40C48.4444 39.5111 48.8444 39.1111 49.3333 39.1111H52ZM45.9734 32.7733L47.8578 30.8889C48.2044 30.5423 48.7689 30.5423 49.1155 30.8889C49.4622 31.2355 49.4622 31.8 49.1155 32.1467L47.2311 34.0311C47.0578 34.2045 46.8311 34.2934 46.6045 34.2934C46.3778 34.2934 46.1512 34.2045 45.9778 34.0311C45.6222 33.68 45.6222 33.12 45.9734 32.7733ZM45.9734 45.9734C46.32 45.6267 46.8845 45.6267 47.2311 45.9734L49.1155 47.8578C49.4622 48.2044 49.4622 48.7689 49.1155 49.1155C48.9422 49.2889 48.7155 49.3778 48.4889 49.3778C48.2622 49.3778 48.0356 49.2889 47.8622 49.1155L45.9778 47.2311C45.6222 46.88 45.6222 46.32 45.9734 45.9734ZM39.1111 28C39.1111 27.5111 39.5111 27.1111 40 27.1111C40.4889 27.1111 40.889 27.5111 40.889 28V30.6667C40.889 31.1556 40.4889 31.5556 40 31.5556C39.5111 31.5556 39.1111 31.1556 39.1111 30.6667V28ZM36.5156 36.4533C36.8801 36.1245 37.44 36.1511 37.7733 36.5156L40.0667 39.0534L43.7733 34.7556C44.0933 34.3822 44.6534 34.3423 45.0266 34.6622C45.4 34.9822 45.44 35.5423 45.12 35.9156L41.2711 40.3822L41.9956 41.1822C42.3244 41.5467 42.2978 42.1067 41.9333 42.44C41.76 42.5911 41.5466 42.6666 41.3333 42.6666C41.0889 42.6666 40.8488 42.5689 40.6756 42.3733L40.0977 41.7377L39.5644 42.36C39.3866 42.56 39.1378 42.6666 38.8888 42.6666C38.6844 42.6666 38.4755 42.5955 38.311 42.4489C37.9377 42.1289 37.8977 41.5688 38.2177 41.1955L38.8977 40.4089L36.4533 37.7067C36.1245 37.3422 36.1511 36.7822 36.5156 36.4533ZM30.8845 30.8845C31.2311 30.5378 31.7956 30.5378 32.1422 30.8845L34.0266 32.7689C34.3733 33.1155 34.3733 33.68 34.0266 34.0266C33.8533 34.2 33.6266 34.2889 33.4 34.2889C33.1733 34.2889 32.9467 34.2 32.7733 34.0266L30.8889 32.1422C30.5378 31.7956 30.5378 31.2355 30.8845 30.8845ZM27.1111 40C27.1111 39.5111 27.5111 39.1111 28 39.1111H30.6667C31.1556 39.1111 31.5556 39.5111 31.5556 40C31.5556 40.4889 31.1556 40.889 30.6667 40.889H28C27.5111 40.8889 27.1111 40.4889 27.1111 40Z" fill="#40C1AC"/>
</g>
<defs>
<clipPath id="clip0">
<rect width="32" height="32" fill="white" transform="translate(24 24)"/>
</clipPath>
</defs>
</svg>
