<svg width="264" height="200" viewBox="0 0 264 200" fill="none" xmlns="http://www.w3.org/2000/svg">
<path fill-rule="evenodd" clip-rule="evenodd" d="M221.343 18.859C242.022 24.5706 255.25 54.0331 252.273 72.7048C250.76 82.1862 246.815 87.1472 242.609 92.4356C238.517 97.5806 234.179 103.036 231.594 113.265C227.925 127.791 231.206 138.433 233.819 146.912C236.079 154.243 237.841 159.958 234.181 165.169C229.22 172.229 220.189 168.427 206.461 162.646C189.264 155.406 164.696 145.061 131.523 149.077C123.267 150.076 114.693 151.97 106.239 153.837C84.9168 158.546 64.352 163.088 51.546 152.691C33.6619 138.172 7.53729 54.0073 38.0046 31.3975C55.5111 18.406 73.222 26.8103 91.8183 35.6349C105.586 42.168 119.839 48.9314 134.853 47.4133C149.657 45.9166 160.823 38.6247 171.647 31.5568C186.174 22.0703 200.083 12.9869 221.343 18.859Z" fill="white"/>
<path opacity="0.05" d="M45.2031 42.1257C73.8524 42.1257 97.0769 65.3505 97.0769 93.9995C97.0769 122.649 73.8524 145.874 45.2031 145.874" stroke="#00594C" stroke-width="0.25"/>
<path opacity="0.05" d="M45.2031 29.5356C80.8059 29.5356 109.667 58.3972 109.667 94C109.667 129.603 80.8059 158.464 45.2031 158.464" stroke="#00594C" stroke-width="0.25"/>
<path d="M83.1747 44.109H67.5552V109.709H83.1747V44.109Z" fill="#40C1AC"/>
<path opacity="0.17" d="M99.8659 44.109H85.8667V55.5945H99.8659V44.109Z" stroke="#00594C" stroke-width="0.25"/>
<path opacity="0.17" d="M99.8659 56.4065H85.8667V57.452H99.8659V56.4065Z" stroke="#00594C" stroke-width="0.25"/>
<path opacity="0.17" d="M117.17 44.109H103.171V55.5945H117.17V44.109Z" stroke="#00594C" stroke-width="0.25"/>
<path opacity="0.17" d="M117.17 56.4065H103.171V57.452H117.17V56.4065Z" stroke="#00594C" stroke-width="0.25"/>
<path opacity="0.17" d="M134.475 44.109H120.476V55.5945H134.475V44.109Z" stroke="#00594C" stroke-width="0.25"/>
<path opacity="0.17" d="M134.475 56.4065H120.476V57.452H134.475V56.4065Z" stroke="#00594C" stroke-width="0.25"/>
<path opacity="0.17" d="M151.78 44.109H137.781V55.5945H151.78V44.109Z" stroke="#00594C" stroke-width="0.25"/>
<path opacity="0.17" d="M151.78 56.4065H137.781V57.452H151.78V56.4065Z" stroke="#00594C" stroke-width="0.25"/>
<path opacity="0.36" d="M99.8659 60.391H85.8667V71.8767H99.8659V60.391Z" stroke="#00594C" stroke-width="0.25"/>
<path opacity="0.17" d="M99.8659 72.6897H85.8667V73.7352H99.8659V72.6897Z" stroke="#00594C" stroke-width="0.25"/>
<path opacity="0.36" d="M117.17 60.391H103.171V71.8767H117.17V60.391Z" stroke="#00594C" stroke-width="0.25"/>
<path opacity="0.17" d="M117.17 72.6897H103.171V73.7352H117.17V72.6897Z" stroke="#00594C" stroke-width="0.25"/>
<path opacity="0.36" d="M134.475 60.391H120.476V71.8767H134.475V60.391Z" stroke="#00594C" stroke-width="0.25"/>
<path opacity="0.17" d="M134.475 72.6897H120.476V73.7352H134.475V72.6897Z" stroke="#00594C" stroke-width="0.25"/>
<path opacity="0.17" d="M151.78 72.6897H137.781V73.7352H151.78V72.6897Z" stroke="#00594C" stroke-width="0.25"/>
<path opacity="0.36" d="M151.78 60.391H137.781V71.8767H151.78V60.391Z" stroke="#00594C" stroke-width="0.25"/>
<path opacity="0.17" d="M99.8659 76.6732H85.8667V88.159H99.8659V76.6732Z" stroke="#00594C" stroke-width="0.25"/>
<path opacity="0.17" d="M99.8659 88.972H85.8667V90.0175H99.8659V88.972Z" stroke="#00594C" stroke-width="0.25"/>
<path opacity="0.17" d="M117.17 76.6732H103.171V88.159H117.17V76.6732Z" stroke="#00594C" stroke-width="0.25"/>
<path opacity="0.17" d="M117.17 88.972H103.171V90.0175H117.17V88.972Z" stroke="#00594C" stroke-width="0.25"/>
<path opacity="0.17" d="M134.475 76.6732H120.476V88.159H134.475V76.6732Z" stroke="#00594C" stroke-width="0.25"/>
<path opacity="0.17" d="M134.475 88.972H120.476V90.0175H134.475V88.972Z" stroke="#00594C" stroke-width="0.25"/>
<path opacity="0.17" d="M151.78 76.6732H137.781V88.159H151.78V76.6732Z" stroke="#00594C" stroke-width="0.25"/>
<path opacity="0.17" d="M151.78 88.972H137.781V90.0175H151.78V88.972Z" stroke="#00594C" stroke-width="0.25"/>
<path opacity="0.17" d="M99.8659 92.9561H85.8667V104.442H99.8659V92.9561Z" stroke="#00594C" stroke-width="0.25"/>
<path opacity="0.17" d="M99.8659 105.255H85.8667V106.3H99.8659V105.255Z" stroke="#00594C" stroke-width="0.25"/>
<path opacity="0.17" d="M117.17 92.9561H103.171V104.442H117.17V92.9561Z" stroke="#00594C" stroke-width="0.25"/>
<path opacity="0.17" d="M117.17 105.255H103.171V106.3H117.17V105.255Z" stroke="#00594C" stroke-width="0.25"/>
<path opacity="0.17" d="M134.475 92.9561H120.476V104.442H134.475V92.9561Z" stroke="#00594C" stroke-width="0.25"/>
<path opacity="0.17" d="M134.475 105.255H120.476V106.3H134.475V105.255Z" stroke="#00594C" stroke-width="0.25"/>
<path opacity="0.17" d="M151.78 92.9561H137.781V104.442H151.78V92.9561Z" stroke="#00594C" stroke-width="0.25"/>
<path opacity="0.17" d="M151.78 105.255H137.781V106.3H151.78V105.255Z" stroke="#00594C" stroke-width="0.25"/>
<path d="M172.211 45.538H155.28V47.5015H172.211V45.538Z" stroke="#00594C" stroke-width="0.25"/>
<path d="M166.587 48.6198H155.28V50.583H166.587V48.6198Z" fill="#40C1AC"/>
<path d="M56.2208 157.073L54.2822 156.767L72.9134 124.223L74.5521 125.161L56.2208 157.073Z" fill="#00594C"/>
<path d="M61.3219 157.073L59.3833 156.767L78.0148 124.223L79.6535 125.161L61.3219 157.073Z" fill="#00594C"/>
<path d="M155.28 60.4605C155.131 60.4605 155.01 60.3398 155.01 60.1905V39.4594C155.01 38.2662 154.04 37.2954 152.847 37.2954H66.4891C65.2961 37.2954 64.3251 38.2662 64.3251 39.4594V60.1905C64.3251 60.3398 64.2046 60.4605 64.0554 60.4605C63.9064 60.4605 63.7856 60.3398 63.7856 60.1905V39.4594C63.7856 37.9688 64.9986 36.7559 66.4891 36.7559H152.847C154.337 36.7559 155.55 37.9688 155.55 39.4594V60.1905C155.55 60.3398 155.429 60.4605 155.28 60.4605Z" stroke="#00594C" stroke-width="0.25"/>
<path opacity="0.27" d="M64.0554 72.0745C63.9064 72.0745 63.7856 71.9538 63.7856 71.8048V60.1905C63.7856 60.0413 63.9064 59.9208 64.0554 59.9208C64.2046 59.9208 64.3251 60.0413 64.3251 60.1905V71.8048C64.3251 71.9538 64.2046 72.0745 64.0554 72.0745Z" stroke="#00594C" stroke-width="0.25"/>
<path d="M152.847 111.76H66.4891C64.9986 111.76 63.7856 110.547 63.7856 109.057V71.8048C63.7856 71.6555 63.9064 71.535 64.0554 71.535C64.2046 71.535 64.3251 71.6555 64.3251 71.8048V109.057C64.3251 110.25 65.2961 111.221 66.4891 111.221H152.847C154.04 111.221 155.01 110.25 155.01 109.057V71.808C155.01 71.659 155.131 71.5383 155.28 71.5383C155.429 71.5383 155.55 71.659 155.55 71.808V109.057C155.55 110.547 154.337 111.76 152.847 111.76Z" stroke="#00594C" stroke-width="0.25"/>
<path opacity="0.23" d="M155.28 72.0778C155.131 72.0778 155.01 71.9573 155.01 71.808V60.1905C155.01 60.0413 155.131 59.9208 155.28 59.9208C155.429 59.9208 155.55 60.0413 155.55 60.1905V71.808C155.55 71.9573 155.429 72.0778 155.28 72.0778Z" stroke="#00594C" stroke-width="0.25"/>
<path d="M235.176 157.289H40.823C40.6444 157.289 40.4995 157.144 40.4995 156.965C40.4995 156.787 40.6444 156.642 40.823 156.642H235.176C235.355 156.642 235.5 156.787 235.5 156.965C235.5 157.144 235.355 157.289 235.176 157.289Z" stroke="#00594C" stroke-width="0.25"/>
<path opacity="0.05" d="M229.311 156.679C229.311 121.076 200.449 92.2145 164.847 92.2145C129.244 92.2145 100.382 121.076 100.382 156.679" stroke="#00594C" stroke-width="0.25"/>
<path opacity="0.66" d="M202.653 150.814C202.531 150.814 202.421 150.732 202.391 150.609C198.85 136.157 190.284 123.284 178.269 114.363C178.149 114.274 178.125 114.105 178.214 113.986C178.303 113.866 178.472 113.842 178.591 113.93C190.706 122.926 199.345 135.907 202.915 150.48C202.95 150.625 202.862 150.771 202.717 150.807C202.695 150.812 202.674 150.814 202.653 150.814Z" stroke="#00594C" stroke-width="0.25"/>
<path d="M152.379 42.6921H66.9566C66.2989 42.6921 65.7656 42.1589 65.7656 41.5012V39.8652C65.7656 39.2075 66.2989 38.6743 66.9566 38.6743H152.379C153.037 38.6743 153.57 39.2075 153.57 39.8652V41.5012C153.57 42.1589 153.037 42.6921 152.379 42.6921Z" stroke="#00594C" stroke-width="0.25"/>
<path d="M164.578 120.283H54.7575C53.9594 120.283 53.3125 119.636 53.3125 118.838C53.3125 118.04 53.9594 117.393 54.7575 117.393H164.578C165.376 117.393 166.023 118.04 166.023 118.838C166.023 119.636 165.376 120.283 164.578 120.283Z" stroke="#00594C" stroke-width="0.25"/>
<path d="M170.934 126.64H61.1139C60.3159 126.64 59.6689 125.993 59.6689 125.195C59.6689 124.397 60.3159 123.75 61.1139 123.75H170.934C171.732 123.75 172.379 124.397 172.379 125.195C172.379 125.993 171.732 126.64 170.934 126.64Z" stroke="#00594C" stroke-width="0.25"/>
<path d="M167.355 72.0745H60.1038C59.6575 72.0745 59.2944 71.7115 59.2944 71.265V60.73C59.2944 60.2838 59.6575 59.9208 60.1038 59.9208H167.355C167.801 59.9208 168.164 60.2838 168.164 60.73V71.265C168.164 71.7115 167.801 72.0745 167.355 72.0745ZM60.1038 60.4603C59.9549 60.4603 59.834 60.5813 59.834 60.73V71.265C59.834 71.414 59.9549 71.535 60.1038 71.535H167.355C167.504 71.535 167.625 71.414 167.625 71.265V60.73C167.625 60.5813 167.504 60.4603 167.355 60.4603H60.1038Z" stroke="#00594C" stroke-width="0.25"/>
<path opacity="0.66" d="M213.376 56.496H187.732C187.583 56.496 187.462 56.3755 187.462 56.2263C187.462 56.0773 187.583 55.9565 187.732 55.9565H213.376C213.525 55.9565 213.645 56.0773 213.645 56.2263C213.645 56.3755 213.525 56.496 213.376 56.496Z" stroke="#00594C" stroke-width="0.25"/>
<path opacity="0.66" d="M213.376 58.479H187.732C187.583 58.479 187.462 58.3582 187.462 58.2092C187.462 58.06 187.583 57.9395 187.732 57.9395H213.376C213.525 57.9395 213.645 58.06 213.645 58.2092C213.645 58.3582 213.525 58.479 213.376 58.479Z" stroke="#00594C" stroke-width="0.25"/>
<path opacity="0.66" d="M196.403 69.9643H187.462V61.0238H196.403V69.9643ZM188.002 69.4246H195.863V61.5633H188.002V69.4246Z" stroke="#00594C" stroke-width="0.25"/>
<path opacity="0.66" d="M213.645 69.9643H198.443V61.0238H213.645V69.9643ZM198.982 69.4246H213.106V61.5633H198.982V69.4246Z" stroke="#00594C" stroke-width="0.25"/>
<path opacity="0.17" d="M194.925 62.704H186.524V71.1047H194.925V62.704Z" stroke="#00594C" stroke-width="0.25"/>
<path opacity="0.17" d="M212.167 62.704H197.504V71.1047H212.167V62.704Z" stroke="#00594C" stroke-width="0.25"/>
<path opacity="0.17" d="M218.412 97.1281H191.261V105.529H218.412V97.1281Z" stroke="#00594C" stroke-width="0.25"/>
<path opacity="0.66" d="M213.645 110.521H187.462V77.5162H213.645V93.5682C213.645 93.7172 213.525 93.838 213.376 93.838C213.226 93.838 213.106 93.7172 213.106 93.5682V78.056H188.002V109.981H213.106V106.315C213.106 106.165 213.226 106.045 213.376 106.045C213.525 106.045 213.645 106.165 213.645 106.315V110.521Z" stroke="#00594C" stroke-width="0.25"/>
<path opacity="0.17" d="M191.698 83.5452C192.24 83.5452 192.679 83.1062 192.679 82.565C192.679 82.0235 192.24 81.5845 191.698 81.5845C191.157 81.5845 190.718 82.0235 190.718 82.565C190.718 83.1062 191.157 83.5452 191.698 83.5452Z" stroke="#00594C" stroke-width="0.25"/>
<path opacity="0.17" d="M191.698 87.9848C192.24 87.9848 192.679 87.5458 192.679 87.0043C192.679 86.4628 192.24 86.024 191.698 86.024C191.157 86.024 190.718 86.4628 190.718 87.0043C190.718 87.5458 191.157 87.9848 191.698 87.9848Z" stroke="#00594C" stroke-width="0.25"/>
<path opacity="0.17" d="M191.698 92.4238C192.24 92.4238 192.679 91.9848 192.679 91.4433C192.679 90.9018 192.24 90.463 191.698 90.463C191.157 90.463 190.718 90.9018 190.718 91.4433C190.718 91.9848 191.157 92.4238 191.698 92.4238Z" stroke="#00594C" stroke-width="0.25"/>
<path opacity="0.17" d="M203.023 81.5845H194.094V83.5452H203.023V81.5845Z" stroke="#00594C" stroke-width="0.25"/>
<path opacity="0.17" d="M203.023 86.024H194.094V87.9848H203.023V86.024Z" stroke="#00594C" stroke-width="0.25"/>
<path opacity="0.17" d="M203.023 90.463H194.094V92.4238H203.023V90.463Z" stroke="#00594C" stroke-width="0.25"/>
<path opacity="0.17" d="M210.39 81.7448H204.438V82.0645H210.39V81.7448Z" stroke="#00594C" stroke-width="0.25"/>
<path opacity="0.17" d="M210.39 82.4685H204.438V82.7885H210.39V82.4685Z" stroke="#00594C" stroke-width="0.25"/>
<path opacity="0.17" d="M210.39 83.193H204.438V83.513H210.39V83.193Z" stroke="#00594C" stroke-width="0.25"/>
<path opacity="0.17" d="M210.39 86.1198H204.438V86.4398H210.39V86.1198Z" stroke="#00594C" stroke-width="0.25"/>
<path opacity="0.17" d="M210.39 86.8445H204.438V87.1642H210.39V86.8445Z" stroke="#00594C" stroke-width="0.25"/>
<path opacity="0.17" d="M210.39 87.5682H204.438V87.8882H210.39V87.5682Z" stroke="#00594C" stroke-width="0.25"/>
<path opacity="0.17" d="M210.39 90.4952H204.438V90.8152H210.39V90.4952Z" stroke="#00594C" stroke-width="0.25"/>
<path opacity="0.17" d="M210.39 91.22H204.438V91.5397H210.39V91.22Z" stroke="#00594C" stroke-width="0.25"/>
<path opacity="0.17" d="M210.39 91.9437H204.438V92.2637H210.39V91.9437Z" stroke="#00594C" stroke-width="0.25"/>
<path opacity="0.66" d="M220.67 103.865H192.409V95.5477H220.67V103.865ZM192.949 103.325H220.131V96.0875H192.949V103.325Z" stroke="#00594C" stroke-width="0.25"/>
<path opacity="0.38" d="M63.1133 119.416C63.5108 119.416 63.833 119.094 63.833 118.697C63.833 118.299 63.5108 117.977 63.1133 117.977C62.7158 117.977 62.3936 118.299 62.3936 118.697C62.3936 119.094 62.7158 119.416 63.1133 119.416Z" fill="#F2F2F2"/>
<path opacity="0.38" d="M65.1372 119.416C65.5347 119.416 65.8567 119.094 65.8567 118.697C65.8567 118.299 65.5347 117.977 65.1372 117.977C64.7397 117.977 64.4175 118.299 64.4175 118.697C64.4175 119.094 64.7397 119.416 65.1372 119.416Z" fill="black"/>
<path opacity="0.38" d="M67.2976 119.416C67.6951 119.416 68.0174 119.094 68.0174 118.697C68.0174 118.299 67.6951 117.977 67.2976 117.977C66.9001 117.977 66.5781 118.299 66.5781 118.697C66.5781 119.094 66.9001 119.416 67.2976 119.416Z" fill="#B3B3B3"/>
<path d="M106.832 113.803C106.683 113.803 106.562 113.683 106.562 113.534V109.447C106.562 109.298 106.683 109.177 106.832 109.177C106.981 109.177 107.102 109.298 107.102 109.447V113.534C107.102 113.683 106.981 113.803 106.832 113.803Z" stroke="#00594C" stroke-width="0.25"/>
<path d="M109.668 112.812C109.518 112.812 109.398 112.691 109.398 112.542V109.447C109.398 109.298 109.518 109.177 109.668 109.177C109.817 109.177 109.937 109.298 109.937 109.447V112.542C109.937 112.691 109.817 112.812 109.668 112.812Z" stroke="#00594C" stroke-width="0.25"/>
<path d="M112.504 113.803C112.355 113.803 112.234 113.683 112.234 113.534V109.447C112.234 109.298 112.355 109.177 112.504 109.177C112.653 109.177 112.773 109.298 112.773 109.447V113.534C112.773 113.683 112.653 113.803 112.504 113.803Z" stroke="#00594C" stroke-width="0.25"/>
<path d="M155.867 132.616C155.718 132.616 155.597 132.495 155.597 132.346V128.259C155.597 128.11 155.718 127.99 155.867 127.99C156.016 127.99 156.137 128.11 156.137 128.259V132.346C156.137 132.495 156.016 132.616 155.867 132.616Z" stroke="#00594C" stroke-width="0.25"/>
<path d="M158.703 131.624C158.553 131.624 158.433 131.504 158.433 131.354V128.259C158.433 128.11 158.553 127.99 158.703 127.99C158.852 127.99 158.972 128.11 158.972 128.259V131.354C158.972 131.504 158.852 131.624 158.703 131.624Z" stroke="#00594C" stroke-width="0.25"/>
<path d="M161.538 132.616C161.389 132.616 161.269 132.495 161.269 132.346V128.259C161.269 128.11 161.389 127.99 161.538 127.99C161.688 127.99 161.808 128.11 161.808 128.259V132.346C161.808 132.495 161.688 132.616 161.538 132.616Z" stroke="#00594C" stroke-width="0.25"/>
<path d="M47.2466 36.6665H43.1599C43.0108 36.6665 42.8901 36.5459 42.8901 36.3967C42.8901 36.2476 43.0108 36.127 43.1599 36.127H47.2466C47.3957 36.127 47.5163 36.2476 47.5163 36.3967C47.5163 36.5459 47.3957 36.6665 47.2466 36.6665Z" stroke="#00594C" stroke-width="0.25"/>
<path d="M46.2549 33.8308H43.1599C43.0108 33.8308 42.8901 33.7102 42.8901 33.561C42.8901 33.4119 43.0108 33.2913 43.1599 33.2913H46.2549C46.4041 33.2913 46.5247 33.4119 46.5247 33.561C46.5247 33.7102 46.4041 33.8308 46.2549 33.8308Z" stroke="#00594C" stroke-width="0.25"/>
<path d="M47.2466 30.9951H43.1599C43.0108 30.9951 42.8901 30.8744 42.8901 30.7253C42.8901 30.5762 43.0108 30.4556 43.1599 30.4556H47.2466C47.3957 30.4556 47.5163 30.5762 47.5163 30.7253C47.5163 30.8744 47.3957 30.9951 47.2466 30.9951Z" stroke="#00594C" stroke-width="0.25"/>
<path opacity="0.66" d="M207.554 52.0177C207.405 52.0177 207.285 51.8972 207.285 51.748V47.6615C207.285 47.5122 207.405 47.3915 207.554 47.3915C207.703 47.3915 207.824 47.5122 207.824 47.6615V51.748C207.824 51.8972 207.703 52.0177 207.554 52.0177Z" stroke="#00594C" stroke-width="0.25"/>
<path opacity="0.66" d="M210.39 51.0265C210.241 51.0265 210.12 50.9057 210.12 50.7567V45.5525C210.12 45.4035 210.241 45.2827 210.39 45.2827C210.539 45.2827 210.66 45.4035 210.66 45.5525V50.7567C210.66 50.9057 210.539 51.0265 210.39 51.0265Z" stroke="#00594C" stroke-width="0.25"/>
<path opacity="0.66" d="M213.226 52.0177C213.077 52.0177 212.956 51.8972 212.956 51.748V47.6615C212.956 47.5122 213.077 47.3915 213.226 47.3915C213.375 47.3915 213.496 47.5122 213.496 47.6615V51.748C213.496 51.8972 213.375 52.0177 213.226 52.0177Z" stroke="#00594C" stroke-width="0.25"/>
<path d="M212.714 114.922C213.233 114.922 213.653 114.502 213.653 113.983C213.653 113.464 213.233 113.043 212.714 113.043C212.195 113.043 211.774 113.464 211.774 113.983C211.774 114.502 212.195 114.922 212.714 114.922Z" fill="#00594C"/>
<path d="M212.714 119.593C213.233 119.593 213.653 119.172 213.653 118.653C213.653 118.134 213.233 117.714 212.714 117.714C212.195 117.714 211.774 118.134 211.774 118.653C211.774 119.172 212.195 119.593 212.714 119.593Z" fill="#40C1AC"/>
<path opacity="0.66" d="M212.714 132.661C210.354 132.661 208.434 130.741 208.434 128.381C208.434 126.02 210.354 124.1 212.714 124.1C215.074 124.1 216.994 126.02 216.994 128.381C216.994 130.741 215.074 132.661 212.714 132.661ZM212.714 124.64C210.651 124.64 208.973 126.318 208.973 128.381C208.973 130.444 210.651 132.122 212.714 132.122C214.777 132.122 216.455 130.444 216.455 128.381C216.455 126.318 214.777 124.64 212.714 124.64Z" stroke="#00594C" stroke-width="0.25"/>
<path opacity="0.17" d="M212.714 130.478C213.872 130.478 214.811 129.539 214.811 128.38C214.811 127.222 213.872 126.283 212.714 126.283C211.555 126.283 210.616 127.222 210.616 128.38C210.616 129.539 211.555 130.478 212.714 130.478Z" fill="#00594C"/>
<path opacity="0.66" d="M212.828 129.767L211.632 128.571C211.527 128.466 211.527 128.295 211.632 128.19C211.738 128.084 211.908 128.084 212.014 128.19L212.828 129.004L215.043 126.789C215.148 126.683 215.319 126.683 215.424 126.789C215.53 126.894 215.53 127.065 215.424 127.17L212.828 129.767Z" stroke="#00594C" stroke-width="0.25"/>
<path d="M144.965 141.234H93.1877C93.0387 141.234 92.918 141.113 92.918 140.964C92.918 140.815 93.0387 140.694 93.1877 140.694H144.965C145.114 140.694 145.235 140.815 145.235 140.964C145.235 141.113 145.114 141.234 144.965 141.234Z" stroke="#00594C" stroke-width="0.25"/>
<path d="M74.813 96.151H67.894V103.07H74.813V96.151Z" stroke="#00594C" stroke-width="0.25"/>
<path d="M151.442 96.151H144.522V103.07H151.442V96.151Z" stroke="#00594C" stroke-width="0.25"/>
<path opacity="0.17" d="M147.982 96.151H70.6973V103.07H147.982V96.151Z" stroke="#00594C" stroke-width="0.25"/>
<path opacity="0.1" d="M167.355 71.8046H60.104C59.806 71.8046 59.5645 71.5631 59.5645 71.2651V60.7298C59.5645 60.4318 59.806 60.1903 60.104 60.1903H167.355C167.653 60.1903 167.895 60.4318 167.895 60.7298V71.2651C167.895 71.5631 167.653 71.8046 167.355 71.8046Z" stroke="#00594C" stroke-width="0.25"/>
</svg>
