<svg width="420" height="248" viewBox="0 0 420 248" fill="none" xmlns="http://www.w3.org/2000/svg">
<path d="M302.91 231.896H92.0949C92.0949 231.896 58.7537 197.532 99.5858 163.015C119.681 146.023 134.976 151.062 121.44 109.927C102.794 53.266 141.118 -9.04895 223.535 2.8356C315.38 16.062 289.361 84.9624 316.944 92.8768C357.981 104.631 395.781 199.642 302.91 231.896Z" fill="url(#paint0_linear)"/>
<path d="M186.89 144.183C186.89 160.987 177.925 176.514 163.373 184.916C148.82 193.318 130.891 193.318 116.338 184.916C101.786 176.514 92.8213 160.987 92.8213 144.183C92.8213 118.204 139.856 36.8431 139.856 36.8431C139.856 36.8431 186.89 118.204 186.89 144.183Z" fill="url(#paint1_linear)"/>
<path d="M139.869 231.569V67.8864" stroke="#382824" stroke-width="2" stroke-linecap="round" stroke-linejoin="round"/>
<path d="M161.704 128.948L139.646 151.006" stroke="#382824" stroke-width="2" stroke-linecap="round" stroke-linejoin="round"/>
<path d="M125.261 101.052L138.942 114.733" stroke="#382824" stroke-width="2" stroke-linecap="round" stroke-linejoin="round"/>
<path d="M121.076 158.112C120.851 179.788 103.215 197.241 81.5382 197.241C59.861 197.241 42.2253 179.788 42 158.112C42 136.275 81.5361 67.8862 81.5361 67.8862C81.5361 67.8862 121.076 136.275 121.076 158.112Z" fill="url(#paint2_linear)"/>
<path d="M81.5348 231.569V93.976" stroke="#382824" stroke-width="2" stroke-linecap="round" stroke-linejoin="round"/>
<path d="M99.892 145.306L81.3516 163.846" stroke="#382824" stroke-width="2" stroke-linecap="round" stroke-linejoin="round"/>
<path d="M69.2539 121.855L80.7573 133.358" stroke="#382824" stroke-width="2" stroke-linecap="round" stroke-linejoin="round"/>
<path d="M378.582 158.003C378.357 179.679 360.721 197.132 339.044 197.132C317.367 197.132 299.731 179.679 299.506 158.003C299.506 136.166 339.042 67.7773 339.042 67.7773C339.042 67.7773 378.582 136.166 378.582 158.003Z" fill="url(#paint3_linear)"/>
<path d="M339.041 231.46V93.8671" stroke="#382824" stroke-width="2" stroke-linecap="round" stroke-linejoin="round"/>
<path d="M357.398 145.197L338.857 163.737" stroke="#382824" stroke-width="2" stroke-linecap="round" stroke-linejoin="round"/>
<path d="M326.761 121.746L338.264 133.249" stroke="#382824" stroke-width="2" stroke-linecap="round" stroke-linejoin="round"/>
<mask id="mask0" mask-type="alpha" maskUnits="userSpaceOnUse" x="18" y="-100" width="353" height="346">
<path d="M295.275 225.798H56.5249C56.5249 225.798 18.7655 177.346 65.0085 128.678C87.7666 104.721 105.088 111.825 89.7584 53.826C68.6417 -26.0639 112.044 -113.926 205.382 -97.169C309.399 -78.5202 279.931 18.6271 311.169 29.786C357.644 46.3592 400.453 180.322 295.275 225.798Z" fill="url(#paint4_linear)"/>
<path d="M19.6266 121.343L139.002 -85.4211C139.002 -85.4211 199.842 -93.8957 218.868 -29.5142C228.237 2.17359 213.424 13.6222 271.317 29.346C351.062 51.0033 405.451 132.522 344.271 204.977C276.112 285.733 206.714 211.64 181.431 233.113C143.841 265.076 6.42109 235.168 19.6266 121.343Z" fill="url(#paint5_linear)"/>
</mask>
<g mask="url(#mask0)">
<path d="M198.291 223.239C198.291 223.239 195.161 232.197 189.108 236.675C183.055 241.154 183.35 245.094 185.647 246.645C185.431 248.123 185.596 251.082 188.639 250.885C188.639 250.885 188.271 253.853 191.304 254.595C191.672 255.971 192.9 256.942 194.324 256.983C196.92 257.108 204.027 258.364 203.309 255.69C202.59 253.016 197.854 253.849 197.38 251.547C196.906 249.246 200.984 246.852 204.745 250.595C208.86 254.691 211.249 252.026 209.536 249.702C206.121 245.066 209.536 245.343 208.298 240.781C206.798 235.202 210.816 226.857 210.816 226.857L198.291 223.239Z" fill="url(#paint6_linear)"/>
<path d="M240.079 125.383C252.047 120.181 264.259 129.88 257.17 152.618C250.082 175.357 242.197 192.02 236.595 197.838C230.993 203.656 225.184 203.79 220.816 196.876C216.747 190.446 229.322 130.05 240.079 125.383Z" fill="url(#paint7_linear)"/>
<path d="M211.786 193.983C211.786 193.983 218.014 178.876 226.516 179.253C237.25 179.759 239.404 190.13 236.044 197.729C233.149 204.266 217.296 229.545 212.932 236.463C212.218 237.599 210.891 238.194 209.568 237.973C205.918 237.366 198.723 235.331 194.801 228.528C194.234 227.532 194.222 226.313 194.769 225.306L211.786 193.983Z" fill="url(#paint8_linear)"/>
<path d="M211.927 257.195L212.603 260.178C212.63 260.287 212.601 260.402 212.527 260.485C212.452 260.569 212.342 260.611 212.23 260.597L209.188 260.288C208.979 260.264 208.781 260.177 208.622 260.04L189.404 243.009L192.392 239.635L211.614 256.666C211.771 256.805 211.881 256.99 211.927 257.195Z" fill="url(#paint9_linear)"/>
<ellipse cx="191.046" cy="241.451" rx="2.25545" ry="1.79516" transform="rotate(-48.62 191.046 241.451)" fill="url(#paint10_linear)"/>
<path d="M221.013 184.83L222.789 172.209" stroke="white" stroke-width="2" stroke-linecap="round" stroke-linejoin="round"/>
<path d="M236.594 197.839C239.181 195.155 242.251 190.152 245.505 183.316L238.476 149.07C238.476 149.07 243.116 177.751 235.535 198.815C235.907 198.511 236.261 198.185 236.594 197.839Z" fill="#1C505C"/>
<path d="M289.929 88.5309C289.929 88.5309 287.696 104.36 294.803 113.976C294.803 113.976 278.297 136.991 264.778 113.976C264.778 113.976 268.088 106.878 267.319 91.196L289.929 88.5309Z" fill="url(#paint11_linear)"/>
<path d="M294.804 113.976C294.804 113.976 280.783 131.62 264.779 113.976C264.779 113.976 255.264 116.098 243.177 122.98C231.09 129.861 238.965 139.435 241.907 155.422C244.848 171.408 253.469 210.197 240.286 227.329C229.994 240.678 270.077 243.683 301.874 241.723C324.889 240.305 315.839 226.128 313.091 201.295C311.071 182.998 315.499 154.128 319.296 140.259C323.094 126.391 309.331 120.329 294.804 113.976Z" fill="url(#paint12_linear)"/>
<path d="M292.429 170.998C292.429 170.998 283.37 178.123 271.503 170.998C271.503 170.998 260.631 176.273 251.899 173.143L255.029 184.052L292.429 188.135V170.998Z" fill="#1C505C"/>
<path d="M265.975 118.294C265.975 118.294 278.297 133.111 294.264 117.207" stroke="white" stroke-width="2" stroke-linecap="round" stroke-linejoin="round"/>
<path d="M262.427 114.616C262.427 114.616 234.574 122.901 235.541 132.153C236.922 145.134 246.547 178.362 242.445 203.283C236.669 238.265 225.258 243.674 225.258 245.593C225.258 247.513 239.269 252.134 248.788 249.823C258.307 247.513 257.336 255.715 260.111 255.347C262.887 254.979 260.622 212.944 256.217 172.369C254.588 157.354 260.153 147.163 260.733 139.803C262.427 118.119 262.427 114.616 262.427 114.616Z" fill="url(#paint13_linear)"/>
<path d="M296.474 114.694C296.474 114.694 292.111 124.033 284.995 158.091C282.302 170.979 288.433 182.551 288.355 189.704C288.12 212.406 288.235 225.271 288.626 244.267C288.953 260.065 297.441 250.606 308.939 250.486C318.859 250.38 325.109 254.882 327.489 252.327C327.489 252.327 315.153 225.17 314.822 195.637C314.49 166.104 324.332 137.405 321.855 130.109C319.917 124.471 296.474 114.694 296.474 114.694Z" fill="url(#paint14_linear)"/>
<path d="M314.821 195.651C314.494 166.127 324.331 137.419 321.854 130.123C321.744 129.822 321.599 129.535 321.422 129.267C313.537 136.194 293.058 147.748 299.723 186.233C305.459 219.347 316.892 232.028 322.094 237.717C318.729 227.043 315.001 211.697 314.821 195.651Z" fill="#1C505C"/>
<path d="M286.728 49.6452C286.728 49.6452 294.553 42.1746 302.451 47.0031C308.674 50.7914 314.239 55.8178 326.792 55.8178C345.83 55.8178 344.587 90.5426 320.256 93.3642C295.924 96.1858 287.202 59.1642 286.728 49.6452Z" fill="url(#paint15_linear)"/>
<path d="M291.599 46.529C291.599 46.529 292.455 46.1608 292.98 46.0043C293.84 45.7465 294.554 45.5992 294.554 45.5992C294.554 45.5992 309.127 51.689 305.467 65.9397L291.599 46.529Z" fill="url(#paint16_linear)"/>
<path d="M248.113 60.6833C246.995 65.3691 249.416 72.5498 247.041 81.8938C244.767 90.8328 248.56 98.6532 255.616 103.726C263.708 109.544 282.424 109.01 289.061 90.6164C289.061 90.6164 302.143 93.4933 302.461 82.193C302.87 67.597 290.263 72.7661 290.263 72.7661C290.263 72.7661 293.098 61.4336 284.67 53.7006C275.018 44.8399 251.013 48.4717 248.113 60.6833Z" fill="url(#paint17_linear)"/>
<path d="M288.053 79.6984C288.053 79.6984 261.738 79.4406 258.014 58.5984C258.014 58.5984 255.381 65.6685 247.887 67.0448C247.887 67.0448 243.708 54.2301 255.178 50.3406C255.178 50.3406 262.764 37.1209 282.4 42.175C302.037 47.229 309.162 65.0333 304.628 80.8629C299.735 97.9445 285.052 98.0688 285.052 98.0688L289.033 90.6166C289.033 90.6166 299.896 92.8536 299.703 81.7743C299.597 75.7168 295.717 73.3785 291.634 75.3301C289.139 76.5177 288.053 79.6984 288.053 79.6984Z" fill="url(#paint18_linear)"/>
<path d="M256.428 52.2046C256.428 52.2046 257.238 64.2644 263.452 69.5348" stroke="white" stroke-width="2" stroke-linecap="round" stroke-linejoin="round"/>
<path d="M256.814 78.1107C256.814 78.1107 255.971 80.4122 254.222 85.4755C253.251 88.2787 255.387 88.3339 257.237 88.6975" stroke="#382824" stroke-width="2" stroke-linecap="round" stroke-linejoin="round"/>
<path d="M295.891 80.0853C295.891 80.0853 291.749 78.9852 290.893 86.5663" stroke="#382824" stroke-width="2" stroke-linecap="round" stroke-linejoin="round"/>
<path d="M291.616 83.2983C291.616 83.2983 293.738 82.1292 294.806 84.0716" stroke="#382824" stroke-width="2" stroke-linecap="round" stroke-linejoin="round"/>
<path d="M256.962 96.9778C256.962 96.9778 263.452 100.02 265.979 93.5439" stroke="#382824" stroke-width="2" stroke-linecap="round" stroke-linejoin="round"/>
<path d="M298.804 241.658C298.804 241.658 295.794 249.607 293.281 252.64C290.768 255.674 288.144 256.958 286.68 261.676C285.216 266.394 284.379 267.048 283.26 268.023C282.142 268.999 286.897 269.648 289.529 265.69C289.529 265.69 290.096 264.875 290.367 265.418C290.639 265.961 285.916 276.24 285.81 278.113C285.704 279.986 287.739 280.415 288.471 279.333C289.203 278.251 293.424 268.023 293.424 268.023C293.424 268.023 288.54 280.714 288.784 281.528C289.028 282.343 290.086 282.992 291.311 282.182C292.535 281.372 297.493 269.326 297.493 269.326C297.493 269.326 293.585 279.577 293.81 280.958C294.036 282.339 295.679 282.67 296.572 281.367C297.465 280.065 301.778 269.57 301.778 269.57C301.778 269.57 298.85 279.089 299.476 280.309C300.102 281.528 301.184 281.69 302.082 279.494C302.979 277.298 308.346 264.764 308.986 261.759C309.626 258.753 308.825 253.473 312.669 246.541L298.804 241.658Z" fill="url(#paint19_linear)"/>
<path d="M310.679 253.133C312.785 253.027 314.611 251.643 315.282 249.644C319.227 237.764 333.068 195.702 333.409 188.885C333.804 180.949 327.664 135.656 321.597 130.004C315.531 124.351 300.7 126.086 303.963 147.173C307.227 168.259 309.814 192.438 309.814 192.438L293.667 243.237C293.058 245.145 293.621 247.233 295.107 248.576C297.602 250.827 302.403 253.589 310.679 253.133Z" fill="url(#paint20_linear)"/>
<path d="M296.12 235.522L309.814 192.457" stroke="white" stroke-width="2" stroke-linecap="round" stroke-linejoin="round"/>
<path d="M146.181 193.514C146.181 193.514 150.335 249.369 153.214 272.757C156.093 296.146 186.975 298.19 188.649 276.124C190.323 254.058 188.649 187.062 188.649 187.062L146.181 193.514Z" fill="url(#paint21_linear)"/>
<path d="M106.351 194.049C106.351 194.049 107.607 250.044 109.286 273.536C110.965 297.028 141.701 300.685 144.495 278.736C147.29 256.787 152.612 189.449 152.612 189.449L106.351 194.049Z" fill="url(#paint22_linear)"/>
<path d="M173.813 147.075C173.813 147.075 175.745 163.659 177.25 169.474C178.756 175.288 181.471 181.731 189.911 186.091C200.977 191.784 219.521 194.419 222.264 196.984C230.967 205.077 233.476 203.511 236.739 201.401C238.845 200.036 242.713 193.528 242.713 193.528C242.713 193.528 235.628 194.846 233.101 195.404C232.111 195.615 230.531 192.121 233.063 191.601C235.464 191.09 243.271 192.726 242.938 191.029C241.761 184.971 231.319 184.136 223.132 184.117C218.279 184.117 207.874 169.455 199.101 162.722L198.163 147.529L173.813 147.075Z" fill="url(#paint23_linear)"/>
<path d="M199.103 154.68C201.548 153.468 202.862 150.753 202.296 148.083C199.811 136.323 191.98 103.036 182.602 101.231C171.18 99.0314 163.804 105.999 165.788 121.215C167.194 132.051 169.539 146.512 170.791 153.934C171.268 156.818 173.762 158.933 176.685 158.933C182.452 158.9 191.938 158.234 199.103 154.68Z" fill="url(#paint24_linear)"/>
<path d="M191.384 162.722C194.202 161.711 197.283 161.711 200.101 162.722" stroke="white" stroke-width="2" stroke-linecap="round" stroke-linejoin="round"/>
<path d="M96.091 118.331C88.8653 100.208 120.305 85.5085 147.369 85.5085C158.37 85.5085 186.288 99.2331 187.226 105.699C188.163 112.165 179.029 155.632 189.57 187.451C194.456 202.109 194.254 206.798 180.398 212.894C160.541 221.634 99.4154 222.618 102.365 204.224C104.367 191.737 115.677 167.467 96.091 118.331Z" fill="url(#paint25_linear)"/>
<path d="M130.303 88.9878L133.547 60.418H156.523L162.052 88.9878C162.052 88.9878 158.652 96.5464 150.156 97.2638C142.288 97.9296 130.303 88.9878 130.303 88.9878Z" fill="url(#paint26_linear)"/>
<path d="M131.141 81.5559C131.141 81.5559 128.614 83.7925 125.327 88.4909C126.556 94.2724 137.439 107.223 137.439 107.223C137.439 107.223 141.935 99.6834 149.555 97.2967C149.555 97.2967 140.51 96.8279 134.081 87.8766C130.987 83.605 131.141 81.5559 131.141 81.5559Z" fill="url(#paint27_linear)"/>
<path d="M151.056 97.1934C151.056 97.1934 158.286 97.3013 164.893 104.747C164.893 104.747 165.934 95.9977 165.756 90.6805C164.394 87.4516 162.663 84.3912 160.598 81.5604C160.598 81.5604 163.842 91.0087 151.056 97.1934Z" fill="url(#paint28_linear)"/>
<path d="M176.709 143.722L171.888 146.606C170.841 147.229 169.536 147.229 168.489 146.606L163.669 143.722C162.668 143.125 162.055 142.046 162.056 140.88V127.995C162.056 126.167 163.538 124.685 165.366 124.685H175.011C176.84 124.685 178.322 126.167 178.322 127.995V140.88C178.327 142.047 177.713 143.129 176.709 143.722Z" fill="#056482"/>
<path d="M90.4411 135.477C90.4411 135.477 88.8656 152.076 89.1282 158.101C89.3907 164.126 90.6802 170.967 98.0372 177.002C107.673 184.875 125.257 191.318 127.423 194.408C134.25 204.137 137.026 203.124 140.66 201.746C143.004 200.855 148.162 195.294 148.162 195.294C148.162 195.294 140.955 195.102 138.367 195.102C137.359 195.102 136.538 191.35 139.127 191.35C141.584 191.35 146.001 192.096 147.412 191.102C148.823 190.108 151.416 188.016 142.601 187.14C137.743 186.671 138.981 183.689 130.977 181.958C126.232 180.936 118.65 167.526 111.471 159.109L114.209 140.972L90.4411 135.477Z" fill="url(#paint29_linear)"/>
<path d="M87.5957 146.674C87.5957 146.674 89.5369 111.465 97.3816 103.953C105.226 96.4411 119.889 102.677 118.599 120.43C117.31 138.182 116.011 151.494 114.548 152.868C113.085 154.242 88.1537 152.441 87.5957 146.674Z" fill="url(#paint30_linear)"/>
<path d="M101.217 159.133C101.217 159.133 105.287 155.935 111.481 159.133" stroke="white" stroke-width="2" stroke-linecap="round" stroke-linejoin="round"/>
<path d="M168.474 68.8113C168.474 68.8113 173.575 68.4034 174.485 63.2268C175.395 58.0502 173.758 54.9742 169.276 55.9401C164.793 56.9061 168.474 68.8113 168.474 68.8113Z" fill="url(#paint31_linear)"/>
<path d="M131.6 54.0597C131.6 54.0597 130.09 51.0447 126.503 53.1876C121.036 56.4464 122.724 66.659 129.316 67.0294C129.316 67.0294 132.406 77.031 142.314 85.096C155.818 96.0869 165.417 84.1582 169.224 71.9669C173.233 59.1051 171.62 46.7919 163.049 41.709C154.233 36.4668 136.744 33.4705 131.6 54.0597Z" fill="url(#paint32_linear)"/>
<path d="M133.18 60.3571C133.18 60.3571 133.607 52.2733 128.308 52.4703C128.308 52.4703 127.258 39.5381 131.257 35.2477C135.257 30.9573 142.384 33.9583 142.384 33.9583C142.384 33.9583 161.67 29.9773 169.154 36.7716C176.637 43.5659 170.992 64.1317 170.992 64.1317C170.992 64.1317 172.67 52.4093 166.35 47.8423C160.789 43.8379 151.814 44.3818 149.498 47.636C147.181 50.8901 139.449 46.1636 137.775 49.7413C136.101 53.319 136.031 61.6231 136.031 61.6231L133.18 60.3571Z" fill="url(#paint33_linear)"/>
<path d="M125.958 57.6893C125.958 57.6893 130.037 55.1338 130.037 62.6267" stroke="#382824" stroke-width="2" stroke-linecap="round" stroke-linejoin="round"/>
<path d="M159.073 64.6051C159.72 66.7386 160.288 67.817 160.358 69.5051C160.452 71.8871 157.015 70.8696 157.015 70.8696" stroke="#382824" stroke-width="2" stroke-linecap="round" stroke-linejoin="round"/>
<path d="M126.314 59.968C126.314 59.968 128.711 58.9551 129.883 60.4369" stroke="#382824" stroke-width="2" stroke-linecap="round" stroke-linejoin="round"/>
<path d="M155.477 80.018C155.477 80.018 150.788 80.0977 150.788 75.4041" stroke="#382824" stroke-width="2" stroke-linecap="round" stroke-linejoin="round"/>
</g>
<path d="M113.91 15.8946L58.2848 8.40361C56.3078 8.13654 54.7021 9.61519 54.7021 11.7029V41.9924C54.7021 44.0801 56.3306 45.8258 58.2848 45.9007L101.247 47.2393L109.389 57.2055H111.308L109.389 47.4933L113.92 47.6334C115.323 47.679 116.45 46.3045 116.45 44.5686V19.3795C116.441 17.6435 115.314 16.0835 113.91 15.8946Z" fill="#1C505C"/>
<path d="M115.832 15.9662L60.2067 8.47526C58.2297 8.2082 56.624 9.68684 56.624 11.7745V42.064C56.624 44.1517 58.2525 45.8974 60.2067 45.9723L103.166 47.3109L111.308 57.2804V47.5682L115.842 47.7115C117.242 47.7539 118.372 46.3795 118.372 44.6435V19.4381C118.362 17.7152 117.232 16.1551 115.832 15.9662Z" fill="url(#paint34_linear)"/>
<path d="M105.976 27.6421L70.2143 24.3474C69.3491 24.1982 68.726 23.4123 68.7586 22.5114C68.7256 22.1002 68.8664 21.6943 69.145 21.3973C69.4237 21.1003 69.8132 20.9408 70.2143 20.9596L105.976 24.5152C106.736 24.6844 107.26 25.4001 107.209 26.1975C107.209 27.0596 106.66 27.7073 105.976 27.6421Z" fill="white"/>
<path d="M90.8277 34.3323L70.2239 33.0639C69.3554 32.952 68.7231 32.284 68.7581 31.5154C68.7272 31.1603 68.8686 30.8102 69.1477 30.5512C69.4267 30.2922 69.8175 30.1483 70.2239 30.155L90.8277 31.5514C91.634 31.6777 92.2061 32.3113 92.1611 33.0279C92.1611 33.7961 91.5629 34.3803 90.8277 34.3323Z" fill="white"/>
<defs>
<linearGradient id="paint0_linear" x1="18.208" y1="-92.9873" x2="11.9272" y2="249.799" gradientUnits="userSpaceOnUse">
<stop stop-color="#1F9599"/>
<stop offset="1" stop-color="white"/>
</linearGradient>
<linearGradient id="paint1_linear" x1="83.6376" y1="6.79589" x2="83.6376" y2="191.317" gradientUnits="userSpaceOnUse">
<stop stop-color="#FFE195"/>
<stop offset="1" stop-color="#FDA350"/>
</linearGradient>
<linearGradient id="paint2_linear" x1="-149.923" y1="414.494" x2="194.772" y2="414.494" gradientUnits="userSpaceOnUse">
<stop stop-color="#1B345B"/>
<stop offset="1" stop-color="#20B7AF"/>
</linearGradient>
<linearGradient id="paint3_linear" x1="107.583" y1="414.385" x2="452.278" y2="414.385" gradientUnits="userSpaceOnUse">
<stop stop-color="#1B345B"/>
<stop offset="1" stop-color="#00FFF1"/>
</linearGradient>
<linearGradient id="paint4_linear" x1="-27.1529" y1="-232.276" x2="-38.1761" y2="250.952" gradientUnits="userSpaceOnUse">
<stop stop-color="#04AFA5"/>
<stop offset="1" stop-color="white"/>
</linearGradient>
<linearGradient id="paint5_linear" x1="577.544" y1="71.1489" x2="164.568" y2="-180.012" gradientUnits="userSpaceOnUse">
<stop stop-color="#04AFA5"/>
<stop offset="1" stop-color="white"/>
</linearGradient>
<linearGradient id="paint6_linear" x1="191.47" y1="204.719" x2="161.63" y2="245.788" gradientUnits="userSpaceOnUse">
<stop stop-color="#FFDDBB"/>
<stop offset="1" stop-color="#FF786E"/>
</linearGradient>
<linearGradient id="paint7_linear" x1="124.812" y1="333.349" x2="295.828" y2="333.349" gradientUnits="userSpaceOnUse">
<stop stop-color="#1B345B"/>
<stop offset="1" stop-color="#20B7AF"/>
</linearGradient>
<linearGradient id="paint8_linear" x1="89.6755" y1="336.728" x2="277.702" y2="336.728" gradientUnits="userSpaceOnUse">
<stop stop-color="#1B345B"/>
<stop offset="1" stop-color="#20B7AF"/>
</linearGradient>
<linearGradient id="paint9_linear" x1="193.939" y1="236.454" x2="186.49" y2="258.266" gradientUnits="userSpaceOnUse">
<stop stop-color="#1B345B"/>
<stop offset="1" stop-color="#20B7AF"/>
</linearGradient>
<linearGradient id="paint10_linear" x1="202.459" y1="241.379" x2="197.871" y2="235.343" gradientUnits="userSpaceOnUse">
<stop stop-color="#1B345B"/>
<stop offset="1" stop-color="#20B7AF"/>
</linearGradient>
<linearGradient id="paint11_linear" x1="293.96" y1="127.122" x2="295.752" y2="92.4011" gradientUnits="userSpaceOnUse">
<stop stop-color="#FFDDBB"/>
<stop offset="1" stop-color="#FF786E"/>
</linearGradient>
<linearGradient id="paint12_linear" x1="341.706" y1="289.325" x2="314.447" y2="126.295" gradientUnits="userSpaceOnUse">
<stop stop-color="#1C505C"/>
<stop offset="1" stop-color="#006788"/>
</linearGradient>
<linearGradient id="paint13_linear" x1="135.047" y1="491.738" x2="297.066" y2="491.738" gradientUnits="userSpaceOnUse">
<stop stop-color="#1B345B"/>
<stop offset="1" stop-color="#20B7AF"/>
</linearGradient>
<linearGradient id="paint14_linear" x1="179.513" y1="486.367" x2="367.73" y2="486.367" gradientUnits="userSpaceOnUse">
<stop stop-color="#1B345B"/>
<stop offset="1" stop-color="#20B7AF"/>
</linearGradient>
<linearGradient id="paint15_linear" x1="342.675" y1="72.3108" x2="342.675" y2="19.1812" gradientUnits="userSpaceOnUse">
<stop stop-color="#1B4F5B"/>
<stop offset="1" stop-color="#20B7AF"/>
</linearGradient>
<linearGradient id="paint16_linear" x1="304.548" y1="44.7736" x2="289.975" y2="45.8845" gradientUnits="userSpaceOnUse">
<stop stop-color="#FFBB00"/>
<stop offset="1" stop-color="#FFFF95"/>
</linearGradient>
<linearGradient id="paint17_linear" x1="323.295" y1="128.728" x2="342.758" y2="13.7525" gradientUnits="userSpaceOnUse">
<stop stop-color="#FFDDBB"/>
<stop offset="1" stop-color="#FF786E"/>
</linearGradient>
<linearGradient id="paint18_linear" x1="308.992" y1="72.9389" x2="308.992" y2="9.97969" gradientUnits="userSpaceOnUse">
<stop stop-color="#1B4F5B"/>
<stop offset="1" stop-color="#20B7AF"/>
</linearGradient>
<linearGradient id="paint19_linear" x1="255.224" y1="317.467" x2="335.292" y2="317.467" gradientUnits="userSpaceOnUse">
<stop stop-color="#FFDDBB"/>
<stop offset="1" stop-color="#FF786E"/>
</linearGradient>
<linearGradient id="paint20_linear" x1="196.338" y1="464.717" x2="370.707" y2="464.717" gradientUnits="userSpaceOnUse">
<stop stop-color="#1B345B"/>
<stop offset="1" stop-color="#20B7AF"/>
</linearGradient>
<linearGradient id="paint21_linear" x1="133.716" y1="230.74" x2="133.716" y2="395.505" gradientUnits="userSpaceOnUse">
<stop stop-color="#1B1D31"/>
<stop offset="1" stop-color="#006088"/>
</linearGradient>
<linearGradient id="paint22_linear" x1="92.7965" y1="230.74" x2="92.7965" y2="395.505" gradientUnits="userSpaceOnUse">
<stop stop-color="#1B1D31"/>
<stop offset="1" stop-color="#006088"/>
</linearGradient>
<linearGradient id="paint23_linear" x1="255.284" y1="136.71" x2="160.567" y2="136.71" gradientUnits="userSpaceOnUse">
<stop stop-color="#FFDDBB"/>
<stop offset="1" stop-color="#FF786E"/>
</linearGradient>
<linearGradient id="paint24_linear" x1="231.945" y1="253.5" x2="231.945" y2="102.563" gradientUnits="userSpaceOnUse">
<stop stop-color="#1F8A92"/>
<stop offset="1" stop-color="white"/>
</linearGradient>
<linearGradient id="paint25_linear" x1="270.281" y1="436.13" x2="270.281" y2="89.4801" gradientUnits="userSpaceOnUse">
<stop stop-color="#1F8A92"/>
<stop offset="1" stop-color="white"/>
</linearGradient>
<linearGradient id="paint26_linear" x1="151.52" y1="108.496" x2="161.888" y2="81.4838" gradientUnits="userSpaceOnUse">
<stop stop-color="#FFDDBB"/>
<stop offset="1" stop-color="#FF786E"/>
</linearGradient>
<linearGradient id="paint27_linear" x1="150.811" y1="95.9162" x2="150.811" y2="67.5879" gradientUnits="userSpaceOnUse">
<stop stop-color="#1B4F5B"/>
<stop offset="1" stop-color="#20B7AF"/>
</linearGradient>
<linearGradient id="paint28_linear" x1="166.539" y1="94.5329" x2="166.539" y2="68.9422" gradientUnits="userSpaceOnUse">
<stop stop-color="#1B4F5B"/>
<stop offset="1" stop-color="#20B7AF"/>
</linearGradient>
<linearGradient id="paint29_linear" x1="156.269" y1="124.172" x2="76.3414" y2="124.172" gradientUnits="userSpaceOnUse">
<stop stop-color="#FFDDBB"/>
<stop offset="1" stop-color="#FF786E"/>
</linearGradient>
<linearGradient id="paint30_linear" x1="143.503" y1="238.725" x2="143.503" y2="102.39" gradientUnits="userSpaceOnUse">
<stop stop-color="#1F8A92"/>
<stop offset="1" stop-color="white"/>
</linearGradient>
<linearGradient id="paint31_linear" x1="187.983" y1="46.3809" x2="168.556" y2="46.157" gradientUnits="userSpaceOnUse">
<stop stop-color="#FFDDBB"/>
<stop offset="1" stop-color="#FF786E"/>
</linearGradient>
<linearGradient id="paint32_linear" x1="193.887" y1="107.068" x2="193.887" y2="7.08106" gradientUnits="userSpaceOnUse">
<stop stop-color="#FFDDBB"/>
<stop offset="1" stop-color="#FF786E"/>
</linearGradient>
<linearGradient id="paint33_linear" x1="175.358" y1="50.329" x2="175.358" y2="15.7484" gradientUnits="userSpaceOnUse">
<stop stop-color="#1B4F5B"/>
<stop offset="1" stop-color="#20B7AF"/>
</linearGradient>
<linearGradient id="paint34_linear" x1="-93.2426" y1="139.301" x2="175.919" y2="139.301" gradientUnits="userSpaceOnUse">
<stop stop-color="#1B345B"/>
<stop offset="1" stop-color="#20B7AF"/>
</linearGradient>
</defs>
</svg>
