<svg width="270" height="248" viewBox="0 0 270 248" fill="none" xmlns="http://www.w3.org/2000/svg">
<rect x="90.0928" y="20.8839" width="114.939" height="221.262" fill="url(#paint0_linear)"/>
<mask id="mask0" mask-type="alpha" maskUnits="userSpaceOnUse" x="90" y="20" width="116" height="223">
<rect x="90.0928" y="20.8839" width="114.939" height="221.262" fill="white"/>
</mask>
<g mask="url(#mask0)">
<path opacity="0.2" d="M138.644 149.195L142.186 135.356L195.654 146.151L205.15 106.17L178.618 99.634L169.923 85.318L127.532 74.063L108.003 143.919L138.644 149.195Z" fill="#F15653"/>
<path fill-rule="evenodd" clip-rule="evenodd" d="M422.363 90.9871V87.3863L370.392 75.8667L384.144 19.2748H380.525L366.944 75.1075L311.334 62.7869L322.704 19.2748H319.086L307.915 62.0347L253.59 50.0066L258.294 36.0598L258.559 36.112L258.932 34.1689L263.957 19.2817H260.262L255.961 32.0272L207.208 22.6527L208.403 19.2817H204.663L186.554 70.4203L120.407 55.965L134.388 19.2817H130.624L116.931 55.2058L41.2317 38.6646L47.6741 19.2817H43.9688L37.7807 37.9089L15.1105 32.957C8.08763 31.4237 1.02784 35.3852 -1.32281 42.1783L-9.973 67.1956L-20.8066 65.2246V68.801L24.7531 77.0855L3.82761 140.022C-4.48591 141.62 -12.7089 143.658 -20.8066 146.127V149.804C-4.89822 144.883 11.4835 141.647 28.0684 140.151L13.3519 199.947L-20.8066 194.88V198.446L12.5091 203.387L2.82817 242.707H6.43938L15.9915 203.903L48.9242 208.778L40.5875 242.696H44.2091L52.417 209.297L64.6053 211.108L91.9314 215.161L150.536 223.867L145.755 242.71H149.383L154.032 224.386L224.254 234.802L222.468 242.71H226.072L227.74 235.321L277.569 242.71H301.535L228.517 231.877L234.942 203.398L305.818 215.746L306.473 215.861L352.496 187.79L378.823 192.317L367.418 242.693H371.022L382.294 192.916L422.363 199.811V196.249L383.071 189.482L397.178 127.183L422.363 152.117V147.168L366.516 91.8856L369.573 79.3038L422.363 90.9871ZM310.449 66.1997L366.118 78.5308L363.242 90.3708L307.085 79.1019L310.449 66.1997ZM279.276 171.632L294.741 112.432L218.864 161.22L279.276 171.632ZM236.523 145.695L249.185 100.306L243.241 86.4079L298.388 98.4604L296.047 107.417L236.523 145.695ZM362.419 93.7871L306.196 82.5077L282.749 172.217L340.926 182.239L362.419 93.7871ZM307.023 65.4442L299.281 95.0548L242.585 82.6645L252.475 53.3569L307.023 65.4442ZM254.825 35.4088L206.01 26.0064L201.591 38.4838L250.152 49.2582L254.825 35.4088ZM200.408 41.8232L249.021 52.5907L239.128 81.9087L190.027 71.176L200.408 41.8232ZM115.436 58.4794L40.1122 42.0218L29.3656 74.3486L78.6376 83.3122L80.2778 77.918C81.4648 74.0358 84.4445 70.9602 88.2872 69.6509L110.832 61.9897C112.709 61.3549 114.327 60.1218 115.436 58.4794ZM-6.47453 67.833L1.99458 43.3276C3.76453 38.2187 9.07418 35.2393 14.357 36.3907L36.6441 41.266L25.8488 73.7147L-6.47453 67.833ZM28.2463 77.7197L7.7735 139.295C25.8632 136.127 44.2539 135.021 62.5929 135.997L77.6019 86.6937L28.2463 77.7197ZM88.4136 211.08L60.7114 206.971L49.7768 205.348L16.844 200.473L31.766 139.852C50.6804 138.42 69.6982 139.257 88.4136 142.345V211.08ZM66.2023 136.216C74.336 136.769 82.4361 137.737 90.4709 139.117L115.168 143.369L132.012 83.1797L164.809 91.513L173.863 104.976L197.783 110.548L190.655 139.451L141.341 129.119L119.932 139.399L118.654 143.971L213.75 160.338L232.071 148.558L245.464 100.546L239.029 85.485L119.044 59.2663C117.543 62.1172 115.005 64.2827 111.954 65.3152L89.4053 72.9764C86.6366 73.9226 84.4903 76.1401 83.635 78.9382L66.2023 136.216ZM135.687 127.932L121.196 134.896L123.836 125.456L135.687 127.932ZM134.472 87.4457L124.787 122.053L188.058 135.314L193.519 113.17L171.719 108.096L162.644 94.602L134.472 87.4457ZM151.407 220.427L91.9317 211.602V142.937L167.753 155.989L151.407 220.427ZM154.9 220.946L225.031 231.348L231.477 202.782L162.561 190.764L154.9 220.946ZM305.773 212.17L163.425 187.348L171.229 156.588L347.228 186.884L305.773 212.17ZM379.598 188.887L394.224 124.268L365.53 95.8626L344.399 182.828L379.598 188.887Z" fill="url(#paint1_linear)"/>
<path d="M147.157 102.078V105.857H142.669V102.078H141.262V111.046H142.669V107.264H147.157V111.046H148.564V102.078H147.157Z" fill="white"/>
</g>
<path d="M113.595 221.262L90.0928 242.146V20.8837L113.595 0V221.262Z" fill="#1B7179"/>
<path d="M19.0555 0H113.595V221.262H19.0555C8.53144 221.262 0 212.731 0 202.207V19.0555C0 8.53144 8.53144 0 19.0555 0Z" fill="url(#paint2_linear)"/>
<mask id="mask1" mask-type="alpha" maskUnits="userSpaceOnUse" x="0" y="0" width="114" height="222">
<path d="M19.0555 0H113.595V221.262H19.0555C8.53144 221.262 0 212.731 0 202.207V19.0555C0 8.53144 8.53144 0 19.0555 0Z" fill="white"/>
</mask>
<g mask="url(#mask1)">
<path opacity="0.2" d="M-7.61551 128.997L-4.07394 115.159L49.3908 125.954L58.8907 85.9729L32.3586 79.4365L23.6631 65.1205L-18.7277 53.8655L-38.2568 123.722L-7.61551 128.997Z" fill="#F15653"/>
<path fill-rule="evenodd" clip-rule="evenodd" d="M276.104 70.7897V67.189L224.133 55.6693L237.885 -0.922607H234.267L220.685 54.9101L165.09 42.5965L176.459 -0.915643H172.827L161.656 41.8373L107.331 29.8093L112.036 15.8624L112.3 15.9146L112.673 13.9715L117.698 -0.915643H114.003L109.702 11.8298L60.9494 2.45529L62.1438 -0.915643H58.4038L40.2955 50.2229L-25.8521 35.7676L-11.8704 -0.915643H-15.6348L-29.3275 35.0084L-105.027 18.4672L-98.5847 -0.915643H-102.29L-108.478 17.7115L-131.148 12.7596C-138.171 11.2263 -145.231 15.1878 -147.582 21.9809L-156.228 46.9982L-167.062 45.0272V48.6036L-121.502 56.8881L-142.431 119.825C-150.745 121.423 -158.968 123.461 -167.065 125.929V129.607C-151.157 124.686 -134.775 121.45 -118.19 119.954L-132.907 179.749L-167.065 174.683V178.249L-133.75 183.19L-143.431 222.509H-139.819L-130.267 183.705L-97.3346 188.581L-105.671 222.499H-102.05L-93.8417 189.1L-81.6535 190.91L-54.3273 194.964L4.27737 203.67L-0.503922 222.513H3.12471L7.77367 204.189L77.9955 214.604L76.2091 222.513H79.8134L81.4814 215.123L131.311 222.513H155.276L82.258 211.679L88.6829 183.2L159.559 195.549L160.214 195.664L206.237 167.592L232.564 172.12L221.159 222.499H224.763L236.036 172.722L276.104 179.617V176.051L236.812 169.285L250.919 106.985L276.104 131.933V126.971L220.257 71.6882L223.315 59.1064L276.104 70.7897ZM164.19 46.0022L219.859 58.3333L216.983 70.1733L160.826 58.9044L164.19 46.0022ZM133.016 151.434L148.481 92.2339L72.6041 141.022L133.016 151.434ZM90.2634 125.497L102.925 80.1083L96.9809 66.2101L152.128 78.2626L149.787 87.2192L90.2634 125.497ZM216.161 73.5896L159.938 62.3102L136.491 152.019L194.668 162.042L216.161 73.5896ZM160.763 45.2467L153.021 74.8573L96.325 62.467L106.215 33.1594L160.763 45.2467ZM108.566 15.2111L59.7507 5.80868L55.3316 18.286L103.893 29.0604L108.566 15.2111ZM54.1468 21.6257L102.761 32.3931L92.8672 61.7112L43.7658 50.9785L54.1468 21.6257ZM-30.8237 38.2818L-106.147 21.8241L-116.897 54.1544L-67.6322 63.1145L-65.9921 57.7204C-64.8051 53.8381 -61.8253 50.7625 -57.9826 49.4532L-35.4378 41.792C-33.5566 41.1593 -31.9354 39.926 -30.8237 38.2818ZM-152.737 47.6352L-144.268 23.1298C-142.498 18.0209 -137.189 15.0415 -131.906 16.1929L-109.619 21.0683L-120.414 53.5169L-152.737 47.6352ZM-118.017 57.5219L-138.489 119.097H-138.486C-120.397 115.93 -102.008 114.823 -83.67 115.799L-68.661 66.4959L-118.017 57.5219ZM-57.8454 190.882L-85.5476 186.773L-96.4822 185.151L-129.415 180.275L-114.493 119.654C-95.5786 118.222 -76.5608 119.059 -57.8454 122.148V190.882ZM-80.0567 116.018C-71.923 116.571 -63.8229 117.539 -55.7881 118.919L-31.0912 123.171L-14.247 62.9819L18.5499 71.3152L27.6041 84.7781L51.5244 90.3498L44.396 119.253L-4.91774 108.921L-26.3273 119.201L-27.6053 123.774L67.4911 140.141L85.8118 128.36L99.205 80.3485L92.7696 65.2873L-27.2153 39.0685C-28.7156 41.9194 -31.2538 44.0849 -34.3054 45.1174L-56.8537 52.7786C-59.6224 53.7248 -61.7687 55.9424 -62.624 58.7404L-80.0567 116.018ZM-10.5724 107.734L-25.0625 114.699L-22.4229 105.258L-10.5724 107.734ZM-11.7884 67.2481L-21.4729 101.856L41.7982 115.117L47.2586 92.9723L25.459 87.8985L16.3839 74.4044L-11.7884 67.2481ZM5.14607 200.229L-54.3292 191.405V122.74L21.4923 135.792L5.14607 200.229ZM8.64014 200.748L78.7715 211.15L85.2173 182.584L16.3013 170.567L8.64014 200.748ZM159.514 191.973L17.1649 167.15L24.9689 136.391L200.968 166.687L159.514 191.973ZM233.346 168.693L247.972 104.074L219.273 75.665L198.142 162.63L233.346 168.693Z" fill="url(#paint3_linear)"/>
</g>
<rect x="146.733" y="20.8839" width="116.6" height="221.262" fill="url(#paint4_linear)"/>
<mask id="mask2" mask-type="alpha" maskUnits="userSpaceOnUse" x="146" y="20" width="118" height="223">
<rect x="146.733" y="20.8839" width="116.6" height="221.262" fill="white"/>
</mask>
<g mask="url(#mask2)">
<path opacity="0.2" d="M138.644 149.195L142.186 135.356L195.654 146.151L205.15 106.17L178.618 99.634L169.923 85.318L127.532 74.063L108.003 143.919L138.644 149.195Z" fill="#FA927D"/>
<path opacity="0.5" fill-rule="evenodd" clip-rule="evenodd" d="M422.362 90.9871V87.3863L370.391 75.8667L384.143 19.2748H380.524L366.943 75.1075L311.333 62.7869L322.703 19.2748H319.085L307.914 62.0347L253.589 50.0066L258.293 36.0598L258.558 36.112L258.931 34.1689L263.956 19.2817H260.261L255.96 32.0272L207.207 22.6527L208.402 19.2817H204.662L186.553 70.4203L120.406 55.965L134.387 19.2817H130.623L116.93 55.2058L41.2307 38.6646L47.6731 19.2817H43.9678L37.7797 37.9089L15.1095 32.957C8.08665 31.4237 1.02686 35.3852 -1.32379 42.1783L-9.97398 67.1956L-20.8076 65.2246V68.801L24.7522 77.0855L3.82663 140.022C-4.48689 141.62 -12.7098 143.658 -20.8076 146.127V149.804C-4.8992 144.883 11.4825 141.647 28.0674 140.151L13.3509 199.947L-20.8076 194.88V198.446L12.5082 203.387L2.82719 242.707H6.43841L15.9905 203.903L48.9233 208.778L40.5865 242.696H44.2081L52.4161 209.297L64.6043 211.108L91.9305 215.161L150.535 223.867L145.754 242.71H149.383L154.031 224.386L224.253 234.802L222.467 242.71H226.071L227.739 235.321L277.568 242.71H301.534L228.516 231.877L234.941 203.398L305.817 215.746L306.472 215.861L352.495 187.79L378.822 192.317L367.417 242.693H371.021L382.294 192.916L422.362 199.811V196.249L383.07 189.482L397.177 127.183L422.362 152.117V147.168L366.515 91.8856L369.572 79.3038L422.362 90.9871ZM310.449 66.1997L366.118 78.5308L363.242 90.3708L307.085 79.1019L310.449 66.1997ZM279.275 171.632L294.74 112.432L218.863 161.22L279.275 171.632ZM236.522 145.695L249.184 100.306L243.24 86.4079L298.387 98.4604L296.046 107.417L236.522 145.695ZM362.419 93.7871L306.196 82.5077L282.749 172.217L340.926 182.239L362.419 93.7871ZM307.023 65.4442L299.281 95.0548L242.585 82.6645L252.475 53.3569L307.023 65.4442ZM254.825 35.4088L206.01 26.0064L201.591 38.4838L250.152 49.2582L254.825 35.4088ZM200.407 41.8232L249.021 52.5907L239.127 81.9087L190.026 71.176L200.407 41.8232ZM115.436 58.4794L40.1122 42.0218L29.3656 74.3486L78.6376 83.3122L80.2778 77.918C81.4648 74.0358 84.4445 70.9602 88.2872 69.6509L110.832 61.9897C112.709 61.3549 114.327 60.1218 115.436 58.4794ZM-6.47453 67.833L1.99458 43.3276C3.76453 38.2187 9.07418 35.2393 14.357 36.3907L36.6441 41.266L25.8488 73.7147L-6.47453 67.833ZM28.2463 77.7197L7.7735 139.295C25.8632 136.127 44.2539 135.021 62.5929 135.997L77.6019 86.6937L28.2463 77.7197ZM88.4136 211.08L60.7114 206.971L49.7768 205.348L16.844 200.473L31.766 139.852C50.6804 138.42 69.6982 139.257 88.4136 142.345V211.08ZM66.2023 136.216C74.336 136.769 82.4361 137.737 90.4709 139.117L115.168 143.369L132.012 83.1797L164.809 91.513L173.863 104.976L197.783 110.548L190.655 139.451L141.341 129.119L119.932 139.399L118.654 143.971L213.75 160.338L232.071 148.558L245.464 100.546L239.029 85.485L119.044 59.2663C117.543 62.1172 115.005 64.2827 111.954 65.3152L89.4053 72.9764C86.6366 73.9226 84.4903 76.1401 83.635 78.9382L66.2023 136.216ZM135.687 127.932L121.196 134.896L123.836 125.456L135.687 127.932ZM134.472 87.4457L124.787 122.053L188.058 135.314L193.519 113.17L171.719 108.096L162.644 94.602L134.472 87.4457ZM151.407 220.427L91.9317 211.602V142.937L167.753 155.989L151.407 220.427ZM154.9 220.946L225.031 231.348L231.477 202.782L162.561 190.764L154.9 220.946ZM305.773 212.17L163.424 187.348L171.228 156.588L347.227 186.884L305.773 212.17ZM379.598 188.887L394.224 124.268L365.53 95.8626L344.399 182.828L379.598 188.887Z" fill="url(#paint5_linear)"/>
</g>
<path fill-rule="evenodd" clip-rule="evenodd" d="M161.672 15.0298H248.383C259.777 15.0375 269.009 24.2761 269.009 35.6698V227.35C269.015 238.743 259.787 247.987 248.394 248H161.683C156.205 248.003 150.951 245.828 147.078 241.955C143.204 238.081 141.029 232.827 141.032 227.35V35.6698C141.032 24.2706 150.273 15.0298 161.672 15.0298ZM247.767 242.146C256.364 242.145 263.333 235.174 263.333 226.577L263.336 36.4397C263.336 27.8408 256.366 20.87 247.767 20.87H240.339V26.3722C240.339 29.5321 237.777 32.0937 234.617 32.0937H175.452C173.934 32.0946 172.478 31.4922 171.404 30.4191C170.33 29.346 169.727 27.8902 169.727 26.3722V20.87H162.303C153.704 20.87 146.733 27.8408 146.733 36.4397V226.577C146.733 230.706 148.373 234.666 151.293 237.586C154.213 240.506 158.173 242.146 162.303 242.146H247.767Z" fill="#1B7179"/>
<rect x="179.886" y="20.8839" width="50.2993" height="4.76736" rx="2.38368" fill="white"/>
<path fill-rule="evenodd" clip-rule="evenodd" d="M183.079 72.7748C179.506 68.5472 173.461 60.698 173.461 55.962C173.275 51.4909 175.555 47.2779 179.399 44.9872C183.243 42.6965 188.034 42.6965 191.878 44.9872C195.722 47.2779 198.002 51.4909 197.816 55.962C197.816 60.698 191.774 68.5472 188.202 72.7748C187.566 73.531 186.628 73.9675 185.64 73.9675C184.652 73.9675 183.715 73.531 183.079 72.7748ZM183.957 51.8989C182.315 52.58 181.245 54.1838 181.246 55.9619H181.253C181.255 58.3836 183.216 60.3474 185.637 60.3532C187.415 60.3546 189.019 59.2844 189.7 57.6418C190.381 55.9993 190.006 54.1082 188.748 52.8509C187.491 51.5935 185.6 51.2178 183.957 51.8989Z" fill="#1B7179"/>
<path fill-rule="evenodd" clip-rule="evenodd" d="M233.318 148.627C229.745 144.403 223.703 136.554 223.703 131.815C223.518 127.343 225.797 123.13 229.641 120.84C233.486 118.549 238.276 118.549 242.12 120.84C245.964 123.13 248.244 127.343 248.059 131.815C248.059 136.554 242.013 144.403 238.44 148.627C237.804 149.383 236.867 149.82 235.879 149.82C234.891 149.82 233.954 149.383 233.318 148.627ZM235.882 127.423C233.456 127.423 231.49 129.389 231.49 131.814C231.489 132.979 231.952 134.097 232.775 134.921C233.599 135.744 234.717 136.207 235.882 136.206C238.307 136.206 240.273 134.24 240.273 131.814C240.273 129.389 238.307 127.423 235.882 127.423Z" fill="#1B7179"/>
<path fill-rule="evenodd" clip-rule="evenodd" d="M158.386 189.423C154.813 185.199 148.771 177.35 148.771 172.61C148.586 168.139 150.866 163.926 154.71 161.636C158.554 159.345 163.344 159.345 167.188 161.636C171.032 163.926 173.312 168.139 173.127 172.61C173.127 177.35 167.082 185.199 163.509 189.423C162.873 190.179 161.935 190.616 160.947 190.616C159.959 190.616 159.022 190.179 158.386 189.423ZM160.949 168.219C158.524 168.219 156.558 170.185 156.558 172.61C156.557 173.775 157.019 174.893 157.843 175.717C158.667 176.54 159.784 177.003 160.949 177.002C163.374 177.002 165.34 175.036 165.34 172.61C165.34 170.185 163.374 168.219 160.949 168.219Z" fill="#1B7179"/>
<defs>
<linearGradient id="paint0_linear" x1="149.856" y1="279.099" x2="247.593" y2="200.445" gradientUnits="userSpaceOnUse">
<stop stop-color="#40C1AC"/>
<stop offset="1" stop-color="#84F3EE"/>
</linearGradient>
<linearGradient id="paint1_linear" x1="-1096.41" y1="617.972" x2="835.375" y2="617.972" gradientUnits="userSpaceOnUse">
<stop stop-color="#1B345B"/>
<stop offset="1" stop-color="#20B7AF"/>
</linearGradient>
<linearGradient id="paint2_linear" x1="59.0639" y1="258.215" x2="156.55" y2="180.681" gradientUnits="userSpaceOnUse">
<stop stop-color="#40C1AC"/>
<stop offset="1" stop-color="#84F3EE"/>
</linearGradient>
<linearGradient id="paint3_linear" x1="-1242.66" y1="597.774" x2="689.116" y2="597.774" gradientUnits="userSpaceOnUse">
<stop stop-color="#1B345B"/>
<stop offset="1" stop-color="#20B7AF"/>
</linearGradient>
<linearGradient id="paint4_linear" x1="135.35" y1="-22.1825" x2="135.35" y2="242.289" gradientUnits="userSpaceOnUse">
<stop stop-color="#FFE99D"/>
<stop offset="1" stop-color="#FFDB95"/>
</linearGradient>
<linearGradient id="paint5_linear" x1="402.126" y1="22.2692" x2="-29.1514" y2="22.2692" gradientUnits="userSpaceOnUse">
<stop stop-color="#1B345B"/>
<stop offset="1" stop-color="#20B7AF"/>
</linearGradient>
</defs>
</svg>
