<svg width="320" height="201" viewBox="0 0 320 201" fill="none" xmlns="http://www.w3.org/2000/svg">
<rect x="124.674" y="16.8462" width="92.7172" height="178.485" fill="url(#paint0_linear)"/>
<mask id="mask0" mask-type="alpha" maskUnits="userSpaceOnUse" x="124" y="16" width="94" height="180">
<rect x="124.674" y="16.8462" width="92.7172" height="178.485" fill="white"/>
</mask>
<g mask="url(#mask0)">
<path opacity="0.2" d="M163.839 120.351L166.696 109.187L209.827 117.895L217.487 85.6441L196.085 80.3714L189.07 68.8232L154.875 59.7441L139.122 116.095L163.839 120.351Z" fill="#F15653"/>
<path fill-rule="evenodd" clip-rule="evenodd" d="M392.705 73.3962V70.4916L350.782 61.1991L361.875 15.5483H358.956L348.001 60.5867L303.142 50.6481L312.314 15.5483H309.395L300.384 50.0413L256.562 40.3387L260.357 29.0882L260.57 29.1303L260.871 27.5629L264.925 15.554H261.944L258.475 25.8353L219.147 18.2732L220.111 15.554H217.094L202.487 56.8056L149.128 45.145L160.406 15.554H157.37L146.324 44.5327L85.26 31.1894L90.4568 15.554H87.4679L82.4762 30.5798L64.1889 26.5853C58.5238 25.3485 52.8289 28.5441 50.9327 34.0238L43.9549 54.2044L35.2158 52.6144V55.4994L71.9673 62.1822L55.0874 112.951C48.3812 114.24 41.748 115.884 35.2158 117.875V120.842C48.0486 116.872 61.2631 114.262 74.6416 113.055L62.7703 161.29L35.2158 157.203V160.079L62.0905 164.066L54.2812 195.783H57.1942L64.8996 164.481L91.4653 168.414L84.7403 195.775H87.6618L94.2828 168.833L104.115 170.293L126.158 173.563L173.432 180.586L169.575 195.786H172.502L176.252 181.004L232.898 189.406L231.457 195.786H234.364L235.71 189.825L275.905 195.786H295.238L236.336 187.047L241.519 164.074L298.693 174.035L299.221 174.128L336.346 151.484L357.583 155.135L348.383 195.772H351.29L360.383 155.619L392.705 161.181V158.307L361.01 152.849L372.39 102.594L392.705 122.707V118.715L347.655 74.1209L350.122 63.9716L392.705 73.3962ZM302.429 53.401L347.335 63.3481L345.015 72.899L299.715 63.8088L302.429 53.401ZM277.282 138.449L289.758 90.6947L228.55 130.05L277.282 138.449ZM242.795 117.527L253.009 80.9134L248.214 69.7023L292.699 79.4246L290.811 86.6496L242.795 117.527ZM344.351 75.6547L298.998 66.556L280.084 138.921L327.013 147.006L344.351 75.6547ZM299.665 52.7915L293.42 76.6773L247.685 66.6825L255.663 43.0411L299.665 52.7915ZM257.559 28.5632L218.181 20.9786L214.616 31.0436L253.789 39.735L257.559 28.5632ZM213.662 33.7373L252.877 42.423L244.896 66.0728L205.288 57.4152L213.662 33.7373ZM145.118 47.1732L84.3575 33.8974L75.6886 59.9743L115.435 67.2049L116.758 62.8536C117.715 59.722 120.119 57.241 123.219 56.1848L141.405 50.0048C142.919 49.4928 144.224 48.4981 145.118 47.1732ZM46.7776 54.7186L53.6094 34.9509C55.0371 30.8297 59.3202 28.4264 63.5817 29.3552L81.5599 33.2879L72.8517 59.4632L46.7776 54.7186ZM74.7848 62.6937L58.2701 112.364C72.8625 109.809 87.6975 108.916 102.491 109.704L114.598 69.9328L74.7848 62.6937ZM123.321 170.271L100.974 166.956L92.1537 165.647L65.588 161.715L77.625 112.814C92.8826 111.659 108.224 112.334 123.321 114.825V170.271ZM105.403 109.881C111.965 110.326 118.499 111.107 124.98 112.221L144.902 115.651L158.49 67.0982L184.946 73.8204L192.25 84.6804L211.545 89.175L205.795 112.491L166.015 104.156L148.745 112.448L147.714 116.137L224.425 129.339L239.204 119.836L250.008 81.1072L244.816 68.9578L148.029 47.8081C146.819 50.1078 144.771 51.8547 142.309 52.6875L124.121 58.8676C121.887 59.6308 120.156 61.4196 119.466 63.6767L105.403 109.881ZM161.453 103.198L149.765 108.816L151.894 101.201L161.453 103.198ZM160.473 70.5394L152.661 98.4562L203.7 109.153L208.104 91.2902L190.519 87.1974L183.199 76.3121L160.473 70.5394ZM174.134 177.81L126.158 170.692V115.302L187.32 125.831L174.134 177.81ZM176.952 178.229L233.525 186.62L238.725 163.577L183.132 153.883L176.952 178.229ZM298.657 171.15L183.829 151.127L190.124 126.314L332.096 150.753L298.657 171.15ZM358.209 152.369L370.007 100.243L346.86 77.329L329.815 147.481L358.209 152.369Z" fill="url(#paint1_linear)"/>
<path d="M170.707 82.3433V85.3911H167.086V82.3433H165.951V89.5767H167.086V86.526H170.707V89.5767H171.842V82.3433H170.707Z" fill="white"/>
</g>
<path d="M143.633 178.485L124.674 195.331V16.8462L143.633 0V178.485Z" fill="#1B7179"/>
<path d="M67.3714 0H143.633V178.485H67.3714C58.882 178.485 52 171.603 52 163.113V15.3714C52 6.88201 58.882 0 67.3714 0Z" fill="url(#paint2_linear)"/>
<mask id="mask1" mask-type="alpha" maskUnits="userSpaceOnUse" x="52" y="0" width="92" height="179">
<path d="M67.3714 0H143.633V178.485H67.3714C58.882 178.485 52 171.603 52 163.113V15.3714C52 6.88201 58.882 0 67.3714 0Z" fill="white"/>
</mask>
<g mask="url(#mask1)">
<path opacity="0.2" d="M45.8564 104.058L48.7133 92.8944L91.8414 101.603L99.5047 69.3513L78.1021 64.0787L71.0878 52.5304L36.8926 43.4514L21.1392 99.802L45.8564 104.058Z" fill="#F15653"/>
<path fill-rule="evenodd" clip-rule="evenodd" d="M274.723 57.1035V54.1988L232.799 44.9063L243.893 -0.744385H240.974L230.018 44.2939L185.171 34.361L194.343 -0.738767H191.413L182.401 33.7486L138.579 24.0459L142.374 12.7955L142.588 12.8376L142.889 11.2701L146.942 -0.738767H143.962L140.492 9.54255L101.165 1.98044L102.128 -0.738767H99.1115L84.5042 40.5129L31.1453 28.8523L42.4238 -0.738767H39.3872L28.3418 28.2399L-32.7224 14.8967L-27.5256 -0.738767H-30.5145L-35.5063 14.2871L-53.7935 10.2926C-59.4586 9.05575 -65.1535 12.2514 -67.0497 17.7311L-74.0247 37.9117L-82.7638 36.3217V39.2067L-46.0123 45.8895L-62.895 96.6584C-69.6012 97.9476 -76.2344 99.5913 -82.7666 101.583V104.549C-69.9338 100.579 -56.7193 97.9693 -43.3409 96.7624L-55.2121 144.997L-82.7666 140.91V143.787L-55.8919 147.773L-63.7012 179.49H-60.7882L-53.0828 148.189L-26.5171 152.121L-33.2421 179.482H-30.3207L-23.6996 152.54L-13.8678 154.001L8.17527 157.27L55.4496 164.293L51.5927 179.493H54.5198L58.27 164.712L114.916 173.114L113.474 179.493H116.382L117.727 173.532L157.923 179.493H177.255L118.354 170.754L123.537 147.781L180.71 157.742L181.238 157.835L218.364 135.191L239.6 138.843L230.401 179.482H233.308L242.401 139.329L274.723 144.891V142.014L243.027 136.556L254.407 86.3013L274.723 106.426V102.423L229.673 57.8282L232.139 47.6789L274.723 57.1035ZM184.446 37.1083L229.352 47.0553L227.032 56.6063L181.733 47.516L184.446 37.1083ZM159.3 122.156L171.775 74.4017L110.567 113.757L159.3 122.156ZM124.813 101.234L135.026 64.6204L130.231 53.4093L174.716 63.1316L172.829 70.3566L124.813 101.234ZM226.369 59.362L181.017 50.2633L162.103 122.629L209.032 130.713L226.369 59.362ZM181.682 36.4988L175.438 60.3846L129.702 50.3898L137.68 26.7484L181.682 36.4988ZM139.576 12.2702L100.198 4.68558L96.6335 14.7506L135.806 23.442L139.576 12.2702ZM95.6785 17.4445L134.894 26.1303L126.913 49.7801L87.3046 41.1224L95.6785 17.4445ZM27.1358 30.8805L-33.6251 17.6047L-42.2968 43.6844L-2.55643 50.9122L-1.23335 46.5609C-0.275848 43.4292 2.12782 40.9482 5.22758 39.8921L23.4137 33.712C24.9312 33.2017 26.239 32.2068 27.1358 30.8805ZM-71.2078 38.4256L-64.3761 18.6579C-62.9483 14.5368 -58.6652 12.1334 -54.4038 13.0622L-36.4255 16.995L-45.1337 43.1702L-71.2078 38.4256ZM-43.2006 46.4007L-59.7153 96.0713H-59.7125C-45.1211 93.5161 -30.287 92.6237 -15.4944 93.411L-3.38721 53.6398L-43.2006 46.4007ZM5.33815 153.978L-17.0083 150.663L-25.8288 149.354L-52.3945 145.422L-40.3575 96.5208C-25.0999 95.3658 -9.75895 96.041 5.33815 98.5321V153.978ZM-12.5791 93.5879C-6.01789 94.0335 0.516197 94.8145 6.99756 95.9278L26.9197 99.3577L40.5073 50.8052L66.9635 57.5274L74.2671 68.3874L93.5629 72.882L87.8126 96.1975L48.0329 87.8629L30.7626 96.1554L29.7316 99.8437L106.443 113.047L121.221 103.543L132.025 64.8142L126.834 52.6649L30.0462 31.5151C28.8361 33.8148 26.7885 35.5617 24.3269 36.3945L6.13798 42.5746C3.90459 43.3378 2.17326 45.1266 1.48329 47.3837L-12.5791 93.5879ZM43.4719 86.9052L31.7832 92.5234L33.9125 84.9079L43.4719 86.9052ZM42.4908 54.2466L34.6787 82.1635L85.7172 92.8606L90.1219 74.9975L72.5369 70.9046L65.2164 60.0193L42.4908 54.2466ZM56.1519 161.518L8.17522 154.399V99.0096L69.3378 109.538L56.1519 161.518ZM58.9699 161.936L115.542 170.327L120.742 147.284L65.15 137.59L58.9699 161.936ZM180.674 154.858L65.8466 134.834L72.1418 110.021L214.114 134.461L180.674 154.858ZM240.232 136.079L252.031 83.9529L228.881 61.0363L211.835 131.188L240.232 136.079Z" fill="url(#paint3_linear)"/>
</g>
<rect x="170.364" y="16.8462" width="94.0572" height="178.485" fill="url(#paint4_linear)"/>
<mask id="mask2" mask-type="alpha" maskUnits="userSpaceOnUse" x="170" y="16" width="95" height="180">
<rect x="170.364" y="16.8462" width="94.0572" height="178.485" fill="white"/>
</mask>
<g mask="url(#mask2)">
<path opacity="0.2" d="M163.839 120.351L166.696 109.187L209.827 117.895L217.488 85.6441L196.085 80.3714L189.071 68.8232L154.876 59.7441L139.122 116.095L163.839 120.351Z" fill="#FA927D"/>
<path opacity="0.5" fill-rule="evenodd" clip-rule="evenodd" d="M392.704 73.3962V70.4916L350.781 61.1991L361.875 15.5483H358.956L348 60.5867L303.142 50.6481L312.314 15.5483H309.395L300.383 50.0413L256.561 40.3387L260.356 29.0882L260.57 29.1303L260.87 27.5629L264.924 15.554H261.944L258.474 25.8353L219.147 18.2732L220.11 15.554H217.093L202.486 56.8056L149.127 45.145L160.406 15.554H157.369L146.324 44.5327L85.2595 31.1894L90.4563 15.554H87.4674L82.4757 30.5798L64.1884 26.5853C58.5233 25.3485 52.8284 28.5441 50.9323 34.0238L43.9544 54.2044L35.2153 52.6144V55.4994L71.9668 62.1822L55.0869 112.951C48.3807 114.24 41.7475 115.884 35.2153 117.875V120.842C48.0481 116.872 61.2626 114.262 74.6411 113.055L62.7698 161.29L35.2153 157.203V160.079L62.09 164.066L54.2807 195.783H57.1937L64.8991 164.481L91.4648 168.414L84.7398 195.775H87.6613L94.2823 168.833L104.114 170.293L126.157 173.563L173.432 180.586L169.575 195.786H172.502L176.252 181.004L232.897 189.406L231.456 195.786H234.364L235.709 189.825L275.905 195.786H295.237L236.336 187.047L241.519 164.074L298.692 174.035L299.22 174.128L336.345 151.484L357.582 155.135L348.382 195.772H351.29L360.383 155.619L392.704 161.181V158.307L361.009 152.849L372.389 102.594L392.704 122.707V118.715L347.655 74.1209L350.121 63.9716L392.704 73.3962ZM302.429 53.401L347.336 63.3481L345.015 72.899L299.716 63.8088L302.429 53.401ZM277.282 138.449L289.757 90.6947L228.55 130.05L277.282 138.449ZM242.795 117.527L253.009 80.9134L248.213 69.7023L292.698 79.4246L290.811 86.6496L242.795 117.527ZM344.352 75.6547L298.999 66.556L280.085 138.921L327.014 147.006L344.352 75.6547ZM299.665 52.7915L293.421 76.6773L247.686 66.6825L255.663 43.0411L299.665 52.7915ZM257.559 28.5632L218.181 20.9786L214.616 31.0436L253.789 39.735L257.559 28.5632ZM213.662 33.7373L252.877 42.423L244.896 66.0728L205.288 57.4152L213.662 33.7373ZM145.119 47.1732L84.358 33.8974L75.6891 59.9743L115.435 67.2049L116.758 62.8536C117.716 59.722 120.119 57.241 123.219 56.1848L141.405 50.0048C142.92 49.4928 144.224 48.4981 145.119 47.1732ZM46.7781 54.7186L53.6099 34.9509C55.0376 30.8297 59.3207 28.4264 63.5822 29.3552L81.5604 33.2879L72.8522 59.4632L46.7781 54.7186ZM74.7853 62.6937L58.2706 112.364C72.863 109.809 87.698 108.916 102.491 109.704L114.599 69.9328L74.7853 62.6937ZM123.321 170.271L100.975 166.956L92.1542 165.647L65.5885 161.715L77.6255 112.814C92.8831 111.659 108.224 112.334 123.321 114.825V170.271ZM105.404 109.881C111.965 110.326 118.499 111.107 124.981 112.221L144.903 115.651L158.49 67.0982L184.946 73.8204L192.25 84.6804L211.546 89.175L205.796 112.491L166.016 104.156L148.746 112.448L147.715 116.137L224.426 129.339L239.204 119.836L250.008 81.1072L244.817 68.9578L148.029 47.8081C146.819 50.1078 144.772 51.8547 142.31 52.6875L124.121 58.8676C121.888 59.6308 120.156 61.4196 119.466 63.6767L105.404 109.881ZM161.454 103.198L149.765 108.816L151.895 101.201L161.454 103.198ZM160.474 70.5394L152.662 98.4562L203.7 109.153L208.105 91.2902L190.52 87.1974L183.199 76.3121L160.474 70.5394ZM174.135 177.81L126.158 170.692V115.302L187.321 125.831L174.135 177.81ZM176.953 178.229L233.525 186.62L238.725 163.577L183.133 153.883L176.953 178.229ZM298.656 171.15L183.829 151.127L190.124 126.314L332.096 150.753L298.656 171.15ZM358.21 152.369L370.008 100.243L346.861 77.329L329.815 147.481L358.21 152.369Z" fill="url(#paint5_linear)"/>
</g>
<path fill-rule="evenodd" clip-rule="evenodd" d="M182.415 12.124H252.361C261.552 12.1302 269 19.5827 269 28.7736V183.395C269.004 192.586 261.561 200.042 252.37 200.053H182.423C178.004 200.055 173.766 198.301 170.642 195.176C167.517 192.052 165.763 187.814 165.765 183.395V28.7736C165.765 19.5783 173.219 12.124 182.415 12.124ZM251.864 195.331C258.8 195.33 264.421 189.707 264.421 182.772L264.424 29.3946C264.424 22.4582 258.801 16.8351 251.864 16.8351H245.873V21.2735C245.873 23.8225 243.806 25.8888 241.257 25.8888H193.531C192.306 25.8896 191.131 25.4037 190.265 24.538C189.399 23.6724 188.913 22.498 188.913 21.2735V16.8351H182.924C175.987 16.8351 170.364 22.4582 170.364 29.3946V182.772C170.364 186.103 171.687 189.297 174.043 191.652C176.398 194.008 179.593 195.331 182.924 195.331H251.864Z" fill="#1B7179"/>
<rect x="197.106" y="16.8462" width="40.5747" height="3.84566" rx="1.92283" fill="white"/>
<path fill-rule="evenodd" clip-rule="evenodd" d="M199.683 58.7048C196.801 55.2945 191.924 48.9628 191.924 45.1424C191.775 41.5358 193.614 38.1373 196.715 36.2894C199.816 34.4416 203.68 34.4416 206.781 36.2894C209.882 38.1373 211.721 41.5358 211.571 45.1424C211.571 48.9628 206.698 55.2945 203.815 58.7048C203.302 59.3147 202.546 59.6668 201.749 59.6668C200.952 59.6668 200.196 59.3147 199.683 58.7048ZM200.393 41.8649C199.068 42.4143 198.204 43.708 198.205 45.1424H198.211C198.213 47.0959 199.794 48.68 201.748 48.6846C203.182 48.6858 204.476 47.8225 205.025 46.4975C205.575 45.1725 205.271 43.6471 204.257 42.6328C203.243 41.6186 201.717 41.3154 200.393 41.8649Z" fill="#1B7179"/>
<path fill-rule="evenodd" clip-rule="evenodd" d="M240.21 119.892C237.328 116.485 232.454 110.153 232.454 106.33C232.305 102.724 234.144 99.325 237.245 97.4772C240.346 95.6293 244.21 95.6293 247.311 97.4772C250.412 99.325 252.251 102.724 252.101 106.33C252.101 110.153 247.225 116.485 244.342 119.892C243.829 120.502 243.073 120.855 242.276 120.855C241.479 120.855 240.723 120.502 240.21 119.892ZM242.278 102.788C240.322 102.788 238.736 104.374 238.736 106.33C238.735 107.27 239.108 108.171 239.772 108.836C240.437 109.5 241.338 109.873 242.278 109.872C244.234 109.872 245.82 108.286 245.82 106.33C245.82 104.374 244.234 102.788 242.278 102.788Z" fill="#1B7179"/>
<path fill-rule="evenodd" clip-rule="evenodd" d="M179.764 152.801C176.882 149.394 172.008 143.062 172.008 139.239C171.859 135.632 173.698 132.234 176.799 130.386C179.9 128.538 183.764 128.538 186.865 130.386C189.966 132.234 191.805 135.632 191.655 139.239C191.655 143.062 186.779 149.394 183.897 152.801C183.384 153.411 182.627 153.763 181.83 153.763C181.034 153.763 180.277 153.411 179.764 152.801ZM181.832 135.697C179.876 135.697 178.29 137.282 178.29 139.239C178.289 140.179 178.662 141.08 179.327 141.744C179.991 142.409 180.892 142.782 181.832 142.781C183.789 142.781 185.374 141.195 185.374 139.239C185.374 137.282 183.789 135.697 181.832 135.697Z" fill="#1B7179"/>
<defs>
<linearGradient id="paint0_linear" x1="172.883" y1="225.14" x2="251.725" y2="161.692" gradientUnits="userSpaceOnUse">
<stop stop-color="#40C1AC"/>
<stop offset="1" stop-color="#84F3EE"/>
</linearGradient>
<linearGradient id="paint1_linear" x1="-832.432" y1="498.496" x2="725.868" y2="498.496" gradientUnits="userSpaceOnUse">
<stop stop-color="#1B345B"/>
<stop offset="1" stop-color="#20B7AF"/>
</linearGradient>
<linearGradient id="paint2_linear" x1="99.6448" y1="208.293" x2="178.283" y2="145.749" gradientUnits="userSpaceOnUse">
<stop stop-color="#40C1AC"/>
<stop offset="1" stop-color="#84F3EE"/>
</linearGradient>
<linearGradient id="paint3_linear" x1="-950.414" y1="482.203" x2="607.885" y2="482.203" gradientUnits="userSpaceOnUse">
<stop stop-color="#1B345B"/>
<stop offset="1" stop-color="#20B7AF"/>
</linearGradient>
<linearGradient id="paint4_linear" x1="161.182" y1="-17.894" x2="161.182" y2="195.446" gradientUnits="userSpaceOnUse">
<stop stop-color="#FFE99D"/>
<stop offset="1" stop-color="#FFDB95"/>
</linearGradient>
<linearGradient id="paint5_linear" x1="376.381" y1="17.9638" x2="28.4847" y2="17.9638" gradientUnits="userSpaceOnUse">
<stop stop-color="#1B345B"/>
<stop offset="1" stop-color="#20B7AF"/>
</linearGradient>
</defs>
</svg>
