<svg width="320" height="200" viewBox="0 0 320 200" fill="none" xmlns="http://www.w3.org/2000/svg">
<path d="M244.962 172.522C201.443 201.978 98.7973 200.578 61.7653 126.368C24.7333 52.1589 74.4361 22.5731 125.432 31.3767C164.771 38.1712 179.699 41.0958 196.622 23.0579C216.513 1.85555 265.397 -2.0709 281.394 55.0539C297.39 112.179 281.394 147.87 244.962 172.522Z" fill="url(#paint0_linear)"/>
<path d="M125.064 181.546V104.086H114.316V177.067C117.835 178.719 121.418 180.212 125.064 181.546Z" fill="url(#paint1_linear)"/>
<path d="M102.837 170.884C106.551 173.145 110.383 175.205 114.317 177.057V104.075L102.84 106.475L102.837 170.884Z" fill="url(#paint2_linear)"/>
<path d="M237.077 177.191L60.2949 123.347C60.7716 124.346 61.259 125.35 61.7653 126.368C65.0221 132.91 68.9297 139.108 73.4289 144.867L209.196 186.989C219.51 184.724 228.982 181.395 237.077 177.191Z" fill="url(#paint3_linear)"/>
<path d="M278.666 135.921L112.578 101.312L60.2949 123.347L237.077 177.192C239.793 175.788 242.426 174.229 244.962 172.522C259.895 162.412 271.392 150.452 278.666 135.921Z" fill="url(#paint4_linear)"/>
<path d="M270.796 31.1692C249.739 -0.247837 213.152 5.4291 196.622 23.0577C194.579 25.2663 192.355 27.2995 189.973 29.1359V89.0615L270.796 102.607V31.1692Z" fill="url(#paint5_linear)"/>
<path d="M264.05 22.8264C242.625 1.01279 211.512 7.19332 196.627 23.058L196.434 23.2627V83.7592L264.05 95.0861V22.8264Z" fill="url(#paint6_linear)"/>
<path d="M207.462 132.816L124.088 112.602L99.2124 123.471L183.814 146.135L207.462 132.816Z" fill="url(#paint7_linear)"/>
<path d="M99.2119 123.471L183.814 146.135V148.976L99.2119 125.396V123.471Z" fill="url(#paint8_linear)"/>
<path d="M183.814 146.135V148.976L207.462 135.584V132.815L183.814 146.135Z" fill="url(#paint9_linear)"/>
<path d="M180.138 83.207H177.229V106.704C177.232 109.893 175.436 112.811 172.587 114.244L165.598 117.745V120.169L183.876 123.875C183.876 123.875 196.625 118.039 196.625 114.18L197.559 88.0141L180.138 83.207Z" fill="url(#paint10_linear)"/>
<path d="M197.559 88.0061H195.505V111.514C195.508 114.703 193.711 117.621 190.862 119.054L183.876 122.555V124.979L191.955 120.597C195.377 118.809 197.522 115.267 197.522 111.406L197.559 88.0061Z" fill="url(#paint11_linear)"/>
<path d="M183.877 122.55L165.602 117.751V120.164L183.877 124.963V122.55Z" fill="url(#paint12_linear)"/>
<path d="M237.341 108.425L144.148 93.2226C141.927 92.859 140.146 90.6399 140.146 88.262V35.6238C140.146 33.2432 141.927 31.3149 144.148 31.3149H237.341C240.842 31.3149 243.697 33.7764 243.697 36.8114V103.973C243.697 107 240.831 108.996 237.341 108.425Z" fill="url(#paint13_linear)"/>
<path d="M235.391 108.425L142.198 93.2228C139.979 92.8593 138.199 90.6402 138.199 88.2622V35.6241C138.199 33.2434 139.979 31.3152 142.198 31.3152H235.391C238.892 31.3152 241.749 33.7766 241.749 36.8117V103.973C241.749 107 238.881 108.996 235.391 108.425Z" fill="url(#paint14_linear)"/>
<path d="M203.368 56.9529L233.546 58.2051" stroke="white" stroke-width="5" stroke-linecap="round" stroke-linejoin="round"/>
<path d="M203.368 69.2925L233.546 71.6004" stroke="white" stroke-width="5" stroke-linecap="round" stroke-linejoin="round"/>
<path d="M203.368 80.999L223.84 83.3097" stroke="white" stroke-width="5" stroke-linecap="round" stroke-linejoin="round"/>
<path d="M195.377 40.29C195.377 37.9207 193.457 36 191.087 36H146.359C144.495 36 143 37.6158 143 39.6168V83.7826C143 85.7809 144.495 87.6445 146.359 87.9488L190.403 95.1419C191.645 95.3441 192.913 94.991 193.872 94.176C194.83 93.3611 195.383 92.1665 195.383 90.9084L195.377 40.29Z" fill="url(#paint15_linear)"/>
<ellipse cx="169.355" cy="64.767" rx="12.0873" ry="13.767" fill="url(#paint16_linear)"/>
<path d="M163.847 64.4419L167.832 68.9799L174.793 61.0547" stroke="white" stroke-width="3" stroke-linecap="round" stroke-linejoin="round"/>
<path d="M78.5839 119.013L77.644 131.353C77.644 131.353 90.2555 132.901 101.631 133.009C113.006 133.117 118.551 132.554 119.602 134.625C119.602 134.625 122.025 135.018 121.891 137.275C121.891 137.275 123.461 137.582 123.399 139.2C124.263 140.107 124.426 141.474 123.8 142.559C122.736 144.495 120.676 148.214 120.113 147.541C119.55 146.867 120.547 143.523 120.547 143.523C120.547 143.523 114.719 144.535 111.073 143.472C107.426 142.408 86.3829 149.216 75.4788 149.057C64.5747 148.898 56.9561 145.594 56.9561 135.885C56.9561 126.177 58.7577 113.608 58.7577 113.608L78.5839 119.013Z" fill="url(#paint17_linear)"/>
<path d="M78.3145 124.103C78.3145 124.103 84.7158 93.0742 79.661 86.3039C74.6062 79.5336 62.6113 77.2634 59.4901 96.1631C56.3689 115.063 56.1858 121.857 58.0655 123.503C61.0305 126.091 73.8494 129.064 78.3145 124.103Z" fill="url(#paint18_linear)"/>
<path d="M77.0913 151.069C77.0913 151.069 113.227 147.029 127.02 146.135C140.814 145.241 149.704 150.409 151.05 165.953L93.9578 175.505L77.0913 151.069Z" fill="url(#paint19_linear)"/>
<path d="M67.4905 161.149C67.4905 161.149 63.7821 182.534 82.655 190.433C101.159 198.178 130.198 201.087 152.405 181.497L154.713 188.901C154.713 188.901 169.094 191.157 182.944 190.309C182.944 190.309 180.924 171.083 175.166 161.149C173.184 157.729 166.675 150.409 149.537 153.441C145.082 154.23 126.403 159.584 126.403 159.584C123.514 159.614 89.0913 150.891 86.2987 150.56C69.2302 148.54 67.4905 161.149 67.4905 161.149Z" fill="url(#paint20_linear)"/>
<path d="M88.2886 73.8754C90.0879 69.5975 90.8528 64.9556 90.5211 60.3267H111.012C111.012 60.3267 109.192 69.4372 115.109 75.7255C115.109 75.7255 96.4997 81.6609 88.2886 73.8754Z" fill="url(#paint21_linear)"/>
<path d="M66.2355 145.368C68.7831 116.792 64.6493 104.213 62.6699 96.8578C60.6905 89.5031 61.186 84.9223 72.2221 79.1968C83.2582 73.4714 82.3614 73.8835 82.3614 73.8835L119.897 77.4652C119.897 77.4652 137.878 83.5003 140.458 90.2895C141.627 93.3757 131.924 110.272 131.924 130.359C131.924 151.667 135.942 165.124 133.737 167.523C127.973 173.787 70.8567 173.41 65.6699 164.327C63.8737 161.176 65.0344 158.911 66.2355 145.368Z" fill="url(#paint22_linear)"/>
<path d="M80.3848 74.9634C80.3848 74.9634 86.4441 71.1743 87.5106 70.7919C88.577 70.4095 93.3141 73.7758 102.977 73.0675C111.998 72.405 112.101 70.8888 113.291 71.6267C115.48 72.9867 119.9 77.4652 119.9 77.4652C119.9 77.4652 95.587 86.1745 80.3848 74.9634Z" fill="url(#paint23_linear)"/>
<path d="M119.434 37.7563C119.997 40.4182 120.357 43.119 120.511 45.8354C120.565 46.8076 124.578 48.1838 122.205 50.3974C121.397 51.1434 120.53 51.0815 120.422 52.1964C119.763 59.0367 120.409 69.0467 111.46 67.3797C111.46 67.3797 95.8403 63.324 92.9587 60.3267C85.7387 52.805 88.0628 39.9592 92.0081 34.2042C97.5342 26.1816 116.45 26.6152 119.434 37.7563Z" fill="url(#paint24_linear)"/>
<path d="M106.637 58.8915C106.987 57.913 106.63 56.8212 105.769 56.2388C104.067 55.0727 101.638 52.6813 102.355 48.8383C103.432 43.0752 109.639 42.612 111.737 47.3033L115.023 47.3949C115.023 47.3949 114.317 41.9334 117.95 39.55C121.583 37.1667 126.657 33.8947 125.431 31.3767C124.206 28.8587 122.019 28.7509 122.019 28.7509C122.019 28.7509 118.174 24.0112 112.343 23.75C106.513 23.4887 104.601 22.8424 98.7836 23.1333C92.9667 23.4241 88.8625 27.2509 89.0321 31.9503C89.0321 31.9503 81.3651 31.7079 80.4144 42.5743C79.4638 53.4407 88.7628 64.8215 88.7628 64.8215C88.7628 64.8215 94.5367 68.8315 102.675 66.809C103.42 66.6286 104.027 66.0881 104.291 65.3682L106.637 58.8915Z" fill="url(#paint25_linear)"/>
<path d="M105.277 48.5476C105.277 48.5476 108.867 48.5476 109.535 52.3044" stroke="#382824" stroke-width="2" stroke-linecap="round" stroke-linejoin="round"/>
<path d="M147.56 120.263L150.016 132.382C150.016 132.382 162.574 130.435 173.548 127.438C184.522 124.44 189.706 122.394 191.279 124.098C191.279 124.098 193.702 123.829 194.203 126.024C194.203 126.024 195.795 125.892 196.18 127.465C197.258 128.101 197.787 129.373 197.478 130.586C196.983 132.74 196.01 136.869 195.289 136.387C194.567 135.905 194.613 132.401 194.613 132.401C194.613 132.401 189.278 134.962 185.481 134.932C181.683 134.903 163.287 147.178 152.757 150.013C142.228 152.849 133.982 151.729 131.353 142.381C128.725 133.034 127.02 120.455 127.02 120.455L147.56 120.263Z" fill="url(#paint26_linear)"/>
<path d="M149.973 125.385C149.973 125.385 146.394 93.6371 139.696 88.4907C132.999 83.3443 120.81 84.4512 122.962 103.469C125.113 122.488 126.78 129.094 129.04 130.166C132.597 131.857 147.835 129.519 149.973 125.385Z" fill="url(#paint27_linear)"/>
<path d="M134.577 194.19C134.577 194.19 97.351 128.749 90.1336 122.852C80.4549 114.945 35.1956 104.313 33.0762 115.58C31.6192 123.339 53.3575 181.207 60.968 187.358C74.9207 198.636 134.784 205.544 134.577 194.19Z" fill="url(#paint28_linear)"/>
<path d="M153.337 188.699C163.132 180.283 164.677 171.757 164.677 171.757L141.202 184.309C136.005 187.09 129.538 185.243 126.593 180.138C117.24 163.95 98.0651 131.232 90.8882 122.824C78.4625 108.236 35.1799 104.32 33.0686 115.577C33.0168 115.887 32.9942 116.201 33.0012 116.515C33.5399 116.016 34.2724 116.003 35.1799 116.014C43.1163 116.092 69.8313 117.36 80.3745 129.115C86.4339 135.864 108.627 178.519 119.48 199.942C133.207 199.493 146.575 194.51 153.337 188.699Z" fill="url(#paint29_linear)"/>
<defs>
<linearGradient id="paint0_linear" x1="358.298" y1="247.617" x2="358.298" y2="-41.7852" gradientUnits="userSpaceOnUse">
<stop stop-color="#42B9A6"/>
<stop offset="1" stop-color="white"/>
</linearGradient>
<linearGradient id="paint1_linear" x1="115.249" y1="143.088" x2="136.518" y2="150.87" gradientUnits="userSpaceOnUse">
<stop stop-color="#04AFA5"/>
<stop offset="1" stop-color="white"/>
</linearGradient>
<linearGradient id="paint2_linear" x1="28.2127" y1="410.301" x2="113.073" y2="410.301" gradientUnits="userSpaceOnUse">
<stop stop-color="#04AFA5"/>
<stop offset="1" stop-color="white"/>
</linearGradient>
<linearGradient id="paint3_linear" x1="242.072" y1="225.339" x2="245.652" y2="140.626" gradientUnits="userSpaceOnUse">
<stop stop-color="#3CA191"/>
<stop offset="1" stop-color="white"/>
</linearGradient>
<linearGradient id="paint4_linear" x1="-1.85554" y1="115.861" x2="-3.83707" y2="236.205" gradientUnits="userSpaceOnUse">
<stop stop-color="#3A9D8D"/>
<stop offset="1" stop-color="white"/>
</linearGradient>
<linearGradient id="paint5_linear" x1="330.029" y1="275.291" x2="330.029" y2="43.7645" gradientUnits="userSpaceOnUse">
<stop stop-color="#1B6A5B"/>
<stop offset="1" stop-color="white"/>
</linearGradient>
<linearGradient id="paint6_linear" x1="288.691" y1="129.618" x2="294.629" y2="-23.7617" gradientUnits="userSpaceOnUse">
<stop stop-color="#40C1AC"/>
<stop offset="1" stop-color="white"/>
</linearGradient>
<linearGradient id="paint7_linear" x1="213.073" y1="131.363" x2="213.073" y2="94.3527" gradientUnits="userSpaceOnUse">
<stop stop-color="#1B4F5B"/>
<stop offset="1" stop-color="#20B7AF"/>
</linearGradient>
<linearGradient id="paint8_linear" x1="27.4954" y1="126.373" x2="34.7777" y2="186.725" gradientUnits="userSpaceOnUse">
<stop stop-color="#AF0E04"/>
<stop offset="1" stop-color="white"/>
</linearGradient>
<linearGradient id="paint9_linear" x1="190.057" y1="165.662" x2="207.755" y2="138.076" gradientUnits="userSpaceOnUse">
<stop stop-color="#AF0E04"/>
<stop offset="1" stop-color="white"/>
</linearGradient>
<linearGradient id="paint10_linear" x1="172.585" y1="61.8706" x2="153.393" y2="109.929" gradientUnits="userSpaceOnUse">
<stop stop-color="#AF6B04"/>
<stop offset="1" stop-color="white"/>
</linearGradient>
<linearGradient id="paint11_linear" x1="170.937" y1="114.868" x2="195.352" y2="119.203" gradientUnits="userSpaceOnUse">
<stop stop-color="#AF6B04"/>
<stop offset="1" stop-color="white"/>
</linearGradient>
<linearGradient id="paint12_linear" x1="208.959" y1="122.651" x2="200.415" y2="101.842" gradientUnits="userSpaceOnUse">
<stop stop-color="#AF6B04"/>
<stop offset="1" stop-color="white"/>
</linearGradient>
<linearGradient id="paint13_linear" x1="290.152" y1="47.8735" x2="231.015" y2="47.8735" gradientUnits="userSpaceOnUse">
<stop stop-color="#04AFA5"/>
<stop offset="1" stop-color="white"/>
</linearGradient>
<linearGradient id="paint14_linear" x1="247.117" y1="74.5108" x2="247.117" y2="-10.7006" gradientUnits="userSpaceOnUse">
<stop stop-color="#1B4F5B"/>
<stop offset="1" stop-color="#20B7AF"/>
</linearGradient>
<linearGradient id="paint15_linear" x1="142.874" y1="36.002" x2="195.874" y2="95.002" gradientUnits="userSpaceOnUse">
<stop stop-color="white"/>
<stop offset="1" stop-color="white" stop-opacity="0.29"/>
</linearGradient>
<linearGradient id="paint16_linear" x1="185.335" y1="5.65095" x2="81.5284" y2="5.65095" gradientUnits="userSpaceOnUse">
<stop stop-color="#1B6E5E"/>
<stop offset="0.65777" stop-color="white" stop-opacity="0"/>
</linearGradient>
<linearGradient id="paint17_linear" x1="151.808" y1="103.822" x2="47.4712" y2="103.822" gradientUnits="userSpaceOnUse">
<stop stop-color="#FFDDBB"/>
<stop offset="1" stop-color="#FF786E"/>
</linearGradient>
<linearGradient id="paint18_linear" x1="95.6302" y1="185.306" x2="95.6302" y2="88.47" gradientUnits="userSpaceOnUse">
<stop stop-color="#29B694"/>
<stop offset="1" stop-color="white"/>
</linearGradient>
<linearGradient id="paint19_linear" x1="153.421" y1="171.09" x2="153.421" y2="139.736" gradientUnits="userSpaceOnUse">
<stop stop-color="#1B5B57"/>
<stop offset="1" stop-color="#20B7AF"/>
</linearGradient>
<linearGradient id="paint20_linear" x1="186.654" y1="189.45" x2="186.654" y2="140.502" gradientUnits="userSpaceOnUse">
<stop stop-color="#1B5B57"/>
<stop offset="1" stop-color="#20B7AF"/>
</linearGradient>
<linearGradient id="paint21_linear" x1="80.2283" y1="79.7352" x2="112.682" y2="79.7352" gradientUnits="userSpaceOnUse">
<stop stop-color="#FFDDBB"/>
<stop offset="1" stop-color="#FF786E"/>
</linearGradient>
<linearGradient id="paint22_linear" x1="185.203" y1="297.963" x2="185.203" y2="89.1449" gradientUnits="userSpaceOnUse">
<stop stop-color="#29B694"/>
<stop offset="1" stop-color="white"/>
</linearGradient>
<linearGradient id="paint23_linear" x1="121.948" y1="76.3157" x2="121.948" y2="65.3589" gradientUnits="userSpaceOnUse">
<stop stop-color="#1B4F5B"/>
<stop offset="1" stop-color="#20B7AF"/>
</linearGradient>
<linearGradient id="paint24_linear" x1="122.499" y1="69.2756" x2="122.499" y2="31.468" gradientUnits="userSpaceOnUse">
<stop stop-color="#FFDDBB"/>
<stop offset="1" stop-color="#FF786E"/>
</linearGradient>
<linearGradient id="paint25_linear" x1="127.965" y1="47.8552" x2="127.965" y2="-1.05878" gradientUnits="userSpaceOnUse">
<stop stop-color="#1B4F5B"/>
<stop offset="1" stop-color="#20B7AF"/>
</linearGradient>
<linearGradient id="paint26_linear" x1="217.858" y1="95.0604" x2="99.4875" y2="154.982" gradientUnits="userSpaceOnUse">
<stop stop-color="#FFDDBB"/>
<stop offset="1" stop-color="#FF786E"/>
</linearGradient>
<linearGradient id="paint27_linear" x1="165.421" y1="188.571" x2="165.421" y2="92.8517" gradientUnits="userSpaceOnUse">
<stop stop-color="#29B694"/>
<stop offset="1" stop-color="white"/>
</linearGradient>
<linearGradient id="paint28_linear" x1="128.393" y1="98.1417" x2="-1.68587" y2="98.1417" gradientUnits="userSpaceOnUse">
<stop stop-color="#389687"/>
<stop offset="1" stop-color="#42B9A6"/>
</linearGradient>
<linearGradient id="paint29_linear" x1="135.5" y1="200" x2="99" y2="129" gradientUnits="userSpaceOnUse">
<stop stop-color="#26A591"/>
<stop offset="1" stop-color="#8FCFC8"/>
</linearGradient>
</defs>
</svg>
