<svg width="120" height="72" viewBox="0 0 120 72" fill="none" xmlns="http://www.w3.org/2000/svg">
<g clip-path="url(#clip0)">
<path d="M85.3206 42.0869H87.4114L82.5738 53.7551L82.4036 54.2169V54.1928V54.2169L82.0391 53.439L79.3167 46.8271L76.5695 53.4875L76.2779 54.2169L76.2535 54.1928V54.2169L75.9375 53.439L71.2217 42.0869H73.3365L76.2535 49.0148L79.3408 42.0137L82.4036 49.0148L85.3206 42.0869Z" fill="white"/>
<path d="M93.8031 51.9804C94.3196 51.9804 94.8042 51.8792 95.2566 51.6767C95.709 51.4743 96.1047 51.199 96.4439 50.8501C96.783 50.5018 97.0502 50.0967 97.2435 49.6348C97.4372 49.173 97.5345 48.6747 97.5345 48.1397C97.5345 47.6047 97.4372 47.1067 97.2435 46.6449C97.0502 46.1831 96.783 45.7782 96.4439 45.4293C96.1047 45.0811 95.709 44.8058 95.2566 44.603C94.8042 44.4002 94.3196 44.299 93.8031 44.299C93.286 44.299 92.7975 44.4002 92.3366 44.603C91.8765 44.8058 91.4768 45.0811 91.1373 45.4293C90.7982 45.7782 90.5314 46.1831 90.338 46.6449C90.1444 47.1067 90.0474 47.6047 90.0474 48.1397C90.0474 48.6747 90.1444 49.173 90.338 49.6348C90.5314 50.0967 90.7982 50.5018 91.1373 50.8501C91.4768 51.199 91.8765 51.4743 92.3366 51.6767C92.7975 51.8792 93.286 51.9804 93.8031 51.9804ZM93.8031 42.0869C94.6148 42.0869 95.378 42.2448 96.0924 42.5608C96.8071 42.8768 97.4319 43.3064 97.9683 43.8492C98.504 44.3924 98.9261 45.0323 99.2346 45.7697C99.5435 46.5072 99.6978 47.2971 99.6978 48.1397C99.6978 48.9826 99.5435 49.7725 99.2346 50.5097C98.9261 51.2475 98.504 51.8876 97.9683 52.4305C97.4319 52.9733 96.8071 53.4026 96.0924 53.7186C95.378 54.0346 94.6148 54.1928 93.8031 54.1928C92.9911 54.1928 92.2234 54.0346 91.5009 53.7186C90.7784 53.4026 90.1489 52.9733 89.6132 52.4305C89.0772 51.8876 88.6548 51.2475 88.3466 50.5097C88.0381 49.7725 87.8838 48.9826 87.8838 48.1397C87.8838 47.2971 88.0381 46.5072 88.3466 45.7697C88.6548 45.0323 89.0772 44.3924 89.6132 43.8492C90.1489 43.3064 90.7784 42.8768 91.5009 42.5608C92.2234 42.2448 92.9911 42.0869 93.8031 42.0869Z" fill="white"/>
<path d="M103.798 43.5355C104.317 43.1144 104.892 42.7785 105.524 42.5269C106.156 42.276 106.836 42.15 107.566 42.15V44.2892C107.031 44.2892 106.545 44.3905 106.107 44.5932C105.67 44.796 105.289 45.0713 104.965 45.4195C104.641 45.7684 104.377 46.1733 104.175 46.6351C103.972 47.0969 103.847 47.5871 103.798 48.1055V54.2071H101.61V42.0283H103.798V43.5355Z" fill="white"/>
<path d="M118.898 41.7169L115.98 47.1136L120.064 54.1876H117.415L114.473 49.1799L111.824 54.1876H112.018H109.709V35.8828H112.018V49.1799L116.2 41.7169H118.898Z" fill="white"/>
<path d="M9.4077 54.1579C8.58105 54.1579 7.80679 54.0242 7.08591 53.757C6.36471 53.4891 5.81795 53.1207 5.4453 52.6504L5.85863 51.9455C6.29604 52.351 6.78226 52.6752 7.31698 52.918C7.8517 53.1611 8.54817 53.2909 9.4077 53.3069C10.2012 53.2909 10.8416 53.0478 11.3279 52.5779C11.8144 52.1079 12.0572 51.4837 12.0572 50.7062C12.0572 50.204 11.9514 49.7907 11.7412 49.4662C11.5303 49.1424 11.2833 48.8911 10.9998 48.7125C10.7163 48.5348 10.4199 48.4088 10.1126 48.3359C9.80475 48.263 9.55317 48.2187 9.35888 48.2021C8.93742 48.1696 8.49578 48.1013 8.03396 47.9955C7.57181 47.89 7.14677 47.7244 6.75786 47.4972C6.36894 47.2707 6.04446 46.9625 5.7854 46.5736C5.52634 46.1843 5.39648 45.6984 5.39648 45.1149C5.39648 44.6772 5.48175 44.2642 5.65197 43.8752C5.82185 43.4863 6.05683 43.142 6.3569 42.8419C6.65664 42.5425 7.01692 42.3072 7.43838 42.137C7.85984 41.9668 8.31352 41.8818 8.80008 41.8818C9.35042 41.8818 9.88937 41.9876 10.4166 42.1979C10.9429 42.4084 11.3679 42.6763 11.6927 43.0001L11.2309 43.8264C10.566 43.1788 9.76374 42.8299 8.82416 42.7814C8.51595 42.7814 8.20775 42.8341 7.90052 42.9392C7.59232 43.045 7.32089 43.1947 7.08591 43.389C6.85094 43.5836 6.66087 43.8264 6.51474 44.1184C6.36894 44.41 6.29604 44.7426 6.29604 45.1149C6.29604 45.5201 6.37675 45.8605 6.53915 46.1358C6.70123 46.4118 6.90724 46.6344 7.15914 46.8043C7.40974 46.9745 7.702 47.1044 8.03396 47.1936C8.36625 47.2824 8.70277 47.3355 9.04319 47.3514C9.49622 47.3677 9.95446 47.453 10.4166 47.6066C10.8784 47.7608 11.2992 47.9795 11.6803 48.263C12.0608 48.5465 12.369 48.8911 12.604 49.296C12.839 49.7015 12.9568 50.1711 12.9568 50.7062C12.9568 51.1921 12.863 51.6461 12.6772 52.0672C12.4907 52.489 12.2395 52.8535 11.9231 53.1611C11.6074 53.469 11.2309 53.7121 10.7932 53.8904C10.3554 54.0688 9.8936 54.1579 9.4077 54.1579Z" fill="white"/>
<path d="M31.58 43.1515C30.4614 43.1515 29.4688 43.5039 28.6021 44.2089C27.7351 44.9138 27.1392 45.8661 26.815 47.065V54.212H25.8429V46.9436C25.4862 45.7769 24.8828 44.8533 24.0321 44.1724C23.181 43.4919 22.2047 43.1515 21.103 43.1515C20.098 43.1515 19.1906 43.4395 18.3799 44.0146C17.5696 44.59 16.9541 45.4124 16.5327 46.4818L16.5083 54.212H15.4873V42.0576H16.5083V44.5857C16.6056 44.4396 16.7188 44.2938 16.8487 44.1483C16.9619 44.0185 17.0954 43.8769 17.25 43.723C17.4036 43.569 17.5862 43.4187 17.7964 43.2729C18.3637 42.868 18.9065 42.5764 19.4253 42.398C19.9437 42.2197 20.5032 42.1305 21.103 42.1305C22.0104 42.1305 22.8608 42.3453 23.6549 42.7746C24.449 43.2042 25.1217 43.8242 25.673 44.6342L26.3291 45.5823L26.9856 44.6342C27.5525 43.8242 28.2291 43.2042 29.0151 42.7746C29.8011 42.3453 30.656 42.1305 31.58 42.1305C32.3416 42.1305 33.0543 42.2848 33.7189 42.5923C34.3831 42.9005 34.9628 43.3181 35.4571 43.8444C35.9512 44.3713 36.3567 44.9747 36.672 45.6555C36.9884 46.336 37.1788 47.0491 37.2435 47.7944C37.2435 47.8917 37.2474 48.0176 37.2556 48.1713C37.264 48.3255 37.2683 48.6129 37.2683 49.034C37.2683 49.4558 37.264 50.0716 37.2556 50.8816C37.2474 51.6923 37.2354 52.8021 37.2195 54.212H36.2711L36.2958 47.454C36.2141 46.8385 36.0241 46.267 35.7243 45.7404C35.4246 45.2139 35.0597 44.7599 34.6305 44.3791C34.2009 43.9983 33.7189 43.6982 33.1845 43.4795C32.6494 43.2611 32.1147 43.1515 31.58 43.1515Z" fill="white"/>
<path d="M50.2367 48.7909V47.4784C50.1554 46.8463 49.9728 46.2628 49.6896 45.7278C49.4058 45.1934 49.0534 44.7354 48.6319 44.3547C48.2104 43.9739 47.7245 43.678 47.1739 43.4675C46.6226 43.2566 46.0312 43.1511 45.3992 43.1511C44.7183 43.1511 44.0824 43.2768 43.4907 43.528C42.8994 43.7796 42.3848 44.1321 41.9471 44.5857C41.51 45.0394 41.1696 45.566 40.9268 46.1655C40.6834 46.7653 40.5616 47.4217 40.5616 48.1345C40.5616 48.8316 40.6834 49.4835 40.9268 50.0914C41.1696 50.6991 41.51 51.226 41.9471 51.6715C42.3848 52.1174 42.8994 52.4656 43.4907 52.7169C44.0824 52.9681 44.7183 53.0934 45.3992 53.0934C46.0312 53.0934 46.6226 52.9883 47.1739 52.7777C47.7245 52.5672 48.2104 52.271 48.6319 51.8902C49.0534 51.5098 49.4058 51.0557 49.6896 50.5292C49.9728 50.0026 50.1554 49.4229 50.2367 48.7909ZM50.3581 54.1876V51.8053L49.094 52.8503C48.0246 53.742 46.7928 54.1876 45.3992 54.1876C44.5888 54.1876 43.8272 54.0294 43.1142 53.7134C42.4011 53.3974 41.7811 52.9642 41.2545 52.4129C40.7279 51.8622 40.3104 51.2181 40.0028 50.4803C39.6943 49.7429 39.541 48.9608 39.541 48.1345C39.541 47.2919 39.6943 46.502 40.0028 45.7645C40.3104 45.0274 40.7279 44.3872 41.2545 43.8444C41.7811 43.3015 42.4011 42.8716 43.1142 42.5556C43.8272 42.2399 44.5888 42.0817 45.3992 42.0817C46.7928 42.0817 48.0246 42.5276 49.094 43.4187L50.3581 44.4637V42.0576H51.4035V54.1876H50.3581Z" fill="white"/>
<path d="M59.5728 42.8595C59.0215 42.908 58.5109 43.0538 58.0416 43.2969C57.5713 43.5397 57.1456 43.8561 56.7651 44.245C56.384 44.6339 56.0677 45.0798 55.8171 45.5819C55.5655 46.0844 55.3833 46.6113 55.27 47.162V54.1872H54.4434V41.9844H55.27V44.8285C55.367 44.6668 55.4806 44.4962 55.6101 44.3179C55.74 44.1561 55.8776 43.9859 56.0238 43.8076C56.1692 43.6292 56.3395 43.4512 56.5341 43.2725C56.9552 42.8836 57.4252 42.5881 57.9439 42.3853C58.4624 42.1829 59.0052 42.0491 59.5728 41.9844V42.8595Z" fill="white"/>
<path d="M66.0524 42.1774L66.0286 37.0968H66V3H0V69H54.4741V67.966H0.912572V3.82926H65.049V42.1774H62.0415V43.174H65.049V54.1857H65.0803V54.2101H66.0524V43.174H69.0667V42.1774H66.0524Z" fill="white"/>
</g>
<defs>
<clipPath id="clip0">
<rect width="120" height="72" fill="white"/>
</clipPath>
</defs>
</svg>
