<svg width="466" height="353" viewBox="0 0 466 353" fill="none" xmlns="http://www.w3.org/2000/svg">
<path d="M406.576 352H60.0771C60.0771 352 55.398 297.371 108.064 278.432C160.73 259.493 186.454 215.621 89.8751 195.992C-6.70353 176.362 37.4592 -11.067 218.189 0.514954C329.505 7.65302 345.006 104.186 382.703 114.227C494.751 144.067 479.391 297.088 406.576 352Z" fill="url(#paint0_linear)"/>
<path d="M358.246 311.434C396.998 276.542 410.187 211.998 295.891 172.243C181.594 132.489 153.27 144.792 155.308 106.891C157.346 68.9899 88.4446 57.6406 49.737 85.3724C-6.74743 125.839 -22.4995 208.744 41.5367 285.365C105.573 361.985 287.616 375.032 358.246 311.434Z" fill="url(#paint1_linear)"/>
<path d="M106.581 272.478H177.552V350.533H99.4922V279.562C99.4922 277.682 100.239 275.88 101.569 274.551C102.898 273.222 104.701 272.476 106.581 272.478V272.478Z" fill="url(#paint2_linear)"/>
<path d="M340.482 351.762H274.142V107.349L301.016 126.086C325.748 143.329 340.487 171.574 340.486 201.723L340.482 351.762Z" fill="url(#paint3_linear)"/>
<rect x="288.346" y="186.029" width="14.4505" height="14.4505" fill="url(#paint4_linear)"/>
<rect x="288.346" y="253.405" width="14.4505" height="14.4505" fill="url(#paint5_linear)"/>
<rect x="314.647" y="224.76" width="14.4505" height="14.4505" fill="url(#paint6_linear)"/>
<rect x="314.647" y="292.135" width="14.4505" height="14.4505" fill="url(#paint7_linear)"/>
<path d="M361.047 291.853C361.047 309.402 346.822 323.627 329.274 323.627C311.726 323.627 297.5 309.402 297.5 291.853C297.5 274.306 329.274 219.341 329.274 219.341C329.274 219.341 361.047 274.306 361.047 291.853Z" fill="url(#paint8_linear)"/>
<path d="M329.274 350.885V240.312" stroke="#382824" stroke-width="2" stroke-linecap="round" stroke-linejoin="round"/>
<path d="M344.024 281.562L329.124 296.462" stroke="#382824" stroke-width="2" stroke-linecap="round" stroke-linejoin="round"/>
<path d="M319.405 262.714L329.124 272.433" stroke="#382824" stroke-width="2" stroke-linecap="round" stroke-linejoin="round"/>
<path d="M398.998 302.705C399.12 312.05 394.204 320.739 386.13 325.447C378.055 330.156 368.073 330.156 359.999 325.447C351.924 320.739 347.008 312.05 347.13 302.705C347.13 288.382 373.062 243.519 373.062 243.519C373.062 243.519 398.998 288.377 398.998 302.705Z" fill="url(#paint9_linear)"/>
<path d="M373.062 350.885V260.63" stroke="#382824" stroke-width="2" stroke-linecap="round" stroke-linejoin="round"/>
<path d="M385.102 294.298L372.938 306.462" stroke="#382824" stroke-width="2" stroke-linecap="round" stroke-linejoin="round"/>
<path d="M365.008 278.918L372.55 286.465" stroke="#382824" stroke-width="2" stroke-linecap="round" stroke-linejoin="round"/>
<path d="M179.861 163.688H229.905V200.366H175.979V167.57C175.979 165.426 177.717 163.688 179.861 163.688Z" fill="url(#paint10_linear)"/>
<path d="M171.719 188.435L238.958 158.952V351.634H167.74V194.528C167.738 191.887 169.3 189.496 171.719 188.435Z" fill="url(#paint11_linear)"/>
<rect x="182.253" y="198.163" width="11.697" height="127.451" fill="url(#paint12_linear)"/>
<rect x="212.551" y="198.163" width="11.697" height="127.451" fill="url(#paint13_linear)"/>
<rect x="35.3906" y="121.786" width="4.27789" height="58.8155" fill="url(#paint14_linear)"/>
<path d="M6.4502 196.304H69.1823L57.5249 168.16C56.7067 166.184 54.7782 164.895 52.6391 164.896H22.9934C20.8543 164.895 18.9258 166.184 18.1076 168.16L6.4502 196.304Z" fill="url(#paint15_linear)"/>
<path d="M68.4284 174.293H3.34803C0.354009 190.018 -0.637801 206.058 0.396246 222.032H74.1865V180.033C74.1901 178.507 73.584 177.042 72.5029 175.964C71.4217 174.886 69.955 174.285 68.4284 174.293Z" fill="url(#paint16_linear)"/>
<path d="M77.1466 190.18H1.00373C-3.67948 235.703 7.93823 287.827 41.4961 337.8C44.7379 342.621 48.2689 347.24 52.0697 351.634H82.8784V195.92C82.8819 194.398 82.2794 192.937 81.204 191.86C80.1286 190.783 78.6687 190.179 77.1466 190.18Z" fill="url(#paint17_linear)"/>
<path d="M201.611 242.761H258.197C260.46 242.761 262.294 244.596 262.294 246.858V351.634H197.531V246.858C197.531 244.602 199.355 242.771 201.611 242.761Z" fill="url(#paint18_linear)"/>
<path d="M14.376 285.694C17.9044 294.979 21.9885 304.043 26.6061 312.838V207.758H14.376V285.694Z" fill="url(#paint19_linear)"/>
<rect x="48.4531" y="207.758" width="12.2257" height="107.366" fill="url(#paint20_linear)"/>
<path d="M427.224 232.139C426.971 255.461 407.994 274.235 384.67 274.235C361.347 274.235 342.369 255.461 342.116 232.139C342.116 208.638 384.668 135.039 384.668 135.039C384.668 135.039 427.224 208.638 427.224 232.139Z" fill="url(#paint21_linear)"/>
<path d="M384.668 311.198V163.112" stroke="#382824" stroke-width="2" stroke-linecap="round" stroke-linejoin="round"/>
<path d="M404.427 218.354L384.469 238.313" stroke="#382824" stroke-width="2" stroke-linecap="round" stroke-linejoin="round"/>
<path d="M371.452 193.116L383.829 205.498" stroke="#382824" stroke-width="2" stroke-linecap="round" stroke-linejoin="round"/>
<path d="M459.131 272.125C458.912 289.592 444.69 303.637 427.222 303.637C409.754 303.637 395.532 289.592 395.313 272.125C395.313 254.503 427.225 199.31 427.225 199.31C427.225 199.31 459.131 254.503 459.131 272.125Z" fill="url(#paint22_linear)"/>
<path d="M427.224 331.406V220.366" stroke="#382824" stroke-width="2" stroke-linecap="round" stroke-linejoin="round"/>
<path d="M442.037 261.79L427.069 276.752" stroke="#382824" stroke-width="2" stroke-linecap="round" stroke-linejoin="round"/>
<path d="M417.312 242.864L426.595 252.147" stroke="#382824" stroke-width="2" stroke-linecap="round" stroke-linejoin="round"/>
<path d="M243.1 352.636H465.109C461.935 320.406 429.83 328.002 429.83 328.002C427.963 298.002 393.896 302.484 393.896 302.484C387.183 254.433 329.969 239.166 295.458 266.251C260.947 293.336 279.882 328.985 279.882 328.985C251.918 330.148 244.841 345.984 243.1 352.636Z" fill="url(#paint23_linear)"/>
<path d="M238.808 352.217H373.654C373.654 352.217 354.654 285.84 358.851 253.175C359.764 246.078 366.128 178.977 361.95 175.214C357.773 171.451 214.717 114.257 203.873 110.604C193.028 106.95 171.702 117.81 190.088 142.046C190.088 142.046 176.298 144.541 173.793 156.249C171.288 167.958 179.642 176.307 179.642 176.307C179.642 176.307 173.793 177.141 171.283 188.001C168.772 198.861 181.728 210.03 181.728 210.03C181.728 210.03 167.525 225.227 178.804 241.472C190.083 257.717 220.671 284.348 233.353 304.006C242.601 318.305 238.808 352.217 238.808 352.217Z" fill="url(#paint24_linear)"/>
<rect x="203.024" y="29.0942" width="128.872" height="234.601" rx="16" fill="#1B7179"/>
<path d="M310.49 35.0032H303.004V40.5429C303.004 42.0717 302.397 43.5379 301.316 44.6189C300.235 45.7 298.768 46.3073 297.24 46.3073H237.67C234.486 46.3073 231.905 43.7265 231.905 40.5429V35.0032H224.419C215.762 35.0032 208.743 42.0216 208.743 50.6792V242.12C208.743 250.779 215.761 257.799 224.419 257.801H310.49C319.141 257.788 326.146 250.771 326.146 242.12V50.6692C326.141 42.0233 319.136 35.0142 310.49 35.0032V35.0032Z" fill="url(#paint25_linear)"/>
<path d="M205.235 111.532C205.235 111.532 228.637 127.253 234.256 133.741C239.876 140.229 239.182 162.568 211.927 151.323C191.999 143.104 181.713 134.32 181.578 125.526C181.444 116.732 191.61 105.264 205.235 111.532Z" fill="url(#paint26_linear)"/>
<path d="M235.668 139.176C235.591 138.022 235.031 136.955 234.126 136.236L220.282 125.257C218.114 123.516 215.005 123.601 212.935 125.456C209.147 128.88 206.976 133.172 205.774 136.436C204.786 139.134 205.969 142.144 208.528 143.448L225.068 151.932C226.402 152.62 228.006 152.516 229.24 151.663C231.935 149.791 236.117 145.799 235.668 139.176Z" fill="url(#paint27_linear)"/>
<rect x="242.137" y="34.9932" width="50.6514" height="4.80113" rx="2.40056" fill="white"/>
<path d="M198.942 212.176C198.942 212.176 218.406 218.205 224.449 228.586C228.831 236.122 221.854 247.551 209.208 245.055C196.561 242.56 181.409 239.855 175.2 233.961C167.969 227.093 174.502 199.315 198.942 212.176Z" fill="url(#paint28_linear)"/>
<path d="M192.693 176.587C192.693 176.587 227.084 180.514 238.992 192.842C246.259 200.368 238.738 217.192 219.274 215.071C199.81 212.949 176.228 207.415 170.933 200.198C164.57 191.484 166.985 171.077 192.693 176.587Z" fill="url(#paint29_linear)"/>
<path d="M240.874 195.342C240.466 194.196 239.592 193.275 238.469 192.807L221.305 185.685C218.611 184.55 215.491 185.527 213.924 187.996C211.069 192.547 210.106 197.518 209.822 201.166C209.602 204.179 211.661 206.884 214.623 207.475L233.817 211.323C235.366 211.637 236.961 211.07 237.965 209.85C240.146 207.185 243.23 201.905 240.874 195.342Z" fill="url(#paint30_linear)"/>
<path d="M221.839 226.963C221.563 225.97 220.879 225.139 219.957 224.678L205.868 217.666C203.662 216.538 200.964 217.171 199.49 219.163C197.228 222.404 195.773 226.14 195.248 230.058C194.878 232.594 196.462 235.007 198.936 235.677L214.931 240.064C216.222 240.422 217.604 240.038 218.525 239.066C220.536 236.92 223.456 232.638 221.839 226.963Z" fill="url(#paint31_linear)"/>
<path d="M253.825 166.306C258.816 172.739 256.869 190.975 236.108 187.931C220.457 185.63 186.574 178.912 179.622 176.302C163.197 170.129 168.393 138.822 190.068 142.041C207.96 144.701 244.612 154.413 253.825 166.306Z" fill="url(#paint32_linear)"/>
<path d="M255.637 168.621C255.198 167.396 254.263 166.412 253.062 165.911L234.676 158.275C231.785 157.063 228.442 158.119 226.77 160.771C223.716 165.647 222.683 170.972 222.384 174.875C222.14 178.103 224.348 181.005 227.524 181.632L248.071 185.725C249.727 186.063 251.434 185.458 252.508 184.153C254.859 181.293 258.157 175.653 255.637 168.621Z" fill="url(#paint33_linear)"/>
<path d="M258.377 263.696C258.377 263.696 252.547 215.784 304.157 190.152C314.593 172.844 317.203 161.14 318.516 156.369C319.828 151.598 295.558 135.777 287.842 119.807C280.126 103.836 290.103 96.5497 296.327 95.9957C302.55 95.4417 339.951 115.385 347.662 119.243C350.042 120.431 359.41 125.97 361.441 131.37C365.993 143.478 366.991 159.643 368.134 177.285C369.786 202.798 374.382 263.411 346.838 279.936C319.294 296.46 263.188 290.137 258.377 263.696Z" fill="url(#paint34_linear)"/>
<path d="M296.307 95.9958C295.153 96.1123 294.024 96.4035 292.958 96.8592C292.068 98.7417 291.805 100.86 292.209 102.903C292.563 104.547 293.492 106.01 294.829 107.03L313.54 119.946C316.47 121.996 320.453 121.627 322.957 119.073C325.543 116.363 327.65 113.234 329.191 109.82C315.895 103.138 300.139 95.6564 296.307 95.9958Z" fill="url(#paint35_linear)"/>
<path d="M308.354 289.034C308.354 289.034 346.388 292.338 360.597 263.696" stroke="white" stroke-width="2" stroke-linecap="round" stroke-linejoin="round"/>
<path d="M297.199 193.93C297.199 193.93 305.713 187.816 322.293 188.27" stroke="white" stroke-width="2" stroke-linecap="round" stroke-linejoin="round"/>
<path d="M227.493 68.5629V71.1079H226.148V63.8779H228.503C228.986 63.8779 229.405 63.9346 229.758 64.0479C230.111 64.1612 230.403 64.3196 230.633 64.5229C230.863 64.7262 231.033 64.9696 231.143 65.2529C231.253 65.5362 231.308 65.8462 231.308 66.1829C231.308 66.5329 231.25 66.8546 231.133 67.1479C231.016 67.4379 230.841 67.6879 230.608 67.8979C230.375 68.1079 230.083 68.2712 229.733 68.3879C229.383 68.5046 228.973 68.5629 228.503 68.5629H227.493ZM227.493 67.5129H228.503C228.75 67.5129 228.965 67.4829 229.148 67.4229C229.331 67.3596 229.483 67.2712 229.603 67.1579C229.723 67.0412 229.813 66.9012 229.873 66.7379C229.933 66.5712 229.963 66.3862 229.963 66.1829C229.963 65.9896 229.933 65.8146 229.873 65.6579C229.813 65.5012 229.723 65.3679 229.603 65.2579C229.483 65.1479 229.331 65.0646 229.148 65.0079C228.965 64.9479 228.75 64.9179 228.503 64.9179H227.493V67.5129ZM234.327 65.8979C234.71 65.8979 235.057 65.9596 235.367 66.0829C235.68 66.2062 235.947 66.3812 236.167 66.6079C236.387 66.8346 236.557 67.1112 236.677 67.4379C236.797 67.7646 236.857 68.1296 236.857 68.5329C236.857 68.9396 236.797 69.3062 236.677 69.6329C236.557 69.9596 236.387 70.2379 236.167 70.4679C235.947 70.6979 235.68 70.8746 235.367 70.9979C235.057 71.1212 234.71 71.1829 234.327 71.1829C233.943 71.1829 233.595 71.1212 233.282 70.9979C232.968 70.8746 232.7 70.6979 232.477 70.4679C232.257 70.2379 232.085 69.9596 231.962 69.6329C231.842 69.3062 231.782 68.9396 231.782 68.5329C231.782 68.1296 231.842 67.7646 231.962 67.4379C232.085 67.1112 232.257 66.8346 232.477 66.6079C232.7 66.3812 232.968 66.2062 233.282 66.0829C233.595 65.9596 233.943 65.8979 234.327 65.8979ZM234.327 70.2329C234.753 70.2329 235.068 70.0896 235.272 69.8029C235.478 69.5162 235.582 69.0962 235.582 68.5429C235.582 67.9896 235.478 67.5679 235.272 67.2779C235.068 66.9879 234.753 66.8429 234.327 66.8429C233.893 66.8429 233.573 66.9896 233.367 67.2829C233.16 67.5729 233.057 67.9929 233.057 68.5429C233.057 69.0929 233.16 69.5129 233.367 69.8029C233.573 70.0896 233.893 70.2329 234.327 70.2329ZM239.135 63.6779V71.1079H237.9V63.6779H239.135ZM241.85 65.9779V71.1079H240.615V65.9779H241.85ZM242.035 64.4829C242.035 64.5896 242.013 64.6896 241.97 64.7829C241.927 64.8762 241.868 64.9579 241.795 65.0279C241.725 65.0979 241.642 65.1546 241.545 65.1979C241.448 65.2379 241.345 65.2579 241.235 65.2579C241.128 65.2579 241.027 65.2379 240.93 65.1979C240.837 65.1546 240.755 65.0979 240.685 65.0279C240.615 64.9579 240.558 64.8762 240.515 64.7829C240.475 64.6896 240.455 64.5896 240.455 64.4829C240.455 64.3729 240.475 64.2696 240.515 64.1729C240.558 64.0762 240.615 63.9929 240.685 63.9229C240.755 63.8529 240.837 63.7979 240.93 63.7579C241.027 63.7146 241.128 63.6929 241.235 63.6929C241.345 63.6929 241.448 63.7146 241.545 63.7579C241.642 63.7979 241.725 63.8529 241.795 63.9229C241.868 63.9929 241.927 64.0762 241.97 64.1729C242.013 64.2696 242.035 64.3729 242.035 64.4829ZM246.855 67.0629C246.818 67.1096 246.782 67.1462 246.745 67.1729C246.712 67.1996 246.662 67.2129 246.595 67.2129C246.532 67.2129 246.47 67.1946 246.41 67.1579C246.35 67.1179 246.278 67.0746 246.195 67.0279C246.112 66.9779 246.012 66.9346 245.895 66.8979C245.782 66.8579 245.64 66.8379 245.47 66.8379C245.253 66.8379 245.063 66.8779 244.9 66.9579C244.737 67.0346 244.6 67.1462 244.49 67.2929C244.383 67.4396 244.303 67.6179 244.25 67.8279C244.197 68.0346 244.17 68.2696 244.17 68.5329C244.17 68.8062 244.198 69.0496 244.255 69.2629C244.315 69.4762 244.4 69.6562 244.51 69.8029C244.62 69.9462 244.753 70.0562 244.91 70.1329C245.067 70.2062 245.243 70.2429 245.44 70.2429C245.637 70.2429 245.795 70.2196 245.915 70.1729C246.038 70.1229 246.142 70.0696 246.225 70.0129C246.308 69.9529 246.38 69.8996 246.44 69.8529C246.503 69.8029 246.573 69.7779 246.65 69.7779C246.75 69.7779 246.825 69.8162 246.875 69.8929L247.23 70.3429C247.093 70.5029 246.945 70.6379 246.785 70.7479C246.625 70.8546 246.458 70.9412 246.285 71.0079C246.115 71.0712 245.938 71.1162 245.755 71.1429C245.572 71.1696 245.39 71.1829 245.21 71.1829C244.893 71.1829 244.595 71.1246 244.315 71.0079C244.035 70.8879 243.79 70.7146 243.58 70.4879C243.373 70.2612 243.208 69.9846 243.085 69.6579C242.965 69.3279 242.905 68.9529 242.905 68.5329C242.905 68.1562 242.958 67.8079 243.065 67.4879C243.175 67.1646 243.335 66.8862 243.545 66.6529C243.755 66.4162 244.015 66.2312 244.325 66.0979C244.635 65.9646 244.992 65.8979 245.395 65.8979C245.778 65.8979 246.113 65.9596 246.4 66.0829C246.69 66.2062 246.95 66.3829 247.18 66.6129L246.855 67.0629ZM249.835 72.5179C249.799 72.6046 249.75 72.6696 249.69 72.7129C249.634 72.7596 249.545 72.7829 249.425 72.7829H248.505L249.465 70.7279L247.39 65.9779H248.47C248.57 65.9779 248.647 66.0012 248.7 66.0479C248.754 66.0946 248.794 66.1479 248.82 66.2079L249.915 68.8679C249.952 68.9546 249.984 69.0446 250.01 69.1379C250.037 69.2312 250.06 69.3246 250.08 69.4179C250.107 69.3212 250.135 69.2279 250.165 69.1379C250.199 69.0479 250.234 68.9562 250.27 68.8629L251.3 66.2079C251.327 66.1412 251.37 66.0862 251.43 66.0429C251.494 65.9996 251.564 65.9779 251.64 65.9779H252.63L249.835 72.5179ZM257.936 63.7979C258.229 63.7979 258.491 63.8429 258.721 63.9329C258.954 64.0229 259.153 64.1429 259.316 64.2929C259.483 64.4429 259.613 64.6146 259.706 64.8079C259.803 65.0012 259.859 65.2012 259.876 65.4079L259.091 65.5729C259.081 65.5762 259.069 65.5779 259.056 65.5779C259.046 65.5779 259.036 65.5779 259.026 65.5779C258.969 65.5779 258.918 65.5629 258.871 65.5329C258.828 65.4996 258.793 65.4496 258.766 65.3829C258.736 65.2962 258.698 65.2146 258.651 65.1379C258.604 65.0579 258.548 64.9896 258.481 64.9329C258.414 64.8729 258.336 64.8262 258.246 64.7929C258.156 64.7562 258.053 64.7379 257.936 64.7379C257.796 64.7379 257.671 64.7629 257.561 64.8129C257.451 64.8596 257.358 64.9246 257.281 65.0079C257.204 65.0879 257.146 65.1829 257.106 65.2929C257.066 65.3996 257.046 65.5129 257.046 65.6329C257.046 65.7329 257.056 65.8296 257.076 65.9229C257.099 66.0162 257.134 66.1096 257.181 66.2029C257.228 66.2962 257.288 66.3929 257.361 66.4929C257.438 66.5896 257.531 66.6946 257.641 66.8079L259.561 68.8029C259.671 68.5929 259.759 68.3712 259.826 68.1379C259.893 67.9046 259.936 67.6679 259.956 67.4279C259.963 67.3512 259.988 67.2896 260.031 67.2429C260.074 67.1962 260.134 67.1729 260.211 67.1729H260.986C260.983 67.6129 260.919 68.0329 260.796 68.4329C260.673 68.8329 260.496 69.2012 260.266 69.5379L261.781 71.1079H260.571C260.508 71.1079 260.451 71.1046 260.401 71.0979C260.354 71.0912 260.309 71.0796 260.266 71.0629C260.223 71.0429 260.181 71.0179 260.141 70.9879C260.101 70.9579 260.059 70.9196 260.016 70.8729L259.516 70.3579C259.196 70.6179 258.839 70.8212 258.446 70.9679C258.056 71.1146 257.633 71.1879 257.176 71.1879C256.896 71.1879 256.623 71.1412 256.356 71.0479C256.089 70.9512 255.851 70.8129 255.641 70.6329C255.431 70.4529 255.261 70.2362 255.131 69.9829C255.004 69.7262 254.941 69.4379 254.941 69.1179C254.941 68.8946 254.978 68.6829 255.051 68.4829C255.124 68.2796 255.226 68.0912 255.356 67.9179C255.486 67.7446 255.639 67.5879 255.816 67.4479C255.996 67.3079 256.193 67.1879 256.406 67.0879C256.229 66.8379 256.099 66.5946 256.016 66.3579C255.936 66.1179 255.896 65.8796 255.896 65.6429C255.896 65.3929 255.941 65.1562 256.031 64.9329C256.124 64.7062 256.258 64.5096 256.431 64.3429C256.608 64.1762 256.823 64.0446 257.076 63.9479C257.329 63.8479 257.616 63.7979 257.936 63.7979ZM256.196 69.0179C256.196 69.2012 256.228 69.3662 256.291 69.5129C256.354 69.6596 256.441 69.7846 256.551 69.8879C256.661 69.9879 256.788 70.0662 256.931 70.1229C257.078 70.1762 257.233 70.2029 257.396 70.2029C257.689 70.2029 257.956 70.1579 258.196 70.0679C258.439 69.9746 258.661 69.8462 258.861 69.6829L256.961 67.7329C256.694 67.9062 256.499 68.1012 256.376 68.3179C256.256 68.5346 256.196 68.7679 256.196 69.0179ZM265.813 68.5629V71.1079H264.468V63.8779H266.823C267.307 63.8779 267.725 63.9346 268.078 64.0479C268.432 64.1612 268.723 64.3196 268.953 64.5229C269.183 64.7262 269.353 64.9696 269.463 65.2529C269.573 65.5362 269.628 65.8462 269.628 66.1829C269.628 66.5329 269.57 66.8546 269.453 67.1479C269.337 67.4379 269.162 67.6879 268.928 67.8979C268.695 68.1079 268.403 68.2712 268.053 68.3879C267.703 68.5046 267.293 68.5629 266.823 68.5629H265.813ZM265.813 67.5129H266.823C267.07 67.5129 267.285 67.4829 267.468 67.4229C267.652 67.3596 267.803 67.2712 267.923 67.1579C268.043 67.0412 268.133 66.9012 268.193 66.7379C268.253 66.5712 268.283 66.3862 268.283 66.1829C268.283 65.9896 268.253 65.8146 268.193 65.6579C268.133 65.5012 268.043 65.3679 267.923 65.2579C267.803 65.1479 267.652 65.0646 267.468 65.0079C267.285 64.9479 267.07 64.9179 266.823 64.9179H265.813V67.5129ZM270.603 71.1079V65.9779H271.328C271.455 65.9779 271.543 66.0012 271.593 66.0479C271.643 66.0946 271.677 66.1746 271.693 66.2879L271.768 66.9079C271.952 66.5912 272.167 66.3412 272.413 66.1579C272.66 65.9746 272.937 65.8829 273.243 65.8829C273.497 65.8829 273.707 65.9412 273.873 66.0579L273.713 66.9829C273.703 67.0429 273.682 67.0862 273.648 67.1129C273.615 67.1362 273.57 67.1479 273.513 67.1479C273.463 67.1479 273.395 67.1362 273.308 67.1129C273.222 67.0896 273.107 67.0779 272.963 67.0779C272.707 67.0779 272.487 67.1496 272.303 67.2929C272.12 67.4329 271.965 67.6396 271.838 67.9129V71.1079H270.603ZM276.875 65.8979C277.259 65.8979 277.605 65.9596 277.915 66.0829C278.229 66.2062 278.495 66.3812 278.715 66.6079C278.935 66.8346 279.105 67.1112 279.225 67.4379C279.345 67.7646 279.405 68.1296 279.405 68.5329C279.405 68.9396 279.345 69.3062 279.225 69.6329C279.105 69.9596 278.935 70.2379 278.715 70.4679C278.495 70.6979 278.229 70.8746 277.915 70.9979C277.605 71.1212 277.259 71.1829 276.875 71.1829C276.492 71.1829 276.144 71.1212 275.83 70.9979C275.517 70.8746 275.249 70.6979 275.025 70.4679C274.805 70.2379 274.634 69.9596 274.51 69.6329C274.39 69.3062 274.33 68.9396 274.33 68.5329C274.33 68.1296 274.39 67.7646 274.51 67.4379C274.634 67.1112 274.805 66.8346 275.025 66.6079C275.249 66.3812 275.517 66.2062 275.83 66.0829C276.144 65.9596 276.492 65.8979 276.875 65.8979ZM276.875 70.2329C277.302 70.2329 277.617 70.0896 277.82 69.8029C278.027 69.5162 278.13 69.0962 278.13 68.5429C278.13 67.9896 278.027 67.5679 277.82 67.2779C277.617 66.9879 277.302 66.8429 276.875 66.8429C276.442 66.8429 276.122 66.9896 275.915 67.2829C275.709 67.5729 275.605 67.9929 275.605 68.5429C275.605 69.0929 275.709 69.5129 275.915 69.8029C276.122 70.0896 276.442 70.2329 276.875 70.2329ZM283.974 67.0629C283.937 67.1096 283.901 67.1462 283.864 67.1729C283.831 67.1996 283.781 67.2129 283.714 67.2129C283.651 67.2129 283.589 67.1946 283.529 67.1579C283.469 67.1179 283.397 67.0746 283.314 67.0279C283.231 66.9779 283.131 66.9346 283.014 66.8979C282.901 66.8579 282.759 66.8379 282.589 66.8379C282.372 66.8379 282.182 66.8779 282.019 66.9579C281.856 67.0346 281.719 67.1462 281.609 67.2929C281.502 67.4396 281.422 67.6179 281.369 67.8279C281.316 68.0346 281.289 68.2696 281.289 68.5329C281.289 68.8062 281.317 69.0496 281.374 69.2629C281.434 69.4762 281.519 69.6562 281.629 69.8029C281.739 69.9462 281.872 70.0562 282.029 70.1329C282.186 70.2062 282.362 70.2429 282.559 70.2429C282.756 70.2429 282.914 70.2196 283.034 70.1729C283.157 70.1229 283.261 70.0696 283.344 70.0129C283.427 69.9529 283.499 69.8996 283.559 69.8529C283.622 69.8029 283.692 69.7779 283.769 69.7779C283.869 69.7779 283.944 69.8162 283.994 69.8929L284.349 70.3429C284.212 70.5029 284.064 70.6379 283.904 70.7479C283.744 70.8546 283.577 70.9412 283.404 71.0079C283.234 71.0712 283.057 71.1162 282.874 71.1429C282.691 71.1696 282.509 71.1829 282.329 71.1829C282.012 71.1829 281.714 71.1246 281.434 71.0079C281.154 70.8879 280.909 70.7146 280.699 70.4879C280.492 70.2612 280.327 69.9846 280.204 69.6579C280.084 69.3279 280.024 68.9529 280.024 68.5329C280.024 68.1562 280.077 67.8079 280.184 67.4879C280.294 67.1646 280.454 66.8862 280.664 66.6529C280.874 66.4162 281.134 66.2312 281.444 66.0979C281.754 65.9646 282.111 65.8979 282.514 65.8979C282.897 65.8979 283.232 65.9596 283.519 66.0829C283.809 66.2062 284.069 66.3829 284.299 66.6129L283.974 67.0629ZM287.255 65.8979C287.578 65.8979 287.875 65.9496 288.145 66.0529C288.418 66.1562 288.653 66.3079 288.85 66.5079C289.046 66.7046 289.2 66.9479 289.31 67.2379C289.42 67.5246 289.475 67.8529 289.475 68.2229C289.475 68.3162 289.47 68.3946 289.46 68.4579C289.453 68.5179 289.438 68.5662 289.415 68.6029C289.395 68.6362 289.366 68.6612 289.33 68.6779C289.293 68.6912 289.246 68.6979 289.19 68.6979H286.02C286.056 69.2246 286.198 69.6112 286.445 69.8579C286.691 70.1046 287.018 70.2279 287.425 70.2279C287.625 70.2279 287.796 70.2046 287.94 70.1579C288.086 70.1112 288.213 70.0596 288.32 70.0029C288.43 69.9462 288.525 69.8946 288.605 69.8479C288.688 69.8012 288.768 69.7779 288.845 69.7779C288.895 69.7779 288.938 69.7879 288.975 69.8079C289.011 69.8279 289.043 69.8562 289.07 69.8929L289.43 70.3429C289.293 70.5029 289.14 70.6379 288.97 70.7479C288.8 70.8546 288.621 70.9412 288.435 71.0079C288.251 71.0712 288.063 71.1162 287.87 71.1429C287.68 71.1696 287.495 71.1829 287.315 71.1829C286.958 71.1829 286.626 71.1246 286.32 71.0079C286.013 70.8879 285.746 70.7129 285.52 70.4829C285.293 70.2496 285.115 69.9629 284.985 69.6229C284.855 69.2796 284.79 68.8829 284.79 68.4329C284.79 68.0829 284.846 67.7546 284.96 67.4479C285.073 67.1379 285.235 66.8696 285.445 66.6429C285.658 66.4129 285.916 66.2312 286.22 66.0979C286.526 65.9646 286.871 65.8979 287.255 65.8979ZM287.28 66.7829C286.92 66.7829 286.638 66.8846 286.435 67.0879C286.231 67.2912 286.101 67.5796 286.045 67.9529H288.365C288.365 67.7929 288.343 67.6429 288.3 67.5029C288.256 67.3596 288.19 67.2346 288.1 67.1279C288.01 67.0212 287.896 66.9379 287.76 66.8779C287.623 66.8146 287.463 66.7829 287.28 66.7829ZM294.086 71.1079C293.926 71.1079 293.821 71.0329 293.771 70.8829L293.671 70.3879C293.565 70.5079 293.453 70.6162 293.336 70.7129C293.22 70.8096 293.093 70.8929 292.956 70.9629C292.823 71.0329 292.678 71.0862 292.521 71.1229C292.368 71.1629 292.201 71.1829 292.021 71.1829C291.741 71.1829 291.485 71.1246 291.251 71.0079C291.018 70.8912 290.816 70.7229 290.646 70.5029C290.48 70.2796 290.35 70.0046 290.256 69.6779C290.166 69.3512 290.121 68.9779 290.121 68.5579C290.121 68.1779 290.173 67.8246 290.276 67.4979C290.38 67.1712 290.528 66.8879 290.721 66.6479C290.915 66.4079 291.146 66.2212 291.416 66.0879C291.686 65.9512 291.99 65.8829 292.326 65.8829C292.613 65.8829 292.858 65.9296 293.061 66.0229C293.265 66.1129 293.446 66.2346 293.606 66.3879V63.6779H294.841V71.1079H294.086ZM292.441 70.2029C292.698 70.2029 292.916 70.1496 293.096 70.0429C293.276 69.9362 293.446 69.7846 293.606 69.5879V67.2879C293.466 67.1179 293.313 66.9979 293.146 66.9279C292.983 66.8579 292.806 66.8229 292.616 66.8229C292.43 66.8229 292.26 66.8579 292.106 66.9279C291.956 66.9979 291.828 67.1046 291.721 67.2479C291.618 67.3879 291.538 67.5679 291.481 67.7879C291.425 68.0046 291.396 68.2612 291.396 68.5579C291.396 68.8579 291.42 69.1129 291.466 69.3229C291.516 69.5296 291.586 69.6996 291.676 69.8329C291.766 69.9629 291.876 70.0579 292.006 70.1179C292.136 70.1746 292.281 70.2029 292.441 70.2029ZM297.31 65.9779V69.2379C297.31 69.5512 297.381 69.7946 297.525 69.9679C297.671 70.1379 297.89 70.2229 298.18 70.2229C298.393 70.2229 298.593 70.1762 298.78 70.0829C298.966 69.9862 299.143 69.8546 299.31 69.6879V65.9779H300.545V71.1079H299.79C299.63 71.1079 299.525 71.0329 299.475 70.8829L299.39 70.4729C299.283 70.5796 299.173 70.6779 299.06 70.7679C298.946 70.8546 298.825 70.9296 298.695 70.9929C298.568 71.0529 298.43 71.0996 298.28 71.1329C298.133 71.1696 297.975 71.1879 297.805 71.1879C297.525 71.1879 297.276 71.1412 297.06 71.0479C296.846 70.9512 296.666 70.8162 296.52 70.6429C296.373 70.4696 296.261 70.2646 296.185 70.0279C296.111 69.7879 296.075 69.5246 296.075 69.2379V65.9779H297.31ZM301.863 71.1079V65.9779H302.588C302.715 65.9779 302.803 66.0012 302.853 66.0479C302.903 66.0946 302.936 66.1746 302.953 66.2879L303.028 66.9079C303.211 66.5912 303.426 66.3412 303.673 66.1579C303.92 65.9746 304.196 65.8829 304.503 65.8829C304.756 65.8829 304.966 65.9412 305.133 66.0579L304.973 66.9829C304.963 67.0429 304.941 67.0862 304.908 67.1129C304.875 67.1362 304.83 67.1479 304.773 67.1479C304.723 67.1479 304.655 67.1362 304.568 67.1129C304.481 67.0896 304.366 67.0779 304.223 67.0779C303.966 67.0779 303.746 67.1496 303.563 67.2929C303.38 67.4329 303.225 67.6396 303.098 67.9129V71.1079H301.863ZM308.065 65.8979C308.388 65.8979 308.685 65.9496 308.955 66.0529C309.228 66.1562 309.463 66.3079 309.66 66.5079C309.857 66.7046 310.01 66.9479 310.12 67.2379C310.23 67.5246 310.285 67.8529 310.285 68.2229C310.285 68.3162 310.28 68.3946 310.27 68.4579C310.263 68.5179 310.248 68.5662 310.225 68.6029C310.205 68.6362 310.177 68.6612 310.14 68.6779C310.103 68.6912 310.057 68.6979 310 68.6979H306.83C306.867 69.2246 307.008 69.6112 307.255 69.8579C307.502 70.1046 307.828 70.2279 308.235 70.2279C308.435 70.2279 308.607 70.2046 308.75 70.1579C308.897 70.1112 309.023 70.0596 309.13 70.0029C309.24 69.9462 309.335 69.8946 309.415 69.8479C309.498 69.8012 309.578 69.7779 309.655 69.7779C309.705 69.7779 309.748 69.7879 309.785 69.8079C309.822 69.8279 309.853 69.8562 309.88 69.8929L310.24 70.3429C310.103 70.5029 309.95 70.6379 309.78 70.7479C309.61 70.8546 309.432 70.9412 309.245 71.0079C309.062 71.0712 308.873 71.1162 308.68 71.1429C308.49 71.1696 308.305 71.1829 308.125 71.1829C307.768 71.1829 307.437 71.1246 307.13 71.0079C306.823 70.8879 306.557 70.7129 306.33 70.4829C306.103 70.2496 305.925 69.9629 305.795 69.6229C305.665 69.2796 305.6 68.8829 305.6 68.4329C305.6 68.0829 305.657 67.7546 305.77 67.4479C305.883 67.1379 306.045 66.8696 306.255 66.6429C306.468 66.4129 306.727 66.2312 307.03 66.0979C307.337 65.9646 307.682 65.8979 308.065 65.8979ZM308.09 66.7829C307.73 66.7829 307.448 66.8846 307.245 67.0879C307.042 67.2912 306.912 67.5796 306.855 67.9529H309.175C309.175 67.7929 309.153 67.6429 309.11 67.5029C309.067 67.3596 309 67.2346 308.91 67.1279C308.82 67.0212 308.707 66.9379 308.57 66.8779C308.433 66.8146 308.273 66.7829 308.09 66.7829Z" fill="#165341"/>
<rect x="221" y="83.1079" width="96" height="10" rx="5" fill="url(#paint36_linear)"/>
<rect x="221" y="99.1079" width="62" height="10" rx="5" fill="url(#paint37_linear)"/>
<rect x="221" y="115.108" width="75" height="10" rx="5" fill="url(#paint38_linear)"/>
<defs>
<linearGradient id="paint0_linear" x1="-93.2918" y1="-200.1" x2="-91.8783" y2="370.932" gradientUnits="userSpaceOnUse">
<stop stop-color="#B4E7E0"/>
<stop offset="1" stop-color="white"/>
</linearGradient>
<linearGradient id="paint1_linear" x1="-121.346" y1="-90.3075" x2="-120.349" y2="367.167" gradientUnits="userSpaceOnUse">
<stop stop-color="#41C2AD"/>
<stop offset="0.817708" stop-color="white"/>
</linearGradient>
<linearGradient id="paint2_linear" x1="62.004" y1="440.838" x2="320.679" y2="440.838" gradientUnits="userSpaceOnUse">
<stop stop-color="#FFDDBB"/>
<stop offset="1" stop-color="#FF786E"/>
</linearGradient>
<linearGradient id="paint3_linear" x1="193.49" y1="-475.58" x2="193.49" y2="363.155" gradientUnits="userSpaceOnUse">
<stop stop-color="#F4CE45"/>
<stop offset="1" stop-color="white"/>
</linearGradient>
<linearGradient id="paint4_linear" x1="147.678" y1="16.6848" x2="147.678" y2="312.472" gradientUnits="userSpaceOnUse">
<stop stop-color="#04AFA5"/>
<stop offset="1" stop-color="white"/>
</linearGradient>
<linearGradient id="paint5_linear" x1="147.678" y1="16.6851" x2="147.678" y2="312.472" gradientUnits="userSpaceOnUse">
<stop stop-color="#04AFA5"/>
<stop offset="1" stop-color="white"/>
</linearGradient>
<linearGradient id="paint6_linear" x1="173.975" y1="16.6851" x2="173.975" y2="312.472" gradientUnits="userSpaceOnUse">
<stop stop-color="#04AFA5"/>
<stop offset="1" stop-color="white"/>
</linearGradient>
<linearGradient id="paint7_linear" x1="173.975" y1="16.685" x2="173.975" y2="312.472" gradientUnits="userSpaceOnUse">
<stop stop-color="#04AFA5"/>
<stop offset="1" stop-color="white"/>
</linearGradient>
<linearGradient id="paint8_linear" x1="256.38" y1="209.032" x2="256.38" y2="448.281" gradientUnits="userSpaceOnUse">
<stop stop-color="#FFBB00"/>
<stop offset="1" stop-color="#FFFF95"/>
</linearGradient>
<linearGradient id="paint9_linear" x1="427.278" y1="173.05" x2="290.073" y2="173.05" gradientUnits="userSpaceOnUse">
<stop stop-color="#FFBB00"/>
<stop offset="1" stop-color="#FFFF95"/>
</linearGradient>
<linearGradient id="paint10_linear" x1="266.538" y1="171.663" x2="266.538" y2="85.1533" gradientUnits="userSpaceOnUse">
<stop stop-color="#AF0E04"/>
<stop offset="1" stop-color="white"/>
</linearGradient>
<linearGradient id="paint11_linear" x1="141.952" y1="103.379" x2="167.673" y2="424.541" gradientUnits="userSpaceOnUse">
<stop stop-color="#1C505C"/>
<stop offset="1" stop-color="white"/>
</linearGradient>
<linearGradient id="paint12_linear" x1="168.034" y1="-105.811" x2="168.034" y2="331.555" gradientUnits="userSpaceOnUse">
<stop stop-color="#F4CE45"/>
<stop offset="1" stop-color="white"/>
</linearGradient>
<linearGradient id="paint13_linear" x1="198.331" y1="-105.811" x2="198.331" y2="331.555" gradientUnits="userSpaceOnUse">
<stop stop-color="#F4CE45"/>
<stop offset="1" stop-color="white"/>
</linearGradient>
<linearGradient id="paint14_linear" x1="40.9649" y1="227.068" x2="40.9649" y2="132.545" gradientUnits="userSpaceOnUse">
<stop offset="0.604167" stop-color="#4AA3A9"/>
<stop offset="1" stop-color="white" stop-opacity="0"/>
</linearGradient>
<linearGradient id="paint15_linear" x1="-15.5803" y1="155.417" x2="-15.015" y2="208.367" gradientUnits="userSpaceOnUse">
<stop stop-color="#1F8D94"/>
<stop offset="1" stop-color="white"/>
</linearGradient>
<linearGradient id="paint16_linear" x1="-26.0531" y1="159.884" x2="-24.9487" y2="240.363" gradientUnits="userSpaceOnUse">
<stop stop-color="#1F8D94"/>
<stop offset="1" stop-color="white"/>
</linearGradient>
<linearGradient id="paint17_linear" x1="-29.091" y1="141.451" x2="-17.8" y2="413.208" gradientUnits="userSpaceOnUse">
<stop stop-color="#1F8D94"/>
<stop offset="1" stop-color="white"/>
</linearGradient>
<linearGradient id="paint18_linear" x1="193.576" y1="252.868" x2="193.576" y2="375.01" gradientUnits="userSpaceOnUse">
<stop stop-color="#105B70"/>
<stop offset="1" stop-color="white"/>
</linearGradient>
<linearGradient id="paint19_linear" x1="-0.954634" y1="-48.3115" x2="-0.954634" y2="320.129" gradientUnits="userSpaceOnUse">
<stop stop-color="#1F979B"/>
<stop offset="1" stop-color="white"/>
</linearGradient>
<linearGradient id="paint20_linear" x1="33.128" y1="-53.8836" x2="33.128" y2="322.574" gradientUnits="userSpaceOnUse">
<stop stop-color="#1F979B"/>
<stop offset="1" stop-color="white"/>
</linearGradient>
<linearGradient id="paint21_linear" x1="301.243" y1="435.276" x2="583.276" y2="435.276" gradientUnits="userSpaceOnUse">
<stop stop-color="#FFDDBB"/>
<stop offset="1" stop-color="#FF786E"/>
</linearGradient>
<linearGradient id="paint22_linear" x1="240.426" y1="478.856" x2="518.605" y2="478.856" gradientUnits="userSpaceOnUse">
<stop stop-color="#1B345B"/>
<stop offset="1" stop-color="#20B7AF"/>
</linearGradient>
<linearGradient id="paint23_linear" x1="236.456" y1="276.252" x2="236.456" y2="381.927" gradientUnits="userSpaceOnUse">
<stop stop-color="#1F8C94"/>
<stop offset="1" stop-color="white"/>
</linearGradient>
<linearGradient id="paint24_linear" x1="84.6928" y1="514.784" x2="559.366" y2="514.784" gradientUnits="userSpaceOnUse">
<stop stop-color="#FFDDBB"/>
<stop offset="1" stop-color="#FF786E"/>
</linearGradient>
<linearGradient id="paint25_linear" x1="197.281" y1="-8.36216" x2="197.281" y2="257.945" gradientUnits="userSpaceOnUse">
<stop stop-color="#FFE99D"/>
<stop offset="1" stop-color="#FFDB95"/>
</linearGradient>
<linearGradient id="paint26_linear" x1="84.6925" y1="323.29" x2="559.365" y2="323.29" gradientUnits="userSpaceOnUse">
<stop stop-color="#FFDDBB"/>
<stop offset="1" stop-color="#FF786E"/>
</linearGradient>
<linearGradient id="paint27_linear" x1="219.921" y1="175.518" x2="242.026" y2="141.434" gradientUnits="userSpaceOnUse">
<stop stop-color="#FFA48F"/>
<stop offset="1" stop-color="white"/>
</linearGradient>
<linearGradient id="paint28_linear" x1="134.106" y1="264.682" x2="243.644" y2="264.682" gradientUnits="userSpaceOnUse">
<stop stop-color="#FFDDBB"/>
<stop offset="1" stop-color="#FF786E"/>
</linearGradient>
<linearGradient id="paint29_linear" x1="84.6925" y1="322.888" x2="559.365" y2="322.888" gradientUnits="userSpaceOnUse">
<stop stop-color="#FFDDBB"/>
<stop offset="1" stop-color="#FF786E"/>
</linearGradient>
<linearGradient id="paint30_linear" x1="250.628" y1="240.797" x2="259.576" y2="185.542" gradientUnits="userSpaceOnUse">
<stop stop-color="#FFA48F"/>
<stop offset="1" stop-color="white"/>
</linearGradient>
<linearGradient id="paint31_linear" x1="226.936" y1="266.556" x2="237.546" y2="220.206" gradientUnits="userSpaceOnUse">
<stop stop-color="#FFA48F"/>
<stop offset="1" stop-color="white"/>
</linearGradient>
<linearGradient id="paint32_linear" x1="132.958" y1="209.099" x2="296.386" y2="209.099" gradientUnits="userSpaceOnUse">
<stop stop-color="#FFDDBB"/>
<stop offset="1" stop-color="#FF786E"/>
</linearGradient>
<linearGradient id="paint33_linear" x1="262.91" y1="223.24" x2="275.12" y2="162.904" gradientUnits="userSpaceOnUse">
<stop stop-color="#FFA48F"/>
<stop offset="1" stop-color="white"/>
</linearGradient>
<linearGradient id="paint34_linear" x1="84.6926" y1="604.183" x2="559.365" y2="604.183" gradientUnits="userSpaceOnUse">
<stop stop-color="#FFDDBB"/>
<stop offset="1" stop-color="#FF786E"/>
</linearGradient>
<linearGradient id="paint35_linear" x1="318.93" y1="129.693" x2="325.416" y2="102.248" gradientUnits="userSpaceOnUse">
<stop stop-color="#FFA48F"/>
<stop offset="1" stop-color="white"/>
</linearGradient>
<linearGradient id="paint36_linear" x1="221" y1="88.1079" x2="317" y2="88.1079" gradientUnits="userSpaceOnUse">
<stop stop-color="white"/>
<stop offset="1" stop-color="white" stop-opacity="0"/>
</linearGradient>
<linearGradient id="paint37_linear" x1="221" y1="104.108" x2="283" y2="104.108" gradientUnits="userSpaceOnUse">
<stop stop-color="white"/>
<stop offset="1" stop-color="white" stop-opacity="0"/>
</linearGradient>
<linearGradient id="paint38_linear" x1="221" y1="120.108" x2="296" y2="120.108" gradientUnits="userSpaceOnUse">
<stop stop-color="white"/>
<stop offset="1" stop-color="white" stop-opacity="0"/>
</linearGradient>
</defs>
</svg>
