<svg width="480" height="402" viewBox="0 0 480 402" fill="none" xmlns="http://www.w3.org/2000/svg">
<path d="M11.9118 400H420.007C420.007 400 511.916 326.856 468.216 200.561C424.515 74.2649 249.859 80.3435 197.684 139.899C138.892 207.019 146.699 258.951 104.736 250.876C46.7913 239.719 -29.7617 281.189 11.9118 400Z" fill="url(#paint0_linear)"/>
<path d="M217.241 252.088C216.772 295.581 181.381 330.593 137.885 330.593C94.3888 330.593 58.9975 295.581 58.5283 252.088C58.5283 208.261 137.88 71 137.88 71C137.88 71 217.241 208.261 217.241 252.088Z" fill="url(#paint1_linear)"/>
<path d="M137.917 399.516V123.369" stroke="#382824" stroke-width="2.52101" stroke-linecap="round" stroke-linejoin="round"/>
<path d="M174.763 226.388L137.548 263.603" stroke="#382824" stroke-width="2.52101" stroke-linecap="round" stroke-linejoin="round"/>
<path d="M113.27 179.32L136.356 202.406" stroke="#382824" stroke-width="2.52101" stroke-linecap="round" stroke-linejoin="round"/>
<path d="M117.13 291.65C117.13 323.995 90.9095 350.215 58.565 350.215C26.2204 350.215 6.8161e-07 323.995 0 291.65C0 259.33 58.565 158 58.565 158C58.565 158 117.13 259.302 117.13 291.65Z" fill="url(#paint2_linear)"/>
<path d="M58.5648 400.451V196.646" stroke="#382824" stroke-width="2.52101" stroke-linecap="round" stroke-linejoin="round"/>
<path d="M85.7514 272.683L58.2881 300.146" stroke="#382824" stroke-width="2.52101" stroke-linecap="round" stroke-linejoin="round"/>
<path d="M40.373 237.943L57.4106 254.98" stroke="#382824" stroke-width="2.52101" stroke-linecap="round" stroke-linejoin="round"/>
<rect x="117" y="68" width="170" height="309.472" rx="16" fill="#1B7179"/>
<path d="M258.763 75.7949H248.888V83.1026C248.888 85.1193 248.086 87.0534 246.66 88.4795C245.234 89.9055 243.3 90.7066 241.284 90.7066H162.703C158.503 90.7066 155.099 87.3022 155.099 83.1026V75.7949H145.223C133.803 75.7949 124.544 85.0532 124.544 96.4738V349.012C124.544 360.433 133.802 369.693 145.223 369.697H258.763C270.174 369.679 279.415 360.423 279.415 349.012V96.4606C279.408 85.0554 270.168 75.8094 258.763 75.7949V75.7949Z" fill="url(#paint3_linear)"/>
<rect x="141" y="321" width="142" height="34" rx="17" fill="white"/>
<path d="M149.9 128L146.94 122.44C146.327 122.467 145.78 122.48 145.3 122.48H144.74V128H142.56V113.3H145.9C147.593 113.3 148.987 113.653 150.08 114.36C151.173 115.053 151.72 116.187 151.72 117.76C151.72 118.747 151.487 119.6 151.02 120.32C150.567 121.027 149.887 121.573 148.98 121.96L152.48 128H149.9ZM146.16 120.66C147.467 120.66 148.36 120.38 148.84 119.82C149.333 119.247 149.58 118.567 149.58 117.78C149.58 116.033 148.413 115.16 146.08 115.16H144.74V120.66H146.16ZM158.967 128.2C157.874 128.2 156.96 127.987 156.227 127.56C155.494 127.12 154.954 126.54 154.607 125.82C154.26 125.087 154.087 124.287 154.087 123.42C154.087 122.447 154.287 121.593 154.687 120.86C155.1 120.127 155.667 119.567 156.387 119.18C157.107 118.78 157.92 118.58 158.827 118.58C160.24 118.58 161.287 118.973 161.967 119.76C162.66 120.533 163.007 121.627 163.007 123.04C163.007 123.4 162.987 123.773 162.947 124.16H156.347C156.494 124.973 156.78 125.56 157.207 125.92C157.647 126.28 158.254 126.46 159.027 126.46C159.667 126.46 160.194 126.407 160.607 126.3C161.02 126.193 161.4 126.047 161.747 125.86L162.407 127.4C162.074 127.613 161.62 127.8 161.047 127.96C160.474 128.12 159.78 128.2 158.967 128.2ZM160.907 122.66C160.92 121.833 160.74 121.253 160.367 120.92C159.994 120.573 159.46 120.4 158.767 120.4C157.367 120.4 156.56 121.153 156.347 122.66H160.907ZM163.812 118.82H166.272L168.252 122.96L168.892 124.62L169.532 122.96L171.492 118.82H173.892L169.072 128H168.652L163.812 118.82ZM179.317 128.2C178.371 128.2 177.531 127.987 176.797 127.56C176.064 127.133 175.497 126.553 175.097 125.82C174.697 125.087 174.497 124.273 174.497 123.38C174.497 122.5 174.691 121.693 175.077 120.96C175.477 120.227 176.044 119.647 176.777 119.22C177.511 118.793 178.357 118.58 179.317 118.58C180.277 118.58 181.117 118.793 181.837 119.22C182.571 119.647 183.131 120.227 183.517 120.96C183.917 121.693 184.117 122.5 184.117 123.38C184.117 124.273 183.917 125.087 183.517 125.82C183.117 126.553 182.551 127.133 181.817 127.56C181.097 127.987 180.264 128.2 179.317 128.2ZM179.377 126.44C180.151 126.44 180.757 126.153 181.197 125.58C181.651 125.007 181.877 124.287 181.877 123.42C181.877 122.553 181.637 121.827 181.157 121.24C180.677 120.64 180.044 120.34 179.257 120.34C178.497 120.34 177.884 120.633 177.417 121.22C176.964 121.807 176.737 122.54 176.737 123.42C176.737 124.273 176.984 124.993 177.477 125.58C177.971 126.153 178.604 126.44 179.377 126.44ZM194.724 128H192.184L190.324 125L189.804 123.98L188.604 125.28V128H186.524V113.3H188.584V121.36L188.544 122.92L192.044 118.82H194.704L191.244 122.66L194.724 128ZM200.783 128.2C199.69 128.2 198.777 127.987 198.043 127.56C197.31 127.12 196.77 126.54 196.423 125.82C196.077 125.087 195.903 124.287 195.903 123.42C195.903 122.447 196.103 121.593 196.503 120.86C196.917 120.127 197.483 119.567 198.203 119.18C198.923 118.78 199.737 118.58 200.643 118.58C202.057 118.58 203.103 118.973 203.783 119.76C204.477 120.533 204.823 121.627 204.823 123.04C204.823 123.4 204.803 123.773 204.763 124.16H198.163C198.31 124.973 198.597 125.56 199.023 125.92C199.463 126.28 200.07 126.46 200.843 126.46C201.483 126.46 202.01 126.407 202.423 126.3C202.837 126.193 203.217 126.047 203.563 125.86L204.223 127.4C203.89 127.613 203.437 127.8 202.863 127.96C202.29 128.12 201.597 128.2 200.783 128.2ZM202.723 122.66C202.737 121.833 202.557 121.253 202.183 120.92C201.81 120.573 201.277 120.4 200.583 120.4C199.183 120.4 198.377 121.153 198.163 122.66H202.723Z" fill="#00594C"/>
<rect x="168.595" y="75.7817" width="66.8163" height="6.33336" rx="3.16668" fill="white"/>
<rect x="140.713" y="149.251" width="126.637" height="13.1914" rx="6.5957" fill="url(#paint4_linear)"/>
<rect x="140.713" y="170.358" width="81.7867" height="13.1914" rx="6.5957" fill="url(#paint5_linear)"/>
<rect x="140.713" y="191.464" width="98.9355" height="13.1914" rx="6.5957" fill="url(#paint6_linear)"/>
<rect x="238" y="40" width="198" height="360.444" rx="16" fill="#1B7179"/>
<path d="M403.112 49.0786H391.61V57.59C391.61 59.9388 390.677 62.1915 389.016 63.8524C387.355 65.5133 385.103 66.4464 382.754 66.4464H291.23C286.339 66.4464 282.374 62.4812 282.374 57.59V49.0786H270.872C257.57 49.0786 246.787 59.8618 246.787 73.1634V367.296C246.787 380.599 257.569 391.384 270.872 391.388H403.112C416.403 391.367 427.166 380.587 427.166 367.296V73.1481C427.158 59.8644 416.396 49.0955 403.112 49.0786V49.0786Z" fill="url(#paint7_linear)"/>
<rect x="298.093" y="49.0635" width="77.8213" height="7.3765" rx="3.68825" fill="white"/>
<rect x="265.619" y="132.987" width="147.495" height="15.3641" rx="7.68205" fill="url(#paint8_linear)"/>
<rect x="265.619" y="157.57" width="95.2574" height="15.3641" rx="7.68205" fill="url(#paint9_linear)"/>
<rect x="265.619" y="182.152" width="115.231" height="15.3641" rx="7.68205" fill="url(#paint10_linear)"/>
<rect x="265" y="331" width="142" height="34" rx="17" fill="white"/>
<path d="M267.54 96.3H273.98V98.26H269.76V102.32H273.16V104.32H269.76V109.02H274.64V111H267.54V96.3ZM276.756 101.82H278.876L278.896 103.5C279.149 102.94 279.549 102.48 280.096 102.12C280.643 101.76 281.283 101.58 282.016 101.58C282.963 101.58 283.689 101.78 284.196 102.18C284.703 102.567 285.043 103.113 285.216 103.82C285.389 104.527 285.476 105.447 285.476 106.58V111H283.316V106.64C283.316 105.48 283.203 104.647 282.976 104.14C282.749 103.62 282.283 103.36 281.576 103.36C281.176 103.36 280.769 103.487 280.356 103.74C279.943 103.98 279.596 104.333 279.316 104.8C279.049 105.267 278.916 105.813 278.916 106.44V111H276.756V101.82ZM288.2 101.82H290.36V103.62C290.573 103.007 290.92 102.513 291.4 102.14C291.88 101.767 292.427 101.58 293.04 101.58C293.467 101.58 293.76 101.62 293.92 101.7L293.62 103.88C293.5 103.8 293.24 103.76 292.84 103.76C292.213 103.76 291.64 103.96 291.12 104.36C290.613 104.76 290.36 105.4 290.36 106.28V111H288.2V101.82ZM299.727 111.2C298.781 111.2 297.941 110.987 297.207 110.56C296.474 110.133 295.907 109.553 295.507 108.82C295.107 108.087 294.907 107.273 294.907 106.38C294.907 105.5 295.101 104.693 295.487 103.96C295.887 103.227 296.454 102.647 297.187 102.22C297.921 101.793 298.767 101.58 299.727 101.58C300.687 101.58 301.527 101.793 302.247 102.22C302.981 102.647 303.541 103.227 303.927 103.96C304.327 104.693 304.527 105.5 304.527 106.38C304.527 107.273 304.327 108.087 303.927 108.82C303.527 109.553 302.961 110.133 302.227 110.56C301.507 110.987 300.674 111.2 299.727 111.2ZM299.787 109.44C300.561 109.44 301.167 109.153 301.607 108.58C302.061 108.007 302.287 107.287 302.287 106.42C302.287 105.553 302.047 104.827 301.567 104.24C301.087 103.64 300.454 103.34 299.667 103.34C298.907 103.34 298.294 103.633 297.827 104.22C297.374 104.807 297.147 105.54 297.147 106.42C297.147 107.273 297.394 107.993 297.887 108.58C298.381 109.153 299.014 109.44 299.787 109.44ZM307.014 96.3H309.154V111H307.014V96.3ZM312.366 96.3H314.506V111H312.366V96.3Z" fill="#00594C"/>
<defs>
<linearGradient id="paint0_linear" x1="-204.941" y1="-122.476" x2="-200.132" y2="423.576" gradientUnits="userSpaceOnUse">
<stop stop-color="#04AFA5"/>
<stop offset="1" stop-color="white"/>
</linearGradient>
<linearGradient id="paint1_linear" x1="-326.677" y1="766.58" x2="365.154" y2="766.58" gradientUnits="userSpaceOnUse">
<stop stop-color="#1B345B"/>
<stop offset="1" stop-color="#20B7AF"/>
</linearGradient>
<linearGradient id="paint2_linear" x1="-56.2519" y1="572.597" x2="331.897" y2="572.597" gradientUnits="userSpaceOnUse">
<stop stop-color="#FFDDBB"/>
<stop offset="1" stop-color="#FF786E"/>
</linearGradient>
<linearGradient id="paint3_linear" x1="109.425" y1="18.59" x2="109.425" y2="369.887" gradientUnits="userSpaceOnUse">
<stop stop-color="#FFE99D"/>
<stop offset="1" stop-color="#FFDB95"/>
</linearGradient>
<linearGradient id="paint4_linear" x1="140.713" y1="155.847" x2="267.35" y2="155.847" gradientUnits="userSpaceOnUse">
<stop stop-color="white"/>
<stop offset="1" stop-color="white" stop-opacity="0"/>
</linearGradient>
<linearGradient id="paint5_linear" x1="140.713" y1="176.954" x2="222.5" y2="176.954" gradientUnits="userSpaceOnUse">
<stop stop-color="white"/>
<stop offset="1" stop-color="white" stop-opacity="0"/>
</linearGradient>
<linearGradient id="paint6_linear" x1="140.713" y1="198.06" x2="239.648" y2="198.06" gradientUnits="userSpaceOnUse">
<stop stop-color="white"/>
<stop offset="1" stop-color="white" stop-opacity="0"/>
</linearGradient>
<linearGradient id="paint7_linear" x1="229.177" y1="-17.5483" x2="229.177" y2="391.609" gradientUnits="userSpaceOnUse">
<stop stop-color="#FFE99D"/>
<stop offset="1" stop-color="#FFDB95"/>
</linearGradient>
<linearGradient id="paint8_linear" x1="265.619" y1="140.669" x2="413.114" y2="140.669" gradientUnits="userSpaceOnUse">
<stop stop-color="white"/>
<stop offset="1" stop-color="white" stop-opacity="0"/>
</linearGradient>
<linearGradient id="paint9_linear" x1="265.619" y1="165.252" x2="360.876" y2="165.252" gradientUnits="userSpaceOnUse">
<stop stop-color="white"/>
<stop offset="1" stop-color="white" stop-opacity="0"/>
</linearGradient>
<linearGradient id="paint10_linear" x1="265.619" y1="189.834" x2="380.849" y2="189.834" gradientUnits="userSpaceOnUse">
<stop stop-color="white"/>
<stop offset="1" stop-color="white" stop-opacity="0"/>
</linearGradient>
</defs>
</svg>
