<svg width="480" height="400" viewBox="0 0 480 400" fill="none" xmlns="http://www.w3.org/2000/svg">
<path d="M372.814 338H35.52C35.52 338 -17.8245 292.088 47.5052 245.972C79.6567 223.271 104.127 230.003 82.4706 175.044C52.638 99.3432 113.955 16.0878 245.818 31.9661C392.767 49.6371 351.137 141.691 395.268 152.265C460.926 167.969 521.404 294.908 372.814 338Z" fill="url(#paint0_linear)"/>
<path d="M479.515 229.387C479.515 244.946 471.215 259.323 457.741 267.103C444.266 274.882 427.665 274.882 414.191 267.103C400.717 259.323 392.416 244.946 392.416 229.387C392.416 205.333 435.966 130 435.966 130C435.966 130 479.515 205.333 479.515 229.387Z" fill="url(#paint1_linear)"/>
<path d="M435.977 310.3V158.744" stroke="#382824" stroke-width="2" stroke-linecap="round" stroke-linejoin="round"/>
<path d="M456.197 215.281L435.772 235.705" stroke="#382824" stroke-width="2" stroke-linecap="round" stroke-linejoin="round"/>
<path d="M422.452 189.452L435.12 202.119" stroke="#382824" stroke-width="2" stroke-linecap="round" stroke-linejoin="round"/>
<path d="M418.577 242.284C418.369 262.354 402.04 278.515 381.968 278.515C361.897 278.515 345.568 262.354 345.359 242.284C345.359 222.065 381.966 158.743 381.966 158.743C381.966 158.743 418.577 222.065 418.577 242.284Z" fill="url(#paint2_linear)"/>
<path d="M381.966 310.299V182.9" stroke="#382824" stroke-width="2" stroke-linecap="round" stroke-linejoin="round"/>
<path d="M398.964 230.427L381.797 247.594" stroke="#382824" stroke-width="2" stroke-linecap="round" stroke-linejoin="round"/>
<path d="M370.596 208.713L381.247 219.365" stroke="#382824" stroke-width="2" stroke-linecap="round" stroke-linejoin="round"/>
<path d="M96.1229 281.511C118.319 387.477 279.294 394.899 297.891 332.198C317.293 266.715 321.609 248.046 372.272 198.395C422.934 148.744 374.138 65.0141 247.535 79.7042C148.096 91.2587 73.3139 172.678 96.1229 281.511Z" fill="url(#paint3_linear)"/>
<mask id="mask0" mask-type="alpha" maskUnits="userSpaceOnUse" x="-67" y="-77" width="538" height="450">
<path d="M125.903 -75.8525C-46.4246 -89.3096 -117.241 128.994 -26.9661 180.596C67.32 234.458 -31.6629 218.825 12.9838 289.503C57.6304 360.182 417.131 456.284 463.462 234.789C509.794 13.2944 302.897 -62.0478 125.903 -75.8525Z" fill="white"/>
</mask>
<g mask="url(#mask0)">
<path d="M33.1911 15.0039H48.4513V474.457H33.1911C14.8602 474.457 0 459.597 0 441.266V48.195C0 39.3922 3.49691 30.9499 9.72145 24.7254C15.946 18.5008 24.3883 15.0039 33.1911 15.0039Z" fill="url(#paint4_linear)"/>
<path d="M185.317 444.259L55.7836 473.658C35.855 478.179 19.1157 463.143 19.1157 439.934V49.5268C19.1157 26.3036 35.855 11.2817 55.7836 15.803L185.317 45.2018C199.911 48.5104 211.4 66.4764 211.4 85.4237V404.037C211.4 422.984 199.911 440.922 185.317 444.259Z" fill="#1B7179"/>
<path d="M184.538 55.0573L174.725 52.9544V62.4876C174.725 67.9692 171.29 71.7475 167.014 70.8993L78.8384 53.8376C73.6372 52.8282 69.3823 47.0382 69.3823 40.9046V30.2428L56.8419 27.5371C41.9181 24.3196 29.5039 35.7034 29.5039 53.0385V436.422C29.5039 453.764 41.9322 465.162 56.8419 461.923L184.538 434.41C195.614 432.02 204.39 418.449 204.39 404.037V85.4235C204.362 71.0115 195.586 57.4406 184.538 55.0573Z" fill="url(#paint5_linear)"/>
<path d="M157.67 57.6932L89.9069 43.7088C87.804 43.2742 86.0796 40.9049 86.0796 38.3744C86.0796 35.8649 87.797 34.2036 89.9069 34.6592L157.705 49.2675C159.521 49.66 160.993 51.8541 160.993 54.1743C160.958 56.4945 159.486 58.0647 157.67 57.6932Z" fill="white"/>
<path d="M234.726 346.813C234.726 346.813 230.366 359.29 221.935 365.528C213.503 371.767 213.914 377.255 217.113 379.416C216.812 381.474 217.043 385.597 221.281 385.321C221.281 385.321 220.768 389.456 224.993 390.489C225.505 392.406 227.216 393.759 229.199 393.816C232.815 393.989 242.715 395.74 241.714 392.015C240.714 388.29 234.117 389.45 233.456 386.244C232.796 383.038 238.477 379.704 243.715 384.917C249.447 390.623 252.774 386.911 250.389 383.673C245.632 377.217 250.389 377.601 248.665 371.248C246.574 363.477 252.172 351.852 252.172 351.852L234.726 346.813Z" fill="url(#paint6_linear)"/>
<path d="M292.935 210.507C309.605 203.261 326.615 216.771 316.741 248.444C306.867 280.117 295.884 303.327 288.081 311.431C280.278 319.536 272.187 319.722 266.102 310.091C260.435 301.134 277.951 217.008 292.935 210.507Z" fill="url(#paint7_linear)"/>
<path d="M253.524 306.061C253.524 306.061 262.199 285.018 274.041 285.544C288.993 286.249 291.993 300.694 287.313 311.28C283.28 320.384 261.199 355.597 255.12 365.234C254.125 366.815 252.277 367.644 250.433 367.337C245.349 366.49 235.328 363.656 229.865 354.18C229.075 352.792 229.058 351.095 229.82 349.692L253.524 306.061Z" fill="url(#paint8_linear)"/>
<path d="M253.718 394.111L254.66 398.266C254.697 398.417 254.657 398.577 254.554 398.694C254.45 398.81 254.296 398.868 254.141 398.849L249.903 398.42C249.611 398.386 249.336 398.265 249.114 398.073L222.346 374.351L226.507 369.651L253.282 393.374C253.501 393.567 253.654 393.825 253.718 394.111Z" fill="url(#paint9_linear)"/>
<ellipse cx="224.634" cy="372.18" rx="3.14168" ry="2.50052" transform="rotate(-48.62 224.634 372.18)" fill="url(#paint10_linear)"/>
<path d="M266.376 293.312L268.851 275.731" stroke="white" stroke-width="2" stroke-linecap="round" stroke-linejoin="round"/>
<path d="M288.08 311.432C291.683 307.694 295.959 300.725 300.492 291.204L290.702 243.501C290.702 243.501 297.165 283.452 286.605 312.792C287.123 312.369 287.616 311.915 288.08 311.432Z" fill="#1C505C"/>
<path d="M362.371 159.175C362.371 159.175 359.262 181.224 369.161 194.618C369.161 194.618 346.169 226.676 327.338 194.618C327.338 194.618 331.948 184.731 330.878 162.887L362.371 159.175Z" fill="url(#paint11_linear)"/>
<path d="M369.162 194.618C369.162 194.618 349.632 219.194 327.339 194.618C327.339 194.618 314.087 197.574 297.25 207.159C280.413 216.745 291.383 230.081 295.48 252.348C299.577 274.616 311.586 328.646 293.223 352.51C278.887 371.104 334.719 375.29 379.01 372.559C411.068 370.584 398.463 350.837 394.635 316.246C391.821 290.76 397.989 250.546 403.278 231.228C408.568 211.91 389.397 203.466 369.162 194.618Z" fill="url(#paint12_linear)"/>
<path d="M365.853 274.045C365.853 274.045 353.235 283.97 336.706 274.045C336.706 274.045 321.562 281.393 309.399 277.033L313.759 292.228L365.853 297.915V274.045Z" fill="#1C505C"/>
<path d="M329.005 200.632C329.005 200.632 346.169 221.271 368.411 199.119" stroke="white" stroke-width="2" stroke-linecap="round" stroke-linejoin="round"/>
<path d="M324.062 195.509C324.062 195.509 285.266 207.05 286.612 219.937C288.536 238.018 301.942 284.303 296.229 319.016C288.183 367.744 272.289 375.277 272.289 377.951C272.289 380.625 291.805 387.062 305.065 383.843C318.324 380.625 316.971 392.05 320.837 391.537C324.703 391.024 321.549 332.474 315.413 275.956C313.143 255.041 320.895 240.846 321.703 230.594C324.062 200.388 324.062 195.509 324.062 195.509Z" fill="url(#paint13_linear)"/>
<path d="M371.489 195.618C371.489 195.618 365.411 208.627 355.498 256.067C351.747 274.019 360.288 290.138 360.179 300.101C359.852 331.723 360.012 349.644 360.557 376.104C361.012 398.109 372.835 384.933 388.851 384.767C402.668 384.619 411.375 390.89 414.69 387.331C414.69 387.331 397.507 349.503 397.045 308.366C396.584 267.229 410.292 227.253 406.842 217.091C404.143 209.236 371.489 195.618 371.489 195.618Z" fill="url(#paint14_linear)"/>
<path d="M397.044 308.384C396.589 267.261 410.291 227.271 406.841 217.109C406.687 216.69 406.485 216.289 406.238 215.917C395.255 225.566 366.73 241.659 376.014 295.266C384.003 341.391 399.929 359.055 407.175 366.98C402.488 352.112 397.294 330.735 397.044 308.384Z" fill="#1C505C"/>
<path d="M357.909 105.01C357.909 105.01 368.809 94.6036 379.811 101.329C388.48 106.606 396.231 113.608 413.716 113.608C440.234 113.608 438.503 161.977 404.611 165.907C370.72 169.837 358.57 118.269 357.909 105.01Z" fill="url(#paint15_linear)"/>
<path d="M364.692 100.669C364.692 100.669 365.885 100.156 366.616 99.9382C367.815 99.5792 368.809 99.374 368.809 99.374C368.809 99.374 389.108 107.857 384.011 127.707L364.692 100.669Z" fill="url(#paint16_linear)"/>
<path d="M304.122 120.385C302.564 126.912 305.937 136.914 302.628 149.929C299.461 162.381 304.744 173.274 314.573 180.339C325.845 188.444 351.914 187.7 361.16 162.079C361.16 162.079 379.382 166.086 379.824 150.346C380.395 130.015 362.833 137.215 362.833 137.215C362.833 137.215 366.783 121.43 355.043 110.658C341.598 98.3159 308.162 103.375 304.122 120.385Z" fill="url(#paint17_linear)"/>
<path d="M359.755 146.871C359.755 146.871 323.1 146.512 317.913 117.481C317.913 117.481 314.246 127.329 303.808 129.246C303.808 129.246 297.986 111.396 313.964 105.978C313.964 105.978 324.53 87.5641 351.882 94.604C379.234 101.644 389.159 126.444 382.844 148.493C376.028 172.287 355.575 172.46 355.575 172.46L361.121 162.08C361.121 162.08 376.253 165.196 375.983 149.763C375.836 141.325 370.431 138.068 364.744 140.787C361.269 142.441 359.755 146.871 359.755 146.871Z" fill="url(#paint18_linear)"/>
<path d="M315.703 108.574C315.703 108.574 316.832 125.373 325.487 132.714" stroke="white" stroke-width="2" stroke-linecap="round" stroke-linejoin="round"/>
<path d="M316.241 144.66C316.241 144.66 315.067 147.865 312.631 154.918C311.278 158.823 314.253 158.9 316.831 159.406" stroke="#382824" stroke-width="2" stroke-linecap="round" stroke-linejoin="round"/>
<path d="M370.675 147.41C370.675 147.41 364.904 145.878 363.712 156.438" stroke="#382824" stroke-width="2" stroke-linecap="round" stroke-linejoin="round"/>
<path d="M364.719 151.886C364.719 151.886 367.674 150.257 369.162 152.963" stroke="#382824" stroke-width="2" stroke-linecap="round" stroke-linejoin="round"/>
<path d="M316.447 170.94C316.447 170.94 325.487 175.178 329.007 166.157" stroke="#382824" stroke-width="2" stroke-linecap="round" stroke-linejoin="round"/>
<path d="M391.275 388.453C394.208 388.305 396.752 386.377 397.687 383.593C403.182 367.045 422.461 308.456 422.936 298.96C423.487 287.907 414.934 224.817 406.484 216.943C398.033 209.07 377.375 211.487 381.921 240.858C386.467 270.23 390.07 303.91 390.07 303.91L367.578 374.668C366.73 377.326 367.515 380.235 369.585 382.106C373.06 385.241 379.747 389.088 391.275 388.453Z" fill="url(#paint19_linear)"/>
<path d="M370.996 363.923L390.071 303.936" stroke="white" stroke-width="2" stroke-linecap="round" stroke-linejoin="round"/>
<path d="M198.346 231.917L204.679 266.754C214.566 273.102 223.671 280.592 231.808 289.068C245.937 303.607 248.558 310.555 257.231 308.81C265.903 307.066 268.739 309.59 274.449 308.81C280.159 308.031 281.923 313.429 271.526 314.053C271.526 314.053 268.827 314.335 268.807 315.476C268.788 316.616 285.187 319.519 286.795 321.137C288.403 322.755 286.708 323.778 283.716 323.534C280.725 323.291 272.481 321.585 272.481 321.585C272.481 321.585 286.786 325.551 287.477 326.457C288.169 327.364 288.559 328.923 286.99 329.215C285.421 329.507 270.98 326.847 270.98 326.847C270.98 326.847 282.673 329.878 283.502 330.686C284.33 331.495 284.281 333.201 282.225 333.025C280.169 332.85 267.677 330.443 267.677 330.443C267.677 330.443 278.396 332.811 278.571 334.341C278.746 335.87 278.746 336.553 275.765 336.212C272.783 335.87 256.383 333.054 251.706 330.511C247.029 327.968 240.305 324.119 236.173 322.813C232.042 321.507 187.227 304.63 176.323 289.039C170.019 279.909 166.55 267.475 164.942 256.756C163.081 244.283 161.58 233.837 161.58 233.837L198.346 231.917Z" fill="url(#paint20_linear)"/>
<path d="M201.639 257.292C205.192 255.529 207.1 251.584 206.277 247.704C202.672 230.632 191.3 182.3 177.658 179.678C161.092 176.492 150.374 186.607 153.248 208.697C155.295 224.434 158.715 245.424 160.508 256.201C161.198 260.409 164.848 263.488 169.112 263.46C177.463 263.412 191.242 262.447 201.639 257.292Z" fill="url(#paint21_linear)"/>
<path d="M192.023 266.755C196.118 265.285 200.596 265.285 204.691 266.755" stroke="white" stroke-width="2" stroke-linecap="round" stroke-linejoin="round"/>
<path d="M265.222 313.712C265.222 313.712 264.052 323.213 253.382 323.797" stroke="white" stroke-width="2" stroke-linecap="round" stroke-linejoin="round"/>
<path d="M262.006 327.744L264.511 316.207" stroke="white" stroke-width="2" stroke-linecap="round" stroke-linejoin="round"/>
<path d="M124.794 312.699C124.794 312.699 130.826 393.802 135.026 427.741C139.225 461.681 184.079 464.663 186.476 432.613C188.873 400.564 186.476 303.286 186.476 303.286L124.794 312.699Z" fill="url(#paint22_linear)"/>
<path d="M66.9624 313.479C66.9624 313.479 68.7846 394.776 71.2207 428.891C73.6568 463.007 118.286 468.307 122.349 436.443C126.413 404.579 134.14 306.785 134.14 306.785L66.9624 313.479Z" fill="url(#paint23_linear)"/>
<path d="M52.1131 203.533C41.6184 177.223 87.2708 155.853 126.56 155.844C142.541 155.844 183.078 175.781 184.471 185.165C185.864 194.548 172.563 257.663 187.882 303.871C194.936 325.152 194.644 332.003 174.522 340.899C145.659 353.557 56.8976 354.98 61.1754 328.28C64.089 310.117 80.5082 274.881 52.1131 203.533Z" fill="url(#paint24_linear)"/>
<path d="M101.741 160.931L106.428 119.449H139.812L147.842 160.931C147.842 160.931 142.901 171.903 130.565 172.946C119.145 173.93 101.741 160.931 101.741 160.931Z" fill="url(#paint25_linear)"/>
<path d="M102.961 150.134C99.7979 153.183 96.969 156.56 94.5225 160.209C96.3057 168.599 112.062 187.406 112.062 187.406C112.062 187.406 118.581 176.463 129.651 172.994C129.651 172.994 116.525 172.302 107.161 159.352C102.786 153.116 102.961 150.134 102.961 150.134Z" fill="url(#paint26_linear)"/>
<path d="M131.87 172.84C131.87 172.84 142.375 172.995 151.973 183.812C151.973 183.812 153.483 171.144 153.22 163.349C151.255 158.656 148.75 154.209 145.756 150.096C145.756 150.096 150.443 163.865 131.87 172.84Z" fill="url(#paint27_linear)"/>
<path d="M169.124 240.406L162.127 244.586C160.608 245.492 158.715 245.492 157.196 244.586L150.19 240.406C148.737 239.537 147.849 237.967 147.852 236.274V217.565C147.852 214.912 150.002 212.761 152.656 212.761H166.658C169.313 212.761 171.467 214.91 171.472 217.565V236.293C171.464 237.981 170.573 239.541 169.124 240.406Z" fill="#056482"/>
<circle cx="121.035" cy="317.036" r="3.32283" fill="url(#paint28_linear)"/>
<path d="M157.556 131.63C157.556 131.63 164.952 131.045 166.277 123.522C167.602 116 165.225 111.537 158.715 112.94C152.206 114.343 157.556 131.63 157.556 131.63Z" fill="url(#paint29_linear)"/>
<path d="M104.011 110.212C104.011 110.212 101.819 105.836 96.6053 108.945C88.6734 113.681 91.1193 128.512 100.727 129.048C104.534 139.333 111.053 148.397 119.592 155.279C139.208 171.241 153.132 153.944 158.667 136.21C164.514 117.53 162.146 99.6585 149.702 92.2722C136.889 84.6716 111.485 80.3159 104.011 110.212Z" fill="url(#paint30_linear)"/>
<path d="M106.302 119.362C106.302 119.362 106.925 107.669 99.2273 107.922C99.2273 107.922 97.7072 89.1447 103.515 82.9083C109.323 76.6719 119.671 81.0374 119.671 81.0374C119.671 81.0374 147.676 75.2589 158.541 85.1202C169.406 94.9816 161.25 124.829 161.25 124.829C161.25 124.829 163.677 107.786 154.507 101.179C146.429 95.3324 133.381 96.1509 130.039 100.877C126.697 105.603 115.422 98.7429 113.006 103.937C110.589 109.13 110.482 121.184 110.482 121.184L106.302 119.362Z" fill="url(#paint31_linear)"/>
<path d="M95.8149 115.512C95.8149 115.512 101.74 111.8 101.74 122.684" stroke="#382824" stroke-width="2" stroke-linecap="round" stroke-linejoin="round"/>
<path d="M143.885 125.53C144.859 128.628 145.649 130.188 145.746 132.643C145.892 136.102 140.874 134.592 140.874 134.592" stroke="#382824" stroke-width="2" stroke-linecap="round" stroke-linejoin="round"/>
<path d="M96.333 118.797C96.333 118.797 99.8118 117.316 101.517 119.45" stroke="#382824" stroke-width="2" stroke-linecap="round" stroke-linejoin="round"/>
<path d="M138.683 147.913C138.683 147.913 131.862 148.02 131.862 141.208" stroke="#382824" stroke-width="2" stroke-linecap="round" stroke-linejoin="round"/>
<path d="M92.3177 236.605L98.6418 271.442C108.532 277.797 117.638 285.296 125.77 293.785C139.899 308.324 142.521 315.223 151.193 313.528C159.866 311.832 162.701 314.307 168.412 313.528C174.122 312.748 175.885 318.146 165.488 318.77C165.488 318.77 162.779 319.053 162.77 320.193C162.76 321.333 179.14 324.237 180.758 325.854C182.375 327.472 180.66 328.495 177.669 328.251C174.677 328.008 166.433 326.254 166.433 326.254C166.433 326.254 180.738 330.22 181.43 331.126C182.122 332.032 182.512 333.591 180.943 333.884C179.374 334.176 164.933 331.516 164.933 331.516C164.933 331.516 176.626 334.546 177.454 335.355C178.283 336.164 178.244 337.869 176.188 337.694C174.131 337.518 161.639 335.111 161.639 335.111C161.639 335.111 172.358 337.479 172.524 339.009C172.689 340.539 172.699 341.221 169.717 340.89C166.736 340.558 150.336 337.723 145.658 335.18C140.981 332.636 134.257 328.787 130.126 327.482C125.994 326.176 81.1896 309.299 70.2759 293.708C63.9128 284.597 60.5315 272.182 58.875 261.395C57.0138 248.922 55.5132 238.476 55.5132 238.476L92.3177 236.605Z" fill="url(#paint32_linear)"/>
<path d="M95.6105 261.98C99.1568 260.211 101.06 256.269 100.239 252.391C96.6336 235.319 85.2425 186.987 71.6003 184.366C55.0349 181.179 44.3161 191.294 47.1809 213.385C49.2272 229.122 52.6475 250.111 54.4502 260.888C55.1364 265.095 58.7831 268.175 63.0448 268.148C71.4249 268.099 85.2425 267.135 95.6105 261.98Z" fill="url(#paint33_linear)"/>
<path d="M85.9834 271.443C90.0781 269.973 94.5564 269.973 98.6511 271.443" stroke="white" stroke-width="2" stroke-linecap="round" stroke-linejoin="round"/>
</g>
<defs>
<linearGradient id="paint0_linear" x1="-82.6957" y1="-96.0572" x2="-89.7036" y2="361.966" gradientUnits="userSpaceOnUse">
<stop stop-color="#1F9599"/>
<stop offset="1" stop-color="white"/>
</linearGradient>
<linearGradient id="paint1_linear" x1="181.021" y1="513.001" x2="560.688" y2="513.001" gradientUnits="userSpaceOnUse">
<stop stop-color="#1B345B"/>
<stop offset="1" stop-color="#20B7AF"/>
</linearGradient>
<linearGradient id="paint2_linear" x1="310.196" y1="417.084" x2="552.828" y2="417.084" gradientUnits="userSpaceOnUse">
<stop stop-color="#FFDDBB"/>
<stop offset="1" stop-color="#FF786E"/>
</linearGradient>
<linearGradient id="paint3_linear" x1="-66.8704" y1="-221.033" x2="-95.7833" y2="421.482" gradientUnits="userSpaceOnUse">
<stop stop-color="#6BD0C1"/>
<stop offset="1" stop-color="white"/>
</linearGradient>
<linearGradient id="paint4_linear" x1="-117.594" y1="1246.11" x2="93.6056" y2="1246.11" gradientUnits="userSpaceOnUse">
<stop stop-color="#1B345B"/>
<stop offset="1" stop-color="#20B7AF"/>
</linearGradient>
<linearGradient id="paint5_linear" x1="12.4302" y1="-57.7684" x2="12.4302" y2="462.754" gradientUnits="userSpaceOnUse">
<stop stop-color="#FFE99D"/>
<stop offset="1" stop-color="#FFDB95"/>
</linearGradient>
<linearGradient id="paint6_linear" x1="225.224" y1="321.016" x2="183.659" y2="378.222" gradientUnits="userSpaceOnUse">
<stop stop-color="#FFDDBB"/>
<stop offset="1" stop-color="#FF786E"/>
</linearGradient>
<linearGradient id="paint7_linear" x1="132.377" y1="500.188" x2="370.588" y2="500.188" gradientUnits="userSpaceOnUse">
<stop stop-color="#1B345B"/>
<stop offset="1" stop-color="#20B7AF"/>
</linearGradient>
<linearGradient id="paint8_linear" x1="83.4325" y1="504.894" x2="345.34" y2="504.894" gradientUnits="userSpaceOnUse">
<stop stop-color="#1B345B"/>
<stop offset="1" stop-color="#20B7AF"/>
</linearGradient>
<linearGradient id="paint9_linear" x1="228.662" y1="365.221" x2="218.286" y2="395.602" gradientUnits="userSpaceOnUse">
<stop stop-color="#1B345B"/>
<stop offset="1" stop-color="#20B7AF"/>
</linearGradient>
<linearGradient id="paint10_linear" x1="240.531" y1="372.08" x2="234.141" y2="363.673" gradientUnits="userSpaceOnUse">
<stop stop-color="#1B345B"/>
<stop offset="1" stop-color="#20B7AF"/>
</linearGradient>
<linearGradient id="paint11_linear" x1="367.987" y1="212.929" x2="370.483" y2="164.566" gradientUnits="userSpaceOnUse">
<stop stop-color="#FFDDBB"/>
<stop offset="1" stop-color="#FF786E"/>
</linearGradient>
<linearGradient id="paint12_linear" x1="434.493" y1="438.865" x2="396.524" y2="211.777" gradientUnits="userSpaceOnUse">
<stop stop-color="#1C505C"/>
<stop offset="1" stop-color="#006788"/>
</linearGradient>
<linearGradient id="paint13_linear" x1="146.631" y1="720.813" x2="372.313" y2="720.813" gradientUnits="userSpaceOnUse">
<stop stop-color="#1B345B"/>
<stop offset="1" stop-color="#20B7AF"/>
</linearGradient>
<linearGradient id="paint14_linear" x1="208.571" y1="713.332" x2="470.742" y2="713.332" gradientUnits="userSpaceOnUse">
<stop stop-color="#1B345B"/>
<stop offset="1" stop-color="#20B7AF"/>
</linearGradient>
<linearGradient id="paint15_linear" x1="435.84" y1="136.581" x2="435.84" y2="62.5755" gradientUnits="userSpaceOnUse">
<stop stop-color="#1B4F5B"/>
<stop offset="1" stop-color="#20B7AF"/>
</linearGradient>
<linearGradient id="paint16_linear" x1="382.729" y1="98.224" x2="362.431" y2="99.7714" gradientUnits="userSpaceOnUse">
<stop stop-color="#FFBB00"/>
<stop offset="1" stop-color="#FFFF95"/>
</linearGradient>
<linearGradient id="paint17_linear" x1="408.845" y1="215.167" x2="435.955" y2="55.0134" gradientUnits="userSpaceOnUse">
<stop stop-color="#FFDDBB"/>
<stop offset="1" stop-color="#FF786E"/>
</linearGradient>
<linearGradient id="paint18_linear" x1="388.922" y1="137.456" x2="388.922" y2="49.7584" gradientUnits="userSpaceOnUse">
<stop stop-color="#1B4F5B"/>
<stop offset="1" stop-color="#20B7AF"/>
</linearGradient>
<linearGradient id="paint19_linear" x1="232.006" y1="683.174" x2="474.889" y2="683.174" gradientUnits="userSpaceOnUse">
<stop stop-color="#1B345B"/>
<stop offset="1" stop-color="#20B7AF"/>
</linearGradient>
<linearGradient id="paint20_linear" x1="194.241" y1="172.817" x2="76.7489" y2="331.075" gradientUnits="userSpaceOnUse">
<stop stop-color="#FFDDBB"/>
<stop offset="1" stop-color="#FF786E"/>
</linearGradient>
<linearGradient id="paint21_linear" x1="249.341" y1="400.767" x2="249.341" y2="181.614" gradientUnits="userSpaceOnUse">
<stop stop-color="#1F8A92"/>
<stop offset="1" stop-color="white"/>
</linearGradient>
<linearGradient id="paint22_linear" x1="134.211" y1="461.943" x2="202.713" y2="461.943" gradientUnits="userSpaceOnUse">
<stop stop-color="#311B23"/>
<stop offset="1" stop-color="#880000"/>
</linearGradient>
<linearGradient id="paint23_linear" x1="77.0448" y1="464.536" x2="150.383" y2="464.536" gradientUnits="userSpaceOnUse">
<stop stop-color="#311B23"/>
<stop offset="1" stop-color="#880000"/>
</linearGradient>
<linearGradient id="paint24_linear" x1="305.051" y1="665.114" x2="305.051" y2="161.612" gradientUnits="userSpaceOnUse">
<stop stop-color="#1F8A92"/>
<stop offset="1" stop-color="white"/>
</linearGradient>
<linearGradient id="paint25_linear" x1="132.557" y1="189.255" x2="147.607" y2="150.027" gradientUnits="userSpaceOnUse">
<stop stop-color="#FFDDBB"/>
<stop offset="1" stop-color="#FF786E"/>
</linearGradient>
<linearGradient id="paint26_linear" x1="131.472" y1="170.987" x2="131.472" y2="129.85" gradientUnits="userSpaceOnUse">
<stop stop-color="#1B4F5B"/>
<stop offset="1" stop-color="#20B7AF"/>
</linearGradient>
<linearGradient id="paint27_linear" x1="154.359" y1="168.959" x2="154.359" y2="131.748" gradientUnits="userSpaceOnUse">
<stop stop-color="#1B4F5B"/>
<stop offset="1" stop-color="#20B7AF"/>
</linearGradient>
<linearGradient id="paint28_linear" x1="166.395" y1="272.923" x2="78.1697" y2="272.923" gradientUnits="userSpaceOnUse">
<stop stop-color="#1B345B"/>
<stop offset="1" stop-color="#20B7AF"/>
</linearGradient>
<linearGradient id="paint29_linear" x1="185.875" y1="99.0595" x2="157.668" y2="98.7359" gradientUnits="userSpaceOnUse">
<stop stop-color="#FFDDBB"/>
<stop offset="1" stop-color="#FF786E"/>
</linearGradient>
<linearGradient id="paint30_linear" x1="194.486" y1="187.182" x2="194.486" y2="42.001" gradientUnits="userSpaceOnUse">
<stop stop-color="#FFDDBB"/>
<stop offset="1" stop-color="#FF786E"/>
</linearGradient>
<linearGradient id="paint31_linear" x1="167.565" y1="104.796" x2="167.565" y2="54.6085" gradientUnits="userSpaceOnUse">
<stop stop-color="#1B4F5B"/>
<stop offset="1" stop-color="#20B7AF"/>
</linearGradient>
<linearGradient id="paint32_linear" x1="88.1793" y1="177.522" x2="-29.2627" y2="335.804" gradientUnits="userSpaceOnUse">
<stop stop-color="#FFDDBB"/>
<stop offset="1" stop-color="#FF786E"/>
</linearGradient>
<linearGradient id="paint33_linear" x1="143.323" y1="405.454" x2="143.323" y2="186.302" gradientUnits="userSpaceOnUse">
<stop stop-color="#1F8A92"/>
<stop offset="1" stop-color="white"/>
</linearGradient>
</defs>
</svg>
