<svg width="64" height="64" viewBox="0 0 64 64" fill="none" xmlns="http://www.w3.org/2000/svg">
<rect width="64" height="64" rx="16" fill="#F8B6DD"/>
<mask id="mask0" mask-type="alpha" maskUnits="userSpaceOnUse" x="0" y="0" width="64" height="64">
<rect width="64" height="64" rx="16" fill="#F2F8F7"/>
</mask>
<g mask="url(#mask0)">
<rect x="-9" y="13" width="157" height="162" rx="16" fill="#C14076"/>
<rect x="31" y="-27" width="157" height="162" rx="16" fill="#8D2061"/>
</g>
<rect x="24" y="24" width="32" height="32" rx="8" fill="#D6FAE5"/>
<path d="M39.9997 33.3333C38.6811 33.3333 37.3922 33.7242 36.2959 34.4568C35.1995 35.1893 34.3451 36.2305 33.8405 37.4487C33.3359 38.6669 33.2039 40.0073 33.4611 41.3005C33.7183 42.5937 34.3533 43.7816 35.2856 44.714C36.218 45.6463 37.4059 46.2813 38.6991 46.5385C39.9923 46.7957 41.3327 46.6637 42.5509 46.1591C43.7691 45.6545 44.8103 44.8 45.5428 43.7037C46.2753 42.6074 46.6663 41.3185 46.6663 39.9999C46.6663 39.1244 46.4939 38.2575 46.1589 37.4487C45.8238 36.6399 45.3328 35.9049 44.7137 35.2859C44.0947 34.6668 43.3597 34.1758 42.5509 33.8407C41.7421 33.5057 40.8752 33.3333 39.9997 33.3333ZM42.8663 38.4066L39.8197 42.4066C39.7576 42.4873 39.6778 42.5526 39.5865 42.5977C39.4952 42.6428 39.3948 42.6663 39.293 42.6666C39.1917 42.6671 39.0917 42.6446 39.0004 42.6007C38.9092 42.5568 38.8291 42.4927 38.7663 42.4133L37.1397 40.3399C37.0858 40.2708 37.0461 40.1917 37.0229 40.1072C36.9996 40.0227 36.9932 39.9344 37.004 39.8474C37.0149 39.7604 37.0427 39.6765 37.086 39.6002C37.1293 39.524 37.1872 39.4571 37.2563 39.4033C37.396 39.2945 37.5732 39.2457 37.7488 39.2676C37.8358 39.2784 37.9198 39.3063 37.996 39.3496C38.0722 39.3929 38.1392 39.4508 38.193 39.5199L39.2797 40.9066L41.7997 37.5733C41.8531 37.5032 41.9198 37.4444 41.9959 37.4001C42.072 37.3558 42.1562 37.327 42.2434 37.3152C42.3307 37.3035 42.4195 37.309 42.5046 37.3316C42.5898 37.3541 42.6696 37.3932 42.7397 37.4466C42.8097 37.5 42.8685 37.5667 42.9128 37.6428C42.9571 37.7189 42.9859 37.8031 42.9977 37.8904C43.0095 37.9776 43.0039 38.0664 42.9814 38.1515C42.9588 38.2367 42.9197 38.3165 42.8663 38.3866V38.4066Z" fill="#33966A"/>
</svg>
