<svg width="64" height="64" viewBox="0 0 64 64" fill="none" xmlns="http://www.w3.org/2000/svg">
<rect width="64" height="64" rx="16" fill="#DDEAFE"/>
<mask id="mask0" mask-type="alpha" maskUnits="userSpaceOnUse" x="0" y="0" width="64" height="64">
<rect width="64" height="64" rx="16" fill="#59D39A"/>
</mask>
<g mask="url(#mask0)">
<rect x="-59" y="33" width="157" height="162" rx="16" fill="#4A85F6"/>
<rect x="39" y="2" width="157" height="162" rx="16" fill="#6CA7FA"/>
</g>
<rect x="24" y="24" width="32" height="32" rx="8" fill="#F5F6FA"/>
<path d="M39.9997 33.3334C38.6811 33.3334 37.3922 33.7244 36.2959 34.4569C35.1995 35.1895 34.3451 36.2306 33.8405 37.4488C33.3359 38.667 33.2039 40.0074 33.4611 41.3006C33.7183 42.5938 34.3533 43.7817 35.2856 44.7141C36.218 45.6464 37.4059 46.2814 38.6991 46.5386C39.9923 46.7958 41.3327 46.6638 42.5509 46.1592C43.7691 45.6547 44.8103 44.8002 45.5428 43.7038C46.2753 42.6075 46.6663 41.3186 46.6663 40C46.6663 39.1246 46.4939 38.2577 46.1589 37.4488C45.8238 36.64 45.3328 35.9051 44.7137 35.286C44.0947 34.6669 43.3597 34.1759 42.5509 33.8408C41.7421 33.5058 40.8752 33.3334 39.9997 33.3334ZM42.8663 38.4067L39.8197 42.4067C39.7576 42.4874 39.6778 42.5528 39.5865 42.5978C39.4952 42.6429 39.3948 42.6665 39.293 42.6667C39.1917 42.6673 39.0917 42.6447 39.0004 42.6008C38.9092 42.5569 38.8291 42.4928 38.7663 42.4134L37.1397 40.34C37.0858 40.2709 37.0461 40.1918 37.0229 40.1073C36.9996 40.0228 36.9932 39.9345 37.004 39.8475C37.0149 39.7606 37.0427 39.6766 37.086 39.6004C37.1293 39.5242 37.1872 39.4572 37.2563 39.4034C37.396 39.2946 37.5732 39.2458 37.7488 39.2677C37.8358 39.2786 37.9198 39.3064 37.996 39.3497C38.0722 39.393 38.1392 39.4509 38.193 39.52L39.2797 40.9067L41.7997 37.5734C41.8531 37.5033 41.9198 37.4445 41.9959 37.4002C42.072 37.356 42.1562 37.3271 42.2434 37.3154C42.3307 37.3036 42.4195 37.3091 42.5046 37.3317C42.5898 37.3542 42.6696 37.3933 42.7397 37.4467C42.8097 37.5001 42.8685 37.5668 42.9128 37.6429C42.9571 37.7191 42.9859 37.8032 42.9977 37.8905C43.0095 37.9778 43.0039 38.0665 42.9814 38.1517C42.9588 38.2368 42.9197 38.3167 42.8663 38.3867V38.4067Z" fill="#67797D"/>
</svg>
