<svg xmlns="http://www.w3.org/2000/svg" width="16" height="16" viewBox="0 0 16 16"><path id="hashtag_icon" data-name="hashtag_icon" d="M168.893,2866.69a0.83,0.83,0,0,1-.825.72l-2.355.17-0.52,4.21,2.661-.18a0.644,0.644,0,0,1,.722.67l-0.106,1.43a0.847,0.847,0,0,1-.824.73l-2.8.19-0.317,2.57a0.845,0.845,0,0,1-.752.8H162.4a0.661,0.661,0,0,1-.588-0.8l0.293-2.37-3.694.26-0.26,2.11a0.847,0.847,0,0,1-.753.8h-1.377a0.66,0.66,0,0,1-.587-0.8l0.237-1.92-1.944.14a0.656,0.656,0,0,1-.722-0.68l0.106-1.43a0.831,0.831,0,0,1,.825-0.72l2.086-.15,0.52-4.22-2.392.17a0.644,0.644,0,0,1-.722-0.67l0.106-1.43a0.847,0.847,0,0,1,.824-0.73l2.535-.18,0.319-2.58a0.846,0.846,0,0,1,.752-0.8h1.377a0.661,0.661,0,0,1,.588.8l-0.3,2.39,3.693-.26,0.263-2.13a0.847,0.847,0,0,1,.753-0.8h1.377a0.66,0.66,0,0,1,.587.8l-0.239,1.94,2.213-.16a0.656,0.656,0,0,1,.722.68Zm-9.614,1.34-0.521,4.22,3.694-.26,0.521-4.22Z" transform="translate(-153 -2862)" fill="#fff" fill-rule="evenodd"/></svg>
