<svg xmlns="http://www.w3.org/2000/svg" width="16" height="16" viewBox="0 0 16 16">
  <defs>
    <style>
      .cls-1 {
        fill: #fff;
        fill-rule: evenodd;
      }
    </style>
  </defs>
  <path id="plus" class="cls-1" d="M57.664,517A0.334,0.334,0,0,0,58,516.659V511h5.664A0.334,0.334,0,0,0,64,510.659v-3.328A0.333,0.333,0,0,0,63.664,507H58v-5.664A0.333,0.333,0,0,0,57.664,501H54.336a0.333,0.333,0,0,0-.336.336V507H48.336a0.333,0.333,0,0,0-.336.336v3.328a0.334,0.334,0,0,0,.336.336H54v5.664a0.334,0.334,0,0,0,.336.336h3.328Z" transform="translate(-48 -501)"/>
</svg>
