<svg width="20" height="20" viewBox="0 0 20 20" fill="none" xmlns="http://www.w3.org/2000/svg">
<path d="M15.833 2.5H5.83301C5.16997 2.5 4.53408 2.76339 4.06524 3.23223C3.5964 3.70107 3.33301 4.33696 3.33301 5V15C3.33301 15.663 3.5964 16.2989 4.06524 16.7678C4.53408 17.2366 5.16997 17.5 5.83301 17.5H15.833C16.054 17.5 16.266 17.4122 16.4223 17.2559C16.5785 17.0996 16.6663 16.8877 16.6663 16.6667V3.33333C16.6663 3.11232 16.5785 2.90036 16.4223 2.74408C16.266 2.5878 16.054 2.5 15.833 2.5ZM5.83301 4.16667H14.9997V12.5H5.83301C5.54872 12.5023 5.2669 12.553 4.99967 12.65V5C4.99967 4.77899 5.08747 4.56702 5.24375 4.41074C5.40003 4.25446 5.61199 4.16667 5.83301 4.16667ZM5.83301 15.8333C5.61199 15.8333 5.40003 15.7455 5.24375 15.5893C5.08747 15.433 4.99967 15.221 4.99967 15C4.99967 14.779 5.08747 14.567 5.24375 14.4107C5.40003 14.2545 5.61199 14.1667 5.83301 14.1667H14.9997V15.8333H5.83301Z" fill="#A5A5A5"/>
</svg>
