<svg width="20" height="20" viewBox="0 0 20 20" fill="none" xmlns="http://www.w3.org/2000/svg">
<path fill-rule="evenodd" clip-rule="evenodd" d="M9.99967 2.49992C5.85754 2.49992 2.49967 5.85778 2.49967 9.99992C2.49967 14.1421 5.85754 17.4999 9.99967 17.4999C14.1418 17.4999 17.4997 14.1421 17.4997 9.99992C17.4997 5.85778 14.1418 2.49992 9.99967 2.49992ZM0.833008 9.99992C0.833008 4.93731 4.93706 0.833252 9.99967 0.833252C15.0623 0.833252 19.1663 4.93731 19.1663 9.99992C19.1663 15.0625 15.0623 19.1666 9.99967 19.1666C4.93706 19.1666 0.833008 15.0625 0.833008 9.99992Z" fill="#A5A5A5"/>
<path fill-rule="evenodd" clip-rule="evenodd" d="M9.99967 4.16658C10.4599 4.16658 10.833 4.53968 10.833 4.99992V9.48489L13.7057 10.9212C14.1173 11.1271 14.2842 11.6276 14.0784 12.0393C13.8725 12.4509 13.372 12.6178 12.9603 12.4119L9.627 10.7453C9.34468 10.6041 9.16634 10.3156 9.16634 9.99992V4.99992C9.16634 4.53968 9.53944 4.16658 9.99967 4.16658Z" fill="#A5A5A5"/>
</svg>
