<svg width="40" height="40" viewBox="0 0 40 40" fill="none" xmlns="http://www.w3.org/2000/svg">
<rect width="40" height="40" rx="12" fill="url(#paint0_linear)"/>
<mask id="mask0" mask-type="alpha" maskUnits="userSpaceOnUse" x="0" y="0" width="40" height="40">
<rect width="40" height="40" rx="12" fill="#F38224"/>
</mask>
<g mask="url(#mask0)">
<circle cx="9" cy="9" r="16" fill="white" fill-opacity="0.2"/>
<circle cx="27" cy="27" r="5" fill="white" fill-opacity="0.2"/>
</g>
<path d="M17 19C17.7911 19 18.5645 18.7654 19.2223 18.3259C19.8801 17.8864 20.3928 17.2616 20.6955 16.5307C20.9983 15.7998 21.0775 14.9956 20.9231 14.2196C20.7688 13.4437 20.3878 12.731 19.8284 12.1716C19.269 11.6122 18.5563 11.2312 17.7804 11.0769C17.0044 10.9225 16.2002 11.0017 15.4693 11.3045C14.7384 11.6072 14.1136 12.1199 13.6741 12.7777C13.2346 13.4355 13 14.2089 13 15C13 16.0609 13.4214 17.0783 14.1716 17.8284C14.9217 18.5786 15.9391 19 17 19Z" fill="white"/>
<path d="M25 21C25.5933 21 26.1734 20.8241 26.6667 20.4944C27.1601 20.1648 27.5446 19.6962 27.7716 19.1481C27.9987 18.5999 28.0581 17.9967 27.9424 17.4147C27.8266 16.8328 27.5409 16.2982 27.1213 15.8787C26.7018 15.4591 26.1672 15.1734 25.5853 15.0576C25.0033 14.9419 24.4001 15.0013 23.8519 15.2284C23.3038 15.4554 22.8352 15.8399 22.5056 16.3333C22.1759 16.8266 22 17.4067 22 18C22 18.7957 22.3161 19.5587 22.8787 20.1213C23.4413 20.6839 24.2044 21 25 21Z" fill="white"/>
<path d="M29 28.0001C29.2652 28.0001 29.5196 27.8947 29.7071 27.7072C29.8946 27.5196 30 27.2653 30 27.0001C29.9992 26.0655 29.7365 25.1498 29.2416 24.3569C28.7468 23.5641 28.0396 22.9258 27.2003 22.5145C26.3611 22.1032 25.4234 21.9354 24.4936 22.0301C23.5638 22.1247 22.6791 22.4781 21.94 23.0501C20.9605 22.0744 19.7141 21.4106 18.3578 21.1425C17.0016 20.8743 15.5963 21.0137 14.3192 21.5432C13.0421 22.0726 11.9504 22.9684 11.1817 24.1175C10.4131 25.2666 10.0019 26.6176 10 28.0001C10 28.2653 10.1054 28.5196 10.2929 28.7072C10.4804 28.8947 10.7348 29.0001 11 29.0001H23C23.2652 29.0001 23.5196 28.8947 23.7071 28.7072C23.8946 28.5196 24 28.2653 24 28.0001" fill="white"/>
<defs>
<linearGradient id="paint0_linear" x1="0" y1="0" x2="40" y2="40" gradientUnits="userSpaceOnUse">
<stop stop-color="#BFF3CC"/>
<stop offset="1" stop-color="#219E40"/>
</linearGradient>
</defs>
</svg>
