<svg width="20" height="21" viewBox="0 0 20 21" fill="none" xmlns="http://www.w3.org/2000/svg">
<path d="M11.6663 2.16675H4.99967C4.55765 2.16675 4.13372 2.34234 3.82116 2.6549C3.5086 2.96746 3.33301 3.39139 3.33301 3.83341V17.1667C3.33301 17.6088 3.5086 18.0327 3.82116 18.3453C4.13372 18.6578 4.55765 18.8334 4.99967 18.8334H14.9997C15.4417 18.8334 15.8656 18.6578 16.1782 18.3453C16.4907 18.0327 16.6663 17.6088 16.6663 17.1667V7.16675L11.6663 2.16675Z" stroke="#A5A5A5" stroke-width="2" stroke-linecap="round" stroke-linejoin="round"/>
<path d="M11.667 2.16675V7.16675H16.667" stroke="#A5A5A5" stroke-width="2" stroke-linecap="round" stroke-linejoin="round"/>
<path d="M13.3337 11.3333H6.66699" stroke="#A5A5A5" stroke-width="2" stroke-linecap="round" stroke-linejoin="round"/>
<path d="M13.3337 14.6667H6.66699" stroke="#A5A5A5" stroke-width="2" stroke-linecap="round" stroke-linejoin="round"/>
<path d="M8.33366 8H7.50033H6.66699" stroke="#A5A5A5" stroke-width="2" stroke-linecap="round" stroke-linejoin="round"/>
</svg>
