<svg width="24" height="29" viewBox="0 0 24 29" fill="none" xmlns="http://www.w3.org/2000/svg">
<path d="M18 13C18 11.4087 17.3679 9.88258 16.2426 8.75736C15.1174 7.63214 13.5913 7 12 7C10.4087 7 8.88258 7.63214 7.75736 8.75736C6.63214 9.88258 6 11.4087 6 13C6 20 3 22 3 22H21C21 22 18 20 18 13Z" stroke="#666666" stroke-width="2" stroke-linecap="round" stroke-linejoin="round"/>
<path d="M13.73 26C13.5542 26.3031 13.3018 26.5547 12.9982 26.7295C12.6946 26.9044 12.3504 26.9965 12 26.9965C11.6496 26.9965 11.3054 26.9044 11.0018 26.7295C10.6981 26.5547 10.4458 26.3031 10.27 26" stroke="#666666" stroke-width="2" stroke-linecap="round" stroke-linejoin="round"/>
<circle cx="18" cy="6" r="5" fill="#D41886" stroke="#FAFAFA" stroke-width="2"/>
</svg>
