<svg width="28" height="28" viewBox="0 0 28 28" fill="none" xmlns="http://www.w3.org/2000/svg">
<circle cx="14" cy="14" r="14" fill="#F38224"/>
<path d="M13.172 22C13.0877 21.9999 13.004 21.9851 12.9247 21.9564C12.7718 21.9004 12.6421 21.7947 12.5564 21.6562C12.4707 21.5178 12.4339 21.3546 12.452 21.1927L13.012 16.0364H8.72837C8.59624 16.0366 8.46656 16.0008 8.35325 15.9328C8.23994 15.8649 8.14728 15.7674 8.08522 15.6507C8.02316 15.5341 7.99405 15.4027 8.00101 15.2708C8.00797 15.1389 8.05074 15.0113 8.12473 14.9018L13.8629 6.32007C13.9536 6.18577 14.0867 6.08564 14.2408 6.03557C14.395 5.9855 14.5614 5.98836 14.7138 6.04371C14.8603 6.09808 14.9853 6.19817 15.0704 6.32915C15.1556 6.46014 15.1963 6.61506 15.1865 6.77098L14.6265 11.9637H18.9101C19.0423 11.9635 19.1719 11.9993 19.2853 12.0672C19.3986 12.1352 19.4912 12.2327 19.5533 12.3493C19.6153 12.466 19.6445 12.5973 19.6375 12.7293C19.6305 12.8612 19.5878 12.9888 19.5138 13.0982L13.7756 21.68C13.7089 21.7787 13.619 21.8595 13.5137 21.9153C13.4085 21.9711 13.2911 22.0002 13.172 22Z" fill="white"/>
</svg>
