<svg width="40" height="40" viewBox="0 0 40 40" fill="none" xmlns="http://www.w3.org/2000/svg"><rect width="40" height="40" rx="12" fill="url(#a)"/><mask id="b" maskUnits="userSpaceOnUse" x="0" y="0" width="40" height="40"><rect width="40" height="40" rx="12" fill="#F38224"/></mask><g mask="url(#b)" fill="#fff" fill-opacity=".2"><circle cx="9" cy="9" r="16"/><circle cx="27" cy="27" r="5"/></g><path d="M19.11 31a.998.998 0 0 1-.99-1.11l.77-7.09H13a1 1 0 0 1-.83-1.56l7.89-11.8a1 1 0 0 1 1.17-.38 1 1 0 0 1 .65 1l-.77 7.14H27a.999.999 0 0 1 .83 1.56l-7.89 11.8a1 1 0 0 1-.83.44z" fill="#fff"/><defs><linearGradient id="a" x2="40" y2="40" gradientUnits="userSpaceOnUse"><stop stop-color="#D6C3F4"/><stop offset="1" stop-color="#2F80ED"/></linearGradient></defs></svg>