<svg width="40" height="40" viewBox="0 0 40 40" fill="none" xmlns="http://www.w3.org/2000/svg"><rect width="40" height="40" rx="12" fill="url(#a)"/><mask id="b" maskUnits="userSpaceOnUse" x="0" y="0" width="40" height="40"><rect width="40" height="40" rx="12" fill="#F38224"/></mask><g mask="url(#b)" fill="#fff" fill-opacity=".2"><circle cx="9" cy="9" r="16"/><circle cx="27" cy="27" r="5"/></g><path d="M17 19a4 4 0 1 0 0-8 4 4 0 0 0 0 8zm8 2a3 3 0 1 0 0-5.999A3 3 0 0 0 25 21zm4 7a1 1 0 0 0 1-1 5 5 0 0 0-8.06-3.95A6.999 6.999 0 0 0 10 28a1 1 0 0 0 1 1h12a1 1 0 0 0 1-1" fill="#fff"/><defs><linearGradient id="a" x2="40" y2="40" gradientUnits="userSpaceOnUse"><stop stop-color="#BFF3CC"/><stop offset="1" stop-color="#219E40"/></linearGradient></defs></svg>