<svg width="74" height="74" viewBox="0 0 74 74" fill="none" xmlns="http://www.w3.org/2000/svg">
<rect width="74" height="74" fill="white"/>
<rect x="12" y="12" width="50" height="50" rx="12" fill="url(#paint0_linear)"/>
<mask id="mask0" mask-type="alpha" maskUnits="userSpaceOnUse" x="12" y="12" width="50" height="50">
<rect x="12" y="12" width="50" height="50" rx="12" fill="#F38224"/>
</mask>
<g mask="url(#mask0)">
<circle cx="23.25" cy="23.25" r="20" fill="white" fill-opacity="0.2"/>
<circle cx="45.75" cy="45.75" r="6.25" fill="white" fill-opacity="0.2"/>
</g>
<path d="M33.25 35.75C34.2389 35.75 35.2056 35.4568 36.0279 34.9074C36.8501 34.3579 37.491 33.5771 37.8694 32.6634C38.2478 31.7498 38.3469 30.7445 38.1539 29.7746C37.961 28.8046 37.4848 27.9137 36.7855 27.2145C36.0863 26.5152 35.1954 26.039 34.2255 25.8461C33.2555 25.6531 32.2502 25.7522 31.3366 26.1306C30.423 26.509 29.6421 27.1499 29.0927 27.9722C28.5432 28.7944 28.25 29.7611 28.25 30.75C28.25 32.0761 28.7768 33.3479 29.7145 34.2855C30.6521 35.2232 31.9239 35.75 33.25 35.75Z" fill="white"/>
<path d="M43.25 38.25C43.9917 38.25 44.7167 38.0301 45.3334 37.618C45.9501 37.206 46.4307 36.6203 46.7146 35.9351C46.9984 35.2498 47.0726 34.4958 46.9279 33.7684C46.7833 33.041 46.4261 32.3728 45.9017 31.8484C45.3772 31.3239 44.709 30.9668 43.9816 30.8221C43.2542 30.6774 42.5002 30.7516 41.8149 31.0355C41.1297 31.3193 40.544 31.7999 40.132 32.4166C39.7199 33.0333 39.5 33.7583 39.5 34.5C39.5 35.4946 39.8951 36.4484 40.5983 37.1517C41.3016 37.8549 42.2554 38.25 43.25 38.25Z" fill="white"/>
<path d="M48.25 47.0001C48.5815 47.0001 48.8995 46.8684 49.1339 46.634C49.3683 46.3996 49.5 46.0817 49.5 45.7501C49.499 44.5819 49.1706 43.4373 48.552 42.4462C47.9334 41.4552 47.0495 40.6573 46.0004 40.1432C44.9514 39.6291 43.7792 39.4193 42.617 39.5376C41.4547 39.656 40.3489 40.0977 39.425 40.8126C38.2006 39.5931 36.6426 38.7634 34.9473 38.4282C33.252 38.0929 31.4954 38.2672 29.899 38.929C28.3027 39.5909 26.938 40.7106 25.9772 42.1469C25.0163 43.5833 24.5023 45.272 24.5 47.0001C24.5 47.3317 24.6317 47.6496 24.8661 47.884C25.1005 48.1184 25.4185 48.2501 25.75 48.2501H40.75C41.0815 48.2501 41.3995 48.1184 41.6339 47.884C41.8683 47.6496 42 47.3317 42 47.0001" fill="white"/>
<defs>
<linearGradient id="paint0_linear" x1="12" y1="12" x2="62" y2="62" gradientUnits="userSpaceOnUse">
<stop stop-color="#BFF3CC"/>
<stop offset="1" stop-color="#219E40"/>
</linearGradient>
</defs>
</svg>
