<svg width="40" height="40" viewBox="0 0 40 40" fill="none" xmlns="http://www.w3.org/2000/svg"><rect width="40" height="40" rx="12" fill="url(#a)"/><mask id="b" maskUnits="userSpaceOnUse" x="0" y="0" width="40" height="40"><rect width="40" height="40" rx="12" fill="#F38224"/></mask><g mask="url(#b)" fill="#fff" fill-opacity=".2"><circle cx="9" cy="9" r="16"/><circle cx="27" cy="27" r="5"/></g><path fill-rule="evenodd" clip-rule="evenodd" d="M28.477 11.983c.187.04.363.122.513.242a1.25 1.25 0 0 1 .5.98v11.68a1.25 1.25 0 0 1-.94 1.22l-7.56 1.94v-14.27l6.92-1.78a1.24 1.24 0 0 1 .567-.012zm-16.427.012l6.94 1.78v14.27l-7.54-1.95a1.25 1.25 0 0 1-.94-1.21v-11.66a1.248 1.248 0 0 1 1.54-1.23z" fill="#fff"/><defs><linearGradient id="a" x2="40" y2="40" gradientUnits="userSpaceOnUse"><stop stop-color="#FFCA06"/><stop offset="1" stop-color="#F38224"/></linearGradient></defs></svg>