<svg width="38" height="28" viewBox="0 0 38 28" fill="none" xmlns="http://www.w3.org/2000/svg"><circle cx="26" cy="14" r="12" fill="#FFCA06"/><path d="M31 8h-8a2 2 0 0 0-2 2v8a2 2 0 0 0 2 2h8a.666.666 0 0 0 .667-.667V8.667A.667.667 0 0 0 31 8zm-8 10.667a.667.667 0 0 1 0-1.334h7.333v1.334H23z" fill="#fff"/><circle cx="14" cy="14" r="13" fill="#FFCA06" stroke="#fff" stroke-width="2"/><path d="M19 8h-8a2 2 0 0 0-2 2v8a2 2 0 0 0 2 2h8a.666.666 0 0 0 .667-.667V8.667A.667.667 0 0 0 19 8zm-8 10.667a.667.667 0 0 1 0-1.334h7.333v1.334H11z" fill="#fff"/></svg>