<svg width="38" height="28" viewBox="0 0 38 28" fill="none" xmlns="http://www.w3.org/2000/svg"><circle cx="26" cy="14" r="12" fill="#F38224"/><path d="M25.29 20.857a.623.623 0 0 1-.617-.692l.48-4.42h-3.671a.623.623 0 0 1-.518-.972l4.919-7.356a.623.623 0 0 1 1.035.008.623.623 0 0 1 .1.379l-.48 4.45h3.671a.624.624 0 0 1 .517.973l-4.918 7.356a.624.624 0 0 1-.517.274z" fill="#fff"/><circle cx="14" cy="14" r="13" fill="#F38224" stroke="#fff" stroke-width="2"/><path d="M13.29 20.857a.623.623 0 0 1-.617-.692l.48-4.42H9.482a.623.623 0 0 1-.518-.972l4.919-7.356a.623.623 0 0 1 1.035.008.623.623 0 0 1 .1.379l-.48 4.45h3.671a.624.624 0 0 1 .517.973l-4.918 7.356a.624.624 0 0 1-.518.274z" fill="#fff"/></svg>