<svg width="25" height="24" viewBox="0 0 25 24" fill="none" xmlns="http://www.w3.org/2000/svg"><path d="M10.938 16.5a6.385 6.385 0 0 0 4.419-1.757 5.881 5.881 0 0 0 1.83-4.243 5.88 5.88 0 0 0-1.83-4.243 6.385 6.385 0 0 0-4.42-1.757 6.385 6.385 0 0 0-4.419 1.757 5.88 5.88 0 0 0-1.83 4.243c0 1.591.658 3.117 1.83 4.243a6.385 6.385 0 0 0 4.42 1.757zm6.583-1.094l3.729 3.58a1 1 0 0 1 .233.325.965.965 0 0 1-.221 1.101 1.081 1.081 0 0 1-1.148.21 1.044 1.044 0 0 1-.338-.223l-3.73-3.58a8.58 8.58 0 0 1-5.891 1.645c-2.11-.19-4.066-1.147-5.468-2.673a7.81 7.81 0 0 1-2.08-5.542c.067-2.034.938-3.967 2.437-5.406a8.503 8.503 0 0 1 5.632-2.34A8.545 8.545 0 0 1 16.449 4.5c1.59 1.346 2.586 3.223 2.784 5.249a7.775 7.775 0 0 1-1.713 5.656v.001z" fill="#666"/></svg>