<svg width="40" height="40" viewBox="0 0 40 40" fill="none" xmlns="http://www.w3.org/2000/svg">
<rect width="40" height="40" rx="12" fill="url(#paint0_linear)"/>
<mask id="mask0" mask-type="alpha" maskUnits="userSpaceOnUse" x="0" y="0" width="40" height="40">
<rect width="40" height="40" rx="12" fill="#F38224"/>
</mask>
<g mask="url(#mask0)">
<circle cx="9" cy="9" r="16" fill="white" fill-opacity="0.2"/>
<circle cx="27" cy="27" r="5" fill="white" fill-opacity="0.2"/>
</g>
<path fill-rule="evenodd" clip-rule="evenodd" d="M10 12C10 10.8954 10.8954 10 12 10H24C25.1046 10 26 10.8954 26 12V17H30C31.1046 17 32 17.8954 32 19V28C32 29.1046 31.1046 30 30 30H25C24.8273 30 24.6598 29.9781 24.5 29.937C24.3402 29.9781 24.1727 30 24 30H12C10.8954 30 10 29.1046 10 28V12ZM23 26C23 25.4477 22.5523 25 22 25H13C12.4477 25 12 25.4477 12 26C12 26.5523 12.4477 27 13 27H22C22.5523 27 23 26.5523 23 26ZM23 22C23 21.4477 22.5523 21 22 21H13C12.4477 21 12 21.4477 12 22C12 22.5523 12.4477 23 13 23H22C22.5523 23 23 22.5523 23 22ZM12 14C12 13.4477 12.4477 13 13 13H15C15.5523 13 16 13.4477 16 14V18C16 18.5523 15.5523 19 15 19H13C12.4477 19 12 18.5523 12 18V14ZM18 14C18 13.4477 18.4477 13 19 13H22C22.5523 13 23 13.4477 23 14C23 14.5523 22.5523 15 22 15H19C18.4477 15 18 14.5523 18 14ZM19 17C18.4477 17 18 17.4477 18 18C18 18.5523 18.4477 19 19 19H22C22.5523 19 23 18.5523 23 18C23 17.4477 22.5523 17 22 17H19ZM27 20C27 19.4477 27.4477 19 28 19H29C29.5523 19 30 19.4477 30 20V26.5C30 27.3284 29.3284 28 28.5 28C27.6716 28 27 27.3284 27 26.5V20Z" fill="white"/>
<defs>
<linearGradient id="paint0_linear" x1="0" y1="0" x2="40" y2="40" gradientUnits="userSpaceOnUse">
<stop stop-color="#2F80ED"/>
<stop offset="1" stop-color="#56CCF2"/>
</linearGradient>
</defs>
</svg>
