<svg width="24" height="24" viewBox="0 0 24 24" fill="none" xmlns="http://www.w3.org/2000/svg">
<path fill-rule="evenodd" clip-rule="evenodd" d="M14.2223 10.3259C13.5645 10.7654 12.7911 11 12 11C10.9391 11 9.92172 10.5786 9.17157 9.82843C8.42143 9.07828 8 8.06087 8 7C8 6.20888 8.2346 5.43552 8.67412 4.77772C9.11365 4.11992 9.73836 3.60723 10.4693 3.30448C11.2002 3.00173 12.0044 2.92252 12.7804 3.07686C13.5563 3.2312 14.269 3.61216 14.8284 4.17157C15.3878 4.73098 15.7688 5.44372 15.9231 6.21964C16.0775 6.99556 15.9983 7.79983 15.6955 8.53074C15.3928 9.26164 14.8801 9.88635 14.2223 10.3259ZM13.1111 5.33706C12.7822 5.1173 12.3956 5 12 5C11.4696 5 10.9609 5.21072 10.5858 5.58579C10.2107 5.96086 10 6.46957 10 7C10 7.39556 10.1173 7.78224 10.3371 8.11114C10.5568 8.44004 10.8692 8.69639 11.2346 8.84776C11.6001 8.99914 12.0022 9.03874 12.3902 8.96157C12.7781 8.8844 13.1345 8.69392 13.4142 8.41422C13.6939 8.13451 13.8844 7.77814 13.9616 7.39018C14.0387 7.00222 13.9991 6.60009 13.8478 6.23463C13.6964 5.86918 13.44 5.55683 13.1111 5.33706ZM7.05025 15.0503C8.36301 13.7375 10.1435 13 12 13C13.8565 13 15.637 13.7375 16.9497 15.0503C18.2625 16.363 19 18.1435 19 20C19 20.2652 18.8946 20.5196 18.7071 20.7071C18.5196 20.8946 18.2652 21 18 21C17.7348 21 17.4804 20.8946 17.2929 20.7071C17.1054 20.5196 17 20.2652 17 20C17 18.6739 16.4732 17.4021 15.5355 16.4645C14.5979 15.5268 13.3261 15 12 15C10.6739 15 9.40215 15.5268 8.46447 16.4645C7.52678 17.4021 7 18.6739 7 20C7 20.2652 6.89464 20.5196 6.70711 20.7071C6.51957 20.8946 6.26522 21 6 21C5.73478 21 5.48043 20.8946 5.29289 20.7071C5.10536 20.5196 5 20.2652 5 20C5 18.1435 5.7375 16.363 7.05025 15.0503Z" fill="#666666"/>
</svg>
