<svg width="48" height="48" viewBox="0 0 48 48" fill="none" xmlns="http://www.w3.org/2000/svg">
<circle cx="24" cy="24" r="24" fill="#F38224" fill-opacity="0.12"/>
<path d="M21 23C21.7911 23 22.5645 22.7654 23.2223 22.3259C23.8801 21.8864 24.3928 21.2616 24.6955 20.5307C24.9983 19.7998 25.0775 18.9956 24.9231 18.2196C24.7688 17.4437 24.3878 16.731 23.8284 16.1716C23.269 15.6122 22.5563 15.2312 21.7804 15.0769C21.0044 14.9225 20.2002 15.0017 19.4693 15.3045C18.7384 15.6072 18.1136 16.1199 17.6741 16.7777C17.2346 17.4355 17 18.2089 17 19C17 20.0609 17.4214 21.0783 18.1716 21.8284C18.9217 22.5786 19.9391 23 21 23Z" fill="#F38224"/>
<path d="M29 25C29.5933 25 30.1734 24.8241 30.6667 24.4944C31.1601 24.1648 31.5446 23.6962 31.7716 23.1481C31.9987 22.5999 32.0581 21.9967 31.9424 21.4147C31.8266 20.8328 31.5409 20.2982 31.1213 19.8787C30.7018 19.4591 30.1672 19.1734 29.5853 19.0576C29.0033 18.9419 28.4001 19.0013 27.8519 19.2284C27.3038 19.4554 26.8352 19.8399 26.5056 20.3333C26.1759 20.8266 26 21.4067 26 22C26 22.7957 26.3161 23.5587 26.8787 24.1213C27.4413 24.6839 28.2044 25 29 25Z" fill="#F38224"/>
<path d="M33 32.0001C33.2652 32.0001 33.5196 31.8947 33.7071 31.7072C33.8946 31.5196 34 31.2653 34 31.0001C33.9992 30.0655 33.7365 29.1498 33.2416 28.3569C32.7468 27.5641 32.0396 26.9258 31.2003 26.5145C30.3611 26.1032 29.4234 25.9354 28.4936 26.0301C27.5638 26.1247 26.6791 26.4781 25.94 27.0501C24.9605 26.0744 23.7141 25.4106 22.3578 25.1425C21.0016 24.8743 19.5963 25.0137 18.3192 25.5432C17.0421 26.0726 15.9504 26.9684 15.1817 28.1175C14.4131 29.2666 14.0019 30.6176 14 32.0001C14 32.2653 14.1054 32.5196 14.2929 32.7072C14.4804 32.8947 14.7348 33.0001 15 33.0001H27C27.2652 33.0001 27.5196 32.8947 27.7071 32.7072C27.8946 32.5196 28 32.2653 28 32.0001" fill="#F38224"/>
</svg>
