<svg id="AWB_footer_logo" data-name="Layer 1" xmlns="http://www.w3.org/2000/svg" viewBox="0 0 153.44 111.15"><defs><style>.cls-1{fill:#fff;}</style></defs><title>Artboard 14</title><path class="cls-1" d="M29.55,110.94c-1.13,0-2.26,0-3.41-.11a15.33,15.33,0,0,1-3-.45V89.71c.45-.08.93-.16,1.44-.23s1-.13,1.57-.17l1.58-.09,1.49,0a21.34,21.34,0,0,1,3.6.29,9.06,9.06,0,0,1,2.87,1,5,5,0,0,1,1.89,1.78A5.16,5.16,0,0,1,38.24,95a4.5,4.5,0,0,1-.72,2.58,5.07,5.07,0,0,1-2,1.72,5.64,5.64,0,0,1,2.86,1.91,5.28,5.28,0,0,1,.92,3.19,5.57,5.57,0,0,1-2.4,4.93C35.29,110.39,32.85,110.94,29.55,110.94ZM26.94,98.07h2.73a7.85,7.85,0,0,0,3.47-.63,2.31,2.31,0,0,0,1.26-2.26A2.23,2.23,0,0,0,33.1,93a7.68,7.68,0,0,0-3.4-.65c-.59,0-1.12,0-1.58,0a11.37,11.37,0,0,0-1.18.1Zm0,3v6.48q.64.06,1.38.09l1.35,0a15.54,15.54,0,0,0,2.23-.15,5.56,5.56,0,0,0,1.78-.54,3.26,3.26,0,0,0,1.2-1,2.83,2.83,0,0,0,.45-1.66A2.61,2.61,0,0,0,34,101.81a7.84,7.84,0,0,0-3.65-.7Z"/><path class="cls-1" d="M43.31,110.69V89.4H57v3.29h-9.8v5.25h8.73v3.23H47.18v6.23H57.72v3.29Z"/><path class="cls-1" d="M74.77,107.34v3.35H61.31V89.4h3.87v17.94Z"/><path class="cls-1" d="M92.65,110.69q-.44-1.26-.9-2.49c-.31-.82-.6-1.66-.89-2.52h-9c-.29.86-.58,1.71-.88,2.54s-.59,1.65-.88,2.47h-4c.8-2.27,1.55-4.37,2.27-6.3s1.42-3.74,2.1-5.46,1.37-3.36,2-4.92,1.37-3.09,2.09-4.61h3.69q1.08,2.28,2.09,4.61t2,4.92q1,2.58,2.12,5.46c.72,1.93,1.49,4,2.28,6.3ZM86.36,93.52c-.47,1.08-1,2.41-1.61,4s-1.23,3.25-1.89,5.07h7q-1-2.73-1.9-5.1C87.35,95.88,86.81,94.56,86.36,93.52Z"/><path class="cls-1" d="M111.11,103.69a12.37,12.37,0,0,1-.34,2.92,5.86,5.86,0,0,1-1.19,2.36,5.65,5.65,0,0,1-2.27,1.6,9.57,9.57,0,0,1-3.61.58,9.78,9.78,0,0,1-3.51-.57,8.42,8.42,0,0,1-2.29-1.21l1.38-3a11,11,0,0,0,1.89,1,5.76,5.76,0,0,0,2.29.47,3.65,3.65,0,0,0,2.85-1,5,5,0,0,0,.89-3.38v-14h3.91Z"/><path class="cls-1" d="M129.94,110.69q-.44-1.26-.9-2.49c-.31-.82-.6-1.66-.89-2.52h-9c-.29.86-.58,1.71-.88,2.54s-.59,1.65-.88,2.47h-4c.8-2.27,1.55-4.37,2.27-6.3s1.42-3.74,2.1-5.46,1.37-3.36,2-4.92,1.37-3.09,2.09-4.61h3.7c.71,1.52,1.41,3.06,2.08,4.61s1.36,3.2,2.05,4.92,1.39,3.54,2.12,5.46,1.49,4,2.29,6.3Zm-6.29-17.17c-.47,1.08-1,2.41-1.61,4s-1.23,3.25-1.89,5.07h7c-.66-1.82-1.29-3.52-1.91-5.1S124.11,94.56,123.65,93.52Z"/><path class="cls-1" d="M142.65,89.19c3.07,0,5.43.56,7,1.69a6.37,6.37,0,0,1-1.83,11c.4.47.83,1,1.33,1.72s1,1.4,1.5,2.19,1,1.6,1.48,2.43.89,1.64,1.26,2.44H149.1c-.38-.74-.81-1.48-1.26-2.23s-.9-1.47-1.36-2.18-.92-1.37-1.37-2-.87-1.19-1.26-1.68l-.74,0h-2.45v8h-3.87v-21a21,21,0,0,1,3-.41C140.86,89.22,141.81,89.19,142.65,89.19Zm.28,3.35c-.82,0-1.58,0-2.27.09v6.88h1.69a18.29,18.29,0,0,0,2.49-.15,5.31,5.31,0,0,0,1.79-.56,2.62,2.62,0,0,0,1.09-1.07,3.53,3.53,0,0,0,.37-1.72,3.37,3.37,0,0,0-.37-1.66,2.75,2.75,0,0,0-1.06-1.08,5.11,5.11,0,0,0-1.64-.56A11.34,11.34,0,0,0,142.93,92.54Z"/><path class="cls-1" d="M88.19,13.27l-1,6h4.87L91.36,24H86.42L85.2,31.43H80.48L81.7,24H77.6l-1.23,7.44H71.65L72.87,24H68.22l.72-4.76h4.72l1-6H70l.73-4.76h4.71L76.83,0h4.72l-1.4,8.51h4.1L85.66,0h4.72L89,8.51h4.89l-.73,4.76Zm-4.75,0H79.36l-1,6h4.08Z"/><path class="cls-1" d="M103.19,24.22,102,31.43H97.12L102.45.05H109l5.26,31.38h-5l-1.1-7.21Zm2.49-17-1.75,12.37h3.5Z"/><path class="cls-1" d="M133.08,23.92a7.25,7.25,0,0,1-2.18,5.3,7.15,7.15,0,0,1-5.26,2.21H118.2V0h7.44a7.1,7.1,0,0,1,5.27,2.2,7.29,7.29,0,0,1,2.17,5.28Zm-10.15,2.83h2.86a2.54,2.54,0,0,0,1.9-.82,2.67,2.67,0,0,0,.78-1.91V7.59a2.63,2.63,0,0,0-.79-1.93,2.59,2.59,0,0,0-1.89-.8h-2.86Z"/><path class="cls-1" d="M142.41,24.22l-1.15,7.21h-4.93L141.67.05h6.51l5.26,31.38h-5l-1.11-7.21Zm2.49-17-1.76,12.37h3.51Z"/><path class="cls-1" d="M19.45,41.55h5L19.51,72.93H15L12.3,55.67,9.78,72.93H5.25L0,41.55H5L7.44,58.36,9.72,41.55h5l2.47,16.79Z"/><path class="cls-1" d="M29.89,65.72l-1.15,7.21H23.81l5.34-31.38h6.51l5.26,31.38h-5l-1.1-7.21Zm2.49-17L30.63,61.11h3.5Z"/><path class="cls-1" d="M49.63,63v10H44.9V41.53h4.73V52.72l5.79-11.19h5L54,54.34l7.6,18.59H56l-5-12.75Z"/><path class="cls-1" d="M67.24,46.31h-5V41.55H77v4.76H72V72.93H67.24Z"/><path class="cls-1" d="M88.25,73.28a7.44,7.44,0,0,1-7.49-7.46V41.55H85.4V65.77a2.55,2.55,0,0,0,.8,1.91,2.63,2.63,0,0,0,1.93.79,2.7,2.7,0,0,0,2.7-2.7V41.55h4.93V65.82a7.14,7.14,0,0,1-2.2,5.31A7.35,7.35,0,0,1,88.25,73.28Z"/><path class="cls-1" d="M105.29,41.53l6.28,21.1V41.53h4.73v31.4h-5.09L104.7,52.82V72.93H100V41.53Z"/><path class="cls-1" d="M126.44,59.78,120.1,41.53h5.21l3.51,11.27,3.48-11.27h5.23l-6.36,18.25V72.93h-4.73Z"/><path class="cls-1" d="M142.41,65.72l-1.15,7.21h-4.93l5.34-31.38h6.51l5.26,31.38h-5l-1.11-7.21Zm2.49-17-1.76,12.37h3.51Z"/></svg>