<svg id="Layer_1" data-name="Layer 1" xmlns="http://www.w3.org/2000/svg" viewBox="0 0 28.72 26.01"><defs><style>.cls-1{fill:#fff;}</style></defs><title>Artboard 32</title><path class="cls-1" d="M27.68,15.06a6.37,6.37,0,0,0-2.42-2.16,4.83,4.83,0,0,0-5.32-8.07,5.64,5.64,0,0,0-11.16,0,4.83,4.83,0,0,0-7.27,5.27,4.78,4.78,0,0,0,2,2.81A6.34,6.34,0,0,0,0,18.61v5.58A1.81,1.81,0,0,0,1.82,26H26.91a1.81,1.81,0,0,0,1.28-.53,1.83,1.83,0,0,0,.53-1.29V18.61A6.4,6.4,0,0,0,27.68,15.06Zm-6.69-1a4.66,4.66,0,0,1,2.06-.24,4.82,4.82,0,0,1,4.13,4.8v5.58a.28.28,0,0,1-.27.27H21.63a1.24,1.24,0,0,0,0-.27V17.08A7.23,7.23,0,0,0,21,14.05ZM7.09,24.46H1.82a.27.27,0,0,1-.27-.27V18.61a4.8,4.8,0,0,1,4.12-4.8,4.36,4.36,0,0,1,.51,0,4.61,4.61,0,0,1,1.56.27,7.23,7.23,0,0,0-.67,3v7.11A2.45,2.45,0,0,0,7.09,24.46Zm10.28-14a4.73,4.73,0,0,0,.46-.32,5.44,5.44,0,0,0,.23.68Zm-6.7.36a4.15,4.15,0,0,0,.22-.68,4.87,4.87,0,0,0,.47.32A7.49,7.49,0,0,0,10.67,10.8Zm6.6-2.22a4.12,4.12,0,0,1-7-2.91,4.12,4.12,0,1,1,7,2.91ZM7.86,11.79a3.31,3.31,0,0,1-5-2.86A3.31,3.31,0,0,1,6.21,5.62h0A3.27,3.27,0,0,1,8.86,7,5.65,5.65,0,0,0,9.48,8.5a3,3,0,0,1,0,.43A3.3,3.3,0,0,1,7.86,11.79Zm.75,5.29a5.75,5.75,0,0,1,.83-3L9.5,14v0a5.7,5.7,0,0,1,4.85-2.68h0A5.67,5.67,0,0,1,19.22,14h0l0,.06a5.67,5.67,0,0,1,.85,3v7.11a.27.27,0,0,1-.27.27h-11a.27.27,0,0,1-.27-.27Zm13.91-4.85a3.28,3.28,0,0,1-2.34-1,3.32,3.32,0,0,1-1-2.34,3,3,0,0,1,0-.43A5.65,5.65,0,0,0,19.86,7,3.3,3.3,0,0,1,22.5,5.62h0a3.28,3.28,0,0,1,2.33,1,3.31,3.31,0,0,1,0,4.68A3.27,3.27,0,0,1,22.52,12.23Z"/></svg>