<svg id="Layer_1" data-name="Layer 1" xmlns="http://www.w3.org/2000/svg" viewBox="0 0 27.58 28.99"><defs><style>.cls-1{fill:#fff;}</style></defs><title>Artboard 30</title><path class="cls-1" d="M6.27,19.6a.7.7,0,1,0,0,1.4,2.14,2.14,0,0,1,2.15,2.14.7.7,0,0,0,.7.71.71.71,0,0,0,.71-.71A3.56,3.56,0,0,0,6.27,19.6Z"/><path class="cls-1" d="M8.52,11.73a.7.7,0,0,0-.82-.56.71.71,0,0,0-.57.82,4.31,4.31,0,0,0,1.33,2.37.17.17,0,0,0,0,.1,2.16,2.16,0,0,1-2,2.27A.67.67,0,0,0,6,17a.69.69,0,0,0-.18.52.72.72,0,0,0,.74.65h0A3.54,3.54,0,0,0,9.8,15.24a4.45,4.45,0,0,0,2.48.24A.7.7,0,1,0,12,14.1a3,3,0,0,1-3.5-2.37Z"/><path class="cls-1" d="M21.3,19.6a3.55,3.55,0,0,0-3.55,3.54.71.71,0,1,0,1.41,0A2.14,2.14,0,0,1,21.3,21a.71.71,0,0,0,.5-1.2A.67.67,0,0,0,21.3,19.6Z"/><path class="cls-1" d="M27.58,14.42A4.09,4.09,0,0,0,25.73,11a3.49,3.49,0,0,0,.11-.86,4.06,4.06,0,0,0-2.72-3.8,3.41,3.41,0,0,0,.18-1.09,3.56,3.56,0,0,0-3.55-3.54h-.1A8.78,8.78,0,0,0,17.06.26,2.74,2.74,0,0,0,14.5.37a2.36,2.36,0,0,0-.71.73,2.51,2.51,0,0,0-.72-.73A2.72,2.72,0,0,0,10.52.26a8.91,8.91,0,0,0-2.6,1.48H7.83A3.55,3.55,0,0,0,4.28,5.28a3.41,3.41,0,0,0,.18,1.09,4.06,4.06,0,0,0-2.72,3.81,4,4,0,0,0,.1.86A4,4,0,0,0,0,14.42,4,4,0,0,0,.94,17a4,4,0,0,0,1.94,5.14,3.6,3.6,0,0,0-.16,1A3.57,3.57,0,0,0,6.27,26.7h.11A4.12,4.12,0,0,0,10.23,29a4.31,4.31,0,0,0,3.56-1.76A4.28,4.28,0,0,0,17.35,29a4.12,4.12,0,0,0,3.85-2.3h.1a3.55,3.55,0,0,0,3.4-4.57,4,4,0,0,0,2.24-3.61A4.1,4.1,0,0,0,26.63,17,4,4,0,0,0,27.58,14.42Zm-4,2.63a.71.71,0,1,0,0,1.41A4,4,0,0,0,25.45,18a2.13,2.13,0,0,1,.07.55,2.63,2.63,0,0,1-1.94,2.54h0l-.05,0h0a.35.35,0,0,0-.13.06.65.65,0,0,0-.12.11l-.07.08a.7.7,0,0,0-.08.14l0,.11a.92.92,0,0,0,0,.16.25.25,0,0,0,0,.09l.08.25a2.13,2.13,0,0,1-1.86,3.19,1.91,1.91,0,0,1-.43,0,.72.72,0,0,0-.84.54,2.61,2.61,0,0,1-2.68,1.8,2.48,2.48,0,0,1-2.71-2.14V22.21a2.13,2.13,0,0,1,2.13-2.13.71.71,0,0,0,.71-.71.7.7,0,0,0-.71-.7,3.55,3.55,0,0,0-2.13.72V10a2.13,2.13,0,0,1,2.13-2.14.71.71,0,0,0,.71-.71.7.7,0,0,0-.71-.7,3.55,3.55,0,0,0-2.13.72V2.91a2,2,0,0,1,.63-1.36,1.49,1.49,0,0,1,1.32,0,9.2,9.2,0,0,1,1.35.64A3.51,3.51,0,0,0,16.2,5.28a.7.7,0,0,0,.7.71.71.71,0,0,0,.71-.71,2.06,2.06,0,0,1,.27-1,2.14,2.14,0,0,1,4,1,2.15,2.15,0,0,1-.2.86,4,4,0,0,0-3.51,2.23A.7.7,0,1,0,19.44,9a2.63,2.63,0,0,1,5,1.17,1.72,1.72,0,0,1,0,.32,3.4,3.4,0,0,0-.87-.11.7.7,0,0,0-.7.7.7.7,0,0,0,.7.71,2.78,2.78,0,0,1,1,.2l.07,0,.06,0a2.63,2.63,0,0,1-1.15,5ZM10.1,7.16a.7.7,0,0,0,.7.71A2.14,2.14,0,0,1,12.94,10v9.39a3.47,3.47,0,0,0-2.14-.72.7.7,0,1,0,0,1.4,2.14,2.14,0,0,1,2.14,2.14v3.23a2.47,2.47,0,0,1-2.71,2.13,2.62,2.62,0,0,1-2.69-1.79.69.69,0,0,0-.29-.44.78.78,0,0,0-.4-.12l-.14,0a1.94,1.94,0,0,1-.44,0,2.13,2.13,0,0,1-1.86-3.19.16.16,0,0,0,0-.1.21.21,0,0,0,0-.07v-.17a.76.76,0,0,0,0-.19l0-.07a.36.36,0,0,0-.06-.11.56.56,0,0,0-.09-.13l-.08-.06-.05-.05L4,21.06a2.64,2.64,0,0,1-1.94-2.54A2.86,2.86,0,0,1,2.12,18,4,4,0,0,0,4,18.46a.71.71,0,1,0,0-1.41,2.63,2.63,0,0,1-1.15-5L3,12A2.58,2.58,0,0,1,4,11.79a.71.71,0,1,0,0-1.41,3.46,3.46,0,0,0-.87.11c0-.1,0-.21,0-.32A2.63,2.63,0,0,1,8.14,9a.71.71,0,0,0,.95.32.72.72,0,0,0,.31-1A4,4,0,0,0,5.89,6.14a2.11,2.11,0,0,1-.2-.86,2.14,2.14,0,0,1,4-1,2.11,2.11,0,0,1,.27,1,.71.71,0,1,0,1.41,0,3.52,3.52,0,0,0-.45-1.71A3.46,3.46,0,0,0,9.64,2.23,9.72,9.72,0,0,1,11,1.58a1.47,1.47,0,0,1,1.3,0,2,2,0,0,1,.64,1.34V7.18a3.49,3.49,0,0,0-2.14-.72A.7.7,0,0,0,10.1,7.16Z"/><path class="cls-1" d="M21,18.13h0a.72.72,0,0,0,.71-.66.71.71,0,0,0-.66-.74,2.16,2.16,0,0,1-2-2.26v-.11A4.33,4.33,0,0,0,20.44,12a.71.71,0,1,0-1.39-.26,3,3,0,0,1-3.49,2.37.73.73,0,0,0-.54.11.76.76,0,0,0-.29.45.72.72,0,0,0,.11.53.68.68,0,0,0,.45.29,4.34,4.34,0,0,0,2.48-.24A3.56,3.56,0,0,0,21,18.13Z"/></svg>