<svg id="Layer_1" data-name="Layer 1" xmlns="http://www.w3.org/2000/svg" viewBox="0 0 31.26 31.27"><defs><style>.cls-1{fill:#fff;}</style></defs><title>Artboard 31</title><path class="cls-1" d="M27.43,0A.8.8,0,0,0,27,.18L23.85,3a.71.71,0,0,0-.23.52V6.67L21.43,8.86a12.72,12.72,0,1,0,1,1L24.6,7.65h3.19a.69.69,0,0,0,.52-.24l2.78-3.12a.71.71,0,0,0,.11-.74.7.7,0,0,0-.63-.41H28.14V.71A.73.73,0,0,0,27.43,0Zm-.68,2.25V3.83a.72.72,0,0,0,.69.7H29L27.48,6.26H25V3.79ZM12.85,7a11.37,11.37,0,0,1,7.6,2.88l-2,2a8.71,8.71,0,1,0,1,1l2-2A11.47,11.47,0,1,1,12.85,7Zm0,4.17a7.27,7.27,0,0,1,4.65,1.66L15.26,15a4.13,4.13,0,1,0,1,1l2.24-2.23a7.3,7.3,0,1,1-5.64-2.65Zm0,4.51a2.78,2.78,0,0,1,1.41.38l-1.9,1.9a.74.74,0,0,0,0,1,.73.73,0,0,0,1,0L15.25,17a2.81,2.81,0,0,1,.38,1.41,2.78,2.78,0,1,1-2.78-2.78Z"/></svg>