<?xml version="1.0" encoding="utf-8"?>
<!-- Generator: Adobe Illustrator 23.0.1, SVG Export Plug-In . SVG Version: 6.00 Build 0)  -->
<svg version="1.0" id="Layer_1" xmlns="http://www.w3.org/2000/svg" xmlns:xlink="http://www.w3.org/1999/xlink" x="0px" y="0px"
	 viewBox="0 0 33.3 25.3" style="enable-background:new 0 0 33.3 25.3;" xml:space="preserve">
<style type="text/css">
	.st0{fill:#FFFFFF;}
	.st1{fill:#D40000;}
	.st2{fill:#AEAEAE;}
	.st3{fill:#8275DB;}
	.st4{fill:#0E32D5;}
	.st5{fill:#D50000;}
	.st6{fill:#A09AEA;}
	.st7{fill:url(#SVGID_1_);}
	.st8{fill:url(#SVGID_2_);}
	.st9{fill:#0D33D0;}
	.st10{fill:#EEEBFF;}
	.st11{fill:#E98400;}
	.st12{fill:#824D27;}
	.st13{fill:#8AF47B;}
	.st14{fill:#8275DD;}
	.st15{fill:#8275DD;stroke:#8275DD;stroke-width:0.5;stroke-miterlimit:10;}
	.st16{fill:#0E32D7;}
	.st17{fill:none;}
</style>
<g>
	<polygon class="st17" points="14.3,2.2 3.7,2.2 14.3,9.8 	"/>
	<polygon class="st17" points="2.3,2.8 2.3,10.4 12.9,10.4 	"/>
	<polygon class="st17" points="31,10.4 31,2.8 20.3,10.4 	"/>
	<polygon class="st17" points="18.9,2.2 18.9,9.8 29.6,2.2 	"/>
	<polygon class="st17" points="31,22.5 31,14.9 20.3,14.9 	"/>
	<path class="st17" d="M18.1,11.7L18.1,11.7c-0.1,0-0.1,0-0.1,0c0,0,0,0-0.1,0c0,0,0,0-0.1-0.1c0,0,0,0,0,0c0,0,0,0-0.1-0.1l0,0
		c0,0,0-0.1,0-0.1c0,0,0,0,0,0c0,0,0,0,0,0l0.1-0.1l-0.1,0c0,0,0,0,0,0v0l0.1,0h-0.1c0,0,0,0,0-0.1V2.2h-2v8.9c0,0,0,0,0,0
		c0,0,0,0.1,0,0.1c0,0,0,0,0,0.1l-0.1,0l0.1,0c0,0,0,0,0,0c0,0,0,0,0,0.1c0,0,0,0,0,0l0,0c0,0-0.1,0.1-0.1,0.1c0,0,0,0,0,0
		c0,0,0,0-0.1,0.1c0,0,0,0-0.1,0c0,0-0.1,0-0.1,0l0,0c-0.1,0-0.1,0-0.1,0H2.3v1.9H15l0.1,0h0c0,0,0,0,0.1,0c0,0,0,0,0.1,0l0,0l0,0.1
		l0-0.1c0,0,0,0,0,0c0,0,0,0,0,0l0,0c0,0,0,0,0,0c0,0,0,0,0,0l0,0.1l0.1-0.1l0,0v0c0,0,0,0,0,0L15.5,14l0.1,0c0,0,0,0,0,0
		c0,0,0,0,0,0l-0.1,0.1l0.1,0c0,0,0,0,0,0l0,0l-0.1,0h0.1c0,0,0,0,0,0.1h0l0,8.9h2v-8.9c0,0,0,0,0-0.1v0c0,0,0,0,0,0h0.1l-0.1,0
		c0,0,0,0,0,0c0,0,0,0,0,0l0.1,0l-0.1,0c0,0,0,0,0-0.1c0,0,0,0,0,0c0,0,0,0,0.1-0.1c0,0,0,0,0,0c0,0,0,0,0.1,0c0,0,0,0,0.1,0
		c0,0,0,0,0,0s0,0,0.1,0c0,0,0,0,0.1,0h0.1c0,0,0,0,0,0H31v-1.9H18.3C18.2,11.7,18.2,11.7,18.1,11.7z"/>
	<polygon class="st17" points="14.3,23.2 14.3,15.5 3.7,23.2 	"/>
	<polygon class="st17" points="18.9,23.2 29.6,23.2 18.9,15.5 	"/>
	<path class="st14" d="M32.3,1.5L32.3,1.5L32.3,1.5L32.3,1.5c0-0.1,0-0.1,0-0.1c0,0,0,0,0-0.1c0,0,0,0,0,0l-0.1,0l0.1-0.1
		c0,0,0,0,0-0.1l0,0L32,1.2l0-0.1c0,0,0,0,0,0c0,0,0,0,0,0L32,1.1L32,1c0,0,0,0,0,0c0,0,0,0-0.1,0c0,0,0,0,0,0c0,0,0,0-0.1,0
		c0,0,0,0,0,0c0,0,0,0,0,0H1.6c0,0,0,0-0.1,0c0,0,0,0,0,0l0,0.1l0-0.1c0,0,0,0-0.1,0c0,0,0,0,0,0c0,0,0,0-0.1,0c0,0,0,0-0.1,0
		c0,0,0,0,0,0l0,0l0.1,0.1l-0.1,0c0,0,0,0,0,0v0c0,0,0,0,0,0l0.1,0l-0.1,0c0,0,0,0,0,0c0,0,0,0,0,0.1c0,0,0,0,0,0.1l0,0.1
		c0,0,0,0,0,0v22.3c0,0,0,0,0,0.1v0c0,0,0,0,0,0.1c0,0,0,0,0,0.1c0,0,0,0,0,0.1c0,0,0,0,0,0.1c0,0,0,0,0,0c0,0,0,0.1,0.1,0.1l0,0
		c0,0,0.1,0,0.1,0.1c0,0,0,0,0,0c0,0,0.1,0,0.1,0l0,0c0.1,0,0.1,0,0.1,0h30c0,0,0.1,0,0.1,0c0,0,0,0,0.1,0c0,0,0.1,0,0.1,0
		c0,0,0,0,0,0c0,0,0.1,0,0.1-0.1c0,0,0,0,0.1,0c0,0,0,0,0.1-0.1l0,0v0c0,0,0,0,0,0l-0.1-0.1l0.1,0c0,0,0,0,0,0c0,0,0,0,0,0l-0.1,0
		h0.1c0,0,0,0,0-0.1v0l-0.1,0l0.1,0c0,0,0,0,0,0L32.3,1.5C32.3,1.5,32.3,1.5,32.3,1.5z M18.9,2.2h10.6L18.9,9.8V2.2z M31,2.8v7.6
		H20.3L31,2.8z M14.3,2.2v7.6L3.7,2.2H14.3z M2.3,2.8l10.6,7.6H2.3V2.8z M2.3,14.9h10.6L2.3,22.5V14.9z M14.3,23.2H3.7l10.6-7.6
		V23.2z M18.9,23.2v-7.6l10.6,7.6H18.9z M31,22.5l-10.6-7.6H31V22.5z M31,13.6H18.3c0,0,0,0,0,0h-0.1c0,0,0,0-0.1,0c0,0,0,0-0.1,0
		s0,0,0,0c0,0-0.1,0-0.1,0c0,0,0,0-0.1,0c0,0,0,0,0,0c0,0,0,0-0.1,0.1c0,0,0,0,0,0c0,0,0,0,0,0.1l0.1,0l-0.1,0c0,0,0,0,0,0
		c0,0,0,0,0,0l0.1,0h-0.1c0,0,0,0,0,0v0c0,0,0,0.1,0,0.1v8.9h-2l0-8.9h0c0,0,0,0,0-0.1h-0.1l0.1,0l0,0c0,0,0,0,0,0l-0.1,0l0.1-0.1
		c0,0,0,0,0,0c0,0,0,0,0,0l-0.1,0l0.1-0.1c0,0,0,0,0,0v0l0,0l-0.1,0.1l0-0.1c0,0,0,0,0,0c0,0,0,0,0,0l0,0c0,0,0,0,0,0c0,0,0,0,0,0
		l0,0.1l0-0.1l0,0c0,0,0,0-0.1,0c0,0,0,0-0.1,0h0l-0.1,0H2.3v-1.9H15c0,0,0.1,0,0.1,0l0,0c0,0,0.1,0,0.1,0c0,0,0,0,0.1,0
		c0,0,0,0,0.1-0.1c0,0,0,0,0,0c0,0,0,0,0.1-0.1l0,0c0,0,0,0,0,0c0,0,0,0,0-0.1c0,0,0,0,0,0l-0.1,0l0.1,0c0,0,0,0,0-0.1
		c0,0,0,0,0-0.1c0,0,0,0,0,0V2.2h2v8.9c0,0,0,0,0,0.1h0.1l-0.1,0v0c0,0,0,0,0,0l0.1,0l-0.1,0.1c0,0,0,0,0,0c0,0,0,0,0,0
		c0,0,0,0,0,0.1l0,0c0,0,0,0,0.1,0.1c0,0,0,0,0,0c0,0,0.1,0,0.1,0.1c0,0,0,0,0.1,0c0,0,0.1,0,0.1,0h0c0,0,0.1,0,0.1,0H31V13.6z"/>
</g>
</svg>
