<svg id="Layer_1" data-name="Layer 1" xmlns="http://www.w3.org/2000/svg" viewBox="0 0 31.57 23.89"><defs><style>.cls-1{fill:#8275dd;}</style></defs><title>Artboard 38</title><path class="cls-1" d="M31.57.8h-.25l.25,0a.39.39,0,0,0,0-.09V.63a.25.25,0,0,0,0-.07l0-.08L31.44.37a0,0,0,0,1,0,0h0L31.37.28l0-.05L31.06.06,31,0H.65L.5.06.19.29l0,.06L.07.47,0,.56A.25.25,0,0,0,0,.63V.71A.28.28,0,0,0,0,.8V23.09a.28.28,0,0,0,0,.09v.07l.15.33.09.1,0,0,.09.06.07,0,.16.06.17,0h30a.68.68,0,0,0,.21,0,.53.53,0,0,0,.18-.07l.1-.06,0,0a.47.47,0,0,0,.1-.1l.1-.16,0-.09-.23-.09.25,0v-.08a.31.31,0,0,0,0-.1Zm-1.6,12v9.53H1.6V12.75ZM30,1.6v9.54H1.6V1.6ZM31,.31Zm-.1,0ZM.5.34ZM.43,23.49Zm30.89-.34Z"/></svg>