<svg id="Layer_1" data-name="Layer 1" xmlns="http://www.w3.org/2000/svg" viewBox="0 0 28.97 25.74"><defs><style>.cls-1{fill:#8275dd;stroke:#8275dd;stroke-miterlimit:10;stroke-width:0.5px;}</style></defs><title>Artboard 27</title><path class="cls-1" d="M9.64.25A15,15,0,0,0,3.09,1.62C1.4,2.46.26,3.68.26,5.11c0,5,0,10.44,0,15.53,0,1.43,1.13,2.64,2.83,3.49a15,15,0,0,0,6.55,1.36,15.66,15.66,0,0,0,5.81-1,9,9,0,0,0,4.22,1,9.06,9.06,0,1,0,0-18.11c-.22,0-.44,0-.65,0,0-1.65,0-1,0-2.3s-1.14-2.65-2.83-3.5A15.09,15.09,0,0,0,9.63.25Zm0,.66A14.38,14.38,0,0,1,15.89,2.2C17.47,3,18.37,4,18.37,5.11S17.47,7.23,15.89,8A14.24,14.24,0,0,1,9.64,9.31,14.3,14.3,0,0,1,3.37,8C1.79,7.23.9,6.18.9,5.11S1.79,3,3.37,2.2A14.44,14.44,0,0,1,9.64.91ZM.9,6.9A6.13,6.13,0,0,0,3.09,8.6,15,15,0,0,0,9.64,10a16.89,16.89,0,0,0,4.29-.55,9.16,9.16,0,0,0-2.7,3.7c-.52.05-1.05.08-1.59.08a14.4,14.4,0,0,1-6.26-1.29C1.8,11.12.9,10.07.9,9V6.9Zm17.46,0v.56c-.22,0-.43.07-.65.12a4.15,4.15,0,0,0,.65-.68ZM19.66,8a8.42,8.42,0,1,1-8.41,8.42A8.42,8.42,0,0,1,19.66,8Zm0,2.26a.32.32,0,0,0-.28.33v1.31a3.16,3.16,0,0,0-1.72.62,2.27,2.27,0,0,0-.87,1.79,1.89,1.89,0,0,0,1,1.67,9.51,9.51,0,0,0,1.61.65V20.3A2.06,2.06,0,0,1,17.39,19h0a.3.3,0,0,0-.16-.19.33.33,0,0,0-.24,0,.32.32,0,0,0-.2.16.35.35,0,0,0,0,.25A2.74,2.74,0,0,0,19.34,21v1.31a.32.32,0,0,0,.09.23.34.34,0,0,0,.23.1.33.33,0,0,0,.23-.1.29.29,0,0,0,.1-.23V21a3.26,3.26,0,0,0,1.72-.64,2.25,2.25,0,0,0,.87-1.78,1.92,1.92,0,0,0-1-1.68A9.51,9.51,0,0,0,20,16.21V12.57a2.07,2.07,0,0,1,2,1.25h0a.3.3,0,0,0,.16.19.33.33,0,0,0,.24,0,.29.29,0,0,0,.2-.16.33.33,0,0,0,0-.24A2.71,2.71,0,0,0,20,11.93V10.61a.36.36,0,0,0-.11-.25.34.34,0,0,0-.26-.08ZM.9,10.78a6.09,6.09,0,0,0,2.18,1.7,15,15,0,0,0,6.56,1.37c.46,0,.91,0,1.36-.06a8.9,8.9,0,0,0-.39,2.65c0,.2,0,.41,0,.61q-.49,0-1,0a14.4,14.4,0,0,1-6.26-1.29C1.8,15,.9,14,.9,12.88v-2.1Zm18.44,1.79V16a8,8,0,0,1-1.28-.52,1.14,1.14,0,0,1-.66-1.12A1.56,1.56,0,0,1,18,13.05a2.48,2.48,0,0,1,1.31-.48ZM.9,14.67a6.21,6.21,0,0,0,2.18,1.7,15.14,15.14,0,0,0,6.56,1.36c.36,0,.71,0,1.06,0a8.85,8.85,0,0,0,1.05,3.13A16,16,0,0,1,9.64,21a14.39,14.39,0,0,1-6.26-1.3C1.8,18.88.9,17.84.9,16.76V14.67ZM20,16.89a8,8,0,0,1,1.28.53,1.13,1.13,0,0,1,.66,1.12,1.54,1.54,0,0,1-.63,1.27A2.49,2.49,0,0,1,20,20.3ZM.9,18.55a6.21,6.21,0,0,0,2.18,1.7,15,15,0,0,0,6.56,1.36,17.82,17.82,0,0,0,2.47-.18A9.21,9.21,0,0,0,14.74,24a15.72,15.72,0,0,1-5.1.81,14.39,14.39,0,0,1-6.26-1.3C1.8,22.76.9,21.72.9,20.64Z"/></svg>