<svg id="Layer_1" data-name="Layer 1" xmlns="http://www.w3.org/2000/svg" viewBox="0 0 24.64 24.75"><defs><style>.cls-1{fill:#8275dd;}</style></defs><title>Artboard 28</title><path class="cls-1" d="M22.64,1.13a1,1,0,0,0-1,1v2l-.5-.5a12.4,12.4,0,0,0-17.51,0,12.4,12.4,0,0,0,0,17.51,12.4,12.4,0,0,0,17.51,0,12.14,12.14,0,0,0,3.49-7,.94.94,0,0,0-.17-.75,1,1,0,0,0-.67-.4,1,1,0,0,0-.74.19,1,1,0,0,0-.38.65,10.37,10.37,0,0,1-10.27,8.9A10.38,10.38,0,1,1,19.73,5l.5.5h-2a1,1,0,0,0,0,2h4.4a1,1,0,0,0,1-1V2.13A1,1,0,0,0,22.64,1.13Z"/><path class="cls-1" d="M16.8,13.28l-3.42-1.56-.05-5.48a1,1,0,0,0-1-1,1,1,0,0,0-1,1l0,6.1a.93.93,0,0,0,.58.89l4,1.82a1,1,0,0,0,.42.09,1,1,0,0,0,.92-.58A1,1,0,0,0,16.8,13.28Z"/></svg>