<svg id="Layer_1" data-name="Layer 1" xmlns="http://www.w3.org/2000/svg" xmlns:xlink="http://www.w3.org/1999/xlink" viewBox="0 0 92.21 26.44"><defs><style>.cls-1{fill:url(#New_Gradient_Swatch_2);}.cls-2{fill:url(#New_Gradient_Swatch_2-2);}</style><linearGradient id="New_Gradient_Swatch_2" x1="-18.32" y1="-0.08" x2="72.57" y2="36.16" gradientUnits="userSpaceOnUse"><stop offset="0" stop-color="#009dff"/><stop offset="1" stop-color="#8275d5"/></linearGradient><linearGradient id="New_Gradient_Swatch_2-2" x1="-12.58" y1="-14.47" x2="78.31" y2="21.76" xlink:href="#New_Gradient_Swatch_2"/></defs><title>Artboard 16</title><path class="cls-1" d="M25.83,0H21.12L19.9,5.75H13.36L14.58,0H9.86L8.65,5.75H2.22v4.47H7.68L6.43,16.08H0v4.46H5.47l-1.25,5.9H8.93l1.25-5.9h6.54l-1.25,5.9h4.72l1.25-5.9H26.9V16.08H22.4l1.25-5.86h5.47V5.75h-4.5ZM17.69,16.08H11.15l1.25-5.86h6.54Z"/><path class="cls-2" d="M90.72,15.78a6.12,6.12,0,0,0-4-2.13c3.25-1,4.87-2.83,4.87-5.63a5.92,5.92,0,0,0-2.2-4.73C88,2.05,83.87,1.43,81.32,1.43H74.05l-4.7,19.13L65.59,1.43h-5.7L55.31,20.74,49.22,1.43H43.85v0h-3l-8.82,25h5.32L39,21.76H46.6L45.32,17.9h-5L44.87,4.48l7.35,22h6.55L62.47,9,66.3,26.44h6.55L78.44,5.3h2.34c1.12,0,3.51-.06,4.74.86a2.82,2.82,0,0,1,1,2.4,3,3,0,0,1-1,2.38c-.65.56-3.62.84-4.74.84l-.33.12-1,3.75h1.78c1.12,0,4.11.31,4.8.94a3.24,3.24,0,0,1,1,2.54,3.23,3.23,0,0,1-1,2.53c-.68.6-3.66.91-4.78.91H77.73l-.88,3.87H84a9.21,9.21,0,0,0,6-1.81,5.82,5.82,0,0,0,2.23-4.75A6.2,6.2,0,0,0,90.72,15.78Z"/></svg>