<?xml version="1.0" encoding="UTF-8" standalone="no"?>
<svg
   aria-hidden="true"
   focusable="false"
   data-prefix="fas"
   data-icon="info-circle"
   class="svg-inline--fa fa-info-circle fa-w-16"
   role="img"
   viewBox="0 0 512 512"
   version="1.1"
   id="svg51"
   sodipodi:docname="info-circle-solid-white.svg"
   inkscape:version="1.1 (c4e8f9e, 2021-05-24)"
   xmlns:inkscape="http://www.inkscape.org/namespaces/inkscape"
   xmlns:sodipodi="http://sodipodi.sourceforge.net/DTD/sodipodi-0.dtd"
   xmlns="http://www.w3.org/2000/svg"
   xmlns:svg="http://www.w3.org/2000/svg">
  <defs
     id="defs55" />
  <sodipodi:namedview
     id="namedview53"
     pagecolor="#ffffff"
     bordercolor="#666666"
     borderopacity="1.0"
     inkscape:pageshadow="2"
     inkscape:pageopacity="0.0"
     inkscape:pagecheckerboard="0"
     showgrid="false"
     inkscape:zoom="1.6464844"
     inkscape:cx="256"
     inkscape:cy="256"
     inkscape:window-width="1312"
     inkscape:window-height="1027"
     inkscape:window-x="2816"
     inkscape:window-y="137"
     inkscape:window-maximized="0"
     inkscape:current-layer="svg51" />
  <path
     fill="blue"
     d="M256 8C119.043 8 8 119.083 8 256c0 136.997 111.043 248 248 248s248-111.003 248-248C504 119.083 392.957 8 256 8zm0 110c23.196 0 42 18.804 42 42s-18.804 42-42 42-42-18.804-42-42 18.804-42 42-42zm56 254c0 6.627-5.373 12-12 12h-88c-6.627 0-12-5.373-12-12v-24c0-6.627 5.373-12 12-12h12v-64h-12c-6.627 0-12-5.373-12-12v-24c0-6.627 5.373-12 12-12h64c6.627 0 12 5.373 12 12v100h12c6.627 0 12 5.373 12 12v24z"
     id="path49" />
  <path
     style="fill:#ffffff;stroke-width:0.607355"
     d="m 247.49703,200.79048 c -14.61291,-3.34805 -26.58721,-14.12514 -31.05541,-27.95045 -3.37083,-10.42985 -2.43584,-21.74485 2.63875,-31.93374 2.86648,-5.75541 11.37695,-14.54112 16.87693,-17.42277 7.32434,-3.83751 11.27312,-4.75024 20.34638,-4.7029 7.22122,0.0377 8.72869,0.23113 12.63738,1.62167 6.85056,2.43713 12.17355,5.92704 17.2163,11.28752 18.11348,19.25473 14.15871,49.31768 -8.38234,63.7201 -5.78411,3.69571 -12.62582,5.7186 -20.25663,5.98929 -4.03898,0.14327 -7.71337,-0.0799 -10.02136,-0.60872 z"
     id="path250" />
  <path
     style="fill:#ffffff;stroke-width:0.607355"
     d="m 208.62633,383.11536 c -3.07809,-1.07596 -5.85782,-3.56312 -7.08642,-6.34057 -1.07358,-2.42699 -1.15693,-3.91842 -0.9907,-17.72537 0.17809,-14.79122 0.2091,-15.11564 1.64513,-17.20971 0.80499,-1.17387 2.42356,-2.79293 3.59681,-3.59792 1.94521,-1.33463 2.84657,-1.48115 10.22796,-1.66251 l 8.09477,-0.1989 v -32.39936 -32.39936 l -8.09477,-0.1989 c -7.38139,-0.18136 -8.28275,-0.32788 -10.22796,-1.66251 -1.17325,-0.80499 -2.79182,-2.42405 -3.59681,-3.59792 -1.43603,-2.09407 -1.46704,-2.41849 -1.64513,-17.20971 -0.16623,-13.80694 -0.0829,-15.29838 0.9907,-17.72537 1.35638,-3.06632 4.22821,-5.45634 7.69378,-6.40299 3.39093,-0.92625 66.50375,-0.91696 69.84378,0.0103 3.16894,0.87974 7.24825,4.95905 8.12799,8.12799 0.46862,1.68803 0.67492,17.81417 0.67727,52.94263 l 0.004,50.51522 8.09476,0.1989 c 7.3814,0.18136 8.28276,0.32788 10.22796,1.66251 1.17326,0.80499 2.79182,2.42405 3.59682,3.59792 1.43602,2.09407 1.46703,2.41849 1.64512,17.20971 0.16624,13.80695 0.0829,15.29838 -0.99069,17.72537 -1.26664,2.86344 -4.04455,5.2825 -7.3289,6.38214 -2.77333,0.92855 -91.84163,0.88936 -94.50486,-0.0415 z"
     id="path326" />
</svg>
