<?xml version="1.0" encoding="utf-8"?>
<!-- Generator: Adobe Illustrator 23.0.1, SVG Export Plug-In . SVG Version: 6.00 Build 0)  -->
<svg version="1.1" id="Layer_1" xmlns="http://www.w3.org/2000/svg" xmlns:xlink="http://www.w3.org/1999/xlink" x="0px" y="0px"
	 viewBox="0 0 37 35" style="enable-background:new 0 0 37 35;" xml:space="preserve">
<style type="text/css">
	.st0{fill:#FFFFFF;}
	.st1{fill:#3359CC;}
</style>
<rect x="6.5" y="6.7" class="st0" width="23.6" height="19.5"/>
<title>Artboard 55</title>
<path class="st0" d="M0,0"/>
<path class="st1" d="M20,0h-3C7.6,0,0,7.6,0,17v0.5c0,9.4,7.6,17,17,17h3c9.4,0,17-7.6,17-17V17C37,7.6,29.4,0,20,0z M25.6,18h-6.1
	v6.1c0,0.4-0.3,0.8-0.8,0.8c-0.4,0-0.8-0.3-0.8-0.8V18h-6.1c-0.4,0-0.8-0.3-0.8-0.8c0-0.4,0.3-0.8,0.8-0.8h6.1v-6.1
	c0-0.4,0.3-0.8,0.8-0.8c0.4,0,0.8,0.3,0.8,0.8v6.1h6.1c0.4,0,0.8,0.3,0.8,0.8S26,18,25.6,18z"/>
</svg>
