<?xml version="1.0" encoding="utf-8"?>
<!-- Generator: Adobe Illustrator 23.0.1, SVG Export Plug-In . SVG Version: 6.00 Build 0)  -->
<svg version="1.1" id="Layer_1" xmlns="http://www.w3.org/2000/svg" xmlns:xlink="http://www.w3.org/1999/xlink" x="0px" y="0px"
	 viewBox="0 0 37.9 37.9" style="enable-background:new 0 0 37.9 37.9;" xml:space="preserve">
<style type="text/css">
	.st0{fill:#FFFFFF;}
	.st1{fill:#D40000;}
	.st2{fill:none;stroke:#AEAEAE;stroke-linecap:round;stroke-linejoin:round;stroke-miterlimit:10;}
	.st3{fill:#8275DB;}
	.st4{fill:#0E32D5;}
</style>
<circle class="st3" cx="18.95" cy="18.95" r="18.95"/>
<g>
	<path class="st0" d="M28.23,9.01c-0.34-0.34-0.8-0.53-1.28-0.53l0,0h-1.09V8.3c0-0.45-0.24-0.87-0.64-1.1
		c-0.39-0.23-0.88-0.23-1.27,0c-0.39,0.23-0.64,0.65-0.64,1.1v0.18h-3.09V8.3c0-0.45-0.24-0.87-0.64-1.1
		c-0.39-0.23-0.88-0.23-1.27,0c-0.39,0.23-0.64,0.65-0.64,1.1v0.18h-3.09V8.3c0-0.45-0.24-0.87-0.64-1.1
		c-0.39-0.23-0.88-0.23-1.27,0c-0.39,0.23-0.64,0.65-0.64,1.1v0.18h-1.09c-0.48,0-0.94,0.19-1.28,0.53
		c-0.34,0.34-0.53,0.8-0.53,1.28v10.8v0.1v0.36v0.8v4.65c0,0.48,0.19,0.94,0.53,1.28c0.34,0.34,0.8,0.53,1.28,0.53h15.98
		c0.48,0,0.94-0.19,1.28-0.53c0.34-0.34,0.53-0.8,0.53-1.28V10.3C28.76,9.81,28.57,9.35,28.23,9.01z M24.04,8.3
		c0-0.3,0.24-0.54,0.54-0.54c0.3,0,0.54,0.24,0.54,0.54v1.45c0,0.3-0.24,0.54-0.54,0.54c-0.3,0-0.54-0.24-0.54-0.54V8.3z M18.41,8.3
		c0-0.3,0.24-0.54,0.54-0.54c0.3,0,0.54,0.24,0.54,0.54v1.45c0,0.3-0.24,0.54-0.54,0.54c-0.3,0-0.54-0.24-0.54-0.54V8.3z M12.78,8.3
		c0-0.3,0.24-0.54,0.54-0.54c0.3,0,0.54,0.24,0.54,0.54v1.45c0,0.3-0.24,0.54-0.54,0.54c-0.3,0-0.54-0.24-0.54-0.54V8.3z M9.87,10.3
		c0-0.29,0.11-0.57,0.32-0.77c0.2-0.2,0.48-0.32,0.77-0.32h1.09v0.54c0,0.45,0.24,0.87,0.64,1.1c0.39,0.23,0.88,0.23,1.27,0
		c0.39-0.23,0.64-0.65,0.64-1.1V9.21h3.09v0.54c0,0.45,0.24,0.87,0.64,1.1c0.39,0.23,0.88,0.23,1.27,0c0.39-0.23,0.64-0.65,0.64-1.1
		V9.21h3.09v0.54c0,0.45,0.24,0.87,0.64,1.1c0.39,0.23,0.88,0.23,1.27,0c0.39-0.23,0.64-0.65,0.64-1.1V9.21h1.09
		c0.29,0,0.57,0.11,0.77,0.32c0.2,0.2,0.32,0.48,0.32,0.77v2.54H9.87V10.3z M9.87,22.36v-0.8v-0.36v-0.1v-7.53h18.16v8.72
		c0,0.1-0.04,0.19-0.11,0.26s-0.16,0.11-0.26,0.11h-1.82c-0.48,0-0.94,0.19-1.28,0.53c-0.34,0.34-0.53,0.8-0.53,1.28v1.82
		c0,0.1-0.04,0.19-0.11,0.26s-0.16,0.11-0.26,0.11l-12.71-0.02c-0.29,0-0.57-0.11-0.77-0.32c-0.2-0.2-0.32-0.48-0.32-0.77V22.36z
		 M27.52,23.37l-2.76,2.76v-1.67c0-0.29,0.11-0.57,0.32-0.77c0.2-0.2,0.48-0.32,0.77-0.32H27.52z M28.03,27.01
		c0,0.29-0.11,0.57-0.32,0.77s-0.48,0.32-0.77,0.32h0H10.96c-0.29,0-0.58-0.12-0.78-0.33c-0.21-0.21-0.32-0.5-0.31-0.79
		c0.31,0.24,0.7,0.37,1.09,0.36l12.83,0.03c0.48,0,0.95-0.19,1.29-0.53l2.95-2.95V27.01z"/>
	<path class="st0" d="M16.87,20.57l-0.4,2.35c-0.02,0.14,0.03,0.29,0.15,0.37c0.07,0.05,0.15,0.07,0.22,0.07
		c0.06,0,0.12-0.01,0.18-0.04l2.11-1.11l2.11,1.11c0.13,0.07,0.28,0.06,0.4-0.03c0.12-0.09,0.18-0.23,0.15-0.37l-0.4-2.35l1.71-1.66
		c0.1-0.1,0.14-0.25,0.1-0.39c-0.05-0.14-0.16-0.24-0.31-0.26l-2.36-0.34l-1.05-2.14c-0.06-0.13-0.2-0.21-0.34-0.21
		c-0.15,0-0.28,0.08-0.34,0.21l-1.06,2.14l-2.36,0.34c-0.14,0.02-0.26,0.12-0.31,0.26c-0.05,0.14-0.01,0.29,0.1,0.39L16.87,20.57z
		 M18.03,18.62c0.12-0.02,0.23-0.09,0.28-0.2l0.81-1.65l0.81,1.65c0.06,0.11,0.16,0.19,0.29,0.21l1.82,0.26l-1.32,1.28
		c-0.09,0.09-0.13,0.21-0.11,0.34l0.31,1.81l-1.62-0.85c-0.06-0.03-0.12-0.04-0.18-0.04c-0.06,0-0.12,0.01-0.18,0.04l-1.62,0.85
		l0.31-1.81l0,0c0.02-0.12-0.02-0.25-0.11-0.33l-1.31-1.28L18.03,18.62z"/>
</g>
</svg>
