<?xml version="1.0" encoding="utf-8"?>
<!-- Generator: Adobe Illustrator 23.0.1, SVG Export Plug-In . SVG Version: 6.00 Build 0)  -->
<svg version="1.1" id="Layer_1" xmlns="http://www.w3.org/2000/svg" xmlns:xlink="http://www.w3.org/1999/xlink" x="0px" y="0px"
	 viewBox="0 0 37.9 37.9" style="enable-background:new 0 0 37.9 37.9;" xml:space="preserve">
<style type="text/css">
	.st0{fill:#FFFFFF;}
	.st1{fill:#D40000;}
	.st2{fill:none;stroke:#AEAEAE;stroke-linecap:round;stroke-linejoin:round;stroke-miterlimit:10;}
	.st3{fill:#8275DB;}
	.st4{fill:#0E32D5;}
</style>
<circle class="st4" cx="18.95" cy="18.95" r="18.95"/>
<path class="st0" d="M29.33,11.94c-0.43-2.09-1-3.06-1.79-3.06c-0.51,0-0.92,0.4-1.27,1.23c-1.45,1.04-3.05,1.84-4.75,2.4
	c-1.75,0.57-3.56,0.85-5.4,0.85h-2.06c-2.83,0-5.13,2.3-5.13,5.13c0,1.37,0.53,2.66,1.5,3.63c0.38,0.39,0.83,0.68,1.3,0.92
	l0.84,5.56c0.04,0.24,0.24,0.41,0.48,0.41h2.32c0.14,0,0.27-0.06,0.37-0.17c0.09-0.11,0.13-0.25,0.11-0.39l-0.73-4.83h1
	c1.76,0,3.51,0.33,5.34,1c1.52,0.56,3.08,1.34,4.91,2.47c0.33,0.68,0.71,1.02,1.17,1.02c0.8,0,1.37-0.97,1.79-3.06
	c0.36-1.75,0.56-4.08,0.56-6.56C29.88,16.03,29.68,13.7,29.33,11.94z M26.68,24.86c-0.21-1.02-0.35-2.27-0.44-3.61
	c1.28-0.26,2.26-1.4,2.26-2.76s-0.97-2.5-2.26-2.76c0.09-1.34,0.23-2.58,0.44-3.61c0.36-1.77,0.75-2.2,0.85-2.28
	c0.09,0.08,0.49,0.51,0.85,2.28c0.35,1.69,0.54,3.95,0.54,6.36c0,2.41-0.19,4.67-0.54,6.36c-0.36,1.77-0.75,2.2-0.85,2.28
	C27.44,27.06,27.05,26.63,26.68,24.86z M14.06,22.67c-0.56,0-1.1-0.11-1.6-0.32c-0.02-0.01-0.04-0.02-0.06-0.03
	c-0.47-0.21-0.91-0.5-1.29-0.87c-0.79-0.78-1.22-1.83-1.22-2.94c0-2.3,1.87-4.17,4.17-4.17h2.04v8.33H14.06z M14.06,23.63h0.07
	l0.67,4.42h-1.34l-0.7-4.61C13.18,23.55,13.61,23.63,14.06,23.63z M17.07,14.3c1.61-0.08,3.21-0.36,4.75-0.86
	c1.41-0.46,2.75-1.09,4.01-1.87c-0.03,0.13-0.06,0.24-0.09,0.38c-0.36,1.76-0.56,4.09-0.56,6.56s0.2,4.8,0.56,6.56
	c0.05,0.22,0.09,0.43,0.14,0.63c-2.4-1.39-5.4-2.74-8.82-2.97V14.3z M26.15,18.5c0-0.6,0.01-1.19,0.04-1.77
	c0.78,0.22,1.35,0.93,1.35,1.77c0,0.85-0.58,1.55-1.35,1.77C26.16,19.69,26.15,19.1,26.15,18.5z"/>
</svg>
