<?xml version="1.0" encoding="utf-8"?>
<!-- Generator: Adobe Illustrator 23.0.1, SVG Export Plug-In . SVG Version: 6.00 Build 0)  -->
<svg version="1.1" id="Layer_1" xmlns="http://www.w3.org/2000/svg" xmlns:xlink="http://www.w3.org/1999/xlink" x="0px" y="0px"
	 viewBox="0 0 53.56 53.56" style="enable-background:new 0 0 53.56 53.56;" xml:space="preserve">
<style type="text/css">
	.st0{fill:#FFFFFF;}
	.st1{fill:#D40000;}
	.st2{fill:none;stroke:#AEAEAE;stroke-linecap:round;stroke-linejoin:round;stroke-miterlimit:10;}
	.st3{fill:#8275DB;}
	.st4{fill:#0E32D5;}
	.st5{fill:#D50000;}
	.st6{fill:#A09AEA;}
</style>
<g>
	<g>
		<path d="M18.01,38.46h6.51c-0.47,1.8-2.31,2.88-4.11,2.41C19.24,40.55,18.32,39.63,18.01,38.46z"/>
	</g>
	<g>
		<path d="M24.67,19.14c-0.8-0.4-1.67-0.66-2.57-0.76V16.7h-1.68v1.68c-3.83,0.41-6.73,3.55-6.73,7.27v8.95h-0.84v1.63h16.83V34.6
			h-0.84v-8.47l-0.06-0.7c-0.11-1.23-0.44-2.44-1.09-3.49c-0.67-1.09-1.6-2.02-2.73-2.7L24.67,19.14z"/>
	</g>
	<g>
		<g>
			<circle class="st6" cx="34" cy="21.31" r="10.72"/>
		</g>
	</g>
	<path class="st0" d="M34.97,21.61l4.07-4.07c0.2-0.2,0.2-0.51,0-0.71s-0.51-0.2-0.71,0l-4.07,4.07l-4.07-4.07
		c-0.2-0.2-0.51-0.2-0.71,0s-0.2,0.51,0,0.71l4.07,4.07l-4.07,4.07c-0.2,0.2-0.2,0.51,0,0.71c0.1,0.1,0.23,0.15,0.35,0.15
		s0.26-0.05,0.35-0.15l4.07-4.07l4.07,4.07c0.1,0.1,0.23,0.15,0.35,0.15s0.26-0.05,0.35-0.15c0.2-0.2,0.2-0.51,0-0.71L34.97,21.61z"
		/>
</g>
</svg>
