<?xml version="1.0" encoding="utf-8"?>
<!-- Generator: Adobe Illustrator 23.0.1, SVG Export Plug-In . SVG Version: 6.00 Build 0)  -->
<svg version="1.1" id="Layer_1" xmlns="http://www.w3.org/2000/svg" xmlns:xlink="http://www.w3.org/1999/xlink" x="0px" y="0px"
	 viewBox="0 0 16.1 16.1" style="enable-background:new 0 0 16.1 16.1;" xml:space="preserve">
<style type="text/css">
	.st0{fill:#FFFFFF;}
	.st1{fill:#D40000;}
	.st2{fill:#AEAEAE;}
	.st3{fill:#8275DB;}
	.st4{fill:#0E32D5;}
	.st5{fill:#D50000;}
	.st6{fill:#A09AEA;}
</style>
<path class="st2" d="M8.76,8.05l7.2-7.2c0.2-0.2,0.2-0.51,0-0.71c-0.2-0.2-0.51-0.2-0.71,0l-7.2,7.2l-7.2-7.2
	c-0.2-0.2-0.51-0.2-0.71,0s-0.2,0.51,0,0.71l7.2,7.2l-7.2,7.2c-0.2,0.2-0.2,0.51,0,0.71c0.1,0.1,0.23,0.15,0.35,0.15
	s0.26-0.05,0.35-0.15l7.2-7.2l7.2,7.2c0.1,0.1,0.23,0.15,0.35,0.15s0.26-0.05,0.35-0.15c0.2-0.2,0.2-0.51,0-0.71L8.76,8.05z"/>
</svg>
