<svg id="Layer_1" data-name="Layer 1" xmlns="http://www.w3.org/2000/svg" viewBox="0 0 28.58 25.34"><defs><style>.cls-1{fill:#8275dd;}</style></defs><title>Artboard 29</title><path class="cls-1" d="M3.34,0a.64.64,0,0,0-.56.62V2.78H.56A.64.64,0,0,0,0,3.4V24.72a.64.64,0,0,0,.62.62H16.38a.64.64,0,0,0,.62-.62V22.56h2.16a.65.65,0,0,0,.62-.62V.62A.64.64,0,0,0,19.16,0ZM4,1.24H18.54V21.32H4V1.24ZM1.24,4H2.78V21.94a.65.65,0,0,0,.62.62H15.76V24.1H1.24Zm5.5,0a.64.64,0,0,0-.59.64.64.64,0,0,0,.65.59H9A.62.62,0,1,0,9,4Zm4.95,0a.62.62,0,0,0,.05,1.23h4.64a.62.62,0,1,0,0-1.23ZM6.74,6.49a.65.65,0,0,0-.59.65.66.66,0,0,0,.65.59H9a.65.65,0,0,0,.63-.62A.64.64,0,0,0,9,6.49Zm4.95,0a.63.63,0,0,0-.59.65.64.64,0,0,0,.64.59h4.64A.66.66,0,0,0,17,7.11a.65.65,0,0,0-.63-.62ZM6.74,11.74A.62.62,0,0,0,6.8,13H9a.62.62,0,1,0,0-1.24Zm4.94,0A.62.62,0,0,0,11.74,13h4.64a.62.62,0,0,0,0-1.24ZM6.74,14.22a.62.62,0,1,0,.06,1.23H9a.62.62,0,1,0,0-1.23Zm4.94,0a.62.62,0,0,0,.06,1.23h4.64a.62.62,0,1,0,0-1.23Z"/><path class="cls-1" d="M28.05,7.16a2.77,2.77,0,0,0-1.41-.62,2.84,2.84,0,0,0-1.52.12,1.39,1.39,0,0,0-.91,1l-2,12a.37.37,0,0,0,0,.18l1.08,4.22a.44.44,0,0,0,.79.14l2.41-3.64a.51.51,0,0,0,.07-.17c.68-4,1.35-8,2-12A1.42,1.42,0,0,0,28.05,7.16Zm-4.2,15.76-.78-3.08,2.55.45Zm1.95-3.5L23.18,19l1.36-7.86,2.62.46Zm1.5-8.73-2.6-.45.14-.87,2.62.45Zm.42-2.39L27.61,9,25,8.5l.11-.66c0-.14.13-.26.38-.36a2,2,0,0,1,1.05-.06h0a2,2,0,0,1,1,.41C27.7,8,27.75,8.15,27.72,8.3Z"/></svg>