<svg id="Layer_1" data-name="Layer 1" xmlns="http://www.w3.org/2000/svg" viewBox="0 0 20.24 29.64"><defs><style>.cls-1{fill:#8275dd;stroke:#8275dd;stroke-miterlimit:10;stroke-width:0.5px;}</style></defs><title>Artboard 26</title><path class="cls-1" d="M13.88,2.13H12.42a2.35,2.35,0,0,0-4.6,0H6.36a.47.47,0,0,0-.47.47v.47H.72a.47.47,0,0,0-.47.47V28.92a.47.47,0,0,0,.47.47h18.8a.47.47,0,0,0,.47-.47V3.54a.47.47,0,0,0-.47-.47H14.35V2.6a.47.47,0,0,0-.47-.47Zm-7,.94H8.24a.47.47,0,0,0,.47-.47,1.41,1.41,0,0,1,2.82,0,.47.47,0,0,0,.47.47h1.41V4H6.83ZM19.05,4V28.45H1.19V4h4.7v.47A.47.47,0,0,0,6.36,5h7.52a.47.47,0,0,0,.47-.47V4Z"/><path class="cls-1" d="M3.94,10.19a.47.47,0,0,0,.47.47H15.69a.47.47,0,0,0,.47-.47.46.46,0,0,0-.47-.47H4.41A.46.46,0,0,0,3.94,10.19Z"/><path class="cls-1" d="M15.69,14.2H4.41a.47.47,0,0,0-.47.47.46.46,0,0,0,.47.47H15.69a.46.46,0,0,0,.47-.47.47.47,0,0,0-.47-.47Z"/><path class="cls-1" d="M15.69,18.69H4.41a.47.47,0,1,0,0,.94H15.69a.47.47,0,0,0,0-.94Z"/><path class="cls-1" d="M15.69,23.17H4.41a.47.47,0,0,0-.47.47.46.46,0,0,0,.47.47H15.69a.46.46,0,0,0,.47-.47.47.47,0,0,0-.47-.47Z"/></svg>