<?xml version="1.0" encoding="utf-8"?>
<!-- Generator: Adobe Illustrator 23.0.1, SVG Export Plug-In . SVG Version: 6.00 Build 0)  -->
<svg version="1.1" id="Layer_1" xmlns="http://www.w3.org/2000/svg" xmlns:xlink="http://www.w3.org/1999/xlink" x="0px" y="0px"
	 viewBox="0 0 28.7 26" style="enable-background:new 0 0 28.7 26;" xml:space="preserve">
<style type="text/css">
	.st0{fill:#8275D5;}
</style>
<title>Artboard 32</title>
<path class="st0" d="M27.7,15.1c-0.6-0.9-1.4-1.7-2.4-2.2c2.2-1.5,2.8-4.5,1.4-6.7s-4.5-2.8-6.7-1.4c-0.5-3.1-3.3-5.2-6.4-4.8
	c-2.5,0.4-4.4,2.3-4.8,4.8C6.5,3.4,3.5,4.1,2.1,6.3c-0.7,1.1-0.9,2.5-0.6,3.8c0.3,1.2,1,2.2,2,2.8C1.4,14,0,16.2,0,18.6v5.6
	c0,1,0.8,1.8,1.8,1.8c0,0,0,0,0,0h25.1c0.5,0,0.9-0.2,1.3-0.5c0.3-0.3,0.5-0.8,0.5-1.3v-5.6C28.7,17.4,28.4,16.1,27.7,15.1z
	 M21,14.1c0.7-0.2,1.4-0.3,2.1-0.2c2.4,0.3,4.1,2.4,4.1,4.8v5.6c0,0.1-0.1,0.3-0.3,0.3h-5.3c0-0.1,0-0.2,0-0.3v-7.1
	C21.6,16,21.4,15,21,14.1L21,14.1z M7.1,24.5H1.8c-0.1,0-0.3-0.1-0.3-0.3l0,0v-5.6c0-2.4,1.7-4.5,4.1-4.8c0.2,0,0.3,0,0.5,0
	c0.5,0,1.1,0.1,1.6,0.3c-0.4,0.9-0.7,2-0.7,3v7.1C7.1,24.3,7.1,24.4,7.1,24.5z M17.4,10.5c0.2-0.1,0.3-0.2,0.5-0.3
	c0.1,0.2,0.1,0.5,0.2,0.7L17.4,10.5z M10.7,10.8c0.1-0.2,0.2-0.4,0.2-0.7c0.2,0.1,0.3,0.2,0.5,0.3C11.1,10.6,10.9,10.7,10.7,10.8
	L10.7,10.8z M17.3,8.6c-1.6,1.6-4.2,1.6-5.8-0.1c-0.7-0.8-1.2-1.8-1.2-2.8c0-2.3,1.8-4.1,4.1-4.2c2.3,0,4.1,1.8,4.2,4.1
	C18.5,6.7,18.1,7.8,17.3,8.6z M7.9,11.8c-1.6,0.9-3.6,0.4-4.5-1.2C3,10.1,2.9,9.5,2.9,8.9c0-1.8,1.5-3.3,3.3-3.3c0,0,0,0,0,0l0,0
	c1.1,0,2,0.5,2.6,1.4C9,7.5,9.2,8,9.5,8.5c0,0.1,0,0.3,0,0.4C9.5,10.1,8.9,11.2,7.9,11.8z M8.6,17.1c0-1.1,0.3-2.1,0.8-3L9.5,14l0,0
	c1-1.7,2.9-2.7,4.9-2.7l0,0c2,0,3.8,1,4.9,2.7l0,0v0.1c0.6,0.9,0.9,1.9,0.9,3v7.1c0,0.1-0.1,0.3-0.3,0.3l0,0h-11
	c-0.1,0-0.3-0.1-0.3-0.3l0,0L8.6,17.1z M22.5,12.2c-0.9,0-1.7-0.4-2.3-1c-0.6-0.6-1-1.5-1-2.3c0-0.1,0-0.3,0-0.4
	C19.5,8,19.7,7.5,19.9,7c0.6-0.9,1.6-1.4,2.6-1.4l0,0c0.9,0,1.7,0.4,2.3,1c1.3,1.3,1.3,3.4,0,4.7C24.2,11.9,23.4,12.2,22.5,12.2z"/>
</svg>
